<svg xmlns="http://www.w3.org/2000/svg" width="107" height="107" viewBox="0 0 107 107">
  <g id="Grupo_156312" data-name="Grupo 156312" transform="translate(-288.668 -4448.437)">
    <path id="Elipse_5845" data-name="Elipse 5845" d="M53.5,0A53.5,53.5,0,1,1,0,53.5,53.5,53.5,0,0,1,53.5,0Z" transform="translate(288.668 4448.437)" fill="#66542f"/>
    <g id="Group_1072818" data-name="Group 1072818" transform="translate(310.668 4450.548)">
      <path id="Path_610388" data-name="Path 610388" d="M235.514,72.862h-2.849a.923.923,0,0,0,0,1.846h2.849a.923.923,0,0,0,0-1.846Z" transform="translate(-203.227 -44.702)" fill="#fff"/>
      <path id="Path_610389" data-name="Path 610389" d="M302.376,72.862H285.992a.923.923,0,1,0,0,1.846h16.384a.923.923,0,0,0,0-1.846Z" transform="translate(-249.993 -44.702)" fill="#fff"/>
      <path id="Path_610390" data-name="Path 610390" d="M235.514,110.254h-2.849a.923.923,0,0,0,0,1.846h2.849a.923.923,0,0,0,0-1.846Z" transform="translate(-203.227 -77.493)" fill="#fff"/>
      <path id="Path_610391" data-name="Path 610391" d="M302.376,110.254H285.992a.923.923,0,1,0,0,1.846h16.384a.923.923,0,0,0,0-1.846Z" transform="translate(-249.993 -77.493)" fill="#fff"/>
      <path id="Path_610392" data-name="Path 610392" d="M235.514,147.647h-2.849a.923.923,0,0,0,0,1.846h2.849a.923.923,0,0,0,0-1.846Z" transform="translate(-203.227 -110.285)" fill="#fff"/>
      <path id="Path_610393" data-name="Path 610393" d="M302.376,147.647H285.992a.923.923,0,1,0,0,1.846h16.384a.923.923,0,0,0,0-1.846Z" transform="translate(-249.993 -110.285)" fill="#fff"/>
      <path id="Path_610394" data-name="Path 610394" d="M235.514,185.04h-2.849a.923.923,0,0,0,0,1.846h2.849a.923.923,0,0,0,0-1.846Z" transform="translate(-203.227 -143.077)" fill="#fff"/>
      <path id="Path_610395" data-name="Path 610395" d="M302.376,185.04H285.992a.923.923,0,1,0,0,1.846h16.384a.923.923,0,0,0,0-1.846Z" transform="translate(-249.993 -143.077)" fill="#fff"/>
      <path id="Path_610396" data-name="Path 610396" d="M285.992,426.017a.923.923,0,1,0,0,1.846h9.373a.923.923,0,0,0,0-1.846Z" transform="translate(-249.993 -354.403)" fill="#fff"/>
      <path id="Path_610397" data-name="Path 610397" d="M62.384,48.417a3.133,3.133,0,0,0-2.551-1.292H58.655V24.588a2.7,2.7,0,0,0-2.7-2.7H51.427a.923.923,0,0,0,0,1.846h4.527a.856.856,0,0,1,.855.855V47.126h-31.8V24.588a.856.856,0,0,1,.855-.855H47.738a.923.923,0,1,0,0-1.846H25.866a2.7,2.7,0,0,0-2.7,2.7v.991H21.15a2.7,2.7,0,0,0-2.7,2.7V41.5h-.1a1.136,1.136,0,0,1-.85-.383L14.034,37.2a2.759,2.759,0,0,0-2.065-.93H2.758A2.761,2.761,0,0,0,0,39.027V49.589a.923.923,0,1,0,1.846,0V39.027a.913.913,0,0,1,.912-.912H11.97a.912.912,0,0,1,.683.307l3.466,3.914a2.984,2.984,0,0,0,2.232,1h.1v3.785H11.969a3.166,3.166,0,0,0-2.892,1.881L1.846,65.3V53.279a.923.923,0,1,0-1.846,0V72.392A7.118,7.118,0,0,0,7.11,79.5H48.756a7.081,7.081,0,0,0,6.783-4.98l3.832-12.2a.923.923,0,0,0-1.761-.553l-3.832,12.2a5.243,5.243,0,0,1-5.022,3.687H7.11a5.27,5.27,0,0,1-5.264-5.264V69.853l8.918-20.1a1.32,1.32,0,0,1,1.205-.784H59.833a1.318,1.318,0,0,1,1.258,1.713l-2.322,7.394a.923.923,0,1,0,1.761.553l2.322-7.394a3.134,3.134,0,0,0-.468-2.82ZM20.3,28.28a.856.856,0,0,1,.855-.855h2.015v19.7H20.3Z" fill="#fff"/>
    </g>
  </g>
</svg>
