<svg xmlns="http://www.w3.org/2000/svg" width="107" height="107" viewBox="0 0 107 107">
  <g id="Grupo_156312" data-name="Grupo 156312" transform="translate(-288.668 -4448)">
    <circle id="Elipse_5845" data-name="Elipse 5845" cx="53.5" cy="53.5" r="53.5" transform="translate(288.668 4448)" fill="#66542f"/>
    <g id="Group_1072819" data-name="Group 1072819" transform="translate(311.668 4444.033)">
      <path id="Path_610398" data-name="Path 610398" d="M40.943,146.2a5.472,5.472,0,1,0-5.472-5.472A5.478,5.478,0,0,0,40.943,146.2Zm0-9.033a3.562,3.562,0,1,1-3.562,3.562A3.566,3.566,0,0,1,40.943,137.17Z" transform="translate(-30.954 -94.84)" fill="#fff"/>
      <path id="Path_610399" data-name="Path 610399" d="M36.426,279.054H45.46a.955.955,0,1,0,0-1.91H36.426a.955.955,0,1,0,0,1.91Z" transform="translate(-30.954 -218.657)" fill="#fff"/>
      <path id="Path_610400" data-name="Path 610400" d="M45.459,312.614H36.426a.955.955,0,0,0,0,1.91H45.46a.955.955,0,1,0,0-1.91Z" transform="translate(-30.954 -249.61)" fill="#fff"/>
      <path id="Path_610401" data-name="Path 610401" d="M58.678,379.027H54.161a.955.955,0,1,0,0,1.91h4.517a.955.955,0,0,0,0-1.91Z" transform="translate(-46.431 -307.566)" fill="#fff"/>
      <path id="Path_610402" data-name="Path 610402" d="M182.826,135.26a5.472,5.472,0,1,0,5.472,5.472A5.478,5.478,0,0,0,182.826,135.26Zm0,9.033a3.562,3.562,0,1,1,3.562-3.562A3.566,3.566,0,0,1,182.826,144.293Z" transform="translate(-154.77 -94.84)" fill="#fff"/>
      <path id="Path_610403" data-name="Path 610403" d="M187.342,277.144h-9.033a.955.955,0,1,0,0,1.91h9.033a.955.955,0,0,0,0-1.91Z" transform="translate(-154.77 -218.657)" fill="#fff"/>
      <path id="Path_610404" data-name="Path 610404" d="M188.3,313.569a.955.955,0,0,0-.955-.955h-9.033a.955.955,0,1,0,0,1.91h9.033A.955.955,0,0,0,188.3,313.569Z" transform="translate(-154.77 -249.61)" fill="#fff"/>
      <path id="Path_610405" data-name="Path 610405" d="M196.044,379.027a.955.955,0,0,0,0,1.91h4.517a.955.955,0,0,0,0-1.91Z" transform="translate(-170.247 -307.566)" fill="#fff"/>
      <path id="Path_610406" data-name="Path 610406" d="M65.182,80.748,58.893,45.077a.955.955,0,0,0-1.881.332l5.347,30.328L46.447,78.543,38.881,35.628l15.911-2.806,1.5,8.487a.955.955,0,1,0,1.881-.332l-2.4-13.607a.954.954,0,0,0-1.106-.775L38.008,29.532a.955.955,0,0,0-.919-.693H11.528a.955.955,0,0,0,0,1.91h6.539v2.335H1.91V30.749H7.365a.955.955,0,0,0,0-1.91H.955A.955.955,0,0,0,0,29.794V84a.955.955,0,0,0,.955.955H37.089A.955.955,0,0,0,38.044,84V71.387a.955.955,0,1,0-1.91,0v7.183H19.977V34.995H36.134v32.23a.955.955,0,1,0,1.91,0V41.885l7.464,42.332a.961.961,0,0,0,1.106.775l17.793-3.138A.955.955,0,0,0,65.182,80.748Zm-11.127-52.1.405,2.3L38.549,33.747l-.405-2.3ZM18.067,34.995V78.571H1.91V34.995ZM1.91,80.481H18.067V83.04H1.91ZM36.134,83.04H19.977V80.481H36.134ZM19.977,33.085V30.749H36.085c0,.03.006.06.011.09l.038.213v2.033H19.977Zm27.247,49.86-.445-2.521L62.69,77.618l.444,2.521Z" transform="translate(0 0)" fill="#fff"/>
      <path id="Path_610407" data-name="Path 610407" d="M346.052,138.708a5.5,5.5,0,0,0,4.438-6.339h0a5.472,5.472,0,1,0-4.438,6.339Zm-4.458-4.77a3.562,3.562,0,1,1,4.126,2.889A3.578,3.578,0,0,1,341.594,133.938Z" transform="translate(-296.373 -88.362)" fill="#fff"/>
      <path id="Path_610408" data-name="Path 610408" d="M359.85,265.491l8.9-1.569a.955.955,0,0,0-.332-1.881l-8.9,1.569a.959.959,0,0,0-.775,1.106A.9.9,0,0,0,359.85,265.491Z" transform="translate(-313.051 -205.464)" fill="#fff"/>
      <path id="Path_610409" data-name="Path 610409" d="M375.67,297.748a.956.956,0,0,0-1.106-.775l-8.9,1.569a.955.955,0,0,0,.332,1.881l8.9-1.569A.955.955,0,0,0,375.67,297.748Z" transform="translate(-318.415 -235.948)" fill="#fff"/>
      <path id="Path_610410" data-name="Path 610410" d="M399.114,365.456l-4.448.784a.955.955,0,0,0,.332,1.881l4.448-.784a.955.955,0,0,0-.332-1.881Z" transform="translate(-343.722 -295.711)" fill="#fff"/>
    </g>
  </g>
</svg>
