<svg xmlns="http://www.w3.org/2000/svg" width="107" height="107" viewBox="0 0 107 107">
  <g id="Grupo_156312" data-name="Grupo 156312" transform="translate(-288.668 -4448)">
    <circle id="Elipse_5845" data-name="Elipse 5845" cx="53.5" cy="53.5" r="53.5" transform="translate(288.668 4448)" fill="#66542f"/>
    <g id="Group_1072820" data-name="Group 1072820" transform="translate(296.668 4454.625)">
      <path id="Path_610411" data-name="Path 610411" d="M224.985,65.658h13.8a.985.985,0,1,0,0-1.971h-13.8a.985.985,0,1,0,0,1.971Z" transform="translate(-182.379 -42.087)" fill="#fff"/>
      <path id="Path_610412" data-name="Path 610412" d="M242.723,95.687H224.985a.985.985,0,1,0,0,1.971h17.738a.985.985,0,1,0,0-1.971Z" transform="translate(-182.379 -70.146)" fill="#fff"/>
      <path id="Path_610413" data-name="Path 610413" d="M242.723,127.687H224.985a.985.985,0,1,0,0,1.971h17.738a.985.985,0,1,0,0-1.971Z" transform="translate(-182.379 -98.204)" fill="#fff"/>
      <path id="Path_610414" data-name="Path 610414" d="M242.723,159.687H224.985a.985.985,0,0,0,0,1.971h17.738a.985.985,0,0,0,0-1.971Z" transform="translate(-182.379 -126.262)" fill="#fff"/>
      <path id="Path_610415" data-name="Path 610415" d="M74.731,39.535h0l-7.489-5.617V22.585a.986.986,0,0,0-.289-.7l-5.912-5.912a.985.985,0,0,0-.7-.288H24.869a.985.985,0,0,0-.985.985V33.917l-7.489,5.617h0a.983.983,0,0,0-.395.787v33.5a.985.985,0,0,0,.985.985H74.14a.985.985,0,0,0,.985-.985v-33.5a.983.983,0,0,0-.395-.787Zm-3.547-.2H67.242V36.381ZM61.33,19.051,63.878,21.6H61.33Zm-23.65-1.394H59.359v4.927a.985.985,0,0,0,.985.985h4.927V39.337H37.679ZM33.738,39.337V17.658h1.971V39.337Zm-3.942,0V17.658h1.971V39.337ZM27.825,17.658V39.337H25.854V17.658ZM23.883,39.337H19.942l3.942-2.956Zm49.271,33.5H17.971V41.308H73.155Z" fill="#fff"/>
      <path id="Path_610416" data-name="Path 610416" d="M185.738,255.687h-13.8a3.942,3.942,0,1,0,0,7.883h13.8a3.942,3.942,0,1,0,0-7.883Zm0,5.913h-13.8a1.971,1.971,0,0,1,0-3.942h13.8a1.971,1.971,0,0,1,0,3.942Z" transform="translate(-133.277 -210.437)" fill="#fff"/>
    </g>
  </g>
</svg>
