<svg xmlns="http://www.w3.org/2000/svg" width="400" height="223" viewBox="0 0 400 223">
  <g id="Group_1073075" data-name="Group 1073075" transform="translate(2753 10326)">
    <path id="Path_611043" data-name="Path 611043" d="M0,0H400V223H0Z" transform="translate(-2753 -10326)" fill="#fff"/>
    <path id="Path_611044" data-name="Path 611044" d="M0,0V23.853" transform="translate(-2603.526 -10235.648)" fill="none" stroke="#66542f" stroke-width="3"/>
    <path id="Path_610467" data-name="Path 610467" d="M38,57v44.316H59.481" transform="translate(-2699.316 -10344.343)" fill="none" stroke="#66542f" stroke-miterlimit="10" stroke-width="3"/>
    <path id="Path_610468" data-name="Path 610468" d="M252.983,57.374V101.69H231.5" transform="translate(-2798.451 -10344.534)" fill="none" stroke="#66542f" stroke-miterlimit="10" stroke-width="3"/>
    <path id="Path_611045" data-name="Path 611045" d="M0,0H87.782V30.236H0Z" transform="translate(-2647.417 -10257.838)" fill="#ffd277"/>
    <path id="Path_611046" data-name="Path 611046" d="M0,0H87V17H0Z" transform="translate(-2647 -10216.999)" fill="#ffedc8"/>
    <path id="Path_611047" data-name="Path 611047" d="M0,0H87V18H0Z" transform="translate(-2647 -10195.999)" fill="#ffedc8"/>
    <path id="Path_611048" data-name="Path 611048" d="M0,0H87V17H0Z" transform="translate(-2647 -10173.999)" fill="#ffedc8"/>
    <path id="Path_611049" data-name="Path 611049" d="M0,0H87V18H0Z" transform="translate(-2647 -10152.999)" fill="#ffedc8"/>
    <path id="Path_611050" data-name="Path 611050" d="M0,0H87V17H0Z" transform="translate(-2647 -10130.999)" fill="#ffedc8"/>
    <path id="Path_611051" data-name="Path 611051" d="M0,0V73.852" transform="translate(-2479.655 -10287.343)" fill="none" stroke="#66542f" stroke-width="3"/>
    <path id="Path_611052" data-name="Path 611052" d="M0,0H88V17H0Z" transform="translate(-2523 -10216.999)" fill="#ebddcf"/>
    <path id="Path_611053" data-name="Path 611053" d="M0,0H88V18H0Z" transform="translate(-2523 -10195.999)" fill="#ebddcf"/>
    <path id="Path_611054" data-name="Path 611054" d="M0,0H88V17H0Z" transform="translate(-2523 -10173.999)" fill="#ebddcf"/>
    <path id="Path_611055" data-name="Path 611055" d="M0,0H88V30H0Z" transform="translate(-2523 -10257)" fill="#dec6b0"/>
    <path id="Path_610469" data-name="Path 610469" d="M0,0,9.754,15.118,0,30.236H76.566L91.2,15.118,76.566,0Z" transform="translate(-2679.848 -10315.141)" fill="#ffd277"/>
    <path id="Path_610470" data-name="Path 610470" d="M157,0,171.63,15.118,157,30.236h81.443l14.63-15.118L238.442,0Z" transform="translate(-2760.282 -10315.141)" fill="#dec6b0"/>
    <path id="Path_610471" data-name="Path 610471" d="M324,0l14.63,15.119L324,30.236h81.443l14.63-15.118L405.443,0Z" transform="translate(-2845.84 -10315.141)" fill="#66542f"/>
    <path id="Path_611056" data-name="Path 611056" d="M3.254-1.025h-1.8L1.114,0H.024L1.876-4.977h.95L4.689,0H3.6ZM1.733-1.856H2.977L2.352-3.719Zm5.435-.916A2.684,2.684,0,0,0,6.812-2.8a.724.724,0,0,0-.735.379V0H5.089V-3.7h.933l.027.441a.915.915,0,0,1,.824-.509,1.035,1.035,0,0,1,.308.044ZM9.053-.728A.648.648,0,0,0,9.5-.878a.527.527,0,0,0,.178-.4H10.6A1.267,1.267,0,0,1,10.4-.59,1.353,1.353,0,0,1,9.844-.1,1.728,1.728,0,0,1,9.07.068a1.606,1.606,0,0,1-1.251-.5,2,2,0,0,1-.458-1.393v-.065a1.972,1.972,0,0,1,.455-1.364,1.587,1.587,0,0,1,1.248-.509,1.556,1.556,0,0,1,1.113.395A1.4,1.4,0,0,1,10.6-2.321H9.675A.679.679,0,0,0,9.5-2.79a.593.593,0,0,0-.451-.18.6.6,0,0,0-.521.252,1.458,1.458,0,0,0-.176.816v.1a1.477,1.477,0,0,0,.174.822A.6.6,0,0,0,9.053-.728Zm3.076-2.567a1.233,1.233,0,0,1,.988-.472q1.2,0,1.22,1.4V0h-.988V-2.341a.687.687,0,0,0-.137-.47.586.586,0,0,0-.455-.152.672.672,0,0,0-.629.335V0h-.988V-5.25h.988Zm4,3.295h-.991V-3.7h.991ZM15.075-4.655a.486.486,0,0,1,.149-.366.559.559,0,0,1,.405-.144.56.56,0,0,1,.4.144.484.484,0,0,1,.15.366.485.485,0,0,1-.152.369.561.561,0,0,1-.4.144.561.561,0,0,1-.4-.144A.485.485,0,0,1,15.075-4.655Zm3.247,3.449L19.009-3.7h1.032L18.794,0h-.943L16.6-3.7h1.032Zm1.9-.677a2.193,2.193,0,0,1,.212-.981,1.551,1.551,0,0,1,.61-.667,1.78,1.78,0,0,1,.925-.236,1.684,1.684,0,0,1,1.222.458,1.838,1.838,0,0,1,.528,1.244l.007.253A1.933,1.933,0,0,1,23.25-.446a1.651,1.651,0,0,1-1.275.514A1.66,1.66,0,0,1,20.7-.444a1.967,1.967,0,0,1-.477-1.395Zm.988.07a1.382,1.382,0,0,0,.2.806.654.654,0,0,0,.567.279A.655.655,0,0,0,22.535-1a1.513,1.513,0,0,0,.2-.881,1.369,1.369,0,0,0-.2-.8.656.656,0,0,0-.567-.284.645.645,0,0,0-.561.282A1.538,1.538,0,0,0,21.209-1.813ZM27.615-.728a.648.648,0,0,0,.444-.15.527.527,0,0,0,.178-.4h.926a1.267,1.267,0,0,1-.205.689,1.353,1.353,0,0,1-.552.485,1.728,1.728,0,0,1-.774.173,1.606,1.606,0,0,1-1.251-.5,2,2,0,0,1-.458-1.393v-.065a1.972,1.972,0,0,1,.455-1.364,1.587,1.587,0,0,1,1.248-.509,1.556,1.556,0,0,1,1.113.395,1.4,1.4,0,0,1,.426,1.051h-.926a.679.679,0,0,0-.178-.469.593.593,0,0,0-.451-.18.6.6,0,0,0-.521.252,1.458,1.458,0,0,0-.176.816v.1a1.477,1.477,0,0,0,.174.822A.6.6,0,0,0,27.615-.728Zm3.814.8a1.816,1.816,0,0,1-1.324-.5,1.774,1.774,0,0,1-.511-1.33v-.1a2.234,2.234,0,0,1,.215-1,1.58,1.58,0,0,1,.61-.677,1.712,1.712,0,0,1,.9-.238,1.535,1.535,0,0,1,1.195.479,1.944,1.944,0,0,1,.436,1.357v.4H30.6a.918.918,0,0,0,.289.581.873.873,0,0,0,.61.219,1.066,1.066,0,0,0,.892-.414l.485.543a1.483,1.483,0,0,1-.6.49A1.974,1.974,0,0,1,31.429.068ZM31.316-2.97a.617.617,0,0,0-.477.2,1.031,1.031,0,0,0-.234.57h1.374V-2.28a.735.735,0,0,0-.178-.51A.637.637,0,0,0,31.316-2.97Zm3.1-.728.031.427a1.291,1.291,0,0,1,1.063-.5,1.073,1.073,0,0,1,.875.345,1.611,1.611,0,0,1,.294,1.032V0h-.988V-2.365a.641.641,0,0,0-.137-.456.612.612,0,0,0-.455-.142.68.68,0,0,0-.625.355V0H33.49V-3.7Zm4.194-.909V-3.7h.632v.725h-.632v1.846a.441.441,0,0,0,.079.294.4.4,0,0,0,.3.089,1.575,1.575,0,0,0,.291-.024v.749a2.034,2.034,0,0,1-.6.089.943.943,0,0,1-1.06-1.049V-2.974h-.54V-3.7h.54v-.909Zm3.261,1.835a2.684,2.684,0,0,0-.355-.027.724.724,0,0,0-.735.379V0H39.8V-3.7h.933l.027.441a.915.915,0,0,1,.824-.509,1.035,1.035,0,0,1,.308.044ZM44.292,0a1.1,1.1,0,0,1-.1-.332,1.2,1.2,0,0,1-.933.4,1.313,1.313,0,0,1-.9-.314A1.011,1.011,0,0,1,42-1.039a1.045,1.045,0,0,1,.436-.9,2.15,2.15,0,0,1,1.26-.318h.455v-.212a.609.609,0,0,0-.132-.41.518.518,0,0,0-.415-.154.589.589,0,0,0-.391.12.406.406,0,0,0-.142.328h-.988a.992.992,0,0,1,.2-.595,1.31,1.31,0,0,1,.561-.429,2.043,2.043,0,0,1,.813-.156,1.614,1.614,0,0,1,1.085.344,1.2,1.2,0,0,1,.4.966v1.6a1.768,1.768,0,0,0,.147.8V0Zm-.817-.687a.851.851,0,0,0,.4-.1.64.64,0,0,0,.273-.261v-.636h-.369q-.742,0-.79.513l0,.058a.4.4,0,0,0,.13.3A.5.5,0,0,0,43.475-.687ZM46.944,0h-.991V-5.25h.991Z" transform="translate(-2579.04 -10298.944)" fill="#12263f"/>
    <path id="Path_611057" data-name="Path 611057" d="M3.254-1.025h-1.8L1.114,0H.024L1.876-4.977h.95L4.689,0H3.6ZM1.733-1.856H2.977L2.352-3.719Zm5.435-.916A2.684,2.684,0,0,0,6.812-2.8a.724.724,0,0,0-.735.379V0H5.089V-3.7h.933l.027.441a.915.915,0,0,1,.824-.509,1.035,1.035,0,0,1,.308.044ZM9.053-.728A.648.648,0,0,0,9.5-.878a.527.527,0,0,0,.178-.4H10.6A1.267,1.267,0,0,1,10.4-.59,1.353,1.353,0,0,1,9.844-.1,1.728,1.728,0,0,1,9.07.068a1.606,1.606,0,0,1-1.251-.5,2,2,0,0,1-.458-1.393v-.065a1.972,1.972,0,0,1,.455-1.364,1.587,1.587,0,0,1,1.248-.509,1.556,1.556,0,0,1,1.113.395A1.4,1.4,0,0,1,10.6-2.321H9.675A.679.679,0,0,0,9.5-2.79a.593.593,0,0,0-.451-.18.6.6,0,0,0-.521.252,1.458,1.458,0,0,0-.176.816v.1a1.477,1.477,0,0,0,.174.822A.6.6,0,0,0,9.053-.728Zm3.076-2.567a1.233,1.233,0,0,1,.988-.472q1.2,0,1.22,1.4V0h-.988V-2.341a.687.687,0,0,0-.137-.47.586.586,0,0,0-.455-.152.672.672,0,0,0-.629.335V0h-.988V-5.25h.988Zm4,3.295h-.991V-3.7h.991ZM15.075-4.655a.486.486,0,0,1,.149-.366.559.559,0,0,1,.405-.144.56.56,0,0,1,.4.144.484.484,0,0,1,.15.366.485.485,0,0,1-.152.369.561.561,0,0,1-.4.144.561.561,0,0,1-.4-.144A.485.485,0,0,1,15.075-4.655Zm3.247,3.449L19.009-3.7h1.032L18.794,0h-.943L16.6-3.7h1.032Zm1.9-.677a2.193,2.193,0,0,1,.212-.981,1.551,1.551,0,0,1,.61-.667,1.78,1.78,0,0,1,.925-.236,1.684,1.684,0,0,1,1.222.458,1.838,1.838,0,0,1,.528,1.244l.007.253A1.933,1.933,0,0,1,23.25-.446a1.651,1.651,0,0,1-1.275.514A1.66,1.66,0,0,1,20.7-.444a1.967,1.967,0,0,1-.477-1.395Zm.988.07a1.382,1.382,0,0,0,.2.806.654.654,0,0,0,.567.279A.655.655,0,0,0,22.535-1a1.513,1.513,0,0,0,.2-.881,1.369,1.369,0,0,0-.2-.8.656.656,0,0,0-.567-.284.645.645,0,0,0-.561.282A1.538,1.538,0,0,0,21.209-1.813ZM27.04-3.295a1.233,1.233,0,0,1,.988-.472q1.2,0,1.22,1.4V0h-.988V-2.341a.687.687,0,0,0-.137-.47.586.586,0,0,0-.455-.152.672.672,0,0,0-.629.335V0h-.988V-5.25h.988Zm4,3.295h-.991V-3.7h.991ZM29.987-4.655a.486.486,0,0,1,.149-.366.559.559,0,0,1,.405-.144.56.56,0,0,1,.4.144.484.484,0,0,1,.15.366.485.485,0,0,1-.152.369.561.561,0,0,1-.4.144.561.561,0,0,1-.4-.144A.485.485,0,0,1,29.987-4.655Zm3.866,3.633a.318.318,0,0,0-.179-.285,2.038,2.038,0,0,0-.576-.186q-1.319-.277-1.319-1.121a1.016,1.016,0,0,1,.408-.822,1.648,1.648,0,0,1,1.068-.33,1.773,1.773,0,0,1,1.126.332,1.045,1.045,0,0,1,.422.861h-.988a.478.478,0,0,0-.137-.35.579.579,0,0,0-.427-.138.591.591,0,0,0-.386.113.356.356,0,0,0-.137.287.3.3,0,0,0,.156.265,1.6,1.6,0,0,0,.525.174,4.285,4.285,0,0,1,.622.166,1.022,1.022,0,0,1,.783.995.965.965,0,0,1-.434.819,1.873,1.873,0,0,1-1.121.313A1.956,1.956,0,0,1,32.432-.1a1.385,1.385,0,0,1-.566-.455,1.056,1.056,0,0,1-.205-.624H32.6a.516.516,0,0,0,.195.4.773.773,0,0,0,.485.14.715.715,0,0,0,.429-.108A.335.335,0,0,0,33.852-1.022Zm2.779-3.585V-3.7h.632v.725h-.632v1.846a.441.441,0,0,0,.079.294.4.4,0,0,0,.3.089A1.575,1.575,0,0,0,37.3-.769v.749a2.034,2.034,0,0,1-.6.089.943.943,0,0,1-1.06-1.049V-2.974H35.1V-3.7h.54v-.909Zm.926,2.724a2.193,2.193,0,0,1,.212-.981,1.551,1.551,0,0,1,.61-.667,1.78,1.78,0,0,1,.925-.236,1.684,1.684,0,0,1,1.222.458,1.838,1.838,0,0,1,.528,1.244l.007.253a1.933,1.933,0,0,1-.475,1.365,1.651,1.651,0,0,1-1.275.514,1.66,1.66,0,0,1-1.277-.513,1.967,1.967,0,0,1-.477-1.395Zm.988.07a1.382,1.382,0,0,0,.2.806.654.654,0,0,0,.567.279A.655.655,0,0,0,39.871-1a1.513,1.513,0,0,0,.2-.881,1.369,1.369,0,0,0-.2-.8A.656.656,0,0,0,39.3-2.97a.645.645,0,0,0-.561.282A1.538,1.538,0,0,0,38.545-1.813ZM39.5-5.25h1.077l-.947,1.06h-.8Zm4.249,2.478a2.684,2.684,0,0,0-.355-.027.724.724,0,0,0-.735.379V0h-.988V-3.7H42.6l.027.441a.915.915,0,0,1,.824-.509,1.035,1.035,0,0,1,.308.044ZM45.265,0h-.991V-3.7h.991ZM44.216-4.655a.486.486,0,0,1,.149-.366.559.559,0,0,1,.405-.144.56.56,0,0,1,.4.144.484.484,0,0,1,.15.366.485.485,0,0,1-.152.369.561.561,0,0,1-.4.144.561.561,0,0,1-.4-.144A.485.485,0,0,1,44.216-4.655Zm3.4,3.927a.648.648,0,0,0,.444-.15.527.527,0,0,0,.178-.4h.926a1.267,1.267,0,0,1-.205.689,1.353,1.353,0,0,1-.552.485,1.728,1.728,0,0,1-.774.173,1.606,1.606,0,0,1-1.251-.5,2,2,0,0,1-.458-1.393v-.065a1.972,1.972,0,0,1,.455-1.364,1.587,1.587,0,0,1,1.248-.509,1.556,1.556,0,0,1,1.113.395,1.4,1.4,0,0,1,.426,1.051h-.926a.679.679,0,0,0-.178-.469.593.593,0,0,0-.451-.18.6.6,0,0,0-.521.252,1.458,1.458,0,0,0-.176.816v.1a1.477,1.477,0,0,0,.174.822A.6.6,0,0,0,47.617-.728Zm1.958-1.155a2.193,2.193,0,0,1,.212-.981,1.551,1.551,0,0,1,.61-.667,1.78,1.78,0,0,1,.925-.236,1.684,1.684,0,0,1,1.222.458,1.838,1.838,0,0,1,.528,1.244l.007.253A1.933,1.933,0,0,1,52.6-.446a1.651,1.651,0,0,1-1.275.514,1.66,1.66,0,0,1-1.277-.513,1.967,1.967,0,0,1-.477-1.395Zm.988.07a1.382,1.382,0,0,0,.2.806.654.654,0,0,0,.567.279A.655.655,0,0,0,51.889-1a1.513,1.513,0,0,0,.2-.881,1.369,1.369,0,0,0-.2-.8.656.656,0,0,0-.567-.284.645.645,0,0,0-.561.282A1.538,1.538,0,0,0,50.563-1.813Z" transform="translate(-2498.613 -10298.944)" fill="#fff"/>
    <path id="Path_611058" data-name="Path 611058" d="M3.254-1.025h-1.8L1.114,0H.024L1.876-4.977h.95L4.689,0H3.6ZM1.733-1.856H2.977L2.352-3.719Zm5.435-.916A2.684,2.684,0,0,0,6.812-2.8a.724.724,0,0,0-.735.379V0H5.089V-3.7h.933l.027.441a.915.915,0,0,1,.824-.509,1.035,1.035,0,0,1,.308.044ZM9.053-.728A.648.648,0,0,0,9.5-.878a.527.527,0,0,0,.178-.4H10.6A1.267,1.267,0,0,1,10.4-.59,1.353,1.353,0,0,1,9.844-.1,1.728,1.728,0,0,1,9.07.068a1.606,1.606,0,0,1-1.251-.5,2,2,0,0,1-.458-1.393v-.065a1.972,1.972,0,0,1,.455-1.364,1.587,1.587,0,0,1,1.248-.509,1.556,1.556,0,0,1,1.113.395A1.4,1.4,0,0,1,10.6-2.321H9.675A.679.679,0,0,0,9.5-2.79a.593.593,0,0,0-.451-.18.6.6,0,0,0-.521.252,1.458,1.458,0,0,0-.176.816v.1a1.477,1.477,0,0,0,.174.822A.6.6,0,0,0,9.053-.728Zm3.076-2.567a1.233,1.233,0,0,1,.988-.472q1.2,0,1.22,1.4V0h-.988V-2.341a.687.687,0,0,0-.137-.47.586.586,0,0,0-.455-.152.672.672,0,0,0-.629.335V0h-.988V-5.25h.988Zm4,3.295h-.991V-3.7h.991ZM15.075-4.655a.486.486,0,0,1,.149-.366.559.559,0,0,1,.405-.144.56.56,0,0,1,.4.144.484.484,0,0,1,.15.366.485.485,0,0,1-.152.369.561.561,0,0,1-.4.144.561.561,0,0,1-.4-.144A.485.485,0,0,1,15.075-4.655Zm3.247,3.449L19.009-3.7h1.032L18.794,0h-.943L16.6-3.7h1.032Zm1.9-.677a2.193,2.193,0,0,1,.212-.981,1.551,1.551,0,0,1,.61-.667,1.78,1.78,0,0,1,.925-.236,1.684,1.684,0,0,1,1.222.458,1.838,1.838,0,0,1,.528,1.244l.007.253A1.933,1.933,0,0,1,23.25-.446a1.651,1.651,0,0,1-1.275.514A1.66,1.66,0,0,1,20.7-.444a1.967,1.967,0,0,1-.477-1.395Zm.988.07a1.382,1.382,0,0,0,.2.806.654.654,0,0,0,.567.279A.655.655,0,0,0,22.535-1a1.513,1.513,0,0,0,.2-.881,1.369,1.369,0,0,0-.2-.8.656.656,0,0,0-.567-.284.645.645,0,0,0-.561.282A1.538,1.538,0,0,0,21.209-1.813Zm4.713-.063a2.229,2.229,0,0,1,.388-1.377,1.259,1.259,0,0,1,1.061-.513,1.133,1.133,0,0,1,.892.4V-5.25h.991V0h-.892l-.048-.393a1.162,1.162,0,0,1-.95.461,1.255,1.255,0,0,1-1.048-.514A2.3,2.3,0,0,1,25.923-1.876Zm.988.074a1.46,1.46,0,0,0,.181.8.59.59,0,0,0,.526.277.661.661,0,0,0,.646-.387V-2.577a.651.651,0,0,0-.639-.387Q26.91-2.963,26.91-1.8ZM31.723.068a1.816,1.816,0,0,1-1.324-.5,1.774,1.774,0,0,1-.511-1.33v-.1a2.234,2.234,0,0,1,.215-1,1.58,1.58,0,0,1,.61-.677,1.712,1.712,0,0,1,.9-.238,1.535,1.535,0,0,1,1.195.479,1.944,1.944,0,0,1,.436,1.357v.4H30.889a.918.918,0,0,0,.289.581.873.873,0,0,0,.61.219,1.066,1.066,0,0,0,.892-.414l.485.543a1.483,1.483,0,0,1-.6.49A1.974,1.974,0,0,1,31.723.068ZM31.61-2.97a.617.617,0,0,0-.477.2,1.031,1.031,0,0,0-.234.57h1.374V-2.28a.735.735,0,0,0-.178-.51A.637.637,0,0,0,31.61-2.97ZM35.4-1.876a2.167,2.167,0,0,1,.405-1.371,1.312,1.312,0,0,1,1.092-.52,1.151,1.151,0,0,1,.947.417l.041-.349h.9V-.123a1.581,1.581,0,0,1-.22.844,1.416,1.416,0,0,1-.62.547,2.181,2.181,0,0,1-.937.188,2.028,2.028,0,0,1-.793-.162A1.407,1.407,0,0,1,35.63.875l.438-.6a1.157,1.157,0,0,0,.9.414.847.847,0,0,0,.612-.21.788.788,0,0,0,.219-.6v-.2a1.143,1.143,0,0,1-.9.386,1.309,1.309,0,0,1-1.078-.521A2.167,2.167,0,0,1,35.4-1.835Zm.988.074a1.35,1.35,0,0,0,.2.789.642.642,0,0,0,.554.286.686.686,0,0,0,.646-.339V-2.624a.684.684,0,0,0-.639-.339.646.646,0,0,0-.559.291A1.521,1.521,0,0,0,36.392-1.8ZM41.245.068a1.816,1.816,0,0,1-1.324-.5,1.774,1.774,0,0,1-.511-1.33v-.1a2.234,2.234,0,0,1,.215-1,1.58,1.58,0,0,1,.61-.677,1.712,1.712,0,0,1,.9-.238,1.535,1.535,0,0,1,1.195.479,1.944,1.944,0,0,1,.436,1.357v.4H40.411a.918.918,0,0,0,.289.581.873.873,0,0,0,.61.219,1.066,1.066,0,0,0,.892-.414l.485.543a1.483,1.483,0,0,1-.6.49A1.974,1.974,0,0,1,41.245.068ZM41.133-2.97a.617.617,0,0,0-.477.2,1.031,1.031,0,0,0-.234.57H41.8V-2.28a.735.735,0,0,0-.178-.51A.637.637,0,0,0,41.133-2.97Zm4.2,1.948a.318.318,0,0,0-.179-.285,2.038,2.038,0,0,0-.576-.186q-1.319-.277-1.319-1.121a1.016,1.016,0,0,1,.408-.822,1.648,1.648,0,0,1,1.068-.33,1.773,1.773,0,0,1,1.126.332,1.045,1.045,0,0,1,.422.861h-.988a.478.478,0,0,0-.137-.35.579.579,0,0,0-.427-.138.591.591,0,0,0-.386.113.356.356,0,0,0-.137.287.3.3,0,0,0,.156.265,1.6,1.6,0,0,0,.525.174,4.285,4.285,0,0,1,.622.166,1.022,1.022,0,0,1,.783.995.965.965,0,0,1-.434.819,1.873,1.873,0,0,1-1.121.313A1.956,1.956,0,0,1,43.91-.1a1.385,1.385,0,0,1-.566-.455,1.056,1.056,0,0,1-.205-.624h.937a.516.516,0,0,0,.195.4.773.773,0,0,0,.485.14.715.715,0,0,0,.429-.108A.335.335,0,0,0,45.33-1.022Zm2.779-3.585V-3.7h.632v.725h-.632v1.846a.441.441,0,0,0,.079.294.4.4,0,0,0,.3.089,1.575,1.575,0,0,0,.291-.024v.749a2.034,2.034,0,0,1-.6.089.943.943,0,0,1-1.06-1.049V-2.974h-.54V-3.7h.54v-.909ZM50.334,0h-.991V-3.7h.991ZM49.284-4.655a.486.486,0,0,1,.149-.366.559.559,0,0,1,.405-.144.56.56,0,0,1,.4.144.484.484,0,0,1,.15.366.485.485,0,0,1-.152.369.561.561,0,0,1-.4.144.561.561,0,0,1-.4-.144A.485.485,0,0,1,49.284-4.655Zm1.709,2.772a2.193,2.193,0,0,1,.212-.981,1.551,1.551,0,0,1,.61-.667,1.78,1.78,0,0,1,.925-.236,1.684,1.684,0,0,1,1.222.458,1.838,1.838,0,0,1,.528,1.244l.007.253a1.933,1.933,0,0,1-.475,1.365,1.651,1.651,0,0,1-1.275.514A1.66,1.66,0,0,1,51.47-.444a1.967,1.967,0,0,1-.477-1.395Zm.988.07a1.382,1.382,0,0,0,.2.806.654.654,0,0,0,.567.279A.655.655,0,0,0,53.307-1a1.513,1.513,0,0,0,.2-.881,1.369,1.369,0,0,0-.2-.8.656.656,0,0,0-.567-.284.645.645,0,0,0-.561.282A1.538,1.538,0,0,0,51.981-1.813Zm.954-3.437h1.077l-.947,1.06h-.8ZM56.014-3.7l.031.427a1.291,1.291,0,0,1,1.063-.5,1.073,1.073,0,0,1,.875.345,1.611,1.611,0,0,1,.294,1.032V0h-.988V-2.365a.641.641,0,0,0-.137-.456.612.612,0,0,0-.455-.142.68.68,0,0,0-.625.355V0h-.988V-3.7Z" transform="translate(-2664.177 -10298.944)" fill="#12263f"/>
    <path id="Path_611059" data-name="Path 611059" d="M2.283-1.234,3.411-4.977H4.553L2.82,0H1.75L.024-4.977H1.162ZM6.788,0a1.1,1.1,0,0,1-.1-.332,1.2,1.2,0,0,1-.933.4,1.313,1.313,0,0,1-.9-.314A1.011,1.011,0,0,1,4.5-1.039a1.045,1.045,0,0,1,.436-.9,2.15,2.15,0,0,1,1.26-.318h.455v-.212a.609.609,0,0,0-.132-.41A.518.518,0,0,0,6.1-3.035a.589.589,0,0,0-.391.12.406.406,0,0,0-.142.328H4.58a.992.992,0,0,1,.2-.595,1.31,1.31,0,0,1,.561-.429,2.043,2.043,0,0,1,.813-.156,1.614,1.614,0,0,1,1.085.344,1.2,1.2,0,0,1,.4.966v1.6a1.768,1.768,0,0,0,.147.8V0ZM5.971-.687a.851.851,0,0,0,.4-.1.64.64,0,0,0,.273-.261v-.636H6.279q-.742,0-.79.513l0,.058a.4.4,0,0,0,.13.3A.5.5,0,0,0,5.971-.687ZM9.44,0H8.449V-5.25H9.44Zm.66-1.883a2.193,2.193,0,0,1,.212-.981,1.551,1.551,0,0,1,.61-.667,1.78,1.78,0,0,1,.925-.236,1.684,1.684,0,0,1,1.222.458A1.838,1.838,0,0,1,13.6-2.064l.007.253a1.933,1.933,0,0,1-.475,1.365,1.651,1.651,0,0,1-1.275.514,1.66,1.66,0,0,1-1.277-.513A1.967,1.967,0,0,1,10.1-1.839Zm.988.07a1.382,1.382,0,0,0,.2.806.654.654,0,0,0,.567.279A.655.655,0,0,0,12.414-1a1.513,1.513,0,0,0,.2-.881,1.369,1.369,0,0,0-.2-.8.656.656,0,0,0-.567-.284.645.645,0,0,0-.561.282A1.538,1.538,0,0,0,11.088-1.813Zm5.2-.959a2.684,2.684,0,0,0-.355-.027.724.724,0,0,0-.735.379V0h-.988V-3.7h.933l.027.441A.915.915,0,0,1,16-3.767a1.035,1.035,0,0,1,.308.044ZM18.4.068a1.816,1.816,0,0,1-1.324-.5,1.774,1.774,0,0,1-.511-1.33v-.1a2.234,2.234,0,0,1,.215-1,1.58,1.58,0,0,1,.61-.677,1.712,1.712,0,0,1,.9-.238,1.535,1.535,0,0,1,1.195.479,1.944,1.944,0,0,1,.436,1.357v.4H17.568a.918.918,0,0,0,.289.581.873.873,0,0,0,.61.219,1.066,1.066,0,0,0,.892-.414l.485.543a1.483,1.483,0,0,1-.6.49A1.974,1.974,0,0,1,18.4.068ZM18.289-2.97a.617.617,0,0,0-.477.2,1.031,1.031,0,0,0-.234.57h1.374V-2.28a.735.735,0,0,0-.178-.51A.637.637,0,0,0,18.289-2.97Zm4.2,1.948a.318.318,0,0,0-.179-.285,2.038,2.038,0,0,0-.576-.186q-1.319-.277-1.319-1.121a1.016,1.016,0,0,1,.408-.822,1.648,1.648,0,0,1,1.068-.33,1.773,1.773,0,0,1,1.126.332,1.045,1.045,0,0,1,.422.861h-.988a.478.478,0,0,0-.137-.35.579.579,0,0,0-.427-.138.591.591,0,0,0-.386.113.356.356,0,0,0-.137.287.3.3,0,0,0,.156.265,1.6,1.6,0,0,0,.525.174,4.285,4.285,0,0,1,.622.166,1.022,1.022,0,0,1,.783.995.965.965,0,0,1-.434.819,1.873,1.873,0,0,1-1.121.313A1.956,1.956,0,0,1,21.066-.1,1.385,1.385,0,0,1,20.5-.552a1.056,1.056,0,0,1-.205-.624h.937a.516.516,0,0,0,.195.4.773.773,0,0,0,.485.14.715.715,0,0,0,.429-.108A.335.335,0,0,0,22.487-1.022Zm6.668-.793a2.218,2.218,0,0,1-.388,1.369A1.244,1.244,0,0,1,27.72.068a1.152,1.152,0,0,1-.906-.39V1.422h-.988V-3.7h.916l.034.362a1.161,1.161,0,0,1,.937-.431,1.252,1.252,0,0,1,1.063.506,2.278,2.278,0,0,1,.379,1.395Zm-.988-.072a1.455,1.455,0,0,0-.183-.8.6.6,0,0,0-.531-.28.647.647,0,0,0-.639.355v1.514a.658.658,0,0,0,.646.366Q28.167-.728,28.167-1.887Zm3.678-.885A2.684,2.684,0,0,0,31.49-2.8a.724.724,0,0,0-.735.379V0h-.988V-3.7H30.7l.027.441a.915.915,0,0,1,.824-.509,1.035,1.035,0,0,1,.308.044ZM33.363,0h-.991V-3.7h.991ZM32.313-4.655a.486.486,0,0,1,.149-.366.559.559,0,0,1,.405-.144.56.56,0,0,1,.4.144.484.484,0,0,1,.15.366.485.485,0,0,1-.152.369.561.561,0,0,1-.4.144.561.561,0,0,1-.4-.144A.485.485,0,0,1,32.313-4.655ZM35.1-3.7l.031.414A1.3,1.3,0,0,1,36.2-3.767a.986.986,0,0,1,.981.564,1.27,1.27,0,0,1,1.111-.564,1.1,1.1,0,0,1,.9.35,1.61,1.61,0,0,1,.294,1.054V0h-.991V-2.358a.7.7,0,0,0-.123-.46.545.545,0,0,0-.434-.145.617.617,0,0,0-.615.424l0,2.54h-.988V-2.355A.7.7,0,0,0,36.2-2.82a.551.551,0,0,0-.431-.144.64.64,0,0,0-.608.349V0h-.988V-3.7ZM42.379,0a1.1,1.1,0,0,1-.1-.332,1.2,1.2,0,0,1-.933.4,1.313,1.313,0,0,1-.9-.314,1.011,1.011,0,0,1-.357-.793,1.045,1.045,0,0,1,.436-.9,2.15,2.15,0,0,1,1.26-.318h.455v-.212a.609.609,0,0,0-.132-.41.518.518,0,0,0-.415-.154.589.589,0,0,0-.391.12.406.406,0,0,0-.142.328h-.988a.992.992,0,0,1,.2-.595,1.31,1.31,0,0,1,.561-.429,2.043,2.043,0,0,1,.813-.156,1.614,1.614,0,0,1,1.085.344,1.2,1.2,0,0,1,.4.966v1.6a1.768,1.768,0,0,0,.147.8V0Zm-.817-.687a.851.851,0,0,0,.4-.1.64.64,0,0,0,.273-.261v-.636H41.87q-.742,0-.79.513l0,.058a.4.4,0,0,0,.13.3A.5.5,0,0,0,41.562-.687Zm4.5-2.085a2.684,2.684,0,0,0-.355-.027.724.724,0,0,0-.735.379V0h-.988V-3.7h.933l.027.441a.915.915,0,0,1,.824-.509,1.035,1.035,0,0,1,.308.044ZM47.585,0h-.991V-3.7h.991ZM46.535-4.655a.486.486,0,0,1,.149-.366.559.559,0,0,1,.405-.144.56.56,0,0,1,.4.144.484.484,0,0,1,.15.366.485.485,0,0,1-.152.369.561.561,0,0,1-.4.144.561.561,0,0,1-.4-.144A.485.485,0,0,1,46.535-4.655Zm1.709,2.772a2.193,2.193,0,0,1,.212-.981,1.551,1.551,0,0,1,.61-.667,1.78,1.78,0,0,1,.925-.236,1.684,1.684,0,0,1,1.222.458,1.838,1.838,0,0,1,.528,1.244l.007.253a1.933,1.933,0,0,1-.475,1.365A1.651,1.651,0,0,1,50,.068a1.66,1.66,0,0,1-1.277-.513,1.967,1.967,0,0,1-.477-1.395Zm.988.07a1.382,1.382,0,0,0,.2.806A.654.654,0,0,0,50-.728.655.655,0,0,0,50.558-1a1.513,1.513,0,0,0,.2-.881,1.369,1.369,0,0,0-.2-.8.656.656,0,0,0-.567-.284.645.645,0,0,0-.561.282A1.538,1.538,0,0,0,49.232-1.813Zm5.127.791a.318.318,0,0,0-.179-.285,2.038,2.038,0,0,0-.576-.186q-1.319-.277-1.319-1.121a1.016,1.016,0,0,1,.408-.822,1.648,1.648,0,0,1,1.068-.33,1.773,1.773,0,0,1,1.126.332,1.045,1.045,0,0,1,.422.861h-.988a.478.478,0,0,0-.137-.35.579.579,0,0,0-.427-.138.591.591,0,0,0-.386.113.356.356,0,0,0-.137.287.3.3,0,0,0,.156.265,1.6,1.6,0,0,0,.525.174,4.285,4.285,0,0,1,.622.166,1.022,1.022,0,0,1,.783.995.965.965,0,0,1-.434.819,1.873,1.873,0,0,1-1.121.313A1.956,1.956,0,0,1,52.939-.1a1.385,1.385,0,0,1-.566-.455,1.056,1.056,0,0,1-.205-.624H53.1a.516.516,0,0,0,.195.4.773.773,0,0,0,.485.14.715.715,0,0,0,.429-.108A.335.335,0,0,0,54.359-1.022Z" transform="translate(-2633 -10242.999)" fill="#12263f"/>
    <path id="Path_611060" data-name="Path 611060" d="M1.26-.706H3.126V0H.381V-4.266H1.26ZM5.033.059A1.556,1.556,0,0,1,3.9-.369a1.52,1.52,0,0,1-.438-1.14v-.082a1.915,1.915,0,0,1,.185-.854,1.355,1.355,0,0,1,.523-.58,1.468,1.468,0,0,1,.772-.2,1.316,1.316,0,0,1,1.024.41,1.667,1.667,0,0,1,.374,1.163v.346H4.318a.787.787,0,0,0,.248.5.748.748,0,0,0,.523.188.914.914,0,0,0,.765-.354l.416.466a1.271,1.271,0,0,1-.516.42A1.692,1.692,0,0,1,5.033.059Zm-.1-2.6a.529.529,0,0,0-.409.171.884.884,0,0,0-.2.489H5.5v-.068a.63.63,0,0,0-.152-.437A.546.546,0,0,0,4.937-2.546Zm1.758.938a1.858,1.858,0,0,1,.347-1.175,1.125,1.125,0,0,1,.936-.445.987.987,0,0,1,.812.357l.035-.3h.768V-.105A1.355,1.355,0,0,1,9.4.618a1.214,1.214,0,0,1-.532.469,1.869,1.869,0,0,1-.8.161,1.738,1.738,0,0,1-.68-.139,1.206,1.206,0,0,1-.5-.359L7.263.234A.992.992,0,0,0,8.03.589a.726.726,0,0,0,.524-.18A.676.676,0,0,0,8.742-.1v-.17a.979.979,0,0,1-.771.331,1.122,1.122,0,0,1-.924-.447,1.857,1.857,0,0,1-.353-1.185Zm.847.063a1.157,1.157,0,0,0,.173.676.55.55,0,0,0,.475.245.588.588,0,0,0,.554-.29V-2.25a.587.587,0,0,0-.548-.29.553.553,0,0,0-.479.249A1.3,1.3,0,0,0,7.541-1.545ZM12.079,0a.94.94,0,0,1-.085-.284,1.024,1.024,0,0,1-.8.343,1.125,1.125,0,0,1-.772-.27.867.867,0,0,1-.306-.68.9.9,0,0,1,.374-.773,1.843,1.843,0,0,1,1.08-.272h.39v-.182a.522.522,0,0,0-.113-.352A.444.444,0,0,0,11.49-2.6a.5.5,0,0,0-.335.1.348.348,0,0,0-.122.281h-.847a.85.85,0,0,1,.17-.51,1.123,1.123,0,0,1,.48-.368,1.751,1.751,0,0,1,.7-.133,1.383,1.383,0,0,1,.93.294,1.03,1.03,0,0,1,.344.828V-.732a1.515,1.515,0,0,0,.126.683V0Zm-.7-.589a.729.729,0,0,0,.346-.083A.548.548,0,0,0,11.959-.9v-.545h-.316q-.636,0-.677.439l0,.05a.339.339,0,0,0,.111.261A.432.432,0,0,0,11.379-.589ZM14.353,0H13.5V-4.5h.85Z" transform="translate(-2612.06 -10208.259)" fill="#12263f"/>
    <path id="Path_611061" data-name="Path 611061" d="M4.351-1.658A1.761,1.761,0,0,1,3.758-.393a2.083,2.083,0,0,1-1.41.461A1.873,1.873,0,0,1,.843-.576,2.642,2.642,0,0,1,.294-2.345v-.3A2.983,2.983,0,0,1,.547-3.914a1.9,1.9,0,0,1,.723-.839,2.025,2.025,0,0,1,1.092-.292,2.029,2.029,0,0,1,1.388.461,1.892,1.892,0,0,1,.608,1.3H3.333a1.039,1.039,0,0,0-.268-.7.994.994,0,0,0-.7-.217.871.871,0,0,0-.767.367A2.059,2.059,0,0,0,1.333-2.7v.376a2.2,2.2,0,0,0,.244,1.179.855.855,0,0,0,.771.373,1.012,1.012,0,0,0,.709-.217.98.98,0,0,0,.268-.672Zm.455-.226a2.193,2.193,0,0,1,.212-.981,1.551,1.551,0,0,1,.61-.667,1.78,1.78,0,0,1,.925-.236,1.684,1.684,0,0,1,1.222.458A1.838,1.838,0,0,1,8.3-2.064l.007.253A1.933,1.933,0,0,1,7.834-.446,1.651,1.651,0,0,1,6.559.068,1.66,1.66,0,0,1,5.282-.444a1.967,1.967,0,0,1-.477-1.395Zm.988.07a1.382,1.382,0,0,0,.2.806.654.654,0,0,0,.567.279A.655.655,0,0,0,7.12-1a1.513,1.513,0,0,0,.2-.881,1.369,1.369,0,0,0-.2-.8.656.656,0,0,0-.567-.284.645.645,0,0,0-.561.282A1.538,1.538,0,0,0,5.793-1.813ZM9.827-3.7l.031.427a1.291,1.291,0,0,1,1.063-.5,1.073,1.073,0,0,1,.875.345,1.611,1.611,0,0,1,.294,1.032V0H11.1V-2.365a.641.641,0,0,0-.137-.456.612.612,0,0,0-.455-.142.68.68,0,0,0-.625.355V0H8.9V-3.7Zm4.194-.909V-3.7h.632v.725h-.632v1.846a.441.441,0,0,0,.079.294.4.4,0,0,0,.3.089,1.575,1.575,0,0,0,.291-.024v.749a2.034,2.034,0,0,1-.6.089.943.943,0,0,1-1.06-1.049V-2.974h-.54V-3.7h.54v-.909ZM17.346,0a1.1,1.1,0,0,1-.1-.332,1.2,1.2,0,0,1-.933.4,1.313,1.313,0,0,1-.9-.314,1.011,1.011,0,0,1-.357-.793,1.045,1.045,0,0,1,.436-.9,2.15,2.15,0,0,1,1.26-.318h.455v-.212a.609.609,0,0,0-.132-.41.518.518,0,0,0-.415-.154.589.589,0,0,0-.391.12.406.406,0,0,0-.142.328h-.988a.992.992,0,0,1,.2-.595,1.31,1.31,0,0,1,.561-.429,2.043,2.043,0,0,1,.813-.156,1.614,1.614,0,0,1,1.085.344,1.2,1.2,0,0,1,.4.966v1.6a1.768,1.768,0,0,0,.147.8V0Zm-.817-.687a.851.851,0,0,0,.4-.1.64.64,0,0,0,.273-.261v-.636h-.369q-.742,0-.79.513l0,.058a.4.4,0,0,0,.13.3A.5.5,0,0,0,16.529-.687Zm5.759-1.128a2.239,2.239,0,0,1-.379,1.386,1.257,1.257,0,0,1-1.06.5,1.155,1.155,0,0,1-.96-.461L19.845,0h-.889V-5.25h.988v1.883a1.125,1.125,0,0,1,.9-.4,1.267,1.267,0,0,1,1.061.5,2.243,2.243,0,0,1,.385,1.4ZM21.3-1.887a1.471,1.471,0,0,0-.178-.819.6.6,0,0,0-.53-.258.652.652,0,0,0-.649.386v1.459a.66.66,0,0,0,.656.39.61.61,0,0,0,.629-.472A2.433,2.433,0,0,0,21.3-1.887ZM23.939,0h-.991V-5.25h.991Zm2.516.068a1.816,1.816,0,0,1-1.324-.5,1.774,1.774,0,0,1-.511-1.33v-.1a2.234,2.234,0,0,1,.215-1,1.58,1.58,0,0,1,.61-.677,1.712,1.712,0,0,1,.9-.238,1.535,1.535,0,0,1,1.195.479,1.944,1.944,0,0,1,.436,1.357v.4H25.621a.918.918,0,0,0,.289.581.873.873,0,0,0,.61.219,1.066,1.066,0,0,0,.892-.414L27.9-.6a1.483,1.483,0,0,1-.6.49A1.974,1.974,0,0,1,26.455.068ZM26.342-2.97a.617.617,0,0,0-.477.2,1.031,1.031,0,0,0-.234.57h1.374V-2.28a.735.735,0,0,0-.178-.51A.637.637,0,0,0,26.342-2.97Z" transform="translate(-2618.4 -10186.46)" fill="#12263f"/>
    <path id="Path_611062" data-name="Path 611062" d="M3.254-1.025h-1.8L1.114,0H.024L1.876-4.977h.95L4.689,0H3.6ZM1.733-1.856H2.977L2.352-3.719Zm3.2-.021a2.229,2.229,0,0,1,.388-1.377,1.259,1.259,0,0,1,1.061-.513,1.133,1.133,0,0,1,.892.4V-5.25h.991V0H7.376L7.328-.393a1.162,1.162,0,0,1-.95.461A1.255,1.255,0,0,1,5.33-.446,2.3,2.3,0,0,1,4.936-1.876Zm.988.074a1.46,1.46,0,0,0,.181.8.59.59,0,0,0,.526.277.661.661,0,0,0,.646-.387V-2.577a.651.651,0,0,0-.639-.387Q5.923-2.963,5.923-1.8ZM9.96-3.7l.031.414a1.3,1.3,0,0,1,1.063-.482.986.986,0,0,1,.981.564,1.27,1.27,0,0,1,1.111-.564,1.1,1.1,0,0,1,.9.35,1.61,1.61,0,0,1,.294,1.054V0h-.991V-2.358a.7.7,0,0,0-.123-.46.545.545,0,0,0-.434-.145.617.617,0,0,0-.615.424l0,2.54h-.988V-2.355a.7.7,0,0,0-.126-.465.551.551,0,0,0-.431-.144.64.64,0,0,0-.608.349V0H9.034V-3.7ZM16.136,0h-.991V-3.7h.991ZM15.087-4.655a.486.486,0,0,1,.149-.366.559.559,0,0,1,.405-.144.56.56,0,0,1,.4.144.484.484,0,0,1,.15.366.485.485,0,0,1-.152.369.561.561,0,0,1-.4.144.561.561,0,0,1-.4-.144A.485.485,0,0,1,15.087-4.655Zm2.772.957.031.427a1.291,1.291,0,0,1,1.063-.5,1.073,1.073,0,0,1,.875.345,1.611,1.611,0,0,1,.294,1.032V0h-.988V-2.365A.641.641,0,0,0,19-2.822a.612.612,0,0,0-.455-.142.68.68,0,0,0-.625.355V0h-.988V-3.7ZM21.913,0h-.991V-3.7h.991ZM20.863-4.655a.486.486,0,0,1,.149-.366.559.559,0,0,1,.405-.144.56.56,0,0,1,.4.144.484.484,0,0,1,.15.366.485.485,0,0,1-.152.369.561.561,0,0,1-.4.144.561.561,0,0,1-.4-.144A.485.485,0,0,1,20.863-4.655Zm3.866,3.633a.318.318,0,0,0-.179-.285,2.038,2.038,0,0,0-.576-.186q-1.319-.277-1.319-1.121a1.016,1.016,0,0,1,.408-.822,1.648,1.648,0,0,1,1.068-.33,1.773,1.773,0,0,1,1.126.332,1.045,1.045,0,0,1,.422.861h-.988a.478.478,0,0,0-.137-.35.579.579,0,0,0-.427-.138.591.591,0,0,0-.386.113.356.356,0,0,0-.137.287.3.3,0,0,0,.156.265,1.6,1.6,0,0,0,.525.174,4.285,4.285,0,0,1,.622.166,1.022,1.022,0,0,1,.783.995.965.965,0,0,1-.434.819,1.873,1.873,0,0,1-1.121.313A1.956,1.956,0,0,1,23.309-.1a1.385,1.385,0,0,1-.566-.455,1.056,1.056,0,0,1-.205-.624h.937a.516.516,0,0,0,.195.4.773.773,0,0,0,.485.14.715.715,0,0,0,.429-.108A.335.335,0,0,0,24.729-1.022Zm2.779-3.585V-3.7h.632v.725h-.632v1.846a.441.441,0,0,0,.079.294.4.4,0,0,0,.3.089,1.575,1.575,0,0,0,.291-.024v.749a2.034,2.034,0,0,1-.6.089A.943.943,0,0,1,26.52-.981V-2.974h-.54V-3.7h.54v-.909Zm3.261,1.835a2.684,2.684,0,0,0-.355-.027.724.724,0,0,0-.735.379V0H28.69V-3.7h.933l.027.441a.915.915,0,0,1,.824-.509,1.035,1.035,0,0,1,.308.044ZM33.186,0a1.1,1.1,0,0,1-.1-.332,1.2,1.2,0,0,1-.933.4,1.313,1.313,0,0,1-.9-.314,1.011,1.011,0,0,1-.357-.793,1.045,1.045,0,0,1,.436-.9,2.15,2.15,0,0,1,1.26-.318h.455v-.212a.609.609,0,0,0-.132-.41.518.518,0,0,0-.415-.154.589.589,0,0,0-.391.12.406.406,0,0,0-.142.328h-.988a.992.992,0,0,1,.2-.595,1.31,1.31,0,0,1,.561-.429,2.043,2.043,0,0,1,.813-.156,1.614,1.614,0,0,1,1.085.344,1.2,1.2,0,0,1,.4.966v1.6a1.768,1.768,0,0,0,.147.8V0Zm-.817-.687a.851.851,0,0,0,.4-.1.64.64,0,0,0,.273-.261v-.636h-.369q-.742,0-.79.513l0,.058a.4.4,0,0,0,.13.3A.5.5,0,0,0,32.369-.687Zm3.609-3.92V-3.7h.632v.725h-.632v1.846a.441.441,0,0,0,.079.294.4.4,0,0,0,.3.089,1.575,1.575,0,0,0,.291-.024v.749a2.034,2.034,0,0,1-.6.089.943.943,0,0,1-1.06-1.049V-2.974h-.54V-3.7h.54v-.909ZM38.2,0h-.991V-3.7H38.2ZM37.154-4.655a.486.486,0,0,1,.149-.366.559.559,0,0,1,.405-.144.56.56,0,0,1,.4.144.484.484,0,0,1,.15.366.485.485,0,0,1-.152.369.561.561,0,0,1-.4.144.561.561,0,0,1-.4-.144A.485.485,0,0,1,37.154-4.655ZM40.4-1.207,41.089-3.7h1.032L40.873,0H39.93L38.682-3.7h1.032Zm1.9-.677a2.193,2.193,0,0,1,.212-.981,1.551,1.551,0,0,1,.61-.667,1.78,1.78,0,0,1,.925-.236,1.684,1.684,0,0,1,1.222.458A1.838,1.838,0,0,1,45.8-2.064l.007.253a1.933,1.933,0,0,1-.475,1.365,1.651,1.651,0,0,1-1.275.514,1.66,1.66,0,0,1-1.277-.513A1.967,1.967,0,0,1,42.3-1.839Zm.988.07a1.382,1.382,0,0,0,.2.806.654.654,0,0,0,.567.279A.655.655,0,0,0,44.615-1a1.513,1.513,0,0,0,.2-.881,1.369,1.369,0,0,0-.2-.8.656.656,0,0,0-.567-.284.645.645,0,0,0-.561.282A1.538,1.538,0,0,0,43.289-1.813Z" transform="translate(-2628.154 -10165)" fill="#12263f"/>
    <path id="Path_611063" data-name="Path 611063" d="M4.19-4.146H2.666V0H1.641V-4.146H.137v-.831H4.19ZM6.108.068a1.816,1.816,0,0,1-1.324-.5,1.774,1.774,0,0,1-.511-1.33v-.1a2.234,2.234,0,0,1,.215-1,1.58,1.58,0,0,1,.61-.677A1.712,1.712,0,0,1,6-3.767a1.535,1.535,0,0,1,1.195.479,1.944,1.944,0,0,1,.436,1.357v.4H5.274a.918.918,0,0,0,.289.581.873.873,0,0,0,.61.219,1.066,1.066,0,0,0,.892-.414L7.55-.6a1.483,1.483,0,0,1-.6.49A1.974,1.974,0,0,1,6.108.068ZM6-2.97a.617.617,0,0,0-.477.2,1.031,1.031,0,0,0-.234.57H6.658V-2.28a.735.735,0,0,0-.178-.51A.637.637,0,0,0,6-2.97Zm.089-2.28H7.161L6.214-4.19h-.8ZM9.728-.728a.648.648,0,0,0,.444-.15.527.527,0,0,0,.178-.4h.926a1.267,1.267,0,0,1-.205.689,1.353,1.353,0,0,1-.552.485,1.728,1.728,0,0,1-.774.173,1.606,1.606,0,0,1-1.251-.5,2,2,0,0,1-.458-1.393v-.065A1.972,1.972,0,0,1,8.49-3.257a1.587,1.587,0,0,1,1.248-.509,1.556,1.556,0,0,1,1.113.395,1.4,1.4,0,0,1,.426,1.051H10.35a.679.679,0,0,0-.178-.469.593.593,0,0,0-.451-.18.6.6,0,0,0-.521.252,1.458,1.458,0,0,0-.176.816v.1A1.477,1.477,0,0,0,9.2-.978.6.6,0,0,0,9.728-.728ZM12.749-3.7l.031.427a1.291,1.291,0,0,1,1.063-.5,1.073,1.073,0,0,1,.875.345,1.611,1.611,0,0,1,.294,1.032V0h-.988V-2.365a.641.641,0,0,0-.137-.456.612.612,0,0,0-.455-.142.68.68,0,0,0-.625.355V0h-.988V-3.7ZM16.8,0h-.991V-3.7H16.8ZM15.753-4.655a.486.486,0,0,1,.149-.366.559.559,0,0,1,.405-.144.56.56,0,0,1,.4.144.484.484,0,0,1,.15.366.485.485,0,0,1-.152.369.561.561,0,0,1-.4.144.561.561,0,0,1-.4-.144A.485.485,0,0,1,15.753-4.655Zm3.4,3.927a.648.648,0,0,0,.444-.15.527.527,0,0,0,.178-.4H20.7A1.267,1.267,0,0,1,20.5-.59a1.353,1.353,0,0,1-.552.485,1.728,1.728,0,0,1-.774.173,1.606,1.606,0,0,1-1.251-.5,2,2,0,0,1-.458-1.393v-.065a1.972,1.972,0,0,1,.455-1.364,1.587,1.587,0,0,1,1.248-.509,1.556,1.556,0,0,1,1.113.395A1.4,1.4,0,0,1,20.7-2.321h-.926A.679.679,0,0,0,19.6-2.79a.593.593,0,0,0-.451-.18.6.6,0,0,0-.521.252,1.458,1.458,0,0,0-.176.816v.1a1.477,1.477,0,0,0,.174.822A.6.6,0,0,0,19.154-.728Zm1.958-1.155a2.193,2.193,0,0,1,.212-.981,1.551,1.551,0,0,1,.61-.667,1.78,1.78,0,0,1,.925-.236,1.684,1.684,0,0,1,1.222.458,1.838,1.838,0,0,1,.528,1.244l.007.253a1.933,1.933,0,0,1-.475,1.365,1.651,1.651,0,0,1-1.275.514A1.66,1.66,0,0,1,21.59-.444a1.967,1.967,0,0,1-.477-1.395Zm.988.07a1.382,1.382,0,0,0,.2.806.654.654,0,0,0,.567.279A.655.655,0,0,0,23.427-1a1.513,1.513,0,0,0,.2-.881,1.369,1.369,0,0,0-.2-.8.656.656,0,0,0-.567-.284.645.645,0,0,0-.561.282A1.538,1.538,0,0,0,22.1-1.813Z" transform="translate(-2616.449 -10143.54)" fill="#12263f"/>
    <path id="Path_611064" data-name="Path 611064" d="M3.438-2.034H1.47V0H.444V-4.977h3.24v.831H1.47v1.285H3.438ZM5.257,0H4.266V-3.7h.991ZM4.208-4.655a.486.486,0,0,1,.149-.366.559.559,0,0,1,.405-.144.56.56,0,0,1,.4.144.484.484,0,0,1,.15.366.485.485,0,0,1-.152.369.561.561,0,0,1-.4.144.561.561,0,0,1-.4-.144A.485.485,0,0,1,4.208-4.655ZM8.073-1.022a.318.318,0,0,0-.179-.285,2.038,2.038,0,0,0-.576-.186Q6-1.771,6-2.615a1.016,1.016,0,0,1,.408-.822,1.648,1.648,0,0,1,1.068-.33A1.773,1.773,0,0,1,8.6-3.435a1.045,1.045,0,0,1,.422.861H8.036a.478.478,0,0,0-.137-.35.579.579,0,0,0-.427-.138.591.591,0,0,0-.386.113.356.356,0,0,0-.137.287A.3.3,0,0,0,7.1-2.4a1.6,1.6,0,0,0,.525.174,4.285,4.285,0,0,1,.622.166,1.022,1.022,0,0,1,.783.995A.965.965,0,0,1,8.6-.244,1.873,1.873,0,0,1,7.479.068,1.956,1.956,0,0,1,6.653-.1a1.385,1.385,0,0,1-.566-.455,1.056,1.056,0,0,1-.205-.624h.937a.516.516,0,0,0,.195.4.773.773,0,0,0,.485.14A.715.715,0,0,0,7.928-.74.335.335,0,0,0,8.073-1.022Zm3.134.294a.648.648,0,0,0,.444-.15.527.527,0,0,0,.178-.4h.926a1.267,1.267,0,0,1-.205.689A1.353,1.353,0,0,1,12-.1a1.728,1.728,0,0,1-.774.173,1.606,1.606,0,0,1-1.251-.5,2,2,0,0,1-.458-1.393v-.065A1.972,1.972,0,0,1,9.97-3.257a1.587,1.587,0,0,1,1.248-.509,1.556,1.556,0,0,1,1.113.395,1.4,1.4,0,0,1,.426,1.051H11.83a.679.679,0,0,0-.178-.469.593.593,0,0,0-.451-.18.6.6,0,0,0-.521.252A1.458,1.458,0,0,0,10.5-1.9v.1a1.477,1.477,0,0,0,.174.822A.6.6,0,0,0,11.208-.728ZM15.463,0a1.1,1.1,0,0,1-.1-.332,1.2,1.2,0,0,1-.933.4,1.313,1.313,0,0,1-.9-.314,1.011,1.011,0,0,1-.357-.793,1.045,1.045,0,0,1,.436-.9,2.15,2.15,0,0,1,1.26-.318h.455v-.212a.609.609,0,0,0-.132-.41.518.518,0,0,0-.415-.154.589.589,0,0,0-.391.12.406.406,0,0,0-.142.328h-.988a.992.992,0,0,1,.2-.595,1.31,1.31,0,0,1,.561-.429,2.043,2.043,0,0,1,.813-.156,1.614,1.614,0,0,1,1.085.344,1.2,1.2,0,0,1,.4.966v1.6a1.768,1.768,0,0,0,.147.8V0Zm-.817-.687a.851.851,0,0,0,.4-.1.64.64,0,0,0,.273-.261v-.636h-.369q-.742,0-.79.513l0,.058a.4.4,0,0,0,.13.3A.5.5,0,0,0,14.646-.687ZM18.115,0h-.991V-5.25h.991Z" transform="translate(-2613.036 -10122.08)" fill="#12263f"/>
    <path id="Path_611065" data-name="Path 611065" d="M2.283-1.234,3.411-4.977H4.553L2.82,0H1.75L.024-4.977H1.162ZM6.788,0a1.1,1.1,0,0,1-.1-.332,1.2,1.2,0,0,1-.933.4,1.313,1.313,0,0,1-.9-.314A1.011,1.011,0,0,1,4.5-1.039a1.045,1.045,0,0,1,.436-.9,2.15,2.15,0,0,1,1.26-.318h.455v-.212a.609.609,0,0,0-.132-.41A.518.518,0,0,0,6.1-3.035a.589.589,0,0,0-.391.12.406.406,0,0,0-.142.328H4.58a.992.992,0,0,1,.2-.595,1.31,1.31,0,0,1,.561-.429,2.043,2.043,0,0,1,.813-.156,1.614,1.614,0,0,1,1.085.344,1.2,1.2,0,0,1,.4.966v1.6a1.768,1.768,0,0,0,.147.8V0ZM5.971-.687a.851.851,0,0,0,.4-.1.64.64,0,0,0,.273-.261v-.636H6.279q-.742,0-.79.513l0,.058a.4.4,0,0,0,.13.3A.5.5,0,0,0,5.971-.687ZM9.44,0H8.449V-5.25H9.44Zm.66-1.883a2.193,2.193,0,0,1,.212-.981,1.551,1.551,0,0,1,.61-.667,1.78,1.78,0,0,1,.925-.236,1.684,1.684,0,0,1,1.222.458A1.838,1.838,0,0,1,13.6-2.064l.007.253a1.933,1.933,0,0,1-.475,1.365,1.651,1.651,0,0,1-1.275.514,1.66,1.66,0,0,1-1.277-.513A1.967,1.967,0,0,1,10.1-1.839Zm.988.07a1.382,1.382,0,0,0,.2.806.654.654,0,0,0,.567.279A.655.655,0,0,0,12.414-1a1.513,1.513,0,0,0,.2-.881,1.369,1.369,0,0,0-.2-.8.656.656,0,0,0-.567-.284.645.645,0,0,0-.561.282A1.538,1.538,0,0,0,11.088-1.813Zm5.2-.959a2.684,2.684,0,0,0-.355-.027.724.724,0,0,0-.735.379V0h-.988V-3.7h.933l.027.441A.915.915,0,0,1,16-3.767a1.035,1.035,0,0,1,.308.044ZM18.4.068a1.816,1.816,0,0,1-1.324-.5,1.774,1.774,0,0,1-.511-1.33v-.1a2.234,2.234,0,0,1,.215-1,1.58,1.58,0,0,1,.61-.677,1.712,1.712,0,0,1,.9-.238,1.535,1.535,0,0,1,1.195.479,1.944,1.944,0,0,1,.436,1.357v.4H17.568a.918.918,0,0,0,.289.581.873.873,0,0,0,.61.219,1.066,1.066,0,0,0,.892-.414l.485.543a1.483,1.483,0,0,1-.6.49A1.974,1.974,0,0,1,18.4.068ZM18.289-2.97a.617.617,0,0,0-.477.2,1.031,1.031,0,0,0-.234.57h1.374V-2.28a.735.735,0,0,0-.178-.51A.637.637,0,0,0,18.289-2.97Zm4.2,1.948a.318.318,0,0,0-.179-.285,2.038,2.038,0,0,0-.576-.186q-1.319-.277-1.319-1.121a1.016,1.016,0,0,1,.408-.822,1.648,1.648,0,0,1,1.068-.33,1.773,1.773,0,0,1,1.126.332,1.045,1.045,0,0,1,.422.861h-.988a.478.478,0,0,0-.137-.35.579.579,0,0,0-.427-.138.591.591,0,0,0-.386.113.356.356,0,0,0-.137.287.3.3,0,0,0,.156.265,1.6,1.6,0,0,0,.525.174,4.285,4.285,0,0,1,.622.166,1.022,1.022,0,0,1,.783.995.965.965,0,0,1-.434.819,1.873,1.873,0,0,1-1.121.313A1.956,1.956,0,0,1,21.066-.1,1.385,1.385,0,0,1,20.5-.552a1.056,1.056,0,0,1-.205-.624h.937a.516.516,0,0,0,.195.4.773.773,0,0,0,.485.14.715.715,0,0,0,.429-.108A.335.335,0,0,0,22.487-1.022Zm5.342,0a.318.318,0,0,0-.179-.285,2.038,2.038,0,0,0-.576-.186q-1.319-.277-1.319-1.121a1.016,1.016,0,0,1,.408-.822,1.648,1.648,0,0,1,1.068-.33,1.773,1.773,0,0,1,1.126.332,1.045,1.045,0,0,1,.422.861h-.988a.478.478,0,0,0-.137-.35.579.579,0,0,0-.427-.138.591.591,0,0,0-.386.113.356.356,0,0,0-.137.287.3.3,0,0,0,.156.265,1.6,1.6,0,0,0,.525.174,4.285,4.285,0,0,1,.622.166,1.022,1.022,0,0,1,.783.995.965.965,0,0,1-.434.819,1.873,1.873,0,0,1-1.121.313A1.956,1.956,0,0,1,26.409-.1a1.385,1.385,0,0,1-.566-.455,1.056,1.056,0,0,1-.205-.624h.937a.516.516,0,0,0,.195.4.773.773,0,0,0,.485.14.715.715,0,0,0,.429-.108A.335.335,0,0,0,27.829-1.022Zm3.3,1.09a1.816,1.816,0,0,1-1.324-.5,1.774,1.774,0,0,1-.511-1.33v-.1a2.234,2.234,0,0,1,.215-1,1.58,1.58,0,0,1,.61-.677,1.712,1.712,0,0,1,.9-.238,1.535,1.535,0,0,1,1.195.479,1.944,1.944,0,0,1,.436,1.357v.4H30.293a.918.918,0,0,0,.289.581.873.873,0,0,0,.61.219,1.066,1.066,0,0,0,.892-.414L32.57-.6a1.483,1.483,0,0,1-.6.49A1.974,1.974,0,0,1,31.127.068ZM31.014-2.97a.617.617,0,0,0-.477.2,1.031,1.031,0,0,0-.234.57h1.374V-2.28a.735.735,0,0,0-.178-.51A.637.637,0,0,0,31.014-2.97ZM34.747-.728a.648.648,0,0,0,.444-.15.527.527,0,0,0,.178-.4H36.3a1.267,1.267,0,0,1-.205.689,1.353,1.353,0,0,1-.552.485,1.728,1.728,0,0,1-.774.173,1.606,1.606,0,0,1-1.251-.5,2,2,0,0,1-.458-1.393v-.065a1.972,1.972,0,0,1,.455-1.364,1.587,1.587,0,0,1,1.248-.509,1.556,1.556,0,0,1,1.113.395A1.4,1.4,0,0,1,36.3-2.321h-.926a.679.679,0,0,0-.178-.469.593.593,0,0,0-.451-.18.6.6,0,0,0-.521.252,1.458,1.458,0,0,0-.176.816v.1a1.477,1.477,0,0,0,.174.822A.6.6,0,0,0,34.747-.728Zm4.327.352a1.239,1.239,0,0,1-1.012.444,1.168,1.168,0,0,1-.907-.342,1.459,1.459,0,0,1-.32-1V-3.7h.988v2.392q0,.578.526.578a.713.713,0,0,0,.69-.349V-3.7h.991V0H39.1ZM41.685-3.7l.031.427a1.291,1.291,0,0,1,1.063-.5,1.073,1.073,0,0,1,.875.345,1.611,1.611,0,0,1,.294,1.032V0H42.96V-2.365a.641.641,0,0,0-.137-.456.612.612,0,0,0-.455-.142.68.68,0,0,0-.625.355V0h-.988V-3.7Zm2.857,1.822a2.229,2.229,0,0,1,.388-1.377,1.259,1.259,0,0,1,1.061-.513,1.133,1.133,0,0,1,.892.4V-5.25h.991V0h-.892l-.048-.393a1.162,1.162,0,0,1-.95.461,1.255,1.255,0,0,1-1.048-.514A2.3,2.3,0,0,1,44.543-1.876Zm.988.074a1.46,1.46,0,0,0,.181.8.59.59,0,0,0,.526.277.661.661,0,0,0,.646-.387V-2.577a.651.651,0,0,0-.639-.387Q45.531-2.963,45.531-1.8ZM50.784,0a1.1,1.1,0,0,1-.1-.332,1.2,1.2,0,0,1-.933.4,1.313,1.313,0,0,1-.9-.314,1.011,1.011,0,0,1-.357-.793,1.045,1.045,0,0,1,.436-.9,2.15,2.15,0,0,1,1.26-.318h.455v-.212a.609.609,0,0,0-.132-.41.518.518,0,0,0-.415-.154.589.589,0,0,0-.391.12.406.406,0,0,0-.142.328h-.988a.992.992,0,0,1,.2-.595,1.31,1.31,0,0,1,.561-.429,2.043,2.043,0,0,1,.813-.156,1.614,1.614,0,0,1,1.085.344,1.2,1.2,0,0,1,.4.966v1.6a1.768,1.768,0,0,0,.147.8V0Zm-.817-.687a.851.851,0,0,0,.4-.1.64.64,0,0,0,.273-.261v-.636h-.369q-.742,0-.79.513l0,.058a.4.4,0,0,0,.13.3A.5.5,0,0,0,49.967-.687Zm4.5-2.085a2.684,2.684,0,0,0-.355-.027.724.724,0,0,0-.735.379V0h-.988V-3.7h.933l.027.441a.915.915,0,0,1,.824-.509,1.035,1.035,0,0,1,.308.044ZM55.99,0H55V-3.7h.991ZM54.94-4.655a.486.486,0,0,1,.149-.366.559.559,0,0,1,.405-.144.56.56,0,0,1,.4.144.484.484,0,0,1,.15.366.485.485,0,0,1-.152.369.561.561,0,0,1-.4.144.561.561,0,0,1-.4-.144A.485.485,0,0,1,54.94-4.655Zm1.709,2.772a2.193,2.193,0,0,1,.212-.981,1.551,1.551,0,0,1,.61-.667,1.78,1.78,0,0,1,.925-.236,1.684,1.684,0,0,1,1.222.458,1.838,1.838,0,0,1,.528,1.244l.007.253a1.933,1.933,0,0,1-.475,1.365A1.651,1.651,0,0,1,58.4.068a1.66,1.66,0,0,1-1.277-.513,1.967,1.967,0,0,1-.477-1.395Zm.988.07a1.382,1.382,0,0,0,.2.806.654.654,0,0,0,.567.279A.655.655,0,0,0,58.963-1a1.513,1.513,0,0,0,.2-.881,1.369,1.369,0,0,0-.2-.8A.656.656,0,0,0,58.4-2.97a.645.645,0,0,0-.561.282A1.538,1.538,0,0,0,57.637-1.813Zm5.127.791a.318.318,0,0,0-.179-.285,2.038,2.038,0,0,0-.576-.186q-1.319-.277-1.319-1.121a1.016,1.016,0,0,1,.408-.822,1.648,1.648,0,0,1,1.068-.33,1.773,1.773,0,0,1,1.126.332,1.045,1.045,0,0,1,.422.861h-.988a.478.478,0,0,0-.137-.35.579.579,0,0,0-.427-.138.591.591,0,0,0-.386.113.356.356,0,0,0-.137.287.3.3,0,0,0,.156.265,1.6,1.6,0,0,0,.525.174,4.285,4.285,0,0,1,.622.166,1.022,1.022,0,0,1,.783.995.965.965,0,0,1-.434.819,1.873,1.873,0,0,1-1.121.313A1.956,1.956,0,0,1,61.344-.1a1.385,1.385,0,0,1-.566-.455,1.056,1.056,0,0,1-.205-.624h.937a.516.516,0,0,0,.195.4.773.773,0,0,0,.485.14.715.715,0,0,0,.429-.108A.335.335,0,0,0,62.764-1.022Z" transform="translate(-2514.524 -10242.05)" fill="#12263f"/>
    <path id="Path_611066" data-name="Path 611066" d="M4.351-1.658A1.761,1.761,0,0,1,3.758-.393a2.083,2.083,0,0,1-1.41.461A1.873,1.873,0,0,1,.843-.576,2.642,2.642,0,0,1,.294-2.345v-.3A2.983,2.983,0,0,1,.547-3.914a1.9,1.9,0,0,1,.723-.839,2.025,2.025,0,0,1,1.092-.292,2.029,2.029,0,0,1,1.388.461,1.892,1.892,0,0,1,.608,1.3H3.333a1.039,1.039,0,0,0-.268-.7.994.994,0,0,0-.7-.217.871.871,0,0,0-.767.367A2.059,2.059,0,0,0,1.333-2.7v.376a2.2,2.2,0,0,0,.244,1.179.855.855,0,0,0,.771.373,1.012,1.012,0,0,0,.709-.217.98.98,0,0,0,.268-.672ZM7.174-.376A1.239,1.239,0,0,1,6.163.068a1.168,1.168,0,0,1-.907-.342,1.459,1.459,0,0,1-.32-1V-3.7h.988v2.392q0,.578.526.578a.713.713,0,0,0,.69-.349V-3.7h.991V0H7.2ZM9.919,0H8.928V-5.25h.991Zm2-4.607V-3.7h.632v.725h-.632v1.846a.441.441,0,0,0,.079.294.4.4,0,0,0,.3.089,1.575,1.575,0,0,0,.291-.024v.749a2.034,2.034,0,0,1-.6.089.943.943,0,0,1-1.06-1.049V-2.974h-.54V-3.7h.54v-.909Zm3.4,4.231A1.239,1.239,0,0,1,14.3.068a1.168,1.168,0,0,1-.907-.342,1.459,1.459,0,0,1-.32-1V-3.7h.988v2.392q0,.578.526.578a.713.713,0,0,0,.69-.349V-3.7h.991V0h-.93Zm3.78-2.4a2.684,2.684,0,0,0-.355-.027A.724.724,0,0,0,18-2.42V0h-.988V-3.7h.933l.027.441a.915.915,0,0,1,.824-.509,1.035,1.035,0,0,1,.308.044ZM21.5,0a1.1,1.1,0,0,1-.1-.332,1.2,1.2,0,0,1-.933.4,1.313,1.313,0,0,1-.9-.314,1.011,1.011,0,0,1-.357-.793,1.045,1.045,0,0,1,.436-.9,2.15,2.15,0,0,1,1.26-.318h.455v-.212a.609.609,0,0,0-.132-.41.518.518,0,0,0-.415-.154.589.589,0,0,0-.391.12.406.406,0,0,0-.142.328H19.3a.992.992,0,0,1,.2-.595,1.31,1.31,0,0,1,.561-.429,2.043,2.043,0,0,1,.813-.156,1.614,1.614,0,0,1,1.085.344,1.2,1.2,0,0,1,.4.966v1.6a1.768,1.768,0,0,0,.147.8V0Zm-.817-.687a.851.851,0,0,0,.4-.1.64.64,0,0,0,.273-.261v-.636h-.369q-.742,0-.79.513l0,.058a.4.4,0,0,0,.13.3A.5.5,0,0,0,20.687-.687ZM24.156,0h-.991V-5.25h.991Z" transform="translate(-2492.579 -10207.914)" fill="#12263f"/>
    <path id="Path_611067" data-name="Path 611067" d="M4.495,0H3.469V-2.133h-2V0H.444V-4.977H1.47V-2.96h2V-4.977H4.495ZM6.368,0H5.376V-3.7h.991ZM5.318-4.655a.486.486,0,0,1,.149-.366.559.559,0,0,1,.405-.144.56.56,0,0,1,.4.144.484.484,0,0,1,.15.366.485.485,0,0,1-.152.369.561.561,0,0,1-.4.144.561.561,0,0,1-.4-.144A.485.485,0,0,1,5.318-4.655ZM9.184-1.022A.318.318,0,0,0,9-1.307a2.038,2.038,0,0,0-.576-.186Q7.109-1.771,7.109-2.615a1.016,1.016,0,0,1,.408-.822,1.648,1.648,0,0,1,1.068-.33,1.773,1.773,0,0,1,1.126.332,1.045,1.045,0,0,1,.422.861H9.146a.478.478,0,0,0-.137-.35.579.579,0,0,0-.427-.138A.591.591,0,0,0,8.2-2.95a.356.356,0,0,0-.137.287.3.3,0,0,0,.156.265,1.6,1.6,0,0,0,.525.174,4.285,4.285,0,0,1,.622.166,1.022,1.022,0,0,1,.783.995.965.965,0,0,1-.434.819A1.873,1.873,0,0,1,8.589.068,1.956,1.956,0,0,1,7.764-.1,1.385,1.385,0,0,1,7.2-.552a1.056,1.056,0,0,1-.205-.624H7.93a.516.516,0,0,0,.195.4.773.773,0,0,0,.485.14A.715.715,0,0,0,9.039-.74.335.335,0,0,0,9.184-1.022Zm2.779-3.585V-3.7H12.6v.725h-.632v1.846a.441.441,0,0,0,.079.294.4.4,0,0,0,.3.089,1.575,1.575,0,0,0,.291-.024v.749a2.034,2.034,0,0,1-.6.089.943.943,0,0,1-1.06-1.049V-2.974h-.54V-3.7h.54v-.909Zm.926,2.724a2.193,2.193,0,0,1,.212-.981,1.551,1.551,0,0,1,.61-.667,1.78,1.78,0,0,1,.925-.236,1.684,1.684,0,0,1,1.222.458,1.838,1.838,0,0,1,.528,1.244l.007.253a1.933,1.933,0,0,1-.475,1.365,1.651,1.651,0,0,1-1.275.514,1.66,1.66,0,0,1-1.277-.513,1.967,1.967,0,0,1-.477-1.395Zm.988.07a1.382,1.382,0,0,0,.2.806.654.654,0,0,0,.567.279A.655.655,0,0,0,15.2-1a1.513,1.513,0,0,0,.2-.881,1.369,1.369,0,0,0-.2-.8.656.656,0,0,0-.567-.284.645.645,0,0,0-.561.282A1.538,1.538,0,0,0,13.877-1.813Zm.954-3.437h1.077L14.96-4.19h-.8Zm4.249,2.478a2.684,2.684,0,0,0-.355-.027.724.724,0,0,0-.735.379V0H17V-3.7h.933l.027.441a.915.915,0,0,1,.824-.509,1.035,1.035,0,0,1,.308.044ZM20.6,0h-.991V-3.7H20.6ZM19.547-4.655a.486.486,0,0,1,.149-.366.559.559,0,0,1,.405-.144.56.56,0,0,1,.4.144.484.484,0,0,1,.15.366.485.485,0,0,1-.152.369.561.561,0,0,1-.4.144.561.561,0,0,1-.4-.144A.485.485,0,0,1,19.547-4.655Zm3.4,3.927a.648.648,0,0,0,.444-.15.527.527,0,0,0,.178-.4H24.5a1.267,1.267,0,0,1-.205.689A1.353,1.353,0,0,1,23.74-.1a1.728,1.728,0,0,1-.774.173,1.606,1.606,0,0,1-1.251-.5,2,2,0,0,1-.458-1.393v-.065a1.972,1.972,0,0,1,.455-1.364,1.587,1.587,0,0,1,1.248-.509,1.556,1.556,0,0,1,1.113.395A1.4,1.4,0,0,1,24.5-2.321H23.57a.679.679,0,0,0-.178-.469.593.593,0,0,0-.451-.18.6.6,0,0,0-.521.252,1.458,1.458,0,0,0-.176.816v.1a1.477,1.477,0,0,0,.174.822A.6.6,0,0,0,22.948-.728Zm1.958-1.155a2.193,2.193,0,0,1,.212-.981,1.551,1.551,0,0,1,.61-.667,1.78,1.78,0,0,1,.925-.236,1.684,1.684,0,0,1,1.222.458A1.838,1.838,0,0,1,28.4-2.064l.007.253a1.933,1.933,0,0,1-.475,1.365A1.651,1.651,0,0,1,26.66.068a1.66,1.66,0,0,1-1.277-.513,1.967,1.967,0,0,1-.477-1.395Zm.988.07a1.382,1.382,0,0,0,.2.806.654.654,0,0,0,.567.279A.655.655,0,0,0,27.221-1a1.513,1.513,0,0,0,.2-.881,1.369,1.369,0,0,0-.2-.8.656.656,0,0,0-.567-.284.645.645,0,0,0-.561.282A1.538,1.538,0,0,0,25.895-1.813Z" transform="translate(-2495.017 -10186.454)" fill="#12263f"/>
    <path id="Path_611068" data-name="Path 611068" d="M4.351-1.658A1.761,1.761,0,0,1,3.758-.393a2.083,2.083,0,0,1-1.41.461A1.873,1.873,0,0,1,.843-.576,2.642,2.642,0,0,1,.294-2.345v-.3A2.983,2.983,0,0,1,.547-3.914a1.9,1.9,0,0,1,.723-.839,2.025,2.025,0,0,1,1.092-.292,2.029,2.029,0,0,1,1.388.461,1.892,1.892,0,0,1,.608,1.3H3.333a1.039,1.039,0,0,0-.268-.7.994.994,0,0,0-.7-.217.871.871,0,0,0-.767.367A2.059,2.059,0,0,0,1.333-2.7v.376a2.2,2.2,0,0,0,.244,1.179.855.855,0,0,0,.771.373,1.012,1.012,0,0,0,.709-.217.98.98,0,0,0,.268-.672ZM6,0H5.011V-3.7H6ZM4.953-4.655A.486.486,0,0,1,5.1-5.021a.559.559,0,0,1,.405-.144.56.56,0,0,1,.4.144.484.484,0,0,1,.15.366.485.485,0,0,1-.152.369.561.561,0,0,1-.4.144.561.561,0,0,1-.4-.144A.485.485,0,0,1,4.953-4.655ZM8.518.068a1.816,1.816,0,0,1-1.324-.5,1.774,1.774,0,0,1-.511-1.33v-.1a2.234,2.234,0,0,1,.215-1,1.58,1.58,0,0,1,.61-.677,1.712,1.712,0,0,1,.9-.238A1.535,1.535,0,0,1,9.6-3.288a1.944,1.944,0,0,1,.436,1.357v.4H7.684a.918.918,0,0,0,.289.581.873.873,0,0,0,.61.219,1.066,1.066,0,0,0,.892-.414L9.96-.6a1.483,1.483,0,0,1-.6.49A1.974,1.974,0,0,1,8.518.068ZM8.4-2.97a.617.617,0,0,0-.477.2,1.031,1.031,0,0,0-.234.57H9.068V-2.28a.735.735,0,0,0-.178-.51A.637.637,0,0,0,8.4-2.97Zm3.1-.728.031.427a1.291,1.291,0,0,1,1.063-.5,1.073,1.073,0,0,1,.875.345,1.611,1.611,0,0,1,.294,1.032V0h-.988V-2.365a.641.641,0,0,0-.137-.456.612.612,0,0,0-.455-.142.68.68,0,0,0-.625.355V0h-.988V-3.7ZM15.7-4.607V-3.7h.632v.725H15.7v1.846a.441.441,0,0,0,.079.294.4.4,0,0,0,.3.089,1.575,1.575,0,0,0,.291-.024v.749a2.034,2.034,0,0,1-.6.089.943.943,0,0,1-1.06-1.049V-2.974h-.54V-3.7h.54v-.909ZM17.951,0h-.988V-3.7h.988Zm-.291-5.2h1.077l-.947,1.06h-.8ZM19.042,0V-2.974h-.55V-3.7h.55v-.171a1.387,1.387,0,0,1,.429-1.075,1.726,1.726,0,0,1,1.191-.378,3.951,3.951,0,0,1,1.121.2l-.144.817a4.374,4.374,0,0,0-.52-.128,2.553,2.553,0,0,0-.4-.029q-.69,0-.69.612v.15h.728v.725h-.728V0Zm3.2,0h-.991V-3.7h.991ZM24.6-.728a.648.648,0,0,0,.444-.15.527.527,0,0,0,.178-.4h.926a1.267,1.267,0,0,1-.205.689A1.353,1.353,0,0,1,25.39-.1a1.728,1.728,0,0,1-.774.173,1.606,1.606,0,0,1-1.251-.5,2,2,0,0,1-.458-1.393v-.065a1.972,1.972,0,0,1,.455-1.364,1.587,1.587,0,0,1,1.248-.509,1.556,1.556,0,0,1,1.113.395,1.4,1.4,0,0,1,.426,1.051h-.926a.679.679,0,0,0-.178-.469.593.593,0,0,0-.451-.18.6.6,0,0,0-.521.252A1.458,1.458,0,0,0,23.9-1.9v.1a1.477,1.477,0,0,0,.174.822A.6.6,0,0,0,24.6-.728Zm1.958-1.155a2.193,2.193,0,0,1,.212-.981,1.551,1.551,0,0,1,.61-.667,1.78,1.78,0,0,1,.925-.236,1.684,1.684,0,0,1,1.222.458,1.838,1.838,0,0,1,.528,1.244l.007.253a1.933,1.933,0,0,1-.475,1.365,1.651,1.651,0,0,1-1.275.514,1.66,1.66,0,0,1-1.277-.513,1.967,1.967,0,0,1-.477-1.395Zm.988.07a1.382,1.382,0,0,0,.2.806.654.654,0,0,0,.567.279A.655.655,0,0,0,28.872-1a1.513,1.513,0,0,0,.2-.881,1.369,1.369,0,0,0-.2-.8A.656.656,0,0,0,28.3-2.97a.645.645,0,0,0-.561.282A1.538,1.538,0,0,0,27.545-1.813Z" transform="translate(-2495.992 -10164.994)" fill="#12263f"/>
  </g>
</svg>
