<svg xmlns="http://www.w3.org/2000/svg" xmlns:xlink="http://www.w3.org/1999/xlink" width="125" height="125" viewBox="0 0 125 125">
  <defs>
    <clipPath id="clip-path">
      <rect id="Rectangle_378081" data-name="Rectangle 378081" width="65.209" height="65.103" fill="#66542f"/>
    </clipPath>
  </defs>
  <g id="Group_1073074" data-name="Group 1073074" transform="translate(-3117 9064.706)">
    <g id="Group_1072910" data-name="Group 1072910" transform="translate(2731 -11210.706)">
      <path id="Path_608385" data-name="Path 608385" d="M62.5,0A62.5,62.5,0,1,1,0,62.5,62.5,62.5,0,0,1,62.5,0Z" transform="translate(386 2146)" fill="#fff"/>
    </g>
    <g id="Group_1072922" data-name="Group 1072922" transform="translate(3147.85 -9036.706)">
      <g id="Group_1072921" data-name="Group 1072921" transform="translate(0 0)" clip-path="url(#clip-path)">
        <path id="Path_610774" data-name="Path 610774" d="M50.21,62.23H2.765V2.659H37.977V9.468a1.408,1.408,0,0,0,1.383,1.383H50.423a1.384,1.384,0,0,0,1.17-1.383A1.309,1.309,0,0,0,51.061,8.4S40.21.213,40.1.213A1.511,1.511,0,0,0,39.465,0H1.383A1.407,1.407,0,0,0,0,1.383V63.72A1.407,1.407,0,0,0,1.383,65.1H50.21a1.408,1.408,0,0,0,1.383-1.383A1.507,1.507,0,0,0,50.21,62.23M40.636,3.936l5.425,4.042H40.636Z" transform="translate(0 0)" fill="#66542f"/>
        <path id="Path_610775" data-name="Path 610775" d="M37.409,13.9H10.283a1.383,1.383,0,1,0,0,2.766H37.409a1.383,1.383,0,0,0,0-2.766" transform="translate(0.568 0.886)" fill="#66542f"/>
        <path id="Path_610776" data-name="Path 610776" d="M38.792,21.683A1.408,1.408,0,0,0,37.409,20.3H10.283a1.383,1.383,0,1,0,0,2.766H37.409a1.408,1.408,0,0,0,1.383-1.383" transform="translate(0.568 1.294)" fill="#66542f"/>
        <path id="Path_610777" data-name="Path 610777" d="M10.283,29.366H30.6a1.383,1.383,0,0,0,0-2.766H10.283A1.408,1.408,0,0,0,8.9,27.983a1.341,1.341,0,0,0,1.383,1.383" transform="translate(0.568 1.696)" fill="#66542f"/>
        <path id="Path_610778" data-name="Path 610778" d="M10.283,35.766H30.6A1.383,1.383,0,0,0,30.6,33H10.283a1.383,1.383,0,1,0,0,2.766" transform="translate(0.568 2.104)" fill="#66542f"/>
        <path id="Path_610779" data-name="Path 610779" d="M10.283,42.166H30.6a1.383,1.383,0,0,0,0-2.766H10.283a1.383,1.383,0,1,0,0,2.766" transform="translate(0.568 2.512)" fill="#66542f"/>
        <path id="Path_610780" data-name="Path 610780" d="M10.283,48.466H30.6a1.383,1.383,0,0,0,0-2.766H10.283A1.408,1.408,0,0,0,8.9,47.083a1.341,1.341,0,0,0,1.383,1.383" transform="translate(0.568 2.914)" fill="#66542f"/>
        <path id="Path_610781" data-name="Path 610781" d="M10.283,54.866H34.642a1.383,1.383,0,1,0,0-2.766H10.283a1.383,1.383,0,0,0,0,2.766" transform="translate(0.568 3.322)" fill="#66542f"/>
        <rect id="Rectangle_378076" data-name="Rectangle 378076" width="2.659" height="2.659" transform="translate(12.233 9.361)" fill="#66542f"/>
        <rect id="Rectangle_378077" data-name="Rectangle 378077" width="2.659" height="2.659" transform="translate(17.659 9.361)" fill="#66542f"/>
        <rect id="Rectangle_378078" data-name="Rectangle 378078" width="2.659" height="2.659" transform="translate(23.084 9.361)" fill="#66542f"/>
        <rect id="Rectangle_378079" data-name="Rectangle 378079" width="2.659" height="2.659" transform="translate(28.509 9.361)" fill="#66542f"/>
        <rect id="Rectangle_378080" data-name="Rectangle 378080" width="2.659" height="2.659" transform="translate(33.934 9.361)" fill="#66542f"/>
        <path id="Path_610782" data-name="Path 610782" d="M61.437,31.476H58.777V24.668a9.468,9.468,0,0,0-18.935,0v6.808H37.183A1.408,1.408,0,0,0,35.8,32.859V51.794a1.408,1.408,0,0,0,1.383,1.383h24.36a1.408,1.408,0,0,0,1.383-1.383V32.859a1.588,1.588,0,0,0-1.489-1.383M42.5,24.668a6.808,6.808,0,0,1,13.616,0v6.808H42.5ZM60.054,50.411h-21.7V34.135h21.7Z" transform="translate(2.283 0.969)" fill="#66542f"/>
        <path id="Path_610783" data-name="Path 610783" d="M48.642,35.6a4.061,4.061,0,0,0-1.384,7.872v1.6a1.383,1.383,0,0,0,2.767,0v-1.6a3.935,3.935,0,0,0,2.659-3.83A3.975,3.975,0,0,0,48.642,35.6m0,5.425a1.383,1.383,0,1,1,1.383-1.383,1.409,1.409,0,0,1-1.383,1.383" transform="translate(2.844 2.27)" fill="#66542f"/>
      </g>
    </g>
  </g>
</svg>
