<svg xmlns="http://www.w3.org/2000/svg" xmlns:xlink="http://www.w3.org/1999/xlink" width="400" height="500" viewBox="0 0 400 500">
  <defs>
    <linearGradient id="linear-gradient" x1="0.5" x2="0.5" y2="1" gradientUnits="objectBoundingBox">
      <stop offset="0" stop-color="#fefaf3"/>
      <stop offset="1" stop-color="#ebeae6"/>
    </linearGradient>
    <clipPath id="clip-path">
      <rect id="Rectangle_378014" data-name="Rectangle 378014" width="133.678" height="122.323" fill="none"/>
    </clipPath>
    <clipPath id="clip-path-2">
      <rect id="Rectangle_378003" data-name="Rectangle 378003" width="97.402" height="102.884" transform="translate(26)" fill="none"/>
    </clipPath>
  </defs>
  <g id="Group_1073071" data-name="Group 1073071" transform="translate(3653.502 10658.886)">
    <path id="Path_610973" data-name="Path 610973" d="M28,0H372a28,28,0,0,1,28,28V472a28,28,0,0,1-28,28H28A28,28,0,0,1,0,472V28A28,28,0,0,1,28,0Z" transform="translate(-3653.502 -10658.886)" fill="url(#linear-gradient)"/>
    <path id="Path_605292" data-name="Path 605292" d="M0,0H17.089" transform="translate(-3496.71 -10475.968) rotate(90)" fill="none" stroke="#e6bd6b" stroke-width="3"/>
    <path id="Path_605296" data-name="Path 605296" d="M0,0H20.106" transform="translate(-3496.71 -10339.917) rotate(90)" fill="none" stroke="#e6bd6b" stroke-width="3"/>
    <path id="Path_605293" data-name="Path 605293" d="M0,0H51.077" transform="translate(-3496.71 -10515.857) rotate(90)" fill="none" stroke="#e6bd6b" stroke-width="3"/>
    <path id="Path_610333" data-name="Path 610333" d="M84.2,157.717l4.135,67.02a4.529,4.529,0,0,0,4.52,4.247H213.515a4.525,4.525,0,0,0,4.526-4.526V172.265a4.526,4.526,0,0,0-4.556-4.526l-74.2.477a4.522,4.522,0,0,1-3.206-1.3l-12.9-12.7a4.524,4.524,0,0,0-3.176-1.3H88.722A4.528,4.528,0,0,0,84.2,157.717Z" transform="translate(-3647.969 -10750.933)" fill="#ffd277"/>
    <g id="Group_1073024" data-name="Group 1073024" transform="translate(-240.78 216.108)">
      <path id="Path_610334" data-name="Path 610334" d="M84.2,157.717l4.135,67.02a4.529,4.529,0,0,0,4.52,4.247H213.515a4.525,4.525,0,0,0,4.526-4.526V172.265a4.526,4.526,0,0,0-4.556-4.526l-74.2.477a4.522,4.522,0,0,1-3.206-1.3l-12.9-12.7a4.524,4.524,0,0,0-3.176-1.3H88.722A4.528,4.528,0,0,0,84.2,157.717Z" transform="translate(-3407.189 -10967.041)" opacity="0.4"/>
      <g id="Group_1072702" data-name="Group 1072702" transform="translate(-3330.629 -10784.571)">
        <path id="Path_610335" data-name="Path 610335" d="M80.41,170.916l10.064,82.15a2.91,2.91,0,0,0,2.89,2.557H221.842a2.913,2.913,0,0,0,2.9-2.683l6.467-82.148a2.91,2.91,0,0,0-2.9-3.14H83.3A2.911,2.911,0,0,0,80.41,170.916Z" transform="translate(-80.388 -167.651)" fill="#ffd277"/>
      </g>
    </g>
    <g id="Group_1072829" data-name="Group 1072829" transform="translate(-3561.36 -10314.083)">
      <rect id="Rectangle_378004" data-name="Rectangle 378004" width="29.459" height="89.157" transform="translate(73.104 0.001)" fill="#e3e8ef"/>
      <rect id="Rectangle_378005" data-name="Rectangle 378005" width="29.462" height="89.157" transform="translate(74.757 0.001)" fill="#fff"/>
      <path id="Path_610427" data-name="Path 610427" d="M50.305,0V89.157H79.767V15.2L63.2,0Z" transform="translate(53.912 0)" fill="#fff"/>
      <path id="Path_610428" data-name="Path 610428" d="M56.532,0V15.2H73.095Z" transform="translate(60.584 0)" fill="#d5d5d5"/>
      <rect id="Rectangle_378006" data-name="Rectangle 378006" width="23.746" height="8.142" transform="translate(104.218 37.003)" fill="#1e2d4f"/>
      <rect id="Rectangle_378007" data-name="Rectangle 378007" width="23.746" height="8.142" transform="translate(80.473 37.003)" fill="#36528a"/>
      <rect id="Rectangle_378008" data-name="Rectangle 378008" width="23.746" height="8.142" transform="translate(104.218 22.383)" fill="#1e2d4f"/>
      <rect id="Rectangle_378009" data-name="Rectangle 378009" width="23.746" height="8.142" transform="translate(80.473 22.383)" fill="#36528a"/>
      <rect id="Rectangle_378010" data-name="Rectangle 378010" width="23.746" height="8.14" transform="translate(104.218 66.239)" fill="#1e2d4f"/>
      <rect id="Rectangle_378011" data-name="Rectangle 378011" width="23.746" height="8.14" transform="translate(80.473 66.239)" fill="#36528a"/>
      <rect id="Rectangle_378012" data-name="Rectangle 378012" width="23.746" height="8.14" transform="translate(104.218 51.621)" fill="#1e2d4f"/>
      <rect id="Rectangle_378013" data-name="Rectangle 378013" width="23.746" height="8.14" transform="translate(80.473 51.621)" fill="#36528a"/>
      <g id="Group_1072828" data-name="Group 1072828" transform="translate(0 0.001)">
        <g id="Group_1072827" data-name="Group 1072827" clip-path="url(#clip-path)">
          <path id="Path_610429" data-name="Path 610429" d="M20.09,16l31.533.34a6.79,6.79,0,0,1,5.871,4.11l1.9,5.032,34.753.116a4.593,4.593,0,0,1,4.533,4.626L96.7,77.119a4.376,4.376,0,0,1-4.317,4.4H21.853a4.379,4.379,0,0,1-4.322-4.4l-1.981-56.5A4.6,4.6,0,0,1,20.09,16" transform="translate(16.666 17.142)" fill="#a1894c"/>
          <path id="Path_610430" data-name="Path 610430" d="M94.419,44.666,19.254,50.384,16.907,26.872l75.165-5.72Z" transform="translate(18.119 22.667)" fill="#e3e8ef"/>
          <path id="Path_610431" data-name="Path 610431" d="M97.786,24.119l-33.5.3a7.286,7.286,0,0,0-6.238,3.7l-2.01,4.523-36.922.106c-2.648,0-4.819,1.877-4.819,4.162l2.1,42.2c0,2.179,2.065,3.963,4.591,3.963H95.911c2.523,0,4.589-1.784,4.589-3.963l2.1-50.839c0-2.287-2.167-4.158-4.815-4.158" transform="translate(15.328 25.847)" fill="#ffd277"/>
          <path id="Path_610432" data-name="Path 610432" d="M24.6,42.25,10.421,53.356l2.047,3.05L26.649,45.3Z" transform="translate(11.168 45.277)" fill="#1a4b6c"/>
          <path id="Path_610433" data-name="Path 610433" d="M27.636,46.773l-2.047-3.05-14.181,11.1,2.047,3.05Z" transform="translate(12.227 46.857)" fill="#134663"/>
          <path id="Path_610434" data-name="Path 610434" d="M25.027,44.833a87.057,87.057,0,0,0-24,18.8c1.2,1.8,2.1,3.147,3.01,4.5l24-18.8-3.01-4.5" transform="translate(1.097 48.046)" fill="#ff4140"/>
          <path id="Path_610435" data-name="Path 610435" d="M29.487,51.493c-1.2-1.8-2.1-3.143-3.008-4.489L2.478,65.8c.9,1.347,1.8,2.693,3.012,4.489a87,87,0,0,0,24-18.794" transform="translate(2.656 50.373)" fill="#c42121"/>
          <path id="Path_610436" data-name="Path 610436" d="M22.832,32.8c-8.854,6.932-10.837,20.315-4.419,29.886L50.477,37.584C44.06,28.013,31.684,25.873,22.832,32.8" transform="translate(15.695 30.795)" fill="#ff4140"/>
          <path id="Path_610437" data-name="Path 610437" d="M48.527,33.007,16.463,58.114c6.412,9.571,18.788,11.711,27.643,4.777s10.831-20.313,4.421-29.884" transform="translate(17.643 35.372)" fill="#c42121"/>
          <path id="Path_610438" data-name="Path 610438" d="M41.113,34.852,18.82,52.312c4.458,6.654,13.064,8.142,19.221,3.321a15.675,15.675,0,0,0,3.072-20.781" transform="translate(20.169 37.35)" fill="#7398b4"/>
          <path id="Path_610439" data-name="Path 610439" d="M23.247,34.712A15.679,15.679,0,0,0,20.174,55.5l22.293-17.46C38.01,31.376,29.4,29.893,23.247,34.712" transform="translate(18.815 34.167)" fill="#9ecbde"/>
          <path id="Path_610440" data-name="Path 610440" d="M4.462,62.227l2.123-1.661-3.01-4.489L1.454,57.734Z" transform="translate(1.558 60.096)" fill="#de8e0d"/>
          <path id="Path_610441" data-name="Path 610441" d="M0,55.57l3.012,4.489L5.132,58.4l-3.01-4.5Z" transform="translate(0 57.769)" fill="#ffd277"/>
          <path id="Path_610442" data-name="Path 610442" d="M19.2,50.693,16.189,46.2l-2.126,1.664,3.008,4.489Z" transform="translate(15.071 49.512)" fill="#de8e0d"/>
          <path id="Path_610443" data-name="Path 610443" d="M14.732,44.033,12.611,45.69l3.008,4.5,2.128-1.666Z" transform="translate(13.515 47.188)" fill="#ffd277"/>
        </g>
      </g>
    </g>
    <path id="Path_610974" data-name="Path 610974" d="M79.9,12.829a1.278,1.278,0,0,0-.5-1.083,6.533,6.533,0,0,0-1.793-.8,12.71,12.71,0,0,1-2.05-.826,3.35,3.35,0,0,1-2.059-3,2.919,2.919,0,0,1,.552-1.747,3.6,3.6,0,0,1,1.585-1.2,5.967,5.967,0,0,1,2.32-.432,5.432,5.432,0,0,1,2.308.469,3.674,3.674,0,0,1,1.573,1.324,3.464,3.464,0,0,1,.56,1.942H79.9a1.63,1.63,0,0,0-.523-1.291,2.15,2.15,0,0,0-1.469-.461,2.3,2.3,0,0,0-1.419.386,1.217,1.217,0,0,0-.506,1.017,1.166,1.166,0,0,0,.594.988,6.705,6.705,0,0,0,1.747.747,7.55,7.55,0,0,1,3.1,1.585,3.157,3.157,0,0,1,.971,2.357,2.909,2.909,0,0,1-1.187,2.461,5.2,5.2,0,0,1-3.2.892,6.171,6.171,0,0,1-2.54-.51,4.019,4.019,0,0,1-1.747-1.4,3.582,3.582,0,0,1-.6-2.059h2.5q0,2,2.391,2a2.326,2.326,0,0,0,1.386-.361A1.175,1.175,0,0,0,79.9,12.829Zm8.16,3.337a4.409,4.409,0,0,1-3.217-1.212A4.308,4.308,0,0,1,83.6,11.725v-.232a5.426,5.426,0,0,1,.523-2.42A3.838,3.838,0,0,1,85.6,7.429a4.159,4.159,0,0,1,2.187-.577,3.727,3.727,0,0,1,2.9,1.162,4.722,4.722,0,0,1,1.058,3.3v.979H86.029a2.229,2.229,0,0,0,.7,1.411,2.12,2.12,0,0,0,1.482.531,2.589,2.589,0,0,0,2.167-1l1.179,1.32A3.6,3.6,0,0,1,90.1,15.739,4.793,4.793,0,0,1,88.055,16.166Zm-.274-7.379a1.5,1.5,0,0,0-1.158.484,2.5,2.5,0,0,0-.569,1.384h3.337v-.192a1.786,1.786,0,0,0-.432-1.238A1.547,1.547,0,0,0,87.781,8.787Zm10.376.481a6.517,6.517,0,0,0-.863-.066,1.757,1.757,0,0,0-1.785.921V16h-2.4V7.019h2.266l.066,1.071a2.223,2.223,0,0,1,2-1.237,2.514,2.514,0,0,1,.747.108ZM101.842,16H99.435V7.019h2.407ZM99.294,4.694a1.181,1.181,0,0,1,.361-.888,1.556,1.556,0,0,1,1.963,0,1.175,1.175,0,0,1,.365.888,1.178,1.178,0,0,1-.369.9,1.539,1.539,0,0,1-1.951,0A1.178,1.178,0,0,1,99.294,4.694Zm8.658,11.472a4.409,4.409,0,0,1-3.217-1.212,4.308,4.308,0,0,1-1.241-3.229v-.232a5.426,5.426,0,0,1,.523-2.42A3.838,3.838,0,0,1,105.5,7.429a4.159,4.159,0,0,1,2.187-.577,3.727,3.727,0,0,1,2.9,1.162,4.722,4.722,0,0,1,1.058,3.3v.979h-5.719a2.229,2.229,0,0,0,.7,1.411,2.12,2.12,0,0,0,1.482.531,2.589,2.589,0,0,0,2.167-1l1.179,1.32a3.6,3.6,0,0,1-1.461,1.191A4.793,4.793,0,0,1,107.952,16.166Zm-.274-7.379a1.5,1.5,0,0,0-1.158.484,2.5,2.5,0,0,0-.569,1.384h3.337v-.192a1.786,1.786,0,0,0-.432-1.238A1.547,1.547,0,0,0,107.678,8.787ZM47.684,31.443a5.413,5.413,0,0,1,.942-3.345A3.057,3.057,0,0,1,51.2,26.853a2.751,2.751,0,0,1,2.167.979V23.25h2.407V36H53.611l-.116-.955a2.823,2.823,0,0,1-2.308,1.121,3.049,3.049,0,0,1-2.544-1.249A5.587,5.587,0,0,1,47.684,31.443Zm2.4.179a3.546,3.546,0,0,0,.44,1.937,1.433,1.433,0,0,0,1.278.673,1.605,1.605,0,0,0,1.569-.939v-3.55a1.582,1.582,0,0,0-1.552-.939Q50.083,28.8,50.083,31.621Zm7.18-.2a5.327,5.327,0,0,1,.515-2.382,3.767,3.767,0,0,1,1.482-1.619,4.323,4.323,0,0,1,2.245-.573,4.09,4.09,0,0,1,2.968,1.112,4.464,4.464,0,0,1,1.282,3.021l.017.614a4.694,4.694,0,0,1-1.154,3.316,4.472,4.472,0,0,1-6.2,0,4.777,4.777,0,0,1-1.158-3.387Zm2.4.17a3.357,3.357,0,0,0,.481,1.958,1.73,1.73,0,0,0,2.739.008,3.674,3.674,0,0,0,.49-2.141,3.324,3.324,0,0,0-.49-1.945,1.592,1.592,0,0,0-1.378-.69,1.566,1.566,0,0,0-1.361.686A3.735,3.735,0,0,0,59.662,31.6Zm11.322,2.635a1.573,1.573,0,0,0,1.079-.365,1.28,1.28,0,0,0,.432-.971h2.25a3.077,3.077,0,0,1-.5,1.673,3.286,3.286,0,0,1-1.341,1.179,4.2,4.2,0,0,1-1.88.419,3.9,3.9,0,0,1-3.038-1.224,4.845,4.845,0,0,1-1.112-3.383V31.4a4.79,4.79,0,0,1,1.1-3.312,3.854,3.854,0,0,1,3.03-1.237,3.778,3.778,0,0,1,2.7.959,3.4,3.4,0,0,1,1.033,2.552h-2.25a1.648,1.648,0,0,0-.432-1.139A1.6,1.6,0,0,0,69.7,29.4a3.541,3.541,0,0,0-.427,1.983v.249a3.586,3.586,0,0,0,.423,2A1.463,1.463,0,0,0,70.984,34.232Zm10.509.855a3.008,3.008,0,0,1-2.457,1.079,2.837,2.837,0,0,1-2.2-.83,3.543,3.543,0,0,1-.776-2.432V27.019h2.4v5.809q0,1.4,1.278,1.4a1.732,1.732,0,0,0,1.677-.848V27.019h2.407V36H81.559Zm6.383-8.068.075,1a3.156,3.156,0,0,1,2.582-1.17,2.4,2.4,0,0,1,2.382,1.37,3.084,3.084,0,0,1,2.7-1.37,2.679,2.679,0,0,1,2.175.851,3.911,3.911,0,0,1,.714,2.561V36H96.094V30.272a1.71,1.71,0,0,0-.3-1.116,1.324,1.324,0,0,0-1.054-.353,1.5,1.5,0,0,0-1.494,1.029L93.255,36h-2.4V30.281a1.689,1.689,0,0,0-.307-1.129A1.337,1.337,0,0,0,89.5,28.8a1.555,1.555,0,0,0-1.478.847V36h-2.4V27.019Zm16.6,9.147a4.409,4.409,0,0,1-3.217-1.212,4.308,4.308,0,0,1-1.241-3.229v-.232a5.426,5.426,0,0,1,.523-2.42,3.838,3.838,0,0,1,1.482-1.644,4.159,4.159,0,0,1,2.187-.577,3.727,3.727,0,0,1,2.9,1.162,4.722,4.722,0,0,1,1.058,3.3v.979h-5.719a2.229,2.229,0,0,0,.7,1.411,2.12,2.12,0,0,0,1.482.531,2.589,2.589,0,0,0,2.167-1l1.179,1.32a3.6,3.6,0,0,1-1.461,1.191A4.793,4.793,0,0,1,104.478,36.166Zm-.274-7.379a1.5,1.5,0,0,0-1.158.484,2.5,2.5,0,0,0-.569,1.384h3.337v-.192a1.786,1.786,0,0,0-.432-1.238A1.547,1.547,0,0,0,104.2,28.787Zm7.537-1.768.075,1.038a3.136,3.136,0,0,1,2.582-1.2,2.606,2.606,0,0,1,2.125.838,3.912,3.912,0,0,1,.714,2.507V36h-2.4V30.256a1.556,1.556,0,0,0-.332-1.108,1.486,1.486,0,0,0-1.1-.344,1.65,1.65,0,0,0-1.519.863V36h-2.4V27.019Zm10.185-2.208v2.208h1.536v1.76h-1.536v4.482a1.07,1.07,0,0,0,.191.714.959.959,0,0,0,.73.216,3.825,3.825,0,0,0,.706-.058V35.95a4.939,4.939,0,0,1-1.453.216,2.29,2.29,0,0,1-2.573-2.548V28.778h-1.312v-1.76h1.312V24.811ZM130,36a2.664,2.664,0,0,1-.241-.805,2.9,2.9,0,0,1-2.266.971,3.189,3.189,0,0,1-2.187-.764,2.456,2.456,0,0,1-.867-1.926,2.538,2.538,0,0,1,1.058-2.191,5.222,5.222,0,0,1,3.059-.772h1.1V30a1.48,1.48,0,0,0-.32-1,1.257,1.257,0,0,0-1.009-.374,1.429,1.429,0,0,0-.95.291.987.987,0,0,0-.344.8h-2.4a2.41,2.41,0,0,1,.481-1.444,3.182,3.182,0,0,1,1.361-1.042,4.961,4.961,0,0,1,1.976-.378,3.92,3.92,0,0,1,2.635.834,2.918,2.918,0,0,1,.975,2.345v3.893a4.294,4.294,0,0,0,.357,1.934V36Zm-1.984-1.668a2.066,2.066,0,0,0,.979-.237,1.554,1.554,0,0,0,.664-.635V31.916h-.9q-1.8,0-1.917,1.245l-.008.141a.96.96,0,0,0,.315.739A1.225,1.225,0,0,0,128.019,34.332ZM136.444,36h-2.407V23.25h2.407Z" transform="translate(-3589.224 -10545.857)" fill="#12263f"/>
    <path id="Path_610975" data-name="Path 610975" d="M8.351,10.762H3.569V14H9.181v2h-8.1V3.914H9.164V5.931H3.569v2.88H8.351ZM13.9,9.7l1.511-2.681h2.565l-2.557,4.4L18.087,16H15.514l-1.6-2.822L12.318,16H9.737L12.4,11.418l-2.548-4.4h2.573Zm13.314,1.893a5.387,5.387,0,0,1-.942,3.324,3.021,3.021,0,0,1-2.544,1.249,2.8,2.8,0,0,1-2.2-.946v4.233h-2.4V7.019h2.225l.083.88a2.819,2.819,0,0,1,2.274-1.046A3.041,3.041,0,0,1,26.3,8.081a5.532,5.532,0,0,1,.921,3.387Zm-2.4-.174a3.535,3.535,0,0,0-.444-1.934A1.446,1.446,0,0,0,23.084,8.8a1.571,1.571,0,0,0-1.552.863v3.677a1.6,1.6,0,0,0,1.569.888Q24.819,14.232,24.819,11.418Zm8.019,4.748a4.409,4.409,0,0,1-3.217-1.212,4.308,4.308,0,0,1-1.241-3.229v-.232a5.426,5.426,0,0,1,.523-2.42,3.838,3.838,0,0,1,1.482-1.644,4.159,4.159,0,0,1,2.187-.577,3.727,3.727,0,0,1,2.9,1.162,4.722,4.722,0,0,1,1.058,3.3v.979H30.813a2.229,2.229,0,0,0,.7,1.411A2.12,2.12,0,0,0,33,14.232a2.589,2.589,0,0,0,2.167-1l1.179,1.32a3.6,3.6,0,0,1-1.461,1.191A4.793,4.793,0,0,1,32.838,16.166Zm-.274-7.379a1.5,1.5,0,0,0-1.158.484,2.5,2.5,0,0,0-.569,1.384h3.337v-.192a1.786,1.786,0,0,0-.432-1.238A1.547,1.547,0,0,0,32.564,8.787Zm4.956,2.656A5.413,5.413,0,0,1,38.462,8.1a3.057,3.057,0,0,1,2.577-1.245,2.751,2.751,0,0,1,2.167.979V3.25h2.407V16H43.446l-.116-.955a2.823,2.823,0,0,1-2.308,1.121,3.049,3.049,0,0,1-2.544-1.249A5.587,5.587,0,0,1,37.52,11.443Zm2.4.179a3.546,3.546,0,0,0,.44,1.937,1.433,1.433,0,0,0,1.278.673,1.605,1.605,0,0,0,1.569-.939V9.743A1.582,1.582,0,0,0,41.653,8.8Q39.918,8.8,39.918,11.621ZM50,16H47.6V7.019H50ZM47.456,4.694a1.181,1.181,0,0,1,.361-.888,1.556,1.556,0,0,1,1.963,0,1.175,1.175,0,0,1,.365.888,1.178,1.178,0,0,1-.369.9,1.539,1.539,0,0,1-1.951,0A1.178,1.178,0,0,1,47.456,4.694Zm8.658,11.472A4.409,4.409,0,0,1,52.9,14.954a4.308,4.308,0,0,1-1.241-3.229v-.232a5.426,5.426,0,0,1,.523-2.42A3.838,3.838,0,0,1,53.66,7.429a4.159,4.159,0,0,1,2.187-.577,3.727,3.727,0,0,1,2.9,1.162,4.722,4.722,0,0,1,1.058,3.3v.979H54.088a2.229,2.229,0,0,0,.7,1.411,2.12,2.12,0,0,0,1.482.531,2.589,2.589,0,0,0,2.167-1l1.179,1.32a3.6,3.6,0,0,1-1.461,1.191A4.793,4.793,0,0,1,56.113,16.166Zm-.274-7.379a1.5,1.5,0,0,0-1.158.484,2.5,2.5,0,0,0-.569,1.384H57.45v-.192a1.786,1.786,0,0,0-.432-1.238A1.547,1.547,0,0,0,55.839,8.787Zm7.537-1.768.075,1.038a3.136,3.136,0,0,1,2.582-1.2,2.606,2.606,0,0,1,2.125.838,3.912,3.912,0,0,1,.714,2.507V16h-2.4V10.256a1.556,1.556,0,0,0-.332-1.108,1.486,1.486,0,0,0-1.1-.344,1.65,1.65,0,0,0-1.519.863V16h-2.4V7.019ZM73.562,4.811V7.019H75.1v1.76H73.562v4.482a1.07,1.07,0,0,0,.191.714.959.959,0,0,0,.73.216,3.826,3.826,0,0,0,.706-.058V15.95a4.938,4.938,0,0,1-1.453.216,2.29,2.29,0,0,1-2.573-2.548V8.778H69.851V7.019h1.312V4.811Zm7.006,11.355a4.409,4.409,0,0,1-3.217-1.212,4.308,4.308,0,0,1-1.241-3.229v-.232a5.426,5.426,0,0,1,.523-2.42,3.838,3.838,0,0,1,1.482-1.644A4.159,4.159,0,0,1,80.3,6.853a3.727,3.727,0,0,1,2.9,1.162,4.722,4.722,0,0,1,1.058,3.3v.979H78.542a2.229,2.229,0,0,0,.7,1.411,2.12,2.12,0,0,0,1.482.531,2.589,2.589,0,0,0,2.167-1l1.179,1.32a3.6,3.6,0,0,1-1.461,1.191A4.793,4.793,0,0,1,80.567,16.166Zm-.274-7.379a1.5,1.5,0,0,0-1.158.484,2.5,2.5,0,0,0-.569,1.384H81.9v-.192a1.786,1.786,0,0,0-.432-1.238A1.547,1.547,0,0,0,80.293,8.787Z" transform="translate(-3410.78 -10417.892)" fill="#12263f"/>
    <path id="Path_610976" data-name="Path 610976" d="M1.079,16V3.914H4.8a5.647,5.647,0,0,1,2.851.718A5.007,5.007,0,0,1,9.612,6.674a6.3,6.3,0,0,1,.706,3.009v.556a6.316,6.316,0,0,1-.693,3A4.964,4.964,0,0,1,7.67,15.27,5.69,5.69,0,0,1,4.823,16ZM3.569,5.931V14h1.2a2.7,2.7,0,0,0,2.233-.955,4.314,4.314,0,0,0,.789-2.731V9.675a4.382,4.382,0,0,0-.764-2.793A2.7,2.7,0,0,0,4.8,5.931Zm8.027,5.5a5.327,5.327,0,0,1,.515-2.382,3.768,3.768,0,0,1,1.482-1.619,4.323,4.323,0,0,1,2.245-.573,4.09,4.09,0,0,1,2.968,1.112,4.464,4.464,0,0,1,1.282,3.021l.017.614a4.694,4.694,0,0,1-1.154,3.316,4.011,4.011,0,0,1-3.1,1.249,4.031,4.031,0,0,1-3.1-1.245A4.777,4.777,0,0,1,11.6,11.534Zm2.4.17a3.357,3.357,0,0,0,.481,1.958,1.73,1.73,0,0,0,2.739.008,3.674,3.674,0,0,0,.49-2.141,3.324,3.324,0,0,0-.49-1.945,1.592,1.592,0,0,0-1.378-.69,1.566,1.566,0,0,0-1.361.686A3.735,3.735,0,0,0,14,11.6Zm11.322,2.635a1.573,1.573,0,0,0,1.079-.365,1.28,1.28,0,0,0,.432-.971h2.25a3.077,3.077,0,0,1-.5,1.673,3.286,3.286,0,0,1-1.341,1.179,4.2,4.2,0,0,1-1.88.419,3.9,3.9,0,0,1-3.038-1.224,4.845,4.845,0,0,1-1.112-3.383V11.4a4.79,4.79,0,0,1,1.1-3.312,3.854,3.854,0,0,1,3.03-1.237,3.778,3.778,0,0,1,2.7.959,3.4,3.4,0,0,1,1.033,2.552h-2.25A1.648,1.648,0,0,0,26.4,9.225a1.6,1.6,0,0,0-2.362.173,3.541,3.541,0,0,0-.427,1.983v.249a3.586,3.586,0,0,0,.423,2A1.463,1.463,0,0,0,25.317,14.232Zm10.509.855a3.008,3.008,0,0,1-2.457,1.079,2.837,2.837,0,0,1-2.2-.83,3.543,3.543,0,0,1-.776-2.432V7.019h2.4v5.809q0,1.4,1.278,1.4a1.732,1.732,0,0,0,1.677-.848V7.019H38.15V16H35.893Zm6.383-8.068.075,1a3.156,3.156,0,0,1,2.582-1.17,2.4,2.4,0,0,1,2.382,1.37,3.084,3.084,0,0,1,2.7-1.37,2.679,2.679,0,0,1,2.175.851,3.911,3.911,0,0,1,.714,2.561V16H50.427V10.272a1.71,1.71,0,0,0-.3-1.116A1.324,1.324,0,0,0,49.074,8.8,1.5,1.5,0,0,0,47.58,9.833L47.588,16h-2.4V10.281a1.689,1.689,0,0,0-.307-1.129A1.337,1.337,0,0,0,43.836,8.8a1.555,1.555,0,0,0-1.478.847V16h-2.4V7.019Zm16.6,9.147a4.409,4.409,0,0,1-3.217-1.212,4.308,4.308,0,0,1-1.241-3.229v-.232a5.426,5.426,0,0,1,.523-2.42,3.838,3.838,0,0,1,1.482-1.644,4.159,4.159,0,0,1,2.187-.577,3.727,3.727,0,0,1,2.9,1.162,4.722,4.722,0,0,1,1.058,3.3v.979H56.786a2.229,2.229,0,0,0,.7,1.411,2.12,2.12,0,0,0,1.482.531,2.589,2.589,0,0,0,2.167-1l1.179,1.32a3.6,3.6,0,0,1-1.461,1.191A4.793,4.793,0,0,1,58.811,16.166Zm-.274-7.379a1.5,1.5,0,0,0-1.158.484,2.5,2.5,0,0,0-.569,1.384h3.337v-.192a1.786,1.786,0,0,0-.432-1.238A1.547,1.547,0,0,0,58.537,8.787Zm7.537-1.768.075,1.038a3.136,3.136,0,0,1,2.582-1.2,2.606,2.606,0,0,1,2.125.838,3.912,3.912,0,0,1,.714,2.507V16h-2.4V10.256a1.556,1.556,0,0,0-.332-1.108,1.486,1.486,0,0,0-1.1-.344,1.65,1.65,0,0,0-1.519.863V16h-2.4V7.019ZM76.259,4.811V7.019h1.536v1.76H76.259v4.482a1.07,1.07,0,0,0,.191.714.959.959,0,0,0,.73.216,3.826,3.826,0,0,0,.706-.058V15.95a4.938,4.938,0,0,1-1.453.216,2.29,2.29,0,0,1-2.573-2.548V8.778H72.549V7.019H73.86V4.811Zm2.25,6.616a5.326,5.326,0,0,1,.515-2.382,3.768,3.768,0,0,1,1.482-1.619,4.323,4.323,0,0,1,2.245-.573,4.09,4.09,0,0,1,2.968,1.112A4.464,4.464,0,0,1,87,10.986l.017.614a4.694,4.694,0,0,1-1.154,3.316,4.472,4.472,0,0,1-6.2,0,4.777,4.777,0,0,1-1.158-3.387Zm2.4.17a3.357,3.357,0,0,0,.481,1.958,1.73,1.73,0,0,0,2.739.008,3.674,3.674,0,0,0,.49-2.141,3.324,3.324,0,0,0-.49-1.945,1.592,1.592,0,0,0-1.378-.69,1.566,1.566,0,0,0-1.361.686A3.736,3.736,0,0,0,80.908,11.6ZM.548,31.443A5.413,5.413,0,0,1,1.49,28.1a3.057,3.057,0,0,1,2.577-1.245,2.751,2.751,0,0,1,2.167.979V23.25H8.641V36H6.475l-.116-.955a2.823,2.823,0,0,1-2.308,1.121,3.049,3.049,0,0,1-2.544-1.249A5.587,5.587,0,0,1,.548,31.443Zm2.4.179a3.546,3.546,0,0,0,.44,1.937,1.433,1.433,0,0,0,1.278.673,1.605,1.605,0,0,0,1.569-.939v-3.55A1.582,1.582,0,0,0,4.682,28.8Q2.947,28.8,2.947,31.621Zm11.688,4.545a4.409,4.409,0,0,1-3.217-1.212,4.308,4.308,0,0,1-1.241-3.229v-.232a5.426,5.426,0,0,1,.523-2.42,3.838,3.838,0,0,1,1.482-1.644,4.159,4.159,0,0,1,2.187-.577,3.727,3.727,0,0,1,2.9,1.162,4.722,4.722,0,0,1,1.058,3.3v.979H12.609a2.229,2.229,0,0,0,.7,1.411,2.12,2.12,0,0,0,1.482.531,2.589,2.589,0,0,0,2.167-1l1.179,1.32a3.6,3.6,0,0,1-1.461,1.191A4.793,4.793,0,0,1,14.634,36.166Zm-.274-7.379a1.5,1.5,0,0,0-1.158.484,2.5,2.5,0,0,0-.569,1.384h3.337v-.192a1.786,1.786,0,0,0-.432-1.238A1.547,1.547,0,0,0,14.36,28.787ZM29.127,36a2.664,2.664,0,0,1-.241-.805,2.9,2.9,0,0,1-2.266.971,3.189,3.189,0,0,1-2.187-.764,2.456,2.456,0,0,1-.867-1.926,2.538,2.538,0,0,1,1.058-2.191,5.222,5.222,0,0,1,3.059-.772h1.1V30a1.48,1.48,0,0,0-.32-1,1.257,1.257,0,0,0-1.009-.374,1.429,1.429,0,0,0-.95.291.987.987,0,0,0-.344.8h-2.4a2.41,2.41,0,0,1,.481-1.444,3.182,3.182,0,0,1,1.361-1.042,4.961,4.961,0,0,1,1.976-.378,3.92,3.92,0,0,1,2.635.834,2.918,2.918,0,0,1,.975,2.345v3.893a4.294,4.294,0,0,0,.357,1.934V36Zm-1.984-1.668a2.066,2.066,0,0,0,.979-.237,1.554,1.554,0,0,0,.664-.635V31.916h-.9q-1.8,0-1.917,1.245l-.008.141a.96.96,0,0,0,.315.739A1.225,1.225,0,0,0,27.144,34.332Zm10.94-5.063a6.517,6.517,0,0,0-.863-.066,1.757,1.757,0,0,0-1.785.921V36h-2.4V27.019H35.3l.066,1.071a2.223,2.223,0,0,1,2-1.237,2.514,2.514,0,0,1,.747.108Zm4.731,4.964a1.573,1.573,0,0,0,1.079-.365,1.28,1.28,0,0,0,.432-.971h2.25a3.077,3.077,0,0,1-.5,1.673,3.286,3.286,0,0,1-1.341,1.179,4.2,4.2,0,0,1-1.88.419,3.9,3.9,0,0,1-3.038-1.224,4.845,4.845,0,0,1-1.112-3.383V31.4a4.79,4.79,0,0,1,1.1-3.312,3.854,3.854,0,0,1,3.03-1.237,3.778,3.778,0,0,1,2.7.959,3.4,3.4,0,0,1,1.033,2.552h-2.25a1.648,1.648,0,0,0-.432-1.139,1.6,1.6,0,0,0-2.362.173,3.541,3.541,0,0,0-.427,1.983v.249a3.586,3.586,0,0,0,.423,2A1.463,1.463,0,0,0,42.815,34.232ZM50.286,28a2.994,2.994,0,0,1,2.4-1.146q2.922,0,2.963,3.4V36h-2.4V30.314a1.669,1.669,0,0,0-.332-1.141,1.423,1.423,0,0,0-1.1-.369,1.633,1.633,0,0,0-1.527.813V36h-2.4V23.25h2.4Zm9.7,8H57.583V27.019H59.99ZM57.441,24.694a1.181,1.181,0,0,1,.361-.888,1.556,1.556,0,0,1,1.963,0,1.268,1.268,0,0,1,0,1.785,1.539,1.539,0,0,1-1.951,0A1.178,1.178,0,0,1,57.441,24.694Zm7.886,8.375L67,27.019H69.5L66.473,36H64.182l-3.03-8.981h2.507Zm4.731-1.644a5.326,5.326,0,0,1,.515-2.382,3.768,3.768,0,0,1,1.482-1.619,4.323,4.323,0,0,1,2.245-.573,4.09,4.09,0,0,1,2.968,1.112,4.464,4.464,0,0,1,1.282,3.021l.017.614a4.694,4.694,0,0,1-1.154,3.316,4.472,4.472,0,0,1-6.2,0,4.777,4.777,0,0,1-1.158-3.387Zm2.4.17a3.357,3.357,0,0,0,.481,1.958,1.73,1.73,0,0,0,2.739.008,3.674,3.674,0,0,0,.49-2.141,3.324,3.324,0,0,0-.49-1.945,1.592,1.592,0,0,0-1.378-.69,1.566,1.566,0,0,0-1.361.686A3.736,3.736,0,0,0,72.458,31.6Z" transform="translate(-3410.78 -10271.857)" fill="#12263f"/>
    <g id="Group_1072825" data-name="Group 1072825" transform="translate(-3563.132 -10451.016)">
      <path id="Path_610426" data-name="Path 610426" d="M32.788,96.861h0Z" transform="translate(0 6.027) rotate(-0.485)" fill="#ffca00"/>
      <g id="Group_1072823" data-name="Group 1072823" transform="translate(0 0)">
        <g id="Group_1072822" data-name="Group 1072822" clip-path="url(#clip-path-2)">
          <rect id="Rectangle_377999" data-name="Rectangle 377999" width="32.79" height="96.86" transform="translate(32.784 5.753) rotate(-0.489)" fill="#3a9e32"/>
          <rect id="Rectangle_378000" data-name="Rectangle 378000" width="22.789" height="57.402" transform="translate(37.829 10.519) rotate(-0.483)" fill="#fff"/>
          <path id="Path_610420" data-name="Path 610420" d="M31.393,18.572a9.568,9.568,0,1,0-9.481,9.641,9.568,9.568,0,0,0,9.481-9.641" transform="translate(27.639 20.475)" fill="#fff"/>
          <path id="Path_610421" data-name="Path 610421" d="M31.511,32.57a9.568,9.568,0,1,0-9.484,9.644,9.579,9.579,0,0,0,9.484-9.644" transform="translate(27.905 52.037)" fill="#246b1f"/>
          <path id="Path_610422" data-name="Path 610422" d="M28.321,31.274a7.683,7.683,0,1,0-7.616,7.75,7.682,7.682,0,0,0,7.616-7.75" transform="translate(29.211 53.343)" fill="#fff"/>
          <rect id="Rectangle_378001" data-name="Rectangle 378001" width="32.786" height="96.862" transform="translate(65.604 8.88) rotate(-15.718)" fill="#ff4140"/>
          <rect id="Rectangle_378002" data-name="Rectangle 378002" width="22.794" height="57.404" transform="translate(71.716 12.154) rotate(-15.717)" fill="#fff"/>
          <path id="Path_610423" data-name="Path 610423" d="M43.635,15.318a9.568,9.568,0,1,0-6.617,11.8,9.577,9.577,0,0,0,6.617-11.8" transform="translate(56.036 18.791)" fill="#fff"/>
          <path id="Path_610424" data-name="Path 610424" d="M47.426,28.787a9.569,9.569,0,1,0-6.617,11.805,9.556,9.556,0,0,0,6.617-11.805" transform="translate(64.588 49.177)" fill="#c42121"/>
          <path id="Path_610425" data-name="Path 610425" d="M44.307,27.992a7.685,7.685,0,1,0-5.318,9.484,7.676,7.676,0,0,0,5.318-9.484" transform="translate(65.894 50.483)" fill="#fff"/>
        </g>
      </g>
    </g>
  </g>
</svg>
