<svg xmlns="http://www.w3.org/2000/svg" width="139" height="139" viewBox="0 0 139 139">
  <g id="Group_1073072" data-name="Group 1073072" transform="translate(-421.871 -2718.752)">
    <g id="Group_1072263" data-name="Group 1072263" transform="translate(-1012.797 -3163.248)">
      <g id="Group_1072229" data-name="Group 1072229" transform="translate(1434.668 5882)">
        <path id="Path_608385" data-name="Path 608385" d="M69.5,0A69.5,69.5,0,1,1,0,69.5,69.5,69.5,0,0,1,69.5,0Z" transform="translate(0)" fill="#fff"/>
      </g>
    </g>
    <g id="Group_1072835" data-name="Group 1072835" transform="translate(455.398 2715.73)">
      <path id="Path_610445" data-name="Path 610445" d="M3.5,75.87H29.586a3.913,3.913,0,0,1,2.868,1.189L47.591,92.2a3.915,3.915,0,0,1,1.186,2.863v44.306a3.512,3.512,0,0,1-3.509,3.509H3.5A3.516,3.516,0,0,1-.01,139.365V79.379A3.519,3.519,0,0,1,3.5,75.87Z" transform="translate(0 -33.635)" fill="#fea832" fill-rule="evenodd"/>
      <path id="Path_610446" data-name="Path 610446" d="M43.889,35.48H69.976a3.921,3.921,0,0,1,2.868,1.189L87.976,51.806a3.9,3.9,0,0,1,1.189,2.863V98.975a3.516,3.516,0,0,1-3.509,3.509H43.889a3.512,3.512,0,0,1-3.509-3.509V38.992a3.518,3.518,0,0,1,3.509-3.512Z" transform="translate(-33.635)" fill="#ffd400" fill-rule="evenodd"/>
      <path id="Path_610447" data-name="Path 610447" d="M227.39,37.6a4.043,4.043,0,0,1,1.189.835l15.132,15.137a4.108,4.108,0,0,1,.84,1.186H227.39Z" transform="translate(-189.37 -1.765)" fill="#fea832" fill-rule="evenodd"/>
      <path id="Path_610448" data-name="Path 610448" d="M88.09,131.06a1.38,1.38,0,0,1,0-2.759h18.8a1.38,1.38,0,1,1,0,2.759Zm0-49.875a1.382,1.382,0,0,1,0-2.764h13.023a1.382,1.382,0,1,1,0,2.764Zm0,8.315a1.382,1.382,0,0,1,0-2.764h13.023a1.382,1.382,0,1,1,0,2.764Zm0,8.31a1.38,1.38,0,0,1,0-2.759h18.8a1.38,1.38,0,1,1,0,2.759Zm0,8.315a1.382,1.382,0,0,1,0-2.764h18.8a1.382,1.382,0,0,1,0,2.764Zm0,8.31a1.38,1.38,0,0,1,0-2.759h18.8a1.38,1.38,0,1,1,0,2.759Zm0,8.315a1.382,1.382,0,0,1,0-2.764h18.8a1.382,1.382,0,0,1,0,2.764Z" transform="translate(-72.217 -35.759)" fill="#fff"/>
      <path id="Path_610449" data-name="Path 610449" d="M248.638,186.14h8.481a1.785,1.785,0,0,1,1.783,1.778V219.6a1.785,1.785,0,0,1-1.783,1.778h-8.481a1.781,1.781,0,0,1-1.778-1.778V187.918A1.782,1.782,0,0,1,248.638,186.14Z" transform="translate(-205.584 -125.464)" fill="#0593fc" fill-rule="evenodd"/>
      <path id="Path_610450" data-name="Path 610450" d="M329.128,186.14h-8.481a1.781,1.781,0,0,0-1.778,1.778V219.6a1.781,1.781,0,0,0,1.778,1.778h8.481a1.785,1.785,0,0,0,1.783-1.778V187.918A1.788,1.788,0,0,0,329.128,186.14Z" transform="translate(-265.551 -125.464)" fill="#70da40" fill-rule="evenodd"/>
      <path id="Path_610451" data-name="Path 610451" d="M273.891,341.847a1.8,1.8,0,1,0-1.8-1.8A1.8,1.8,0,0,0,273.891,341.847Z" transform="translate(-226.595 -252.135)" fill="#056bb8" fill-rule="evenodd"/>
      <path id="Path_610452" data-name="Path 610452" d="M345.891,341.847a1.8,1.8,0,1,0-1.8-1.8A1.8,1.8,0,0,0,345.891,341.847Z" transform="translate(-286.553 -252.135)" fill="#529e2f" fill-rule="evenodd"/>
      <path id="Path_610453" data-name="Path 610453" d="M339.63,217.724a1.382,1.382,0,0,1,0-2.764h2.793a1.382,1.382,0,0,1,0,2.764Zm0,9.544a1.38,1.38,0,1,1,0-2.759h2.793a1.38,1.38,0,0,1,0,2.759Zm0-4.77a1.382,1.382,0,0,1,0-2.764h2.793a1.382,1.382,0,0,1,0,2.764Z" transform="translate(-281.69 -149.464)" fill="#529e2f"/>
      <path id="Path_610454" data-name="Path 610454" d="M394.011,181.717l8.191-2.194a1.787,1.787,0,0,1,2.181,1.261l8.2,30.6a1.785,1.785,0,0,1-1.261,2.181l-8.191,2.194a1.784,1.784,0,0,1-2.181-1.256l-8.2-30.6A1.789,1.789,0,0,1,394.011,181.717Z" transform="translate(-327.026 -119.904)" fill="#0593fc" fill-rule="evenodd"/>
      <path id="Path_610455" data-name="Path 610455" d="M457.806,333.005a1.8,1.8,0,1,0,2.2,1.276A1.8,1.8,0,0,0,457.806,333.005Z" transform="translate(-380.141 -247.717)" fill="#056bb8" fill-rule="evenodd"/>
      <path id="Path_610456" data-name="Path 610456" d="M297.88,221.09a1.379,1.379,0,1,1,.711,2.664l-2.693.721a1.379,1.379,0,1,1-.716-2.664Zm-30.25-5.979a1.382,1.382,0,0,1,0-2.764h2.793a1.382,1.382,0,0,1,0,2.764Zm0,4.775a1.382,1.382,0,0,1,0-2.764h2.793a1.382,1.382,0,0,1,0,2.764Zm0,4.77a1.38,1.38,0,0,1,0-2.759h2.793a1.38,1.38,0,0,1,0,2.759Zm27.78-12.785a1.379,1.379,0,1,1,.711,2.664l-2.7.721a1.379,1.379,0,1,1-.711-2.664Zm1.233,4.607a1.379,1.379,0,1,1,.716,2.664l-2.7.726a1.381,1.381,0,0,1-.711-2.669Z" transform="translate(-221.731 -146.851)" fill="#056bb8"/>
      <g id="Group_1072834" data-name="Group 1072834" transform="translate(-0.01 35.48)">
        <path id="Path_610457" data-name="Path 610457" d="M248.638,186.14h1.768a1.784,1.784,0,0,0-1.778,1.778V219.6a1.784,1.784,0,0,0,1.778,1.778h-1.768a1.781,1.781,0,0,1-1.778-1.778V187.918A1.782,1.782,0,0,1,248.638,186.14Z" transform="translate(-205.574 -160.944)" fill="#0584e3" fill-rule="evenodd"/>
        <path id="Path_610458" data-name="Path 610458" d="M320.638,186.14h1.768a1.784,1.784,0,0,0-1.778,1.778V219.6a1.784,1.784,0,0,0,1.778,1.778h-1.768a1.781,1.781,0,0,1-1.778-1.778V187.918A1.782,1.782,0,0,1,320.638,186.14Z" transform="translate(-265.533 -160.944)" fill="#65c43a" fill-rule="evenodd"/>
        <path id="Path_610459" data-name="Path 610459" d="M394.011,190.675l1.706-.455a1.779,1.779,0,0,0-1.256,2.176l8.2,30.6a1.782,1.782,0,0,0,2.176,1.261l-1.706.455a1.784,1.784,0,0,1-2.181-1.256l-8.2-30.6a1.788,1.788,0,0,1,1.261-2.181Z" transform="translate(-327.016 -164.342)" fill="#0584e3" fill-rule="evenodd"/>
        <path id="Path_610460" data-name="Path 610460" d="M43.889,35.48h2.243a3.519,3.519,0,0,0-3.509,3.512V98.975a3.516,3.516,0,0,0,3.509,3.509H43.889a3.512,3.512,0,0,1-3.509-3.509V38.992A3.518,3.518,0,0,1,43.889,35.48Z" transform="translate(-33.625 -35.48)" fill="#e6bf00" fill-rule="evenodd"/>
        <path id="Path_610461" data-name="Path 610461" d="M3.5,75.87H5.746a3.516,3.516,0,0,0-3.509,3.509v59.988a3.512,3.512,0,0,0,3.509,3.509H3.5A3.516,3.516,0,0,1-.01,139.367V79.379A3.519,3.519,0,0,1,3.5,75.87Z" transform="translate(0.01 -69.115)" fill="#e5972d" fill-rule="evenodd"/>
      </g>
    </g>
  </g>
</svg>
