<svg xmlns="http://www.w3.org/2000/svg" xmlns:xlink="http://www.w3.org/1999/xlink" width="295" height="179.5" viewBox="0 0 295 179.5">
  <defs>
    <clipPath id="clip-path">
      <path id="Path_610812" data-name="Path 610812" d="M0,0H295V179.5H0Z" transform="translate(285 484.832)" fill="#ffedc8"/>
    </clipPath>
    <clipPath id="clip-path-2">
      <rect id="Rectangle_378033" data-name="Rectangle 378033" width="202.54" height="202.54" fill="none"/>
    </clipPath>
    <clipPath id="clip-path-3">
      <path id="Path_610551" data-name="Path 610551" d="M2455.981,1879.521a4.91,4.91,0,0,0-.451,2.587c.11.588.485.822.933,1.154a.151.151,0,0,1,.015.016l-.037.762c.006.769-.015,1.549.02,2.317l0,.413c-.018.789-.026,1.571,0,2.358l-.012.622c0,.651-.02,1.3,0,1.955l11,.045c.6,0,1.2-.012,1.806-.025.876-.019,1.753-.038,2.621-.015.272,0,.545,0,.819,0a24.751,24.751,0,0,1,3.461.135l-.03-2.3.015-.5c-.024-.725,0-1.458,0-2.183l-.013-1.58q.005-.937,0-1.873l-.014-1.358c0-.929-.023-1.863.056-2.789q-4.728-.062-9.456.009l-.486-.01c-.528.035-1.829.014-3.335-.007-.922-.013-1.921-.026-2.866-.026-2.017,0-3.792.058-4.058.3" transform="translate(-2455.506 -1879.226)" fill="none"/>
    </clipPath>
    <linearGradient id="linear-gradient" x1="-6.591" y1="5.042" x2="-6.588" y2="5.042" gradientUnits="objectBoundingBox">
      <stop offset="0" stop-color="#a5c6a1"/>
      <stop offset="1" stop-color="#d9e6d0"/>
    </linearGradient>
    <clipPath id="clip-path-5">
      <path id="Path_610556" data-name="Path 610556" d="M2475.258,2099.949c0,.65-.02,1.3,0,1.955l11,.045c.6,0,1.2-.012,1.806-.025.876-.018,1.753-.037,2.622-.014a2.593,2.593,0,0,0,1.475-1l-.4-.934q-4.848-.047-9.7-.047-3.405,0-6.811.023" transform="translate(-2475.248 -2099.926)" fill="none"/>
    </clipPath>
    <linearGradient id="linear-gradient-2" x1="-10.538" y1="7.264" x2="-10.534" y2="7.264" gradientUnits="objectBoundingBox">
      <stop offset="0" stop-color="#b8d1ad"/>
      <stop offset="1" stop-color="#dce5ce"/>
    </linearGradient>
    <clipPath id="clip-path-7">
      <path id="Path_610559" data-name="Path 610559" d="M2475.13,1965.155q3.852-.044,7.7-.047a28.429,28.429,0,0,1,3.037-.1q3.145-.065,6.29-.07a8.2,8.2,0,0,1,.982.269c.634.056,1.243.769,1.688,1.186q.005-.937,0-1.873l-12.163-.062c-.731,0-1.462,0-2.2,0-1.769.005-3.543.01-5.3-.066Z" transform="translate(-2475.13 -1964.393)" fill="none"/>
    </clipPath>
    <linearGradient id="linear-gradient-3" x1="-17.823" y1="6.009" x2="-17.816" y2="6.009" gradientUnits="objectBoundingBox">
      <stop offset="0" stop-color="#8cbc99"/>
      <stop offset="1" stop-color="#a3e1cc"/>
    </linearGradient>
    <clipPath id="clip-path-9">
      <path id="Path_610586" data-name="Path 610586" d="M437.928,2455.995a12.157,12.157,0,0,0,1.855,3.914,6.86,6.86,0,0,0,4.907,2.365q.289.031.578.057a13.841,13.841,0,0,0,2.951-.114,34.375,34.375,0,0,1,.86,5.624,109.835,109.835,0,0,1,.654,12.354l.6.031a13.108,13.108,0,0,1,1.378-.005l.678.018c.8-.012,1.614-.058,2.412.007l.634,0q.841-3.145,1.636-6.3a14.022,14.022,0,0,0,4.618-.668,8.351,8.351,0,0,0,3.162-2.127c2.556-2.709,2.376-6.8,2.268-10.272l2.87,0,.031-.071c-.962-.071-1.936-.028-2.9-.014a46.929,46.929,0,0,0-1.406-10.3,34.916,34.916,0,0,0-5.241,4.064,25.808,25.808,0,0,1,.007-5.537c.015-.908.049-1.819-.016-2.725a10.433,10.433,0,0,1-5.606,3.938l.057.293a1.3,1.3,0,0,1-.593.17l-.077-.207-.045-.01c-.708-.141-1.281-.432-1.96-.628a29.851,29.851,0,0,0-4.805-6.253,44.95,44.95,0,0,0-10.569-8c-.754,6.626-.969,13.961,1.059,20.4" transform="translate(-436.331 -2435.595)" fill="none"/>
    </clipPath>
    <linearGradient id="linear-gradient-4" x1="-0.304" y1="1.704" x2="-0.303" y2="1.704" gradientUnits="objectBoundingBox">
      <stop offset="0" stop-color="#02665c"/>
      <stop offset="1" stop-color="#10967a"/>
    </linearGradient>
    <clipPath id="clip-path-10">
      <path id="Path_610587" data-name="Path 610587" d="M488.1,2501.382a6.777,6.777,0,0,0,.44,1.088l1.343,3.619c2.188,5.953,4.267,11.96,6.921,17.728l-.154.028-.111.13a1.574,1.574,0,0,1,.309.779,1.827,1.827,0,0,1-.537.006,4.905,4.905,0,0,0-1.737.178,13.794,13.794,0,0,0,2.951-.115,34.39,34.39,0,0,1,.86,5.624,109.858,109.858,0,0,1,.654,12.354l.6.031q0-5.959-.587-11.89c-.222-2.049-.759-4.181-.8-6.232a1.649,1.649,0,0,1-.222-.178,6.069,6.069,0,0,1-.5-1.748,40.834,40.834,0,0,0-1.356-4.582c-1.586-4.229-3.579-8.31-5.56-12.364a21.257,21.257,0,0,0-2.428-4.509Z" transform="translate(-488.099 -2501.329)" fill="none"/>
    </clipPath>
    <linearGradient id="linear-gradient-5" x1="-0.41" y1="2.013" x2="-0.409" y2="2.013" gradientUnits="objectBoundingBox">
      <stop offset="0" stop-color="#078870"/>
      <stop offset="1" stop-color="#0c848c"/>
    </linearGradient>
    <clipPath id="clip-path-12">
      <path id="Path_610589" data-name="Path 610589" d="M814.464,2749.535a79.872,79.872,0,0,1,.006,10.443l.025.269.118.075a1.051,1.051,0,0,0,.443-.528,72.643,72.643,0,0,0,0-10.43,1.3,1.3,0,0,1-.593.17" transform="translate(-814.464 -2749.365)" fill="none"/>
    </clipPath>
    <linearGradient id="linear-gradient-6" x1="-3.073" y1="27.476" x2="-3.068" y2="27.476" gradientUnits="objectBoundingBox">
      <stop offset="0" stop-color="#09878b"/>
      <stop offset="1" stop-color="#006c94"/>
    </linearGradient>
    <clipPath id="clip-path-14">
      <path id="Path_610606" data-name="Path 610606" d="M2670.948,1393.548c-.662.013-1.319.027-1.958.014h-.121a16.73,16.73,0,0,1-2.228.05c-.33-.007-.656-.014-.975-.013-1.543.006-3.093.069-4.635.045-.94.044-1.882.038-2.823.04q-.984,0-1.969-.013c-1.043.082-2.119.049-3.166.064q-3.632-.014-7.264.01l-3.355.014,1.392,17.6c.156,1.761.226,3.569.445,5.32l.486.01q4.728-.071,9.456-.009l26.516-.049c.043-1.942.436-3.95.655-5.885q.672-6.1.895-12.223a36.961,36.961,0,0,0,.054-4.771l-.814,0c-1.786.129-3.653.021-5.446,0a5.019,5.019,0,0,1-1.1-.069h-.076a17.455,17.455,0,0,0-2.549-.154c-.473,0-.949.01-1.422.019" transform="translate(-2642.453 -1393.529)" fill="none"/>
    </clipPath>
    <linearGradient id="linear-gradient-7" x1="-2.687" y1="3.387" x2="-2.686" y2="3.387" gradientUnits="objectBoundingBox">
      <stop offset="0" stop-color="#049971"/>
      <stop offset="1" stop-color="#34b995"/>
    </linearGradient>
  </defs>
  <g id="Group_1072927" data-name="Group 1072927" transform="translate(-285 -484.832)">
    <path id="Path_610811" data-name="Path 610811" d="M0,0H295V179.5H0Z" transform="translate(285 484.832)" fill="none"/>
    <rect id="Rectangle_378093" data-name="Rectangle 378093" width="295" height="105" rx="52.5" transform="translate(285 548.668)" fill="#ffedc8"/>
    <g id="Mask_Group_154430" data-name="Mask Group 154430" clip-path="url(#clip-path)">
      <g id="Group_1072926" data-name="Group 1072926" transform="translate(24.964 13.417)">
        <g id="Group_1072867" data-name="Group 1072867" transform="translate(309.764 459.895)">
          <g id="Group_1072866" data-name="Group 1072866" transform="translate(0)" clip-path="url(#clip-path-2)">
            <path id="Path_610509" data-name="Path 610509" d="M2030.011,3638.273a1.891,1.891,0,0,1,1.5.073,1.936,1.936,0,0,1,.735,1.356,9.955,9.955,0,0,1,.1,1.125,3.608,3.608,0,0,1-1.515.154,3.075,3.075,0,0,1-2.333-.6c.57-.615.992-1.433,1.512-2.107" transform="translate(-1931.666 -3464.899)" fill="#162055"/>
            <path id="Path_610510" data-name="Path 610510" d="M2409.731,2272.622c3.467.236,7.027.079,10.505.074a36.406,36.406,0,0,1,4.073.049,1.847,1.847,0,0,0,1.32.723,5.819,5.819,0,0,0,.629.006.769.769,0,0,1,.361.425c-.59.014-1.194,0-1.78.057-2.373.063-4.76.019-7.133.027-2.683.008-5.375.061-8.057-.005,0-.451.051-.906.082-1.356" transform="translate(-2294.677 -2164.35)" fill="#ca3f35"/>
            <path id="Path_610511" data-name="Path 610511" d="M2295.987,2419.724a14.868,14.868,0,0,1,.086,3.756l4.382-.014c-.724,5.716-1.716,11.425-2.58,17.123-.615.028-1.235-.006-1.85-.021.213-6.93-.05-13.91-.038-20.845" transform="translate(-2186.424 -2304.452)" fill="#82b7e6"/>
            <path id="Path_610512" data-name="Path 610512" d="M3610.432,1876.809c.974-.019,2.934-.291,3.632.439.175.182.141.655.136.9-.03,1.847-.284,3.726-.434,5.568-.379,4.66-.874,9.334-1.093,14-1.407-.077-2.834-.047-4.244-.062.06-2.386.437-4.835.665-7.214Z" transform="translate(-3436.41 -1787.311)" fill="#ca3f35"/>
            <path id="Path_610513" data-name="Path 610513" d="M3346.115,1007.787l-.041-11.494c-.025-2.195-.231-4.5-.038-6.681a1.39,1.39,0,0,1,.371-1.008c.45-.4,3.339-.349,4.01-.26a1.275,1.275,0,0,1,.927.463c.346,1.19.118,3.589.125,4.927l.069,8.524c0,1.833-.074,3.7.022,5.526-1.786.129-3.653.021-5.445,0" transform="translate(-3186.426 -941.128)" fill="#fa734e"/>
            <path id="Path_610514" data-name="Path 610514" d="M3365.529,1033.936a8.538,8.538,0,0,1,3.09.125c.229.287.179.491.2.852-1.022-.022-2.259.257-3.2-.2-.187-.3-.121-.436-.087-.782" transform="translate(-3205.031 -984.533)" fill="#fefefe"/>
            <path id="Path_610515" data-name="Path 610515" d="M3367.153,1296c1.269.091,2.576-.086,3.833.088a2.5,2.5,0,0,1,.1,1.034,17.671,17.671,0,0,1-3.8-.083,2.341,2.341,0,0,1-.126-1.039" transform="translate(-3206.614 -1234.206)" fill="#ca3f35"/>
            <path id="Path_610516" data-name="Path 610516" d="M3364.847,1341.91c1.335.054,2.679.034,4.015.044a9.093,9.093,0,0,1-.144,1.186c-1.273.076-2.586.006-3.863,0-.016-.409-.008-.819-.008-1.228" transform="translate(-3204.417 -1277.929)" fill="#9e2e2d"/>
            <path id="Path_610517" data-name="Path 610517" d="M3361.194,1089.213l4.058.055,0,7.57-4.045,0q-.033-3.81-.016-7.621" transform="translate(-3200.934 -1037.258)" fill="#f6d1c6"/>
            <path id="Path_610518" data-name="Path 610518" d="M3448.779,1398.143l5.426.015-1.265,13.3c-.319,3.175-.707,6.359-.907,9.544l-4.857.02c.043-1.941.436-3.95.654-5.885q.671-6.095.895-12.222a37.05,37.05,0,0,0,.054-4.771" transform="translate(-3282.83 -1331.486)" fill="#0a876f"/>
            <path id="Path_610519" data-name="Path 610519" d="M3200.1,1005.277c.158-2.555-.041-18.774.25-19.035.556-.5,4.123-.428,4.924-.321a1.879,1.879,0,0,1,.493.139,1.985,1.985,0,0,1,.294,1.036c.171,2.32.031,4.732.033,7.064,0,3.742.08,7.5.01,11.237h-.076a48.089,48.089,0,0,0-5.928-.121" transform="translate(-3047.508 -938.807)" fill="#3d82d1"/>
            <path id="Path_610520" data-name="Path 610520" d="M3217.8,1028.627c.957-.019,2.607-.27,3.412.206a.945.945,0,0,1,.067.642l-.179.117c-.98-.01-2.582.247-3.443-.194a1.011,1.011,0,0,1-.176-.5.6.6,0,0,1,.319-.268" transform="translate(-3064.07 -979.476)" fill="#fefefe"/>
            <path id="Path_610521" data-name="Path 610521" d="M3214.939,1338.627l4.439,0-.01,1.273q-2.243-.05-4.486-.036c.006-.413.038-.827.058-1.24" transform="translate(-3061.59 -1274.803)" fill="#113982"/>
            <path id="Path_610522" data-name="Path 610522" d="M3218.182,1276.321l2.552-.045.043,1.322-1.6.014-2.809-.018-.01-1.224Z" transform="translate(-3062.991 -1215.418)" fill="#113982"/>
            <path id="Path_610523" data-name="Path 610523" d="M3218.556,1087.382l4.149-.028c0,2.539.068,5.1-.034,7.632q-2.053.032-4.106.023Z" transform="translate(-3065.09 -1035.487)" fill="#82b7e6"/>
            <path id="Path_610524" data-name="Path 610524" d="M2429.5,2141.377a32.367,32.367,0,0,1,4.279.131l-.035.124a15.447,15.447,0,0,0,.062,2.023c.03.518.036,1.025.025,1.544-.006.9.025,1.808-.037,2.7l-.041.014c-1.8-.039-3.7-.129-5.492.012-.039.134-.042.327-.173.393a2.123,2.123,0,0,1-.509.13.188.188,0,0,0-.033.017,5.7,5.7,0,0,1-.629-.006,1.845,1.845,0,0,1-1.32-.723,36.169,36.169,0,0,0-4.072-.049c-3.478,0-7.038.162-10.505-.074.03-.823.013-1.649.008-2.473l-.025-1.058a1.9,1.9,0,0,1,.2-1.094,1.939,1.939,0,0,1,1.072-.1,4.7,4.7,0,0,0,1.643-.075,1.455,1.455,0,0,0,.17-.921l-.017-.516,11,.044c1.471,0,2.96-.078,4.428-.04" transform="translate(-2295.97 -2039.341)" fill="#93c3a2"/>
            <path id="Path_610525" data-name="Path 610525" d="M2475.1,2185.511a43.83,43.83,0,0,1,6.277-.112c3.333-.01,6.663-.1,10-.1.543.088,1.823-.057,2.194.185a36.1,36.1,0,0,0-5.37.2c-3.126.194-6.317.067-9.451.083a33.155,33.155,0,0,0-3.468.054Z" transform="translate(-2357.018 -2081.183)" fill="#16a569"/>
            <path id="Path_610526" data-name="Path 610526" d="M2490.84,2141.377a32.376,32.376,0,0,1,4.28.131l-.035.124a15.447,15.447,0,0,0,.062,2.023l-1.284-.012c-.371-.242-1.651-.1-2.194-.185a22.547,22.547,0,0,0,2.862-.2,4.807,4.807,0,0,0-.279-1.336,46.58,46.58,0,0,0-5.2-.093q-6.813-.054-13.626.059l-.017-.516,11,.044c1.471,0,2.96-.078,4.427-.04" transform="translate(-2357.307 -2039.341)" fill="#61a87c"/>
            <path id="Path_610527" data-name="Path 610527" d="M2411.007,2173.968a1.907,1.907,0,0,1,.2-1.094,1.938,1.938,0,0,1,1.073-.1,5.277,5.277,0,0,1,1.677.13c.171.239.118.366.105.654l.178.312a33.024,33.024,0,0,1,3.468-.054c3.134-.016,6.325.11,9.451-.084l.272,1c-.612-.018-1.131-.121-1.624.308-.773.213-14.33.179-14.77-.01Z" transform="translate(-2295.971 -2069.228)" fill="#f65f46"/>
            <path id="Path_610528" data-name="Path 610528" d="M2411.007,2173.968a1.907,1.907,0,0,1,.2-1.094,1.938,1.938,0,0,1,1.073-.1,5.277,5.277,0,0,1,1.677.13c.171.239.118.366.105.654l.178.312a14.391,14.391,0,0,1-3.229.1" transform="translate(-2295.971 -2069.228)" fill="#ca3f35"/>
            <path id="Path_610529" data-name="Path 610529" d="M2724.619,2189.2l1.284.012c.03.518.036,1.025.026,1.544-.007.9.025,1.808-.037,2.7l-.041.014c-1.8-.039-3.7-.13-5.492.012-.038.134-.041.327-.173.393a2.151,2.151,0,0,1-.509.13.169.169,0,0,0-.032.017,5.762,5.762,0,0,1-.63-.006,1.845,1.845,0,0,1-1.32-.723,7.493,7.493,0,0,0,.2-2.586c.493-.429,1.013-.326,1.624-.308l-.272-1a36.2,36.2,0,0,1,5.37-.2" transform="translate(-2588.065 -2084.894)" fill="#fca32b"/>
            <path id="Path_610530" data-name="Path 610530" d="M2719.52,2213.914c.264.051.544.047.729.267a.8.8,0,0,1,.1.184,9.989,9.989,0,0,0,.015,2.634c-.038.134-.041.327-.173.392a2.128,2.128,0,0,1-.509.131.145.145,0,0,0-.032.016,5.7,5.7,0,0,1-.63-.006,1.846,1.846,0,0,1-1.32-.723,7.493,7.493,0,0,0,.2-2.586c.493-.429,1.013-.325,1.624-.308" transform="translate(-2588.065 -2108.414)" fill="#fefe1c"/>
            <path id="Path_610531" data-name="Path 610531" d="M2755.7,2189.2l1.284.012c.031.518.036,1.025.026,1.544a39.1,39.1,0,0,1-5.584.094.8.8,0,0,0-.1-.184c-.185-.22-.465-.216-.729-.267l-.271-1a36.2,36.2,0,0,1,5.37-.2" transform="translate(-2619.15 -2084.894)" fill="#f29234"/>
            <path id="Path_610532" data-name="Path 610532" d="M2411.38,2220.647c.44.189,14,.223,14.771.01a7.488,7.488,0,0,1-.2,2.586,36.286,36.286,0,0,0-4.072-.049c-3.479,0-7.038.162-10.505-.075.03-.823.012-1.649.007-2.473" transform="translate(-2296.319 -2114.849)" fill="#fa734e"/>
            <path id="Path_610533" data-name="Path 610533" d="M2675.147,922.5c-.039-1.916-.278-3.844-.447-5.753l-.718-8.2c-.192-1.99-1.008-7.568-.622-9.163a.848.848,0,0,1,.252-.177c.7-.365,5.068-.515,6.021-.452a4.971,4.971,0,0,1,.885.171c.6,1.065,1.437,20.421,1.893,23.567q-3.632-.014-7.264.01" transform="translate(-2545.741 -855.846)" fill="#f65f46"/>
            <path id="Path_610534" data-name="Path 610534" d="M2707.274,930.639c.131,0,.047-.011.239.078a.627.627,0,0,1-.029.491c-.8.473-2.438.288-3.382.373l-.227-.056a.632.632,0,0,1-.017-.51c.66-.479,2.565-.335,3.416-.376" transform="translate(-2574.842 -886.228)" fill="#fefefe"/>
            <path id="Path_610535" data-name="Path 610535" d="M2731.434,1277.176l.192.015a2.678,2.678,0,0,1,.194,1.115c-1.608.183-3.253.226-4.87.318a1.375,1.375,0,0,1-.256-.08,2.281,2.281,0,0,1-.113-1.107q2.429-.075,4.853-.26" transform="translate(-2596.515 -1216.276)" fill="#9e2e2d"/>
            <path id="Path_610536" data-name="Path 610536" d="M2726.861,1220.2a1.552,1.552,0,0,1,.843.029,1.835,1.835,0,0,1,.181,1.12c-1.27.169-2.57.22-3.849.294-.369.07-.75.089-1.125.122l-.12-1.287c1.351-.014,2.721-.173,4.069-.278" transform="translate(-2592.918 -1161.966)" fill="#9e2e2d"/>
            <path id="Path_610537" data-name="Path 610537" d="M2708.112,989.9c.594-.043,1.2-.031,1.8-.043.057,1.676.332,3.37.452,5.047l-2.756.081c-.659.01-1.323.072-1.981.113-.084-1.678-.254-3.357-.374-5.033.953-.022,1.909-.105,2.86-.165" transform="translate(-2576.213 -942.63)" fill="#fefefe"/>
            <path id="Path_610538" data-name="Path 610538" d="M2997.188,923.356a29.553,29.553,0,0,1,7.433-.323c.161.056.2.08.254.244a29.357,29.357,0,0,1,.232,4.733q.246,6.631.711,13.25a33.193,33.193,0,0,0,.279,4.084,29.893,29.893,0,0,1-3.2.037c-1.543.006-3.093.069-4.635.045l-.037-.933-.5-9.176-.176-.145c-.422-1.119-1.058-10.06-1.012-11.667Z" transform="translate(-2853.631 -878.873)" fill="#3d82d1"/>
            <path id="Path_610539" data-name="Path 610539" d="M2996.534,932.336l.655-.148c.019,2.646.2,5.3.357,7.943.077,1.328.209,2.688.176,4.018l-.176-.145c-.422-1.119-1.058-10.06-1.012-11.668" transform="translate(-2853.631 -887.705)" fill="#fca32b"/>
            <path id="Path_610540" data-name="Path 610540" d="M3059.219,1206.49a.6.6,0,0,1,.288.078,3.028,3.028,0,0,1,.086,1.172c-1.651.118-3.32.164-4.976.193a1.246,1.246,0,0,1-.292-.06,2.459,2.459,0,0,1-.074-1.108c1.652-.019,3.317-.172,4.968-.275" transform="translate(-2908.579 -1148.954)" fill="#113982"/>
            <path id="Path_610541" data-name="Path 610541" d="M3058.962,1264.036a1.5,1.5,0,0,1,.775.039,2.467,2.467,0,0,1,.158,1.223c-1.485.15-3.011.141-4.5.235a1.073,1.073,0,0,1-.75-.056,2.489,2.489,0,0,1-.085-1.274c1.474,0,2.935-.078,4.406-.167" transform="translate(-2908.856 -1203.731)" fill="#113982"/>
            <path id="Path_610542" data-name="Path 610542" d="M3042.114,1002.223c.96-.047,1.927-.038,2.889-.051.011,1.617.177,3.229.221,4.846l-1.781.027c-1.037.054-2.078.076-3.115.112-.074-1.626-.185-3.249-.243-4.877Z" transform="translate(-2895.112 -954.359)" fill="#fefefe"/>
            <path id="Path_610543" data-name="Path 610543" d="M2825.825,882.1c.057-.278.06-.336.309-.506.634-.434,6.245-.663,7.055-.421a.726.726,0,0,1,.531.387,7.091,7.091,0,0,1,.23,2.1c-.046,1.607.591,10.548,1.013,11.667l.176.145.5,9.176.038.932c-.94.044-1.882.038-2.823.04q-.985,0-1.97-.013c-1.043.082-2.119.049-3.167.064-.455-3.146-1.3-22.5-1.892-23.567" transform="translate(-2691.048 -839.025)" fill="#fdc954"/>
            <path id="Path_610544" data-name="Path 610544" d="M2936.892,1376.362l.037.933c-.94.044-1.882.038-2.823.04q-.984,0-1.969-.014c1.127-.579,3.252-.264,4.756-.959" transform="translate(-2792.301 -1310.742)" fill="#f29234"/>
            <path id="Path_610545" data-name="Path 610545" d="M2869.709,913.955l.135.014.111.136a1.065,1.065,0,0,1-.141.723,30.924,30.924,0,0,1-3.877.357c-.177-.015-.082.011-.276-.112a2.976,2.976,0,0,1-.048-.717c.6-.445,3.205-.363,4.1-.4" transform="translate(-2728.936 -870.34)" fill="#fefefe"/>
            <path id="Path_610546" data-name="Path 610546" d="M2893.288,1254.611l.034.006c.235.26.19.916.221,1.277-1.578.086-3.153.236-4.728.368-.286-.229-.251-.832-.3-1.2,1.585-.183,3.182-.3,4.771-.453" transform="translate(-2750.757 -1194.784)" fill="#ef7d34"/>
            <path id="Path_610547" data-name="Path 610547" d="M2886.229,1186.935a1.56,1.56,0,0,1,.875.035,2.375,2.375,0,0,1,.169,1.2c-1.243.19-2.544.231-3.8.342a2.109,2.109,0,0,1-1.219-.037,2.441,2.441,0,0,1-.146-1.164Z" transform="translate(-2744.653 -1130.286)" fill="#ef7d34"/>
            <path id="Path_610548" data-name="Path 610548" d="M2871.838,969.808c.225-.014.113-.033.332.072a20.358,20.358,0,0,1,.479,4.723c-1.411.168-2.85.179-4.267.314l-.257-.049c-.285-.426-.422-4.014-.526-4.828q2.121-.086,4.239-.233" transform="translate(-2730.835 -923.524)" fill="#fefefe"/>
            <path id="Path_610549" data-name="Path 610549" d="M674.79,2174.565c2.827,4.243,5.3,10.763,6.691,15.69l.169.548.654.053c-.227.054-.405.051-.566.227.421,2.908,1.027,3.633-.027,6.6a10.435,10.435,0,0,1-5.606,3.938l.057.293a1.3,1.3,0,0,1-.593.17l-.077-.207-.045-.009c-.708-.14-1.281-.432-1.96-.628a29.836,29.836,0,0,0-4.805-6.253c-.529-6.961,3.006-14.391,6.108-20.427" transform="translate(-636.509 -2070.959)" fill="#519cef"/>
            <path id="Path_610550" data-name="Path 610550" d="M792.959,2325.889q-.33-4.4-.44-8.807a45.423,45.423,0,0,1-.022-5.022,47.231,47.231,0,0,1,.28,5.2q.2,3.962.492,7.917c.135,1.4.363,6.385.746,7.4l.057.293a1.3,1.3,0,0,1-.593.17l-.077-.207c-.093-2.309-.462-4.636-.443-6.944" transform="translate(-754.419 -2201.911)" fill="#3457ad"/>
          </g>
        </g>
        <g id="Group_1072869" data-name="Group 1072869" transform="translate(426.918 549.445)">
          <g id="Group_1072868" data-name="Group 1072868" clip-path="url(#clip-path-3)">
            <rect id="Rectangle_378034" data-name="Rectangle 378034" width="17.932" height="23.449" transform="translate(-3.464 11.625) rotate(-73.723)" fill="url(#linear-gradient)"/>
          </g>
        </g>
        <g id="Group_1072871" data-name="Group 1072871" transform="translate(309.764 459.895)">
          <g id="Group_1072870" data-name="Group 1072870" transform="translate(0)" clip-path="url(#clip-path-2)">
            <path id="Path_610552" data-name="Path 610552" d="M2492.567,1975.857a8.182,8.182,0,0,1,.982.269c.634.056,1.243.769,1.688,1.185l.013,1.58c-2.477.071-4.964-.047-7.443-.071q-6.123-.04-12.246-.017l0-.413c2.614.007,5.236.056,7.849,0,2.6.046,5.2-.053,7.8-.1a1.184,1.184,0,0,1,.315-.064,3.771,3.771,0,0,0,.859-.17c-.015-.15-.024-.3-.042-.452-.074-.624.371-1.216.229-1.749" transform="translate(-2357.448 -1881.708)" fill="#61a87c"/>
            <path id="Path_610553" data-name="Path 610553" d="M2805.786,1975.857a8.149,8.149,0,0,1,.982.269c.332.3.915.861.893,1.349a.651.651,0,0,1-.326.54c-.649.417-2.141.289-2.908.276a1.187,1.187,0,0,1,.315-.064,3.774,3.774,0,0,0,.859-.17c-.015-.15-.024-.3-.042-.452-.075-.624.371-1.216.228-1.749" transform="translate(-2670.667 -1881.708)" fill="#93c3a2"/>
            <path id="Path_610554" data-name="Path 610554" d="M2475.555,2085.618c1.809-.1,3.664-.016,5.478-.018,4.7,0,9.428.082,14.12-.094l-.015.5.03,2.3a32.292,32.292,0,0,0-4.28-.131,2.6,2.6,0,0,0,1.476-1l-.4-.934q-8.253-.08-16.506-.024l.011-.622Z" transform="translate(-2357.354 -1986.139)" fill="#61a87c"/>
            <path id="Path_610555" data-name="Path 610555" d="M2475.469,2087.336l.085.025.035.339a.861.861,0,0,0,.212.137,31.809,31.809,0,0,0,3.534-.01l15.8-.077.03,2.3a32.292,32.292,0,0,0-4.28-.131,2.6,2.6,0,0,0,1.476-1l-.4-.934q-8.253-.08-16.506-.024Z" transform="translate(-2357.354 -1987.882)" fill="#93c3a2"/>
          </g>
        </g>
        <g id="Group_1072873" data-name="Group 1072873" transform="translate(427.857 559.948)">
          <g id="Group_1072872" data-name="Group 1072872" clip-path="url(#clip-path-5)">
            <rect id="Rectangle_378036" data-name="Rectangle 378036" width="11.437" height="14.978" transform="matrix(0.578, -0.816, 0.816, 0.578, -0.964, 1.347)" fill="url(#linear-gradient-2)"/>
          </g>
        </g>
        <g id="Group_1072875" data-name="Group 1072875" transform="translate(309.764 459.895)">
          <g id="Group_1072874" data-name="Group 1072874" transform="translate(0)" clip-path="url(#clip-path-2)">
            <path id="Path_610557" data-name="Path 610557" d="M2482.82,1976.025a28.562,28.562,0,0,1,3.037-.1q3.144-.065,6.29-.07c.142.533-.3,1.125-.228,1.749.018.149.027.3.042.451a3.775,3.775,0,0,1-.858.17,1.178,1.178,0,0,0-.315.064c-2.6.049-5.2.147-7.8.1-2.613.053-5.235,0-7.849,0-.035-.768-.014-1.548-.02-2.317q3.851-.044,7.7-.048" transform="translate(-2357.028 -1881.707)" fill="#c3dcc3"/>
            <path id="Path_610558" data-name="Path 610558" d="M2466.24,1879.258l.486.01q4.728-.071,9.456-.009c-.079.926-.058,1.86-.056,2.789l.014,1.358q.005.936,0,1.874c-.445-.417-1.054-1.13-1.687-1.186a8.152,8.152,0,0,0-.982-.269q-3.145,0-6.289.07a28.428,28.428,0,0,0-3.037.1q-3.853,0-7.7.047l.037-.762a.181.181,0,0,0-.015-.016c-.448-.332-.823-.566-.933-1.154a4.91,4.91,0,0,1,.451-2.587c.594-.532,8.719-.163,10.259-.264" transform="translate(-2338.352 -1789.675)" fill="#fde081"/>
          </g>
        </g>
        <g id="Group_1072877" data-name="Group 1072877" transform="translate(427.852 553.498)">
          <g id="Group_1072876" data-name="Group 1072876" clip-path="url(#clip-path-7)">
            <rect id="Rectangle_378038" data-name="Rectangle 378038" width="6.966" height="19.561" transform="matrix(0.255, -0.967, 0.967, 0.255, -0.494, 1.87)" fill="url(#linear-gradient-3)"/>
          </g>
        </g>
        <g id="Group_1072879" data-name="Group 1072879" transform="translate(309.764 459.895)">
          <g id="Group_1072878" data-name="Group 1072878" transform="translate(0)" clip-path="url(#clip-path-2)">
            <path id="Path_610560" data-name="Path 610560" d="M2691.27,1879.352q4.727-.071,9.456-.009c-.079.926-.057,1.86-.056,2.789-2.1.018-4.666.276-6.681-.36a4.432,4.432,0,0,1-2.719-2.42" transform="translate(-2562.896 -1789.759)" fill="#fca32b"/>
            <path id="Path_610561" data-name="Path 610561" d="M1536.556,309.223q.2-.5.447-.98a6.046,6.046,0,0,1,3.611-3.056,6.912,6.912,0,0,1,6.014,1.451,21.8,21.8,0,0,0,2.852,2.089,2.059,2.059,0,0,0,1.638.293c.658-.259.815-1.142,1.111-1.7a.618.618,0,0,1,.461-.381,1.773,1.773,0,0,1,1.07.992c.881,1.767.227,2.769-.279,4.394a.576.576,0,0,0,.488-.069c.633-.366.913-1.535,1.015-2.208.173.283.346.568.5.861a5.088,5.088,0,0,1,.687,3.689c-.354,1.071-1.235,1.471-2.168,1.94.569-.089,1.132-.223,1.7-.346a4.817,4.817,0,0,1-2.638,2.431c-3.765.968-8.953-1.45-12.146-3.345q-1.022-.615-2.012-1.283a56.429,56.429,0,0,0-1.8,5.862,25.562,25.562,0,0,1-.706,2.568.684.684,0,0,1-.379.453l-.159-.076c-.3-.917.544-2.758-.524-3.353a1.934,1.934,0,0,0-1.48-.059,1.959,1.959,0,0,0-.943,1.177,4.223,4.223,0,0,0,.167,3.175,5.036,5.036,0,0,0,.424.692c.365.182.726.361,1.108.507-.063,1.391.027,2.926-.164,4.293-2.545-3.269-3.445-10.35-3.334-14.509a5.834,5.834,0,0,1,1.533-4.342,5.28,5.28,0,0,1,3.91-1.161" transform="translate(-1457.941 -290.332)" fill="#521f1e"/>
            <path id="Path_610562" data-name="Path 610562" d="M1570.4,494.716q.989.668,2.012,1.283c3.192,1.895,8.38,4.313,12.145,3.345-.018.038-.036.075-.054.113a19.1,19.1,0,0,0-.995,3.336q-.653,2.594-1.4,5.163c-.917,3.2-1.745,6.5-5.2,7.812a14.127,14.127,0,0,1-3.482.587l.034.183a15.086,15.086,0,0,1-.336,2.271,7.25,7.25,0,0,1-6.132-3.18,4.962,4.962,0,0,0-1.226-1.367c.12-1.277.2-2.561.292-3.84l-.062-.267-.059-.2c.192-1.367.1-2.9.164-4.293-.382-.147-.743-.325-1.108-.507a5.01,5.01,0,0,1-.424-.692,4.22,4.22,0,0,1-.167-3.175,1.958,1.958,0,0,1,.943-1.177,1.934,1.934,0,0,1,1.48.059c1.068.6.224,2.436.524,3.353l.159.076a.684.684,0,0,0,.379-.453,25.559,25.559,0,0,0,.706-2.568,56.49,56.49,0,0,1,1.8-5.862" transform="translate(-1489.438 -471.051)" fill="#fcab7d"/>
            <path id="Path_610563" data-name="Path 610563" d="M1814.578,721.273a8.685,8.685,0,0,1,.437,2.832,1.213,1.213,0,0,1-.431.948,1.312,1.312,0,0,1-1.085.092c-.24-.116-.425-.147-.555-.387a4.556,4.556,0,0,1,1.66-.216,11.858,11.858,0,0,1-.026-3.27" transform="translate(-1726.368 -686.827)" fill="#f65f46"/>
            <path id="Path_610564" data-name="Path 610564" d="M1901.794,640.9a2.208,2.208,0,0,1,.328.023,1.937,1.937,0,0,1,1.24.779.824.824,0,0,1,.149.7.975.975,0,0,1-.469.579,2.871,2.871,0,0,0-.822-.556,2.736,2.736,0,0,1-.764-.389c-.209-.185-.2-.239-.209-.5a1.7,1.7,0,0,1,.547-.64" transform="translate(-1810.469 -610.276)" fill="#361d1c"/>
            <path id="Path_610565" data-name="Path 610565" d="M1594.165,625.386l-.031-.146c.212-.016.162-.055.309.07a2.571,2.571,0,0,1,.6,1.62,1.507,1.507,0,0,1-.345,1.067.623.623,0,0,1-.509.248,1.066,1.066,0,0,1-.392-.787,3.524,3.524,0,0,1,.058-1.769,1.363,1.363,0,0,1,.095-.121Z" transform="translate(-1517.568 -595.347)" fill="#fa734e"/>
            <path id="Path_610566" data-name="Path 610566" d="M1598.906,628.686c.211.09.331.1.432.32a3.4,3.4,0,0,1,.052,1.782c-.013.037-.033.07-.049.105a.471.471,0,0,1-.262-.355c-.2-.615.013-1.06-.39-1.67Z" transform="translate(-1522.308 -598.646)" fill="#faa894"/>
            <path id="Path_610567" data-name="Path 610567" d="M1883.991,698.645a1.16,1.16,0,0,1,.566.173.9.9,0,0,1,.3.737,2.238,2.238,0,0,1-.789,1.518c-.3-.028-.52,0-.74-.242a.869.869,0,0,1-.185-.608,2.361,2.361,0,0,1,.843-1.578" transform="translate(-1793.23 -665.276)" fill="#361d1c"/>
            <path id="Path_610568" data-name="Path 610568" d="M1762.791,823.049a13.629,13.629,0,0,0,1.939.644,7.77,7.77,0,0,1,1.561.288c-.046.262-.333.424-.531.6a6.558,6.558,0,0,1-.638.319,1.3,1.3,0,0,1-.993-.026,3.083,3.083,0,0,1-1.338-1.824" transform="translate(-1678.602 -783.76)" fill="#fefefe"/>
            <path id="Path_610569" data-name="Path 610569" d="M1749.837,661.6c.039,0,.078,0,.117,0a.892.892,0,0,1,.767.307.981.981,0,0,1,.2.636,2.091,2.091,0,0,1-.81,1.518,1.207,1.207,0,0,1-.805-.283.929.929,0,0,1-.3-.767,1.988,1.988,0,0,1,.833-1.409" transform="translate(-1665.469 -629.989)" fill="#361d1c"/>
            <path id="Path_610570" data-name="Path 610570" d="M1737.695,598.331a2.753,2.753,0,0,1,1.745.384,1.142,1.142,0,0,1,.467.847.661.661,0,0,1-.348.45,1.248,1.248,0,0,1-.756-.251,7.434,7.434,0,0,0-2.609-.5.529.529,0,0,1,.006-.435,2.39,2.39,0,0,1,1.494-.494" transform="translate(-1653.23 -569.732)" fill="#361d1c"/>
            <path id="Path_610571" data-name="Path 610571" d="M1598.026,824.759c.037.043.074.086.111.13.443.537.651,1.274,1.069,1.846a9.8,9.8,0,0,0,4.672,3.563c.495.17,1.033.224,1.516.394l.034.183a15.041,15.041,0,0,1-.336,2.271,7.25,7.25,0,0,1-6.132-3.179,4.961,4.961,0,0,0-1.226-1.367c.119-1.277.2-2.56.293-3.84" transform="translate(-1521.399 -785.388)" fill="#fa734e"/>
            <path id="Path_610572" data-name="Path 610572" d="M2264.971,2277.659c1.792-.142,3.692-.051,5.492-.012a1.6,1.6,0,0,1-.02.85l-.178.068c.128.035.255.029.326.151a1.783,1.783,0,0,1,.161.61,15.219,15.219,0,0,0,3.043.057l6.2-.029,15.421.031c3.087.008,6.189-.044,9.275.037,1.41.015,2.837-.015,4.244.062q2.627.025,5.253.019l-.01,4.655-1.57.022-4.14.048c-3.671.066-7.352.014-11.024.015l-21.176.006,0,3.828-.58.03c-1.064-.079-2.17-.022-3.239-.021h-6.208l-19.543.005-4.381.013a14.879,14.879,0,0,0-.086-3.756l-.05-.091c-.865-.063-1.748-.029-2.615-.031-.031-1.61-.014-3.222-.021-4.833l23.72-.089c.271-.364,1.115.023,1.513-.227-.194-.268-1.476-.239-1.862-.365l-.086-.03c.586-.054,1.19-.044,1.78-.058a.767.767,0,0,0-.362-.425.137.137,0,0,1,.033-.016,2.156,2.156,0,0,0,.509-.131c.132-.065.135-.258.173-.392" transform="translate(-2132.677 -2169.074)" fill="#4e4472"/>
            <path id="Path_610573" data-name="Path 610573" d="M2736.279,2298.226c.128.036.255.029.326.151a1.782,1.782,0,0,1,.161.611q-2.391-.02-4.783.006a17.411,17.411,0,0,1-2.7-.028c.27-.365,1.114.023,1.512-.228-.194-.268-1.476-.239-1.861-.365l-.087-.031c.586-.054,1.191-.043,1.78-.057,1.879-.006,3.771.036,5.647-.059" transform="translate(-2598.69 -2188.736)" fill="#b2cee6"/>
            <path id="Path_610574" data-name="Path 610574" d="M2759.369,2277.659c1.792-.142,3.692-.051,5.492-.012a1.6,1.6,0,0,1-.02.85l-.177.068c-1.876.095-3.769.053-5.647.059a.764.764,0,0,0-.361-.425.131.131,0,0,1,.032-.016,2.15,2.15,0,0,0,.509-.131c.132-.065.135-.258.173-.392" transform="translate(-2627.075 -2169.074)" fill="#f29234"/>
            <path id="Path_610575" data-name="Path 610575" d="M2328.434,2417.446l.592.01,0,3.829-.58.03c-1.064-.08-2.17-.022-3.239-.022H2319l-19.543.005-4.381.013a14.892,14.892,0,0,0-.086-3.757l-.05-.091c6.764.084,13.536,0,20.3.005,4.314,0,8.923.172,13.191-.022" transform="translate(-2185.428 -2302.282)" fill="#519cef"/>
            <path id="Path_610576" data-name="Path 610576" d="M2998.76,2417.445l.592.01v3.829l-.579.03Z" transform="translate(-2855.753 -2302.281)" fill="#5476bf"/>
            <path id="Path_610577" data-name="Path 610577" d="M2329.458,2497.857l0,9.076a42.777,42.777,0,0,0,.083,4.883c.005,1.039-.045,2.121.027,3.155l-.021.057a2.934,2.934,0,0,0-.658-.083c0,.94.04,1.894,0,2.832-3.715-.075-7.439-.031-11.155-.035q-9.313-.031-18.626.056l-1.539.026-1.222-.006a1.32,1.32,0,0,1-.721-.076,1.7,1.7,0,0,1-.215-1.113c.047-.551.047-1.1.054-1.656.615.015,1.236.049,1.85.021.864-5.7,1.855-11.407,2.58-17.122l19.543-.006h6.207c1.069,0,2.175-.058,3.239.022Z" transform="translate(-2185.858 -2378.854)" fill="#96d8f6"/>
            <path id="Path_610578" data-name="Path 610578" d="M2999.622,2498.108l-.005,9.076a42.948,42.948,0,0,0,.083,4.883c.005,1.039-.045,2.121.028,3.155l-.021.058a2.914,2.914,0,0,0-.658-.084l-.006-17.058Z" transform="translate(-2856.022 -2379.105)" fill="#3d82d1"/>
            <path id="Path_610579" data-name="Path 610579" d="M2606.942,2591.224c1.157-.01,2.355-.116,3.506-.028a1.721,1.721,0,0,1,1.252.511.947.947,0,0,1,.183.747c-.074.416-.391.63-.7.866a20.933,20.933,0,0,1-3.565.048,1.708,1.708,0,0,1-1.3-.559,1,1,0,0,1-.1-.725c.08-.447.372-.628.727-.86" transform="translate(-2481.866 -2467.731)" fill="#31315f"/>
            <path id="Path_610580" data-name="Path 610580" d="M2297.309,2857.232l20.639-.023,6.916.024c1.326,0,2.7.056,4.021-.049,0,.94.04,1.894,0,2.832-3.715-.075-7.439-.031-11.155-.035q-9.313-.033-18.626.055l-1.539.026-1.222-.007a1.322,1.322,0,0,1-.721-.076,1.7,1.7,0,0,1-.215-1.113c.047-.551.047-1.1.054-1.656.615.015,1.236.049,1.85.021" transform="translate(-2185.858 -2721.094)" fill="#519cef"/>
            <path id="Path_610581" data-name="Path 610581" d="M1778.669,1449.228c.648-1.053,1.238-2.953,2.37-3.517a6.463,6.463,0,0,1,3.781-.119c3.146.214,6.327.853,9.453,1.294,2.482.351,4.962.681,7.437,1.086a30.642,30.642,0,0,1,3.394.64l.124.161a2.292,2.292,0,0,1-.159.377q-3.018,5.135-6.143,10.206a53.493,53.493,0,0,0-3.4,5.655c.435,1.19-.111,3.6-.651,4.744a3.763,3.763,0,0,1-2.008,2.041c-1.241.466-1.644-.209-2.64-.263-1.565.287-6.339-.248-8.3-.354-3.223-.174-6.455-.2-9.675-.415-.94-.259-3.806-.092-4.411-.612-1.095-.28-2.389.1-3.419-.264a35,35,0,0,0,2.633-3.437,10.526,10.526,0,0,0,1.688-.357c1.077-1.178,1.586-2.758,2.443-4.093.495-.7.923-1.447,1.359-2.187l.26-.451c.168-.241.311-.517.462-.771,1.568-2.777,3.192-5.524,4.743-8.31.234-.341.443-.7.658-1.053" transform="translate(-1680.155 -1376.464)" fill="#3457ad"/>
            <path id="Path_610582" data-name="Path 610582" d="M1837.1,1941.164c2.184.377,4.391.569,6.595.795q4.708.51,9.429.878a20.821,20.821,0,0,0,4.834.276,2.841,2.841,0,0,1,.687.622c-1.565.287-6.339-.248-8.3-.354-3.223-.174-6.455-.2-9.675-.415-.94-.259-3.806-.093-4.411-.612a10.035,10.035,0,0,0,.838-1.189" transform="translate(-1748.576 -1848.666)" fill="#113982"/>
            <path id="Path_610583" data-name="Path 610583" d="M2228.575,1857.985a1.619,1.619,0,0,1-.379-.463.565.565,0,0,1-.007-.563c.547-.32.951-.025,1.512.1l.116.024a1.026,1.026,0,0,1,.938-.058c.458.133.913.3,1.364.458.961-.039,1.923-.165,2.882-.25a2.678,2.678,0,0,0,.691-.356c.435,1.189-.111,3.6-.651,4.744a3.765,3.765,0,0,1-2.009,2.04c-1.24.466-1.644-.209-2.64-.263a2.851,2.851,0,0,0-.687-.621q-.661-.461-1.287-.967c-.644-.526-1.815-1.515-1.834-2.4a.762.762,0,0,1,.267-.554l.428.008a3.575,3.575,0,0,1-.313-.493.706.706,0,0,1,0-.578c.52-.275.949.041,1.468.162Z" transform="translate(-2120.325 -1768.331)" fill="#faa894"/>
            <path id="Path_610584" data-name="Path 610584" d="M2342.878,1865.876c.961-.039,1.923-.165,2.882-.249-.459.366-.9.736-1.33,1.137-.515-.3-1.026-.607-1.551-.888" transform="translate(-2231.084 -1776.723)" fill="#db7379"/>
            <path id="Path_610585" data-name="Path 610585" d="M1778.669,1449.228c.648-1.053,1.238-2.953,2.37-3.517a6.463,6.463,0,0,1,3.781-.119c3.146.214,6.327.853,9.453,1.294,2.482.351,4.962.681,7.437,1.086a30.642,30.642,0,0,1,3.394.64l.124.161a2.292,2.292,0,0,1-.159.377c-2.757-.38-5.5-.895-8.256-1.3-2.012-.293-12.965-1.563-14.013-2.1a.843.843,0,0,0-.585.445c-.719,1.1-1.36,2.26-2.036,3.383l-6.111,10.366q-1.7,2.824-3.42,5.63a25.6,25.6,0,0,0-1.934,3.276c-.015.035-.024.072-.036.108a10.028,10.028,0,0,1-.838,1.189c-1.095-.28-2.389.1-3.419-.264a35,35,0,0,0,2.633-3.437,10.526,10.526,0,0,0,1.688-.357c1.077-1.178,1.586-2.758,2.443-4.093.495-.7.923-1.447,1.359-2.187l.26-.451c.168-.241.311-.517.462-.771,1.568-2.777,3.192-5.524,4.743-8.31.234-.341.443-.7.658-1.053" transform="translate(-1680.155 -1376.464)" fill="#5476bf"/>
          </g>
        </g>
        <g id="Group_1072881" data-name="Group 1072881" transform="translate(330.829 575.922)">
          <g id="Group_1072880" data-name="Group 1072880" clip-path="url(#clip-path-9)">
            <rect id="Rectangle_378040" data-name="Rectangle 378040" width="46.514" height="53.166" transform="translate(-13.85 4.483) rotate(-18.472)" fill="url(#linear-gradient-4)"/>
          </g>
        </g>
        <g id="Group_1072883" data-name="Group 1072883" transform="translate(333.292 579.05)">
          <g id="Group_1072882" data-name="Group 1072882" clip-path="url(#clip-path-10)">
            <rect id="Rectangle_378041" data-name="Rectangle 378041" width="31.859" height="41.282" transform="matrix(0.847, -0.532, 0.532, 0.847, -18.698, 11.751)" fill="url(#linear-gradient-5)"/>
          </g>
        </g>
        <g id="Group_1072885" data-name="Group 1072885" transform="translate(309.764 459.895)">
          <g id="Group_1072884" data-name="Group 1072884" transform="translate(0)" clip-path="url(#clip-path-2)">
            <path id="Path_610588" data-name="Path 610588" d="M713.079,2660.459c.066.906.031,1.818.016,2.726a25.8,25.8,0,0,0-.007,5.537,36.724,36.724,0,0,0-3.467,3.629c-.721.9-1.347,1.9-2.092,2.769a1.05,1.05,0,0,1-.443.528l-.118-.075-.025-.269c-.156,1.755-1.6,3.164-1.943,4.946-.259,1.351.2,2.519.149,3.835s-.334,2.687-.477,4.013q-.323,3.135-.344,6.287a13.174,13.174,0,0,0-1.378,0q0-5.959-.587-11.89c-.222-2.049-.759-4.181-.8-6.232a9.277,9.277,0,0,0,4.59-5.41c.723-2.557-.068-4.616-1.3-6.841.678.2,1.252.488,1.96.628l.045.009.077.207a1.3,1.3,0,0,0,.593-.17l-.057-.293a10.437,10.437,0,0,0,5.606-3.938" transform="translate(-667.878 -2533.731)" fill="#fefefe"/>
          </g>
        </g>
        <g id="Group_1072887" data-name="Group 1072887" transform="translate(348.824 590.854)">
          <g id="Group_1072886" data-name="Group 1072886" clip-path="url(#clip-path-12)">
            <rect id="Rectangle_378043" data-name="Rectangle 378043" width="10.975" height="2.444" transform="matrix(0.142, -0.99, 0.99, 0.142, -1.538, 10.738)" fill="url(#linear-gradient-6)"/>
          </g>
        </g>
        <g id="Group_1072889" data-name="Group 1072889" transform="translate(309.764 459.895)">
          <g id="Group_1072888" data-name="Group 1072888" transform="translate(0)" clip-path="url(#clip-path-2)">
            <path id="Path_610590" data-name="Path 610590" d="M831.334,2660.459c.066.906.031,1.818.016,2.726a25.807,25.807,0,0,0-.007,5.537,36.751,36.751,0,0,0-3.467,3.629c-.721.9-1.347,1.9-2.092,2.769a72.657,72.657,0,0,0,0-10.43l-.057-.293a10.438,10.438,0,0,0,5.606-3.938" transform="translate(-786.132 -2533.731)" fill="#fefefe"/>
            <path id="Path_610591" data-name="Path 610591" d="M768.394,2752.749a34.863,34.863,0,0,1,5.241-4.064,46.928,46.928,0,0,1,1.406,10.3c.964-.014,1.938-.056,2.9.015l-.031.071-2.87,0c.109,3.47.288,7.563-2.268,10.272a8.352,8.352,0,0,1-3.162,2.127,14.029,14.029,0,0,1-4.618.669q-.794,3.157-1.636,6.3l-.634-.005c-.8-.065-1.612-.02-2.412-.007l-.678-.017q.02-3.152.344-6.287c.143-1.325.422-2.685.477-4.012s-.408-2.483-.149-3.835c.342-1.783,1.787-3.192,1.943-4.946l.025.269.118.075a1.052,1.052,0,0,0,.443-.528c.745-.873,1.372-1.871,2.092-2.77a36.675,36.675,0,0,1,3.467-3.629" transform="translate(-723.183 -2617.758)" fill="#0a876f"/>
            <path id="Path_610592" data-name="Path 610592" d="M862.26,2845.113q.525-2.259,1.159-4.49t1.375-4.427q.741-2.2,1.588-4.356t1.8-4.273a20.268,20.268,0,0,1,.82-1.885l.079-.045a21.958,21.958,0,0,1-1.262,3.478c-.456,1.138-.854,2.307-1.273,3.459a128.861,128.861,0,0,0-3.93,12.5Z" transform="translate(-820.926 -2691.047)" fill="#0a5150"/>
            <path id="Path_610593" data-name="Path 610593" d="M773.881,3181.005a84.243,84.243,0,0,1,.741-9.628,10.938,10.938,0,0,0,3.334,3.11l.13-.087.353-.039.122.354q-.794,3.157-1.636,6.3l-.634,0c-.8-.065-1.612-.02-2.412-.007" transform="translate(-736.753 -3020.335)" fill="#fefefe"/>
            <path id="Path_610594" data-name="Path 610594" d="M826.226,3234.214l.13-.087.353-.039.122.353q-.794,3.157-1.636,6.3l-.634-.005c.611-2.156,1.118-4.352,1.664-6.525" transform="translate(-785.022 -3080.062)" fill="#037a7b"/>
            <path id="Path_610595" data-name="Path 610595" d="M2916.532,1877.952c1.517,0,3.054-.059,4.568,0l.25-.02-1.338,13.636c-.228,2.38-.6,4.828-.664,7.215-3.085-.082-6.188-.029-9.275-.038l-15.421-.031-6.2.029a15.244,15.244,0,0,1-3.042-.057,1.783,1.783,0,0,0-.162-.61c-.071-.123-.2-.116-.326-.151l.178-.068a1.6,1.6,0,0,0,.02-.85l.042-.014c.062-.892.03-1.806.037-2.7.01-.518,0-1.026-.026-1.544a15.528,15.528,0,0,1-.062-2.023l.036-.124-.029-2.3.015-.5c-.024-.724,0-1.458,0-2.183l-.013-1.58q.006-.937,0-1.873l-.014-1.358c0-.929-.023-1.863.056-2.789l26.516-.05Z" transform="translate(-2747.329 -1788.437)" fill="#fa734e"/>
            <path id="Path_610596" data-name="Path 610596" d="M2995.589,1947.656c.808-.031,5.084-.143,5.563-.038a1.609,1.609,0,0,1,1.115.784.932.932,0,0,1,.031.751,1.137,1.137,0,0,1-.579.583c-1.584.018-3.168-.042-4.751.013-.565.02-1.448.112-1.856-.365a1.1,1.1,0,0,1-.176-.926,1.251,1.251,0,0,1,.654-.8" transform="translate(-2852.081 -1854.77)" fill="#fefefe"/>
            <path id="Path_610597" data-name="Path 610597" d="M3356.018,1944.021c.86-.008,2.42-.283,3.126.291a1.145,1.145,0,0,1,.394.857,1.162,1.162,0,0,1-.287.9c-.689.718-3.529.4-4.587.4-.876-.005-2.421.275-3.159-.24a.934.934,0,0,1-.385-.762,1.3,1.3,0,0,1,.367-1.016c.756-.714,3.432-.422,4.532-.423" transform="translate(-3191.343 -1851.318)" fill="#fefefe"/>
            <path id="Path_610598" data-name="Path 610598" d="M2921.1,1878.131l.25-.02-1.338,13.636c-.228,2.38-.6,4.828-.664,7.215-3.085-.082-6.188-.029-9.275-.038l-15.421-.031-6.2.029a15.243,15.243,0,0,1-3.042-.057,1.782,1.782,0,0,0-.162-.61c-.071-.123-.2-.115-.326-.151l.178-.068a1.6,1.6,0,0,0,.02-.85l.042-.014a20.063,20.063,0,0,0,5.021-.222,54.083,54.083,0,0,0,5.342-.845,52.989,52.989,0,0,0,14.036-5.641c4.912-2.8,8.806-6.667,10.318-12.215a7.535,7.535,0,0,0,1.225-.118" transform="translate(-2747.329 -1788.613)" fill="#f65f46"/>
            <path id="Path_610599" data-name="Path 610599" d="M3031.906,2416.257l4.14-.048q-.029,1.952,0,3.9l0,17.011c-3.077.046-6.156.021-9.234.038-2.45.013-4.9.075-7.353.03l-.572.108a27.476,27.476,0,0,1-6.632,1.764,24.106,24.106,0,0,0-2.669.54,1.105,1.105,0,0,0-.618.393,35.829,35.829,0,0,1-3.937.041l-5.9-.009c.042-.938,0-1.892,0-2.832a2.914,2.914,0,0,1,.658.084l.021-.058c-.073-1.034-.022-2.115-.027-3.155a42.828,42.828,0,0,1-.083-4.883l0-9.076v-3.829l21.175-.006c3.672,0,7.354.051,11.024-.015" transform="translate(-2856.109 -2301.104)" fill="#96d8f6"/>
            <path id="Path_610600" data-name="Path 610600" d="M3271.87,2592.944c1.173-.009,2.382-.1,3.55-.046a2.333,2.333,0,0,1,1.649.686.668.668,0,0,1,.136.568,1.875,1.875,0,0,1-.855.924c-1.263.019-2.606.124-3.862.02a1.739,1.739,0,0,1-1.322-.562.873.873,0,0,1-.066-.748,1.275,1.275,0,0,1,.769-.841" transform="translate(-3115.084 -2469.367)" fill="#31315f"/>
            <path id="Path_610601" data-name="Path 610601" d="M2999.814,2856.722l13.312.012a45.308,45.308,0,0,1,5.76.066,27.464,27.464,0,0,1-6.632,1.763,24.2,24.2,0,0,0-2.669.541,1.1,1.1,0,0,0-.618.393,35.829,35.829,0,0,1-3.937.04l-5.9-.008c.042-.939,0-1.892,0-2.832a2.914,2.914,0,0,1,.658.084Z" transform="translate(-2856.109 -2720.606)" fill="#519cef"/>
            <path id="Path_610602" data-name="Path 610602" d="M2999.135,2857.184a2.938,2.938,0,0,1,.658.084c0,.522,0,1.044.032,1.565a1.667,1.667,0,0,1-.209,1.1l-.482.082c.042-.938,0-1.892,0-2.832" transform="translate(-2856.109 -2721.094)" fill="#5476bf"/>
            <path id="Path_610603" data-name="Path 610603" d="M3010.559,2417.234l21.176-.006c3.672,0,7.353.051,11.024-.015-.15,1.277-.274,2.587-.327,3.872l-.074,0c-3.764-.1-7.548-.015-11.314-.013H3010.65l.008,9.251c0,1.54.1,3.162-.02,4.693a42.885,42.885,0,0,1-.083-4.883l0-9.076Z" transform="translate(-2866.961 -2302.06)" fill="#519cef"/>
            <path id="Path_610604" data-name="Path 610604" d="M3438.689,2416.257l4.14-.048q-.029,1.952,0,3.9l0,17.011c-3.077.046-6.156.021-9.234.038-2.45.013-4.9.075-7.353.03.824-.567,1.711-1.046,2.535-1.615a23.19,23.19,0,0,0,9.512-15.443l.074,0c.052-1.285.176-2.595.326-3.872" transform="translate(-3262.891 -2301.104)" fill="#82b7e6"/>
            <path id="Path_610605" data-name="Path 610605" d="M3681.277,2416.257l4.14-.048q-.029,1.952,0,3.9l-4.462.017c.052-1.285.176-2.595.327-3.872" transform="translate(-3505.479 -2301.104)" fill="#3d82d1"/>
          </g>
        </g>
        <g id="Group_1072891" data-name="Group 1072891" transform="translate(435.814 526.332)">
          <g id="Group_1072890" data-name="Group 1072890" clip-path="url(#clip-path-14)">
            <rect id="Rectangle_378045" data-name="Rectangle 378045" width="45.746" height="43.076" transform="matrix(0.782, -0.624, 0.624, 0.782, -11.288, 9.006)" fill="url(#linear-gradient-7)"/>
          </g>
        </g>
        <g id="Group_1072893" data-name="Group 1072893" transform="translate(309.764 459.895)">
          <g id="Group_1072892" data-name="Group 1072892" transform="translate(0)" clip-path="url(#clip-path-2)">
            <path id="Path_610607" data-name="Path 610607" d="M2984.3,1393.56a48.082,48.082,0,0,1,5.929.121l-.077.2c-.637.287-13.225.177-15.087.069a8.33,8.33,0,0,1-1.547-.264c.942,0,1.883,0,2.823-.04,1.542.024,3.091-.039,4.635-.045a29.949,29.949,0,0,0,3.2-.037Z" transform="translate(-2831.716 -1327.09)" fill="#16a569"/>
            <path id="Path_610608" data-name="Path 610608" d="M3193.288,1483.453c1.555-.016,3.113-.048,4.668-.034.593.005,1.54.047,1.941.568a1.04,1.04,0,0,1,.109.886.836.836,0,0,1-.554.56,38.327,38.327,0,0,1-4.422.093c-.676,0-1.863.018-2.31-.589a.578.578,0,0,1-.11-.41,1.711,1.711,0,0,1,.677-1.073" transform="translate(-3040.378 -1412.701)" fill="#fefefe"/>
            <path id="Path_610609" data-name="Path 610609" d="M2790.534,1480.712c1.3-.036,6.471-.284,7.318.516a.661.661,0,0,1,.217.485,1.761,1.761,0,0,1-.62,1.1c-1.238.134-6.545.356-7.352-.392a.711.711,0,0,1-.277-.566,1.882,1.882,0,0,1,.714-1.139" transform="translate(-2656.755 -1410.064)" fill="#fefefe"/>
            <path id="Path_610610" data-name="Path 610610" d="M1668.026,1959.543a3.559,3.559,0,0,1,.286-.33c1.03.36,2.324-.016,3.419.264.6.52,3.471.354,4.411.612.406,1.051.9,2.143,1.206,3.226l.3.757c1.368,3.3,2.361,6.869,3.493,10.261q2.6,7.688,4.94,15.461a37.192,37.192,0,0,1,1.8,7.163,47.769,47.769,0,0,1-.721,9.985l-1.31,9.9-1.425,11.485c-.266,2.2-.474,4.421-.831,6.6l-1.147.183c-.394.014-.782.009-1.175,0a32.73,32.73,0,0,1-5.369-.671l-.842-.209-.06-10.465a31.959,31.959,0,0,0-.034-3.906l.013-.145c.145-1.406.059-2.9.082-4.321q.049-4.09.239-8.177l.04-.157a34.909,34.909,0,0,1,1.009-7.55c-.976-1.211-1.682-2.807-2.751-3.906l-.1-.21c-1.761-2.828-3.545-5.722-5.463-8.445l-.139-.291-.572-1-.143-.173c-.838-1.27-1.609-2.588-2.391-3.892a2.114,2.114,0,0,1-1.059.237c-.151-.031-.149-.121-.215-.245.03-.689.079-1.364.167-2.048a26.552,26.552,0,0,1,.179-5.2c.175-2.792.23-5.723.666-8.487l.063.609a2.5,2.5,0,0,0,.067-.821l.061-.023q.017.65.056,1.3c.105-.591.005-1.2.129-1.806.006-.029.013-.058.02-.088q.068-1.481.258-2.951t.5-2.92a10.329,10.329,0,0,1,2.3.337Z" transform="translate(-1584.045 -1865.789)" fill="#4e4472"/>
            <path id="Path_610611" data-name="Path 610611" d="M2010.162,2761.369c.791-1.079,2.6-1.833,3.8-2.312-.908.724-1.87,1.385-2.834,2.033-.263.12-.728.424-1,.348Z" transform="translate(-1914.177 -2627.636)" fill="#162055"/>
            <path id="Path_610612" data-name="Path 610612" d="M1764.558,1968.83q1.188.3,2.352.681t2.3.848q1.133.465,2.23,1.012t2.151,1.169l.3.757a.593.593,0,0,1-.1.036.845.845,0,0,1-.13,0,22.372,22.372,0,0,1-2.491-1.391c-2.149-1.134-4.5-1.923-6.612-3.117" transform="translate(-1680.285 -1875.015)" fill="#162055"/>
            <path id="Path_610613" data-name="Path 610613" d="M1758.42,1960.925a3.6,3.6,0,0,1,.286-.331c1.03.36,2.324-.016,3.419.264.6.52,3.471.354,4.411.613.406,1.051.9,2.143,1.206,3.226q-1.054-.624-2.151-1.17t-2.23-1.012q-1.133-.465-2.3-.848t-2.352-.681Z" transform="translate(-1674.439 -1867.172)" fill="#31315f"/>
            <path id="Path_610614" data-name="Path 610614" d="M1664.521,2083.353l.063.609a2.5,2.5,0,0,0,.067-.821l.061-.023q.017.649.056,1.3c.105-.591.005-1.2.129-1.807.006-.029.013-.058.02-.087a13.645,13.645,0,0,0,.06,2.053c.383,2.657,2.046,6.108,3.1,8.615,1.771,4.212,3.53,8.427,5.637,12.487,2,3.849,4.282,7.531,6.315,11.353l-.025.069c.268.076.733-.229,1-.348-2.785,6.681-2.724,20.938-2.651,28.393.013,1.293-.171,4.562.3,5.67.492,1.151,1.861,1.01,2.62,1.8a32.637,32.637,0,0,1-5.369-.671l-.842-.209-.06-10.465a31.936,31.936,0,0,0-.034-3.906l.013-.145c.145-1.406.059-2.9.082-4.321q.049-4.09.239-8.177l.04-.157a34.9,34.9,0,0,1,1.009-7.55c-.976-1.211-1.683-2.807-2.751-3.906l-.1-.21c-1.761-2.827-3.545-5.721-5.463-8.445l-.139-.291-.572-1-.143-.174c-.838-1.27-1.609-2.588-2.391-3.893a2.115,2.115,0,0,1-1.059.238c-.151-.031-.149-.121-.215-.245.03-.689.079-1.364.167-2.048a26.565,26.565,0,0,1,.179-5.2c.175-2.792.23-5.723.666-8.486" transform="translate(-1584.045 -1983.297)" fill="#31315f"/>
            <path id="Path_610615" data-name="Path 610615" d="M1663.676,2387.584c.378.68.768,1.355,1.108,2.056a2.117,2.117,0,0,1-1.059.238c-.151-.031-.149-.121-.215-.245.03-.689.079-1.364.167-2.048" transform="translate(-1584.045 -2273.841)" fill="#fefefe"/>
            <path id="Path_610616" data-name="Path 610616" d="M973.856,819.156l.062.267c-.094,1.279-.173,2.563-.292,3.84l-.059.772-.042.547a23.5,23.5,0,0,1-2.588,1.178c-2.382.762-4.862,1.275-7.278,1.927-3.363.907-6.481,1.685-8.186,5.04q-.158.312-.29.637t-.236.658q-.1.334-.181.676t-.124.688a53.1,53.1,0,0,0-.219,5.4c-.1,2.934-.283,5.869-.345,8.8-.045,1.1-.107,2.195-.107,3.292-.17,2.425-.609,4.957.4,7.247a6.415,6.415,0,0,0,3.953,3.072c-.177.683-1.047,2.63-.622,3.237.216.308.759.407,1.1.5a49.183,49.183,0,0,0-.607,6.286c0,1.274-.019,2.554.027,3.827l.134,3.64c.3,3.774.617,7.52,1.038,11.283.179,1.415.335,2.837.547,4.247-3.243.1-6.521-.009-9.768-.01-2.556,0-5.192.149-7.733-.042a4.4,4.4,0,0,1,1.623-.151c-.078-3.8.04-7.624.089-11.425.043-3.261.018-6.525.025-9.787l.035-55.538c2.757-.007,28.987.2,29.643-.115" transform="translate(-897.291 -780.052)" fill="#e6f2f7"/>
            <path id="Path_610617" data-name="Path 610617" d="M1072.367,2112.081c.3,3.774.617,7.52,1.038,11.283l-11.257,0,.014-11.268q5.1-.031,10.206-.01" transform="translate(-1011.3 -2011.441)" fill="#b2cee6"/>
            <path id="Path_610618" data-name="Path 610618" d="M1062.424,1527.362l5.814.022c-.17,2.425-.609,4.957.4,7.247a6.415,6.415,0,0,0,3.953,3.072c-.177.682-1.047,2.63-.622,3.237.216.308.759.407,1.1.5a49.117,49.117,0,0,0-.607,6.286c0,1.274-.019,2.554.027,3.827l-10.073,0Z" transform="translate(-1011.558 -1454.556)" fill="#b2cee6"/>
            <path id="Path_610619" data-name="Path 610619" d="M1130.875,1680.117a6.414,6.414,0,0,0,3.953,3.072c-.177.682-1.047,2.629-.623,3.237.216.308.759.407,1.1.5a49.16,49.16,0,0,0-.607,6.286,6.963,6.963,0,0,0-.092,2.279l-6.805-.017c-.079-5.1-.017-10.219,0-15.324q1.539.008,3.076-.035" transform="translate(-1073.79 -1600.041)" fill="#fefefe"/>
            <path id="Path_610620" data-name="Path 610620" d="M1061.877,921.193l25.442.023-.042.547a23.5,23.5,0,0,1-2.588,1.178c-2.382.762-4.862,1.275-7.277,1.927-3.363.907-6.481,1.685-8.186,5.04q-.158.312-.29.637t-.236.659q-.1.334-.181.676t-.124.689a53.133,53.133,0,0,0-.219,5.4c-.1,2.934-.283,5.869-.345,8.8H1061.9Z" transform="translate(-1011.043 -877.233)" fill="#b2cee6"/>
            <path id="Path_610621" data-name="Path 610621" d="M1199.562,905.447a4.96,4.96,0,0,1,1.226,1.367,7.25,7.25,0,0,0,6.132,3.18,15.054,15.054,0,0,0,.336-2.271c.771.314,1.385,1.283,2.018,1.845a.085.085,0,0,1,.013.019c3.251,1.849,7.967,4.953,9.034,8.781a34.824,34.824,0,0,1,.661,4.608c.378,2.8,1.618,9.675,2.758,12.026-.215.353-.424.712-.658,1.053-1.55,2.787-3.175,5.533-4.742,8.31-.151.253-.294.53-.462.771l-.26.451c-.436.74-.865,1.484-1.359,2.187-.858,1.334-1.366,2.914-2.443,4.092a10.53,10.53,0,0,1-1.688.357,34.983,34.983,0,0,1-2.633,3.437,3.635,3.635,0,0,0-.286.33l-.047-.062a10.334,10.334,0,0,0-2.3-.337,30.966,30.966,0,0,0,.765-3.178l-.345-.026c-7.89-.241-13.029-.661-20.539-3.264-.338-.094-.882-.193-1.1-.5-.425-.608.446-2.555.622-3.237a6.414,6.414,0,0,1-3.953-3.072c-1.013-2.29-.575-4.822-.4-7.247,0-1.1.062-2.2.107-3.292.062-2.935.243-5.87.345-8.8a53.028,53.028,0,0,1,.219-5.4q.047-.347.124-.688t.181-.676q.1-.334.236-.658t.29-.637c1.705-3.354,4.823-4.132,8.186-5.04,2.416-.652,4.9-1.164,7.278-1.927a23.507,23.507,0,0,0,2.587-1.178l.042-.547Z" transform="translate(-1123.228 -862.237)" fill="#fbb63d"/>
            <path id="Path_610622" data-name="Path 610622" d="M1851.4,1618.492a29.693,29.693,0,0,0,3.68,4.985c-.151.253-.294.53-.462.771l-.159-.094a5.065,5.065,0,0,1-.516-.362c-1.256.12-2.4.984-3.621,1.305.662-1.789.821-4.674,1.078-6.606" transform="translate(-1761.972 -1541.349)" fill="#fefefe"/>
            <path id="Path_610623" data-name="Path 610623" d="M1406.743,1263.264a46.478,46.478,0,0,1-.535,5.47c-.323,3.012-.531,6.047-.92,9.05,3.312,1.5,6.568,3.165,9.844,4.746,1.519.733,3.118,1.352,4.613,2.12.206.105.4.173.481.4l-.162.125-.253-.047c-5.117-2.217-10.1-4.867-15.3-6.864.67-3.6,1.074-7.287,1.6-10.908a38.617,38.617,0,0,1,.632-4.092" transform="translate(-1337.369 -1203.026)" fill="#ef7d34"/>
            <path id="Path_610624" data-name="Path 610624" d="M1677.4,1732.549c.458.244,1.56.7,1.778,1.141-.623,1.76-1.265,3.507-2.047,5.2-.23.266-.324.456-.712.478a10.764,10.764,0,0,1-1.775-.291c.819-2.207,1.908-4.327,2.756-6.532" transform="translate(-1594.651 -1649.978)" fill="#fefefe"/>
            <path id="Path_610625" data-name="Path 610625" d="M1728.948,953.271c.77.314,1.385,1.283,2.018,1.845a.089.089,0,0,1,.013.019,15.17,15.17,0,0,0,.751,2.14,29.174,29.174,0,0,1,1.154,5.064c-1.3-.9-2.437-2-3.732-2.9a6.79,6.79,0,0,1-1.727,3.4c.361-2.411.645-4.916,1.187-7.292a15.073,15.073,0,0,0,.336-2.271" transform="translate(-1644.919 -907.785)" fill="#e6f2f7"/>
            <path id="Path_610626" data-name="Path 610626" d="M1732.776,1731.181c1.223-.322,2.365-1.185,3.621-1.305a5.06,5.06,0,0,0,.516.362l.159.094-.26.451c-.436.74-.865,1.483-1.359,2.187-.858,1.334-1.366,2.914-2.443,4.092a10.551,10.551,0,0,1-1.688.357l-.122-.01a11.26,11.26,0,0,0-1.424-.3q-1.45-.325-2.872-.756c.782-1.7,1.424-3.444,2.047-5.2.929.606,2.762.171,3.826.038" transform="translate(-1644.421 -1647.432)" fill="#fcab7d"/>
            <path id="Path_610627" data-name="Path 610627" d="M1878.263,1751.1a2.091,2.091,0,0,0-.736-.17c-.335.009-.418.031-.678-.175a8,8,0,0,1,2.774-1.842c-.436.741-.865,1.484-1.359,2.187" transform="translate(-1787.232 -1665.567)" fill="#faa894"/>
            <path id="Path_610628" data-name="Path 610628" d="M1539.833,933.18c.449,2.4,5.043,5.839,5.558,9.187a2.537,2.537,0,0,1,.046.989c-.178-.042-.12,0-.2-.069a1.459,1.459,0,0,1-.356.108c-.7.1-3.737.2-4.242-.147a1.39,1.39,0,0,1-.509.3,2.893,2.893,0,0,1-.683-.908c-1.379-2.4-2.967-5.445-2.2-8.285a23.5,23.5,0,0,0,2.588-1.178" transform="translate(-1463.6 -888.65)" fill="#fefefe"/>
            <path id="Path_610629" data-name="Path 610629" d="M1612.563,1091.029a32.712,32.712,0,0,1,3.2-2.684c.478.9.953,1.8,1.393,2.723a1.473,1.473,0,0,1-.356.108c-.7.1-3.737.2-4.242-.147" transform="translate(-1535.523 -1036.431)" fill="#fca32b"/>
            <path id="Path_610630" data-name="Path 610630" d="M1261.528,1744.664c4.755,1.866,9.648,3.376,14.548,4.811a21.356,21.356,0,0,0,4.409,1.145,10.73,10.73,0,0,0,1.775.291c.388-.021.482-.212.712-.478q1.422.431,2.872.756a11.312,11.312,0,0,1,1.424.3l.122.01a34.959,34.959,0,0,1-2.633,3.437,3.582,3.582,0,0,0-.286.33l-.047-.062a10.361,10.361,0,0,0-2.3-.337,30.92,30.92,0,0,0,.765-3.178l-.345-.026c-7.89-.241-13.029-.661-20.538-3.264-.339-.094-.882-.193-1.1-.5-.425-.608.446-2.555.623-3.238" transform="translate(-1200.49 -1661.516)" fill="#ef7d34"/>
            <path id="Path_610631" data-name="Path 610631" d="M1714.193,1888.167l.122.01a34.974,34.974,0,0,1-2.633,3.437,3.568,3.568,0,0,0-.286.331l-.047-.062a10.334,10.334,0,0,0-2.3-.337,30.933,30.933,0,0,0,.765-3.178,16.737,16.737,0,0,0,4.381-.2" transform="translate(-1627.415 -1798.191)" fill="#31315f"/>
            <path id="Path_610632" data-name="Path 610632" d="M1872.987,1241.565c.1-1.536.391-3.064.625-4.584q.455-2.97.866-5.946c.395-2.768.559-5.538.905-8.3l.085.038-.078.046c.269,1.357.334,2.761.6,4.127.754,3.912,2.469,8.495,5.422,11.3-1.55,2.786-3.175,5.533-4.742,8.31a29.688,29.688,0,0,1-3.68-4.985" transform="translate(-1783.554 -1164.422)" fill="#ef7d34"/>
            <path id="Path_610633" data-name="Path 610633" d="M955.23,1823.23c7.51,2.6,12.648,3.023,20.539,3.264l.345.026a30.943,30.943,0,0,1-.765,3.178q-.312,1.449-.5,2.92t-.258,2.951c-.007.029-.014.058-.019.088-.124.6-.024,1.215-.129,1.806q-.039-.649-.056-1.3l-.061.023a2.5,2.5,0,0,1-.067.821l-.063-.609c-.436,2.763-.491,5.695-.666,8.487a26.549,26.549,0,0,0-.179,5.2c-.088.684-.137,1.359-.167,2.048.066.124.065.214.216.245a2.11,2.11,0,0,0,1.059-.237c.781,1.3,1.553,2.623,2.391,3.893l.143.173.572,1,.139.29c1.918,2.724,3.7,5.618,5.463,8.445l.1.211c1.068,1.1,1.775,2.694,2.751,3.906a34.912,34.912,0,0,0-1.009,7.55l-.04.156q-.189,4.086-.239,8.177c-.023,1.418.063,2.915-.083,4.321l-.013.145a31.981,31.981,0,0,1,.034,3.906c-1.978-.061-3.974-.014-5.954-.013q-4.617-.007-9.234.055l-1.018,7.47a31.539,31.539,0,0,0-.493,3.695,1.239,1.239,0,0,1-.32.734,2.9,2.9,0,0,1-1.151.041c-.01,1.293-.164,2.566-.2,3.854a58.272,58.272,0,0,1-6.306-1c.091-1.187.079-2.384.1-3.574l-.879-.2-.225-9.865a9.522,9.522,0,0,1-.1-1.168l-11.068-.009a49.651,49.651,0,0,1-5.461-.073,4.133,4.133,0,0,1-1.69-.488c-.832-.523-.274-2.73-.482-3.583-.011-.046-.024-.091-.036-.137a8.357,8.357,0,0,0,3.161-2.127c2.556-2.709,2.376-6.8,2.268-10.273l2.87,0,.031-.071c-.962-.071-1.936-.028-2.9-.014a46.912,46.912,0,0,0-1.406-10.3,34.863,34.863,0,0,0-5.241,4.064,25.81,25.81,0,0,1,.007-5.537c.015-.908.049-1.819-.016-2.726,1.054-2.971.448-3.7.027-6.6.161-.177.339-.173.566-.227l-.654-.053-.169-.548.1-.043a14.2,14.2,0,0,0,.076-3.134c2.541.191,5.177.041,7.733.042,3.247,0,6.525.11,9.768.01-.212-1.411-.368-2.833-.547-4.247-.421-3.764-.743-7.509-1.038-11.283l-.134-3.64c-.047-1.273-.024-2.553-.027-3.827a49.115,49.115,0,0,1,.607-6.286" transform="translate(-893.718 -1736.344)" fill="#4e4472"/>
            <path id="Path_610634" data-name="Path 610634" d="M1363.837,1907.3c.074-.165.15-.328.233-.488a2.32,2.32,0,0,0-.009.638,6.7,6.7,0,0,1-.621,1.988,6.2,6.2,0,0,1-3.714,3.416c.456-.474,1.016-.83,1.509-1.266a10.571,10.571,0,0,0,2.6-4.287" transform="translate(-1294.718 -1815.951)" fill="#162055"/>
            <path id="Path_610635" data-name="Path 610635" d="M1686.355,1891.811l.345.026a30.9,30.9,0,0,1-.765,3.178q-.311,1.449-.5,2.92t-.258,2.951c-.006.03-.014.058-.02.088-.124.6-.024,1.215-.129,1.807q-.038-.649-.055-1.3l-.061.023a2.5,2.5,0,0,1-.067.821l-.063-.609a38.765,38.765,0,0,1,.746-6.789c.344-1.016.423-2.1.829-3.117" transform="translate(-1604.303 -1801.661)" fill="#162055"/>
            <path id="Path_610636" data-name="Path 610636" d="M1657.371,2517.121l.034-.968c1.339-.116,2.721-.062,4.067-.069l.572,1c-1.54.115-3.127.039-4.672.035" transform="translate(-1578.199 -2396.22)" fill="#82b7e6"/>
            <path id="Path_610637" data-name="Path 610637" d="M1417.818,2732.552c.858.453,7.629,7.837,8.5,8.909a5,5,0,0,1,.664,1.03c-1-.284-8.011-8.461-9.168-9.939" transform="translate(-1350.046 -2602.393)" fill="#162055"/>
            <path id="Path_610638" data-name="Path 610638" d="M1659.086,2430.615c.066.124.064.214.215.245a2.118,2.118,0,0,0,1.059-.237c.781,1.3,1.553,2.623,2.391,3.892a22.126,22.126,0,0,1-3.887.039c.108-1.292.009-2.664.221-3.939" transform="translate(-1579.622 -2314.825)" fill="#82b7e6"/>
            <path id="Path_610639" data-name="Path 610639" d="M1586.278,3234.941c4.892-.014,9.783.083,14.674-.006a32.006,32.006,0,0,1,.034,3.906c-1.978-.061-3.974-.014-5.955-.013q-4.617-.007-9.234.055.224-1.972.48-3.941" transform="translate(-1510.032 -3080.869)" fill="#82b7e6"/>
            <path id="Path_610640" data-name="Path 610640" d="M1650.164,2537.267l.139.291c1.918,2.723,3.7,5.617,5.463,8.445-.724.286-9.381.109-10.869.109.027-.841.083-1.682.128-2.522l.061-.529.041-.637c.043-1.6.223-3.214.316-4.816l.048-.3c1.546,0,3.133.08,4.672-.036" transform="translate(-1566.319 -2416.401)" fill="#82b7e6"/>
            <path id="Path_610641" data-name="Path 610641" d="M1647.645,2656.982c1.231-.018,4.45-.3,5.473.154l.088.254-.027-.221.088.087a1.468,1.468,0,0,1-.237.2c-.567.3-4.548.07-5.446.053Z" transform="translate(-1568.877 -2530.323)" fill="#519cef"/>
            <path id="Path_610642" data-name="Path 610642" d="M1654.757,2537.267l.139.291-.077.037c.117,1.6.012,3.22.055,4.825l-5.153,0c.043-1.6.223-3.214.316-4.816l.048-.3c1.546,0,3.133.08,4.672-.036" transform="translate(-1570.913 -2416.401)" fill="#e6f2f7"/>
            <path id="Path_610643" data-name="Path 610643" d="M1661.079,2537.267l.139.291-.077.037c-1.581,0-3.206-.077-4.783.012l.048-.3c1.546,0,3.133.08,4.672-.036" transform="translate(-1577.234 -2416.401)" fill="#3d82d1"/>
            <path id="Path_610644" data-name="Path 610644" d="M1640.3,2725.263c1.068,1.1,1.775,2.695,2.751,3.906a34.923,34.923,0,0,0-1.009,7.549c-1.5-.147-3.149-.018-4.666-.017l-8.827-.022c.374-3.781.523-7.593.729-11.387q5.511.053,11.023-.029" transform="translate(-1550.746 -2595.451)" fill="#82b7e6"/>
            <path id="Path_610645" data-name="Path 610645" d="M1598.425,2967.355c4.5-.024,9,.066,13.505.087q-.189,4.087-.239,8.177c-.023,1.418.063,2.915-.083,4.321a50.165,50.165,0,0,1-5.346.083c-3.1,0-6.193.024-9.289-.114.09-.893.2-1.785.3-2.678l.088-.782.106-.915c.242-1.556.4-3.13.612-4.691q.21-1.74.342-3.489" transform="translate(-1520.676 -2826.019)" fill="#82b7e6"/>
            <path id="Path_610646" data-name="Path 610646" d="M1603.432,3158.071a2.408,2.408,0,0,1,1.3.135l.131.188a.672.672,0,0,1-.443.4,3.5,3.5,0,0,1-1.075.062Z" transform="translate(-1526.744 -3007.64)" fill="#519cef"/>
            <path id="Path_610647" data-name="Path 610647" d="M1608.032,3040.743c.254.044.454.021.632.218.017.7.053,4.106-.268,4.448a5.167,5.167,0,0,1-.975.026c.242-1.556.4-3.13.612-4.691" transform="translate(-1530.625 -2895.918)" fill="#e6f2f7"/>
            <path id="Path_610648" data-name="Path 610648" d="M955.23,1823.23c7.51,2.6,12.648,3.023,20.539,3.264-.405,1.016-.485,2.1-.829,3.117a73.077,73.077,0,0,1-11.88-1.765,2.336,2.336,0,0,1,.009-.637c-.083.16-.159.323-.233.488a43.381,43.381,0,0,1-4.924-1.479q-.04,6.939.3,13.87c.344,6.851.829,13.722,1.351,20.562.249,3.263.576,6.518.772,9.785l1.4,21.145c.236,3.61.284,7.283.7,10.875a3.693,3.693,0,0,0,.56,1.841c1.057,1.064,4.252.273,4.984,1.229a1.239,1.239,0,0,1-.32.734,2.9,2.9,0,0,1-1.151.041c-.01,1.293-.164,2.566-.2,3.854a58.272,58.272,0,0,1-6.306-1c.091-1.187.079-2.384.1-3.574l-.879-.2-.225-9.865a9.522,9.522,0,0,1-.1-1.168l-11.068-.009a49.651,49.651,0,0,1-5.461-.073,4.133,4.133,0,0,1-1.69-.488c-.832-.523-.274-2.73-.482-3.583-.011-.046-.024-.091-.036-.137a8.357,8.357,0,0,0,3.161-2.127c2.556-2.709,2.376-6.8,2.268-10.273l2.87,0,.031-.071c-.962-.071-1.936-.028-2.9-.014a46.912,46.912,0,0,0-1.406-10.3,34.863,34.863,0,0,0-5.241,4.064,25.81,25.81,0,0,1,.007-5.537c.015-.908.049-1.819-.016-2.726,1.054-2.971.448-3.7.027-6.6.161-.177.339-.173.566-.227l-.654-.053-.169-.548.1-.043a14.2,14.2,0,0,0,.076-3.134c2.541.191,5.177.041,7.733.042,3.247,0,6.525.11,9.768.01-.212-1.411-.368-2.833-.547-4.247-.421-3.764-.743-7.509-1.038-11.283l-.134-3.64c-.047-1.273-.024-2.553-.027-3.827a49.115,49.115,0,0,1,.607-6.286" transform="translate(-893.718 -1736.344)" fill="#31315f"/>
            <path id="Path_610649" data-name="Path 610649" d="M1386.417,3553.756c2.142.366,4.253.542,6.416.716-.01,1.293-.165,2.566-.2,3.854a58.463,58.463,0,0,1-6.306-.995c.091-1.187.079-2.385.1-3.575" transform="translate(-1320.048 -3384.517)" fill="#f29234"/>
            <path id="Path_610650" data-name="Path 610650" d="M938.868,2437.525c2.541.191,5.177.041,7.733.042,3.247,0,6.525.11,9.768.01l.445,3.591c-5.97.151-12-.358-17.956.082l-.169-.548.1-.042a14.2,14.2,0,0,0,.076-3.134" transform="translate(-893.718 -2321.406)" fill="#96d8f6"/>
            <path id="Path_610651" data-name="Path 610651" d="M977.594,2966.906h10.182c.254,4.156.215,8.36.271,12.525H975.213c-1.887,0-3.809-.079-5.692,0,.484.243,16.571.105,18.528.121.016,1.714.166,3.5.082,5.207a9.518,9.518,0,0,1-.1-1.167l-11.068-.01a49.651,49.651,0,0,1-5.461-.073,4.137,4.137,0,0,1-1.69-.488c-.832-.524-.274-2.73-.482-3.583-.011-.046-.024-.092-.036-.137a8.355,8.355,0,0,0,3.162-2.127c2.556-2.709,2.376-6.8,2.268-10.272Z" transform="translate(-922.866 -2825.592)" fill="#82b7e6"/>
            <path id="Path_610652" data-name="Path 610652" d="M1142.884,3157.2c1.038-.086,8.611-.182,9.147.027l.11.306a75.707,75.707,0,0,1-8.963.051c-.169-.05-.212-.239-.294-.385" transform="translate(-1088.195 -3006.742)" fill="#519cef"/>
            <path id="Path_610653" data-name="Path 610653" d="M1146.86,3035.395a45.931,45.931,0,0,1,4.732-.042q.04,2.624,0,5.246c-1.562.022-3.126,0-4.688,0a40.536,40.536,0,0,1-4.432-.127c-.075-1.678-.012-3.364.034-5.042,1.447-.045,2.9-.026,4.349-.037" transform="translate(-1087.775 -2890.745)" fill="#519cef"/>
            <path id="Path_610654" data-name="Path 610654" d="M1147.533,3041.931l8.5-.018c-.03,1.576,0,3.156,0,4.732l-8.5.007Z" transform="translate(-1092.623 -2897.032)" fill="#e6f2f7"/>
            <path id="Path_610655" data-name="Path 610655" d="M941.39,2515.927l11.784.01a43.8,43.8,0,0,1,5.492.06,2.745,2.745,0,0,1,.185,1.059,43.387,43.387,0,0,1,.648,5.055c.107,1.138.253,2.289.311,3.43-6.3-.01-12.626.1-18.927-.007.662.387,16.315.083,18.962.165.227,3.032.51,6.081.55,9.123l-.009.133c.036.751.088,1.5.1,2.256l-10.134.061c-.962-.071-1.936-.028-2.9-.014a46.923,46.923,0,0,0-1.406-10.3,34.866,34.866,0,0,0-5.241,4.064,25.8,25.8,0,0,1,.007-5.537c.015-.908.049-1.819-.016-2.725,1.054-2.971.448-3.7.027-6.6.161-.177.339-.173.566-.228" transform="translate(-895.595 -2396.03)" fill="#b2cee6"/>
            <path id="Path_610656" data-name="Path 610656" d="M1137.666,2656.62c1.489-.041,7.7-.266,8.7.229l.045.1a49.322,49.322,0,0,1-8.76-.026l-.084-.193Z" transform="translate(-1083.131 -2529.991)" fill="#519cef"/>
            <path id="Path_610657" data-name="Path 610657" d="M1160.288,2908.406a67.619,67.619,0,0,1-8.551.167c-.395,0-.9.072-1.187-.214l.023-.174a1.02,1.02,0,0,1,.105-.052,79.817,79.817,0,0,1,8.492-.069,2.09,2.09,0,0,1,.826.193,1.038,1.038,0,0,1,.092.066l.208-.05Z" transform="translate(-1095.496 -2769.479)" fill="#519cef"/>
            <path id="Path_610658" data-name="Path 610658" d="M1142.736,2540.667a43.382,43.382,0,0,1,.648,5.056l-.662.129c-1.543.357-5.077.111-6.8.082a8.734,8.734,0,0,0-1.853,0l-.051.33-.1.114c-.018-.063-.039-.124-.054-.187-.2-.849-.206-4.517.269-5.208.929-.43,7.093-.255,8.454-.178Z" transform="translate(-1079.481 -2419.639)" fill="#82b7e6"/>
            <path id="Path_610659" data-name="Path 610659" d="M1152.007,2548.415a37.823,37.823,0,0,1,.141,4.544c-2.76.01-5.58-.11-8.331.063a24.973,24.973,0,0,1-.062-4.593q4.126.019,8.252-.015" transform="translate(-1088.95 -2427.019)" fill="#e6f2f7"/>
            <path id="Path_610660" data-name="Path 610660" d="M1138.653,2787.569l.032-.008c.838-.132,8.1-.182,8.554.147a1.212,1.212,0,0,0-.315.262,20.947,20.947,0,0,0,.076,4.316c.009.043.02.087.029.13a1.29,1.29,0,0,1-.446.319c-1.406.211-7.486.386-8.531-.1a.5.5,0,0,1-.351-.4c-.074-.258-.112-3.588-.08-3.915a1.261,1.261,0,0,1,.2-.556,1.161,1.161,0,0,1,.832-.2" transform="translate(-1083.173 -2654.688)" fill="#82b7e6"/>
            <path id="Path_610661" data-name="Path 610661" d="M1143.927,2792.818c2.881-.119,5.806-.025,8.692-.024a45.2,45.2,0,0,1-.042,4.714c-2.905.064-5.822.01-8.729.009-.016-.914-.243-3.991.079-4.7" transform="translate(-1089.025 -2659.734)" fill="#e6f2f7"/>
            <path id="Path_610662" data-name="Path 610662" d="M394.8,3227.456c.012.045.025.091.036.137.208.853-.35,3.06.482,3.583a4.126,4.126,0,0,0,1.69.488,49.47,49.47,0,0,0,5.461.073l11.068.009a9.54,9.54,0,0,0,.1,1.168l.225,9.865.879.2c-.016,1.19,0,2.388-.1,3.575a58.272,58.272,0,0,0,6.306,1c.04-1.288.195-2.561.2-3.854a2.9,2.9,0,0,0,1.151-.041,1.241,1.241,0,0,0,.32-.734,31.532,31.532,0,0,1,.493-3.694l1.018-7.471q4.617-.062,9.234-.054c1.98,0,3.976-.048,5.955.013l.06,10.465.842.21a32.69,32.69,0,0,0,5.369.671c.393.013.782.019,1.175,0-.019,1.056-.123,2.116-.127,3.168a1.776,1.776,0,0,0,.071.883c-.52.674-.942,1.492-1.512,2.107a3.074,3.074,0,0,0,2.334.6,3.6,3.6,0,0,0,1.515-.154l.054.229c3.238-.151,6.526.049,9.772.049q-.031,1.57-.009,3.14a18.109,18.109,0,0,0,2.769-.016l0-3.114q2.211.017,4.421,0c.017,1.139-.228,3.981.331,4.814a2.877,2.877,0,0,0,1.386.828,17.505,17.505,0,0,0,2.727.057l5.368,0q7.006.029,14.012-.066c1.936-.019,3.893.05,5.826-.031a3.031,3.031,0,0,0,.567-.054,22.27,22.27,0,0,0,3.26-.211H512.9c2.036,0,4.132.118,6.163.005a2.774,2.774,0,0,0,1.089-.237,2.908,2.908,0,0,0,1.479-1.855,7.948,7.948,0,0,0,2.08-.094l.106-.29c0,.006,0,.012.007.019.19.39.569.448.956.61-.023-.661-.014-1.322-.008-1.984,0,.034.01.069.014.1.124,1-.25,2.677.583,3.382a.709.709,0,0,0,.617-.033,1.179,1.179,0,0,0,.534-.622,3.46,3.46,0,0,0,.037-1.019c1.836.352,6.517.909,7.8,2.074a.752.752,0,0,1,.276.609,1.032,1.032,0,0,1-.363.508c-1.513,1.151-10.088,2.04-12.314,2.284-11.054,1.21-22.186,1.524-33.291,1.94q-17.67.687-35.354.719t-35.356-.591q-8.912-.274-17.82-.662a266.741,266.741,0,0,1-27.57-2.136c-1.3-.186-5.82-.85-6.382-1.889a.622.622,0,0,1-.005-.613c.665-1.26,9.42-2.4,11.175-2.711l-1.106-10.485c-.02-.779-.152-1.577-.248-2.35a1.855,1.855,0,0,1-1.364-.4,2.048,2.048,0,0,1-.66-1.483c-.043-.844-.154-2.431.475-3.064a2.388,2.388,0,0,1,1.282-.563,15.373,15.373,0,0,1,2.594-.073q2.26.023,4.519-.028l.6.031a12.977,12.977,0,0,1,1.378,0l.678.017c.8-.012,1.614-.058,2.412.007l.634.005q.841-3.146,1.636-6.3a14.042,14.042,0,0,0,4.618-.669" transform="translate(-348.373 -3073.746)" fill="#96d8f6"/>
            <path id="Path_610663" data-name="Path 610663" d="M1881.419,3684.924a3.076,3.076,0,0,0,2.334.6,3.611,3.611,0,0,0,1.515-.154l.054.229c1.457,1.593,3.936.384,5.753,1.487a6.468,6.468,0,0,1,2.429,3.927c-2.333.123-4.707.039-7.045.034l-12.388-.02c.234-.879,1.147-5.063,1.535-5.5a11.686,11.686,0,0,0,5.814-.607" transform="translate(-1784.586 -3509.443)" fill="#113982"/>
            <path id="Path_610664" data-name="Path 610664" d="M1330.728,3628.869a58.519,58.519,0,0,0,6.306.995l.4.018a1.837,1.837,0,0,1,1.206,1.022,5.786,5.786,0,0,1,.234,1.18l-.034.23a4.155,4.155,0,0,0,2.579.78,13.484,13.484,0,0,1,2.639.235c2.035.51,2.9,2.672,3.554,4.447l-19.663-.075q.8-2.585,1.639-5.156a.966.966,0,0,1,.245-.632l.3.059.141-.035c.435-.483.4-2.405.451-3.07" transform="translate(-1264.454 -3456.056)" fill="#113982"/>
            <path id="Path_610665" data-name="Path 610665" d="M1482.294,3650.169a1.836,1.836,0,0,1,1.206,1.022,5.8,5.8,0,0,1,.233,1.18l-.033.23c-.7.236-2.725-.389-3.654-.385.027-.049.053-.1.081-.147a3.372,3.372,0,0,1,2.167-1.9" transform="translate(-1409.313 -3476.342)" fill="#162055"/>
            <path id="Path_610666" data-name="Path 610666" d="M1374.47,3628.869a58.522,58.522,0,0,0,6.306.995l.4.018a3.374,3.374,0,0,0-2.167,1.9l-.081.147c-.32.364-.941.348-1.4.375a9.988,9.988,0,0,1-3.657-.331l.141-.035c.435-.483.4-2.405.451-3.07" transform="translate(-1308.197 -3456.056)" fill="#f6d1c6"/>
            <path id="Path_610667" data-name="Path 610667" d="M1522.021,3316.431q4.617-.062,9.234-.055c1.98,0,3.976-.048,5.954.013l.061,10.465.842.209a32.669,32.669,0,0,0,5.369.671c.393.014.782.019,1.175,0-.019,1.056-.123,2.116-.127,3.168a1.775,1.775,0,0,0,.072.884c-.52.673-.942,1.492-1.512,2.107a11.7,11.7,0,0,1-5.814.607l.383-.572c-.622-.144-15.92.28-16.982.512a5.824,5.824,0,0,0-.234-1.18,1.837,1.837,0,0,0-1.206-1.022l-.4-.018c.041-1.288.195-2.562.2-3.855a2.9,2.9,0,0,0,1.152-.041,1.242,1.242,0,0,0,.32-.734,31.533,31.533,0,0,1,.493-3.695Z" transform="translate(-1446.255 -3158.417)" fill="#fefefe"/>
            <path id="Path_610668" data-name="Path 610668" d="M1907.168,3541.325a32.666,32.666,0,0,0,5.369.671c.393.014.782.019,1.175,0-.019,1.056-.123,2.116-.127,3.168a1.776,1.776,0,0,0,.071.883c-.52.674-.942,1.492-1.512,2.107a11.691,11.691,0,0,1-5.814.607l.383-.572.092-.068a12.805,12.805,0,0,0,.408-2.491c.1-1.417-.021-2.887-.046-4.31" transform="translate(-1815.311 -3372.678)" fill="#ef7d34"/>
            <path id="Path_610669" data-name="Path 610669" d="M1913.585,3622.083a1.776,1.776,0,0,0,.071.883c-.52.674-.942,1.492-1.512,2.107a11.691,11.691,0,0,1-5.814.607l.383-.571.092-.069a12.813,12.813,0,0,0,.408-2.491,28.676,28.676,0,0,0,6.146.009c.132-.051.18-.343.226-.476" transform="translate(-1815.311 -3449.593)" fill="#f6d1c6"/>
            <path id="Path_610670" data-name="Path 610670" d="M551.692,3227.456c.012.045.025.091.036.137.208.853-.35,3.06.482,3.583a4.125,4.125,0,0,0,1.69.488,49.472,49.472,0,0,0,5.461.073l11.068.009a9.522,9.522,0,0,0,.1,1.168l.225,9.865.879.2c-.016,1.19,0,2.388-.1,3.575-.051.665-.017,2.587-.451,3.07l-.141.035-.3-.059a.963.963,0,0,0-.245.631c-4.63.024-9.377.572-14,.969-1.71.147-3.5.437-5.21.424-.132,1.6-.245,3.214-.419,4.814l-16.206-.079c-.106-1.173-.155-2.385-.329-3.547l-1.106-10.485c-.02-.779-.152-1.577-.248-2.35a1.856,1.856,0,0,1-1.364-.4,2.048,2.048,0,0,1-.659-1.483c-.043-.844-.154-2.431.474-3.064a2.388,2.388,0,0,1,1.282-.563,15.373,15.373,0,0,1,2.594-.073q2.26.023,4.519-.028l.6.031a12.976,12.976,0,0,1,1.378,0l.678.017c.8-.012,1.614-.058,2.412.007l.634.005q.841-3.146,1.636-6.3a14.043,14.043,0,0,0,4.618-.669" transform="translate(-505.264 -3073.746)" fill="#fefefe"/>
            <path id="Path_610671" data-name="Path 610671" d="M539.731,3372.782l.6.031a13.174,13.174,0,0,1,1.378,0l.678.017c.8-.012,1.614-.058,2.412.007l.634,0q2.537.022,5.074,0a21.255,21.255,0,0,1,2.869.043,2.678,2.678,0,0,1,1.449.585c.607.569.468,2.3.444,3.083a1.764,1.764,0,0,1-.544,1.322c-.894.75-2.355-.06-2.6.883l-.156,2.021c-2.282.154-4.64.013-6.931,0l-11.907-.031c-.02-.778-.152-1.577-.248-2.35a1.853,1.853,0,0,1-1.364-.4,2.046,2.046,0,0,1-.66-1.483c-.043-.844-.154-2.43.475-3.064a2.388,2.388,0,0,1,1.282-.562,15.4,15.4,0,0,1,2.594-.073q2.26.023,4.519-.027" transform="translate(-505.263 -3212.156)" fill="#ef7d34"/>
            <path id="Path_610672" data-name="Path 610672" d="M574.094,3489.59c1.53-.056,18.985-.065,19.053-.039s.1.083.145.126l.044.276-.156,2.021c-2.282.154-4.64.013-6.931,0l-11.907-.031c-.02-.779-.152-1.577-.248-2.35" transform="translate(-546.473 -3323.354)" fill="#9e2e2d"/>
            <path id="Path_610673" data-name="Path 610673" d="M579.311,3540.026l11.907.031c2.291.017,4.649.158,6.931,0l-.778,9.264c-.132,1.6-.245,3.213-.419,4.813l-16.206-.079c-.107-1.173-.155-2.385-.329-3.547Z" transform="translate(-551.442 -3371.441)" fill="#ca3f35"/>
            <path id="Path_610674" data-name="Path 610674" d="M2367.055,2855.74c2.449.046,4.9-.016,7.353-.029,3.078-.016,6.157.008,9.234-.038l.007,2.891a9.93,9.93,0,0,1-1.373.06l-.142,20.678q-.212,9.946-.243,19.892a3.462,3.462,0,0,1-.037,1.019,1.178,1.178,0,0,1-.534.623.71.71,0,0,1-.617.033c-.834-.706-.459-2.383-.583-3.381l-.014-.1c-.006.662-.015,1.323.009,1.984-.387-.162-.766-.22-.956-.61a.187.187,0,0,1-.007-.018l-.106.29a7.97,7.97,0,0,1-2.08.093,2.91,2.91,0,0,1-1.479,1.855,2.768,2.768,0,0,1-1.089.236c-2.03.113-4.126,0-6.162,0h-13.362a22.268,22.268,0,0,1-3.26.211,2.935,2.935,0,0,1-.567.054c-1.933.081-3.889.012-5.826.03q-7.006.1-14.012.065l-5.368,0a17.386,17.386,0,0,1-2.727-.057,2.872,2.872,0,0,1-1.386-.828c-.559-.833-.315-3.675-.331-4.814q-2.21.016-4.421,0l0,3.114a18.082,18.082,0,0,1-2.77.016q-.021-1.57.009-3.14c.17-3.409.043-6.873.021-10.289l-.075-18.1c0-2.947-.077-5.915.029-8.859l1.222.007,1.539-.026q9.313-.088,18.626-.056c3.716,0,7.44-.04,11.155.035l5.9.008a35.766,35.766,0,0,0,3.937-.04,1.1,1.1,0,0,1,.617-.393,24.265,24.265,0,0,1,2.669-.541,27.44,27.44,0,0,0,6.632-1.763Z" transform="translate(-2203.705 -2719.655)" fill="#fefefe"/>
            <path id="Path_610675" data-name="Path 610675" d="M3632.949,3443.779c.219,4.486.051,9.063.049,13.56l2.083.013a14.156,14.156,0,0,0,.057,1.507l-.106.29a7.956,7.956,0,0,1-2.08.094,46.555,46.555,0,0,1,0-4.856Z" transform="translate(-3459.693 -3279.774)" fill="#82b7e6"/>
            <path id="Path_610676" data-name="Path 610676" d="M2871.954,3170.683c1.737.007,3.484-.026,5.219.03l.013,2.332-.01,2.873c-.835.011-1.689.061-2.522.018a20.835,20.835,0,0,0-2.711-.02l-.023-.093-.037-.156a11.08,11.08,0,0,1-.25-1.693,16.136,16.136,0,0,1,.32-3.29" transform="translate(-2734.676 -3019.671)" fill="#519cef"/>
            <path id="Path_610677" data-name="Path 610677" d="M2884.655,3191.406l4.305,0q.015,1.57-.013,3.139c-1.42.038-2.86.046-4.28-.024-.056-1.04-.032-2.076-.013-3.118" transform="translate(-2747.058 -3039.411)" fill="#fefefe"/>
            <path id="Path_610678" data-name="Path 610678" d="M2597.312,3173.331a7.444,7.444,0,0,1,.271-3.568c.637-.318,11.423-.127,13.02-.128a16.124,16.124,0,0,0-.321,3.29l-9.117-.051a22.221,22.221,0,0,0-3.729.01,2.756,2.756,0,0,0-.124.448" transform="translate(-2473.325 -3018.623)" fill="#82b7e6"/>
            <path id="Path_610679" data-name="Path 610679" d="M3216.284,2855.74c2.449.046,4.9-.016,7.353-.029,3.077-.016,6.157.008,9.233-.038l.007,2.891a33.513,33.513,0,0,0-4.474-.017l-22.61,0a1.1,1.1,0,0,1,.617-.393,24.265,24.265,0,0,1,2.669-.541,27.438,27.438,0,0,0,6.632-1.763Z" transform="translate(-3052.934 -2719.655)" fill="#3d82d1"/>
            <path id="Path_610680" data-name="Path 610680" d="M3126.142,3098.917c-.114-1.447-.371-3.073.617-4.293a3.857,3.857,0,0,1,2.721-1.331c1.317-.107,2.675,0,4,.008a26.256,26.256,0,0,1,4.781.082,3.825,3.825,0,0,1,1.829.885,3.688,3.688,0,0,1,1.158,2.752c.025.759-.005,1.525-.019,2.284a7.863,7.863,0,0,1-2.42.007c-3.411-.08-6.837-.016-10.25-.014,0-.823.013-1.646-.054-2.468a16.967,16.967,0,0,0,0,2.469,7.016,7.016,0,0,1-2.25-.072Z" transform="translate(-2976.962 -2945.904)" fill="#ca3f35"/>
            <path id="Path_610681" data-name="Path 610681" d="M3178.094,3147.816c.144-.331.3-.789.667-.928a56.9,56.9,0,0,1,9.192.151c.655.919.471,2.183.445,3.259-3.412-.081-6.837-.016-10.25-.014,0-.823.012-1.647-.054-2.468" transform="translate(-3026.554 -2996.892)" fill="#fefefe"/>
            <path id="Path_610682" data-name="Path 610682" d="M3680.905,2914.543a33.475,33.475,0,0,1,4.474.017,9.927,9.927,0,0,1-1.374.059l-.142,20.678q-.212,9.945-.243,19.892a3.423,3.423,0,0,1-.036,1.019,1.177,1.177,0,0,1-.533.622.708.708,0,0,1-.617.033c-.834-.705-.46-2.383-.583-3.382l-.014-.1Z" transform="translate(-3505.437 -2775.651)" fill="#82b7e6"/>
            <path id="Path_610683" data-name="Path 610683" d="M2315.409,2917.158l1.539-.026.028,37.272,0,3.114a18.1,18.1,0,0,1-2.769.016q-.022-1.57.009-3.14c.17-3.409.044-6.872.021-10.288l-.075-18.1c0-2.947-.078-5.915.029-8.858Z" transform="translate(-2203.705 -2778.189)" fill="#82b7e6"/>
            <path id="Path_610684" data-name="Path 610684" d="M2314.188,2917.543l1.222.007-.111,40.33c.554,0,1.123-.015,1.675.03a18.082,18.082,0,0,1-2.77.016q-.021-1.57.009-3.14c.17-3.409.043-6.873.021-10.288l-.075-18.1c0-2.947-.078-5.915.029-8.859" transform="translate(-2203.705 -2778.581)" fill="#b2cee6"/>
            <path id="Path_610685" data-name="Path 610685" d="M2546.427,3237.574a2.761,2.761,0,0,1,.124-.448,22.242,22.242,0,0,1,3.728-.009l9.118.051a11.153,11.153,0,0,0,.25,1.693l.037.156.023.093a20.878,20.878,0,0,1,2.711.02l-.027.071a1.775,1.775,0,0,1,.928.123,1.546,1.546,0,0,1-.027.458l-.186.667a24.029,24.029,0,0,0,.012,3.269l-.034.323,0,.713q-6.571-.107-13.143-.109a35.924,35.924,0,0,0-5.607.094c-.152-.225-.282-.473-.418-.708l-.077-.682a21.8,21.8,0,0,1,.007-3.036,1.5,1.5,0,0,1,.354-.876c.553-.473,1.858-.256,2.531-.233a14.028,14.028,0,0,1-.309-1.627" transform="translate(-2422.439 -3082.866)" fill="#fdc954"/>
            <path id="Path_610686" data-name="Path 610686" d="M2832.024,3308.307l.432.153a7.774,7.774,0,0,0-.026,2.9l0,.067a.9.9,0,0,1-.229,0,.424.424,0,0,1-.312-.307,4.627,4.627,0,0,1,.139-2.815" transform="translate(-2696.668 -3150.748)" fill="#96d8f6"/>
            <path id="Path_610687" data-name="Path 610687" d="M2544.836,3364.573a.5.5,0,0,1,.483-.24c.64-.054,12.546.044,12.816.116a1.238,1.238,0,0,1,.168.784,36.845,36.845,0,0,0-3.928-.047c-3.143.016-6.325.165-9.462.068Z" transform="translate(-2423.431 -3204.093)" fill="#fca32b"/>
            <path id="Path_610688" data-name="Path 610688" d="M2546.442,3382.065c3.137.1,6.319-.052,9.462-.068a36.915,36.915,0,0,1,3.929.046,50.788,50.788,0,0,0,5.772.033l0,.713q-6.571-.107-13.143-.109a35.89,35.89,0,0,0-5.606.093c-.153-.225-.282-.473-.418-.708" transform="translate(-2424.96 -3220.904)" fill="#ef7d34"/>
            <path id="Path_610689" data-name="Path 610689" d="M2544.981,3282.313a1.5,1.5,0,0,1,.354-.877c.553-.473,1.858-.256,2.531-.232,4.053.012,8.113-.034,12.165.041-.481.2-.9-.126-1.348.256l-.419.8c-4.41-.1-8.875-.124-13.284.016" transform="translate(-2423.569 -3124.868)" fill="#f29234"/>
            <path id="Path_610690" data-name="Path 610690" d="M2834.778,3282.375c.994-.017,2-.061,2.989-.027a1.771,1.771,0,0,1,.929.123,1.544,1.544,0,0,1-.027.457l-.185.667a23.954,23.954,0,0,0,.012,3.27c-1.412-.437-3.443-.186-4.921-.17l0-.067a7.76,7.76,0,0,1,.026-2.9l-.432-.154c.094-.363.5-.467.609-.833-.289-.017-.564-.048-.85-.093.445-.381.867-.055,1.348-.256Z" transform="translate(-2697.816 -3126.013)" fill="#fefefe"/>
            <path id="Path_610691" data-name="Path 610691" d="M2873.531,3341.766a3.668,3.668,0,0,1,1.739.3l-.028.115a2.691,2.691,0,0,1-.68.123q-.509-.015-1.019-.039c-.242-.014-.571-.013-.737-.2a1.168,1.168,0,0,1,.725-.3" transform="translate(-2735.794 -3182.616)" fill="#b2cee6"/>
            <path id="Path_610692" data-name="Path 610692" d="M2850.831,3308.933l.522-.145a23.957,23.957,0,0,0,.012,3.27c-1.412-.437-3.443-.186-4.921-.171l0-.067,4.4-.013c.024-.959,0-1.916-.014-2.874" transform="translate(-2710.686 -3151.206)" fill="#8bc0c4"/>
            <path id="Path_610693" data-name="Path 610693" d="M2834.778,3282.375c.994-.017,2-.061,2.989-.027a1.771,1.771,0,0,1,.929.123,1.544,1.544,0,0,1-.027.457l-.185.667-.522.145-4.358-.015-.432-.154c.094-.363.5-.467.609-.833-.289-.017-.564-.048-.85-.093.445-.381.867-.055,1.348-.256Z" transform="translate(-2697.816 -3126.013)" fill="#fca32b"/>
            <path id="Path_610694" data-name="Path 610694" d="M2871.754,3282.375c.994-.017,2-.061,2.988-.027a1.77,1.77,0,0,1,.929.123,1.528,1.528,0,0,1-.027.457c-.481.041-.964.064-1.446.089-.655.033-1.939.181-2.431-.263Z" transform="translate(-2734.792 -3126.013)" fill="#ef7d34"/>
            <path id="Path_610695" data-name="Path 610695" d="M2599.11,3237.574a2.786,2.786,0,0,1,.124-.448,22.242,22.242,0,0,1,3.728-.009l9.117.051a11.093,11.093,0,0,0,.25,1.693l.037.156.023.093a20.885,20.885,0,0,1,2.711.02l-.027.071c-.993-.034-2,.01-2.989.027l-.5.014c-4.052-.075-8.113-.029-12.166-.041a13.926,13.926,0,0,1-.31-1.627" transform="translate(-2475.122 -3082.866)" fill="#3d82d1"/>
            <path id="Path_610696" data-name="Path 610696" d="M2469.206,3395.739a35.862,35.862,0,0,1,5.606-.093q6.572,0,13.143.109c2.327.011,4.677-.042,7,.078a1.886,1.886,0,0,1,.964,1.5,35.041,35.041,0,0,1,.02,5.115l0,7.625a24.408,24.408,0,0,1-.11,4.3,2.64,2.64,0,0,1-.618,1.265,2.93,2.93,0,0,1-.567.053c-1.933.081-3.889.012-5.826.031q-7.006.1-14.012.065l-5.368,0a17.539,17.539,0,0,1-2.727-.057,2.868,2.868,0,0,1-1.385-.828c-.559-.833-.315-3.675-.332-4.814-.143-4.7-.071-9.424-.08-14.128,1.148,0,3.241.193,4.289-.218" transform="translate(-2347.306 -3233.869)" fill="#fde081"/>
            <path id="Path_610697" data-name="Path 610697" d="M2473.76,3552.257c8.749-.453,17.264-2.089,24.53-7.3,2.171-1.556,4.062-3.417,6.079-5.155l0,7.626a24.39,24.39,0,0,1-.11,4.3,2.638,2.638,0,0,1-.617,1.265,2.994,2.994,0,0,1-.567.054c-1.933.08-3.89.012-5.825.03q-7.006.1-14.012.066l-5.368,0a17.416,17.416,0,0,1-2.727-.057,2.875,2.875,0,0,1-1.386-.828" transform="translate(-2355.737 -3371.228)" fill="#fdc954"/>
            <path id="Path_610698" data-name="Path 610698" d="M2946.145,3171.375a16.834,16.834,0,0,1,0-2.469c.067.821.055,1.645.054,2.468,3.413,0,6.839-.067,10.25.014a7.877,7.877,0,0,0,2.42-.007l5.605-.012c.944-.017,1.967-.15,2.709.557a3.442,3.442,0,0,1,.624.872c.1,3.058.049,6.129.053,9.189V3192.6a46.555,46.555,0,0,0,0,4.856,2.908,2.908,0,0,1-1.479,1.855,2.767,2.767,0,0,1-1.089.237c-2.03.113-4.126,0-6.162,0H2945.77a22.272,22.272,0,0,1-3.26.211,2.639,2.639,0,0,0,.618-1.265,24.414,24.414,0,0,0,.11-4.3l0-7.626a34.928,34.928,0,0,0-.02-5.115,1.885,1.885,0,0,0-.963-1.5c-2.323-.12-4.673-.067-7-.078l0-.713.034-.322a23.958,23.958,0,0,1-.012-3.27l.185-.667a1.529,1.529,0,0,0,.027-.457,1.767,1.767,0,0,0-.929-.123l.028-.071c.833.043,1.687-.007,2.522-.018l.01-2.872c1.294.007,5.6.209,6.573-.078l.1-.283.112.309a7.027,7.027,0,0,0,2.251.072" transform="translate(-2794.602 -3017.982)" fill="#f65f46"/>
            <path id="Path_610699" data-name="Path 610699" d="M3096.306,3397.827c1.292-.083,4.068-.471,5.071.438a2.819,2.819,0,0,1,.537.792c.025,3.549-.056,7.1-.058,10.652a42.9,42.9,0,0,1-.09,6.1,7.713,7.713,0,0,1-1.94,1.607,22.3,22.3,0,0,1-3.259.211,2.643,2.643,0,0,0,.617-1.265,24.415,24.415,0,0,0,.11-4.3l0-7.626a34.936,34.936,0,0,0-.02-5.115,1.887,1.887,0,0,0-.963-1.5" transform="translate(-2948.657 -3235.863)" fill="#fbb63d"/>
            <path id="Path_610700" data-name="Path 610700" d="M3188.96,3220.238c.943-.018,1.966-.15,2.709.557a3.438,3.438,0,0,1,.624.872c.1,3.059.049,6.129.053,9.189v10.607a46.36,46.36,0,0,0,0,4.856,2.906,2.906,0,0,1-1.479,1.854,2.762,2.762,0,0,1-1.089.237c-2.03.113-4.127,0-6.163,0h-13.361a7.719,7.719,0,0,0,1.94-1.607,37.973,37.973,0,0,0,16.758-6.827Z" transform="translate(-3019.091 -3066.851)" fill="#ca3f35"/>
          </g>
        </g>
      </g>
    </g>
  </g>
</svg>
