<svg xmlns="http://www.w3.org/2000/svg" xmlns:xlink="http://www.w3.org/1999/xlink" width="125" height="125" viewBox="0 0 125 125">
  <defs>
    <clipPath id="clip-path">
      <rect id="Rectangle_378075" data-name="Rectangle 378075" width="69.965" height="69.953" fill="#66542f"/>
    </clipPath>
  </defs>
  <g id="Group_1073073" data-name="Group 1073073" transform="translate(-2765 9064.706)">
    <g id="Group_1072909" data-name="Group 1072909" transform="translate(2379 -11210.706)">
      <path id="Path_608385" data-name="Path 608385" d="M62.5,0A62.5,62.5,0,1,1,0,62.5,62.5,62.5,0,0,1,62.5,0Z" transform="translate(386 2146)" fill="#fff"/>
    </g>
    <g id="Group_1072920" data-name="Group 1072920" transform="translate(2793.895 -9036.706)">
      <g id="Group_1072919" data-name="Group 1072919" transform="translate(0 0)" clip-path="url(#clip-path)">
        <path id="Path_610767" data-name="Path 610767" d="M68.582,67.095H62.751V10.172a1.2,1.2,0,0,0-.572-1.028s-4.229-3.2-11.659-8.8A1.291,1.291,0,0,0,49.607,0H8.8A1.513,1.513,0,0,0,7.314,1.486V66.981H1.486a1.486,1.486,0,1,0,0,2.972H68.467a1.512,1.512,0,0,0,1.486-1.486,1.317,1.317,0,0,0-1.37-1.372M51.092,4.457,56.923,8.8H51.092ZM10.287,67.095V3.085H48.235V10.4a1.513,1.513,0,0,0,1.487,1.486H59.894V67.21H10.287Z" transform="translate(0 0)" fill="#66542f"/>
        <path id="Path_610768" data-name="Path 610768" d="M16.885,17.071H46.032a1.486,1.486,0,1,0,0-2.972H16.885a1.486,1.486,0,0,0,0,2.972" transform="translate(2.203 2.016)" fill="#66542f"/>
        <path id="Path_610769" data-name="Path 610769" d="M16.885,23.472H28.544a1.486,1.486,0,0,0,0-2.972H16.885a1.486,1.486,0,0,0,0,2.972" transform="translate(2.203 2.932)" fill="#66542f"/>
        <path id="Path_610770" data-name="Path 610770" d="M33.385,20.5a1.486,1.486,0,1,0,0,2.972H45.044a1.486,1.486,0,1,0,0-2.972Z" transform="translate(4.563 2.932)" fill="#66542f"/>
        <path id="Path_610771" data-name="Path 610771" d="M48.89,26.9h-32a1.487,1.487,0,0,0,0,2.973h32a1.515,1.515,0,0,0,1.487-1.487A1.442,1.442,0,0,0,48.89,26.9" transform="translate(2.203 3.847)" fill="#66542f"/>
        <rect id="Rectangle_378072" data-name="Rectangle 378072" width="2.858" height="2.858" transform="translate(20.575 10.287)" fill="#66542f"/>
        <rect id="Rectangle_378073" data-name="Rectangle 378073" width="2.858" height="2.858" transform="translate(26.404 10.287)" fill="#66542f"/>
        <rect id="Rectangle_378074" data-name="Rectangle 378074" width="2.858" height="2.858" transform="translate(32.232 10.287)" fill="#66542f"/>
        <path id="Path_610772" data-name="Path 610772" d="M45.6,52.059l-6.287-6.287a10.206,10.206,0,1,0-9.944,7.774,9.717,9.717,0,0,0,4.342-1.029l5.6,5.6a4.345,4.345,0,0,0,6.171,0,4.117,4.117,0,0,0,.115-6.059M22.172,43.373a7.315,7.315,0,1,1,7.314,7.315,7.293,7.293,0,0,1-7.314-7.315m21.375,12.8a1.45,1.45,0,0,1-2.059,0l-5.257-5.259a8.908,8.908,0,0,0,1.828-2.286l5.488,5.488a1.449,1.449,0,0,1,0,2.057" transform="translate(2.746 4.748)" fill="#66542f"/>
        <path id="Path_610773" data-name="Path 610773" d="M34.658,42.829a5.829,5.829,0,1,0-5.829,5.829,5.78,5.78,0,0,0,5.829-5.829m-5.715,2.858A2.858,2.858,0,1,1,31.8,42.829a2.831,2.831,0,0,1-2.858,2.858" transform="translate(3.29 5.292)" fill="#66542f"/>
      </g>
    </g>
  </g>
</svg>
