<svg xmlns="http://www.w3.org/2000/svg" width="820.064" height="458" viewBox="0 0 820.064 458">
  <g id="Group_1073080" data-name="Group 1073080" transform="translate(-390 -1171)">
    <path id="Path_611052" data-name="Path 611052" d="M410,0C636.437,0,820,72.754,820,162.5S636.437,325,410,325,0,252.246,0,162.5,183.563,0,410,0Z" transform="translate(390.064 1246)" fill="#e3fffe"/>
    <path id="Path_611053" data-name="Path 611053" d="M0,0H820V458H0Z" transform="translate(390.064 1171)" fill="none"/>
    <path id="Path_611054" data-name="Path 611054" d="M0,0V48.912" transform="translate(696.564 1357)" fill="none" stroke="#66542f" stroke-width="3"/>
    <path id="Path_610467" data-name="Path 610467" d="M38,57v90.87H82.048" transform="translate(540.064 1194)" fill="none" stroke="#66542f" stroke-miterlimit="10" stroke-width="3"/>
    <path id="Path_610468" data-name="Path 610468" d="M275.55,57.374v90.87H231.5" transform="translate(540.064 1194)" fill="none" stroke="#66542f" stroke-miterlimit="10" stroke-width="3"/>
    <path id="Path_611055" data-name="Path 611055" d="M0,0H180V62H0Z" transform="translate(606.564 1311.5)" fill="#ffd277"/>
    <path id="Path_611056" data-name="Path 611056" d="M0,0H180V36H0Z" transform="translate(607.064 1395)" fill="#ffedc8"/>
    <path id="Path_611057" data-name="Path 611057" d="M0,0H180V36H0Z" transform="translate(607.064 1439)" fill="#ffedc8"/>
    <path id="Path_611058" data-name="Path 611058" d="M0,0H180V36H0Z" transform="translate(607.064 1483)" fill="#ffedc8"/>
    <path id="Path_611059" data-name="Path 611059" d="M0,0H180V36H0Z" transform="translate(607.064 1527)" fill="#ffedc8"/>
    <path id="Path_611060" data-name="Path 611060" d="M0,0H180V36H0Z" transform="translate(607.064 1571)" fill="#ffedc8"/>
    <path id="Path_611061" data-name="Path 611061" d="M0,0V151.436" transform="translate(950.564 1251)" fill="none" stroke="#66542f" stroke-width="3"/>
    <path id="Path_611062" data-name="Path 611062" d="M0,0H180V36H0Z" transform="translate(861.064 1395)" fill="#ebddcf"/>
    <path id="Path_611063" data-name="Path 611063" d="M0,0H180V36H0Z" transform="translate(861.064 1439)" fill="#ebddcf"/>
    <path id="Path_611064" data-name="Path 611064" d="M0,0H180V36H0Z" transform="translate(861.064 1483)" fill="#ebddcf"/>
    <path id="Path_611065" data-name="Path 611065" d="M0,0H180V62H0Z" transform="translate(861.064 1312)" fill="#dec6b0"/>
    <path id="Path_610469" data-name="Path 610469" d="M0,0,20,31,0,62H157l30-31L157,0Z" transform="translate(540.064 1194)" fill="#ffd277"/>
    <path id="Path_610470" data-name="Path 610470" d="M157,0l30,31L157,62H324l30-31L324,0Z" transform="translate(540.064 1194)" fill="#dec6b0"/>
    <path id="Path_610471" data-name="Path 610471" d="M324,0l30,31L324,62H491l30-31L491,0Z" transform="translate(540.064 1194)" fill="#66542f"/>
    <path id="Path_611066" data-name="Path 611066" d="M7.438-2.344H3.328L2.547,0H.055L4.289-11.375H6.461L10.719,0H8.227Zm-3.477-1.9H6.8L5.375-8.5ZM16.383-6.336A6.134,6.134,0,0,0,15.57-6.4a1.654,1.654,0,0,0-1.68.867V0H11.633V-8.453h2.133l.063,1.008a2.092,2.092,0,0,1,1.883-1.164,2.366,2.366,0,0,1,.7.1Zm4.309,4.672a1.481,1.481,0,0,0,1.016-.344,1.2,1.2,0,0,0,.406-.914h2.117a2.9,2.9,0,0,1-.469,1.574A3.093,3.093,0,0,1,22.5-.238a3.949,3.949,0,0,1-1.77.395A3.67,3.67,0,0,1,17.872-1,4.56,4.56,0,0,1,16.825-4.18v-.148a4.508,4.508,0,0,1,1.039-3.117,3.627,3.627,0,0,1,2.852-1.164,3.555,3.555,0,0,1,2.543.9,3.2,3.2,0,0,1,.973,2.4H22.114a1.551,1.551,0,0,0-.406-1.072,1.354,1.354,0,0,0-1.031-.412,1.36,1.36,0,0,0-1.191.575,3.333,3.333,0,0,0-.4,1.866v.235a3.375,3.375,0,0,0,.4,1.878A1.377,1.377,0,0,0,20.692-1.664Zm7.031-5.867a2.818,2.818,0,0,1,2.258-1.078q2.75,0,2.789,3.2V0H30.512V-5.352A1.57,1.57,0,0,0,30.2-6.426a1.34,1.34,0,0,0-1.039-.348,1.537,1.537,0,0,0-1.437.766V0H25.465V-12h2.258ZM36.856,0H34.59V-8.453h2.266Zm-2.4-10.641a1.112,1.112,0,0,1,.34-.836,1.277,1.277,0,0,1,.926-.328,1.28,1.28,0,0,1,.922.328,1.105,1.105,0,0,1,.344.836,1.108,1.108,0,0,1-.348.844,1.283,1.283,0,0,1-.918.328,1.283,1.283,0,0,1-.918-.328A1.108,1.108,0,0,1,34.458-10.641Zm7.422,7.883,1.57-5.7h2.359L42.958,0H40.8L37.95-8.453h2.359ZM46.221-4.3A5.013,5.013,0,0,1,46.7-6.547,3.546,3.546,0,0,1,48.1-8.07a4.069,4.069,0,0,1,2.113-.539,3.849,3.849,0,0,1,2.793,1.047,4.2,4.2,0,0,1,1.207,2.844l.016.578A4.418,4.418,0,0,1,53.142-1.02,3.775,3.775,0,0,1,50.228.156,3.793,3.793,0,0,1,47.31-1.016,4.5,4.5,0,0,1,46.221-4.2Zm2.258.16A3.16,3.16,0,0,0,48.931-2.3a1.5,1.5,0,0,0,1.3.638,1.5,1.5,0,0,0,1.281-.63,3.457,3.457,0,0,0,.461-2.015A3.128,3.128,0,0,0,51.51-6.14a1.5,1.5,0,0,0-1.3-.649,1.474,1.474,0,0,0-1.281.646A3.516,3.516,0,0,0,48.478-4.144Zm14.641,2.48a1.481,1.481,0,0,0,1.016-.344,1.2,1.2,0,0,0,.406-.914h2.117a2.9,2.9,0,0,1-.469,1.574A3.093,3.093,0,0,1,64.928-.238a3.949,3.949,0,0,1-1.77.395A3.67,3.67,0,0,1,60.3-1,4.56,4.56,0,0,1,59.252-4.18v-.148a4.508,4.508,0,0,1,1.039-3.117,3.627,3.627,0,0,1,2.852-1.164,3.555,3.555,0,0,1,2.543.9,3.2,3.2,0,0,1,.973,2.4H64.541a1.552,1.552,0,0,0-.406-1.072A1.355,1.355,0,0,0,63.1-6.789a1.36,1.36,0,0,0-1.191.575,3.333,3.333,0,0,0-.4,1.866v.235a3.375,3.375,0,0,0,.4,1.878A1.377,1.377,0,0,0,63.119-1.664ZM71.838.156A4.15,4.15,0,0,1,68.81-.984a4.054,4.054,0,0,1-1.168-3.039v-.219a5.106,5.106,0,0,1,.492-2.277,3.612,3.612,0,0,1,1.395-1.547,3.914,3.914,0,0,1,2.059-.543,3.508,3.508,0,0,1,2.73,1.094,4.444,4.444,0,0,1,1,3.1v.922H69.932a2.1,2.1,0,0,0,.66,1.328,2,2,0,0,0,1.395.5,2.437,2.437,0,0,0,2.039-.945l1.109,1.242A3.389,3.389,0,0,1,73.76-.246,4.511,4.511,0,0,1,71.838.156ZM71.58-6.789a1.411,1.411,0,0,0-1.09.455,2.357,2.357,0,0,0-.535,1.3H73.1v-.181a1.681,1.681,0,0,0-.406-1.165A1.456,1.456,0,0,0,71.58-6.789Zm7.094-1.664.07.977a2.951,2.951,0,0,1,2.43-1.133,2.453,2.453,0,0,1,2,.789,3.682,3.682,0,0,1,.672,2.359V0H81.588V-5.406a1.465,1.465,0,0,0-.312-1.043,1.4,1.4,0,0,0-1.039-.324,1.553,1.553,0,0,0-1.43.813V0H76.549V-8.453Zm9.586-2.078v2.078H89.7V-6.8H88.26v4.219a1.007,1.007,0,0,0,.18.672.9.9,0,0,0,.688.2,3.6,3.6,0,0,0,.664-.055V-.047a4.648,4.648,0,0,1-1.367.2A2.156,2.156,0,0,1,86-2.242V-6.8H84.767V-8.453H86v-2.078Zm7.453,4.2A6.134,6.134,0,0,0,94.9-6.4a1.654,1.654,0,0,0-1.68.867V0H90.963V-8.453H93.1l.063,1.008a2.092,2.092,0,0,1,1.883-1.164,2.366,2.366,0,0,1,.7.1ZM101.239,0a2.507,2.507,0,0,1-.227-.758,2.732,2.732,0,0,1-2.133.914,3,3,0,0,1-2.059-.719A2.312,2.312,0,0,1,96-2.375a2.389,2.389,0,0,1,1-2.062,4.915,4.915,0,0,1,2.879-.727h1.039v-.484a1.393,1.393,0,0,0-.3-.937,1.183,1.183,0,0,0-.949-.352,1.345,1.345,0,0,0-.895.273.929.929,0,0,0-.324.75H96.192a2.268,2.268,0,0,1,.453-1.359,3,3,0,0,1,1.281-.98,4.669,4.669,0,0,1,1.859-.355,3.689,3.689,0,0,1,2.48.785,2.747,2.747,0,0,1,.918,2.207v3.664a4.041,4.041,0,0,0,.336,1.82V0ZM99.372-1.57a1.945,1.945,0,0,0,.922-.223,1.462,1.462,0,0,0,.625-.6V-3.844h-.844q-1.7,0-1.8,1.172l-.008.133a.9.9,0,0,0,.3.7A1.153,1.153,0,0,0,99.372-1.57ZM107.3,0h-2.266V-12H107.3Z" transform="translate(746.774 1229.857)" fill="#12263f"/>
    <path id="Path_611067" data-name="Path 611067" d="M7.438-2.344H3.328L2.547,0H.055L4.289-11.375H6.461L10.719,0H8.227Zm-3.477-1.9H6.8L5.375-8.5ZM16.383-6.336A6.134,6.134,0,0,0,15.57-6.4a1.654,1.654,0,0,0-1.68.867V0H11.633V-8.453h2.133l.063,1.008a2.092,2.092,0,0,1,1.883-1.164,2.366,2.366,0,0,1,.7.1Zm4.309,4.672a1.481,1.481,0,0,0,1.016-.344,1.2,1.2,0,0,0,.406-.914h2.117a2.9,2.9,0,0,1-.469,1.574A3.093,3.093,0,0,1,22.5-.238a3.949,3.949,0,0,1-1.77.395A3.67,3.67,0,0,1,17.872-1,4.56,4.56,0,0,1,16.825-4.18v-.148a4.508,4.508,0,0,1,1.039-3.117,3.627,3.627,0,0,1,2.852-1.164,3.555,3.555,0,0,1,2.543.9,3.2,3.2,0,0,1,.973,2.4H22.114a1.551,1.551,0,0,0-.406-1.072,1.354,1.354,0,0,0-1.031-.412,1.36,1.36,0,0,0-1.191.575,3.333,3.333,0,0,0-.4,1.866v.235a3.375,3.375,0,0,0,.4,1.878A1.377,1.377,0,0,0,20.692-1.664Zm7.031-5.867a2.818,2.818,0,0,1,2.258-1.078q2.75,0,2.789,3.2V0H30.512V-5.352A1.57,1.57,0,0,0,30.2-6.426a1.34,1.34,0,0,0-1.039-.348,1.537,1.537,0,0,0-1.437.766V0H25.465V-12h2.258ZM36.856,0H34.59V-8.453h2.266Zm-2.4-10.641a1.112,1.112,0,0,1,.34-.836,1.277,1.277,0,0,1,.926-.328,1.28,1.28,0,0,1,.922.328,1.105,1.105,0,0,1,.344.836,1.108,1.108,0,0,1-.348.844,1.283,1.283,0,0,1-.918.328,1.283,1.283,0,0,1-.918-.328A1.108,1.108,0,0,1,34.458-10.641Zm7.422,7.883,1.57-5.7h2.359L42.958,0H40.8L37.95-8.453h2.359ZM46.221-4.3A5.013,5.013,0,0,1,46.7-6.547,3.546,3.546,0,0,1,48.1-8.07a4.069,4.069,0,0,1,2.113-.539,3.849,3.849,0,0,1,2.793,1.047,4.2,4.2,0,0,1,1.207,2.844l.016.578A4.418,4.418,0,0,1,53.142-1.02,3.775,3.775,0,0,1,50.228.156,3.793,3.793,0,0,1,47.31-1.016,4.5,4.5,0,0,1,46.221-4.2Zm2.258.16A3.16,3.16,0,0,0,48.931-2.3a1.5,1.5,0,0,0,1.3.638,1.5,1.5,0,0,0,1.281-.63,3.457,3.457,0,0,0,.461-2.015A3.128,3.128,0,0,0,51.51-6.14a1.5,1.5,0,0,0-1.3-.649,1.474,1.474,0,0,0-1.281.646A3.516,3.516,0,0,0,48.478-4.144ZM61.806-7.531a2.818,2.818,0,0,1,2.258-1.078q2.75,0,2.789,3.2V0H64.6V-5.352a1.57,1.57,0,0,0-.312-1.074,1.34,1.34,0,0,0-1.039-.348,1.537,1.537,0,0,0-1.437.766V0H59.549V-12h2.258ZM70.939,0H68.674V-8.453h2.266Zm-2.4-10.641a1.112,1.112,0,0,1,.34-.836,1.277,1.277,0,0,1,.926-.328,1.28,1.28,0,0,1,.922.328,1.105,1.105,0,0,1,.344.836,1.108,1.108,0,0,1-.348.844,1.283,1.283,0,0,1-.918.328,1.283,1.283,0,0,1-.918-.328A1.108,1.108,0,0,1,68.541-10.641Zm8.836,8.3a.727.727,0,0,0-.41-.652,4.659,4.659,0,0,0-1.316-.426q-3.016-.633-3.016-2.562a2.323,2.323,0,0,1,.934-1.879,3.766,3.766,0,0,1,2.441-.754,4.053,4.053,0,0,1,2.574.758,2.388,2.388,0,0,1,.965,1.969H77.291a1.092,1.092,0,0,0-.312-.8A1.322,1.322,0,0,0,76-7a1.351,1.351,0,0,0-.883.258.814.814,0,0,0-.312.656.7.7,0,0,0,.355.605,3.657,3.657,0,0,0,1.2.4,9.8,9.8,0,0,1,1.422.379A2.336,2.336,0,0,1,79.572-2.43,2.2,2.2,0,0,1,78.58-.559a4.28,4.28,0,0,1-2.562.715,4.47,4.47,0,0,1-1.887-.379,3.166,3.166,0,0,1-1.293-1.039,2.414,2.414,0,0,1-.469-1.426H74.51a1.179,1.179,0,0,0,.445.922,1.766,1.766,0,0,0,1.109.32,1.635,1.635,0,0,0,.98-.246A.766.766,0,0,0,77.377-2.336Zm6.352-8.2v2.078h1.445V-6.8H83.728v4.219a1.007,1.007,0,0,0,.18.672.9.9,0,0,0,.688.2,3.6,3.6,0,0,0,.664-.055V-.047a4.648,4.648,0,0,1-1.367.2,2.156,2.156,0,0,1-2.422-2.4V-6.8H80.236V-8.453h1.234v-2.078ZM85.846-4.3a5.013,5.013,0,0,1,.484-2.242A3.546,3.546,0,0,1,87.724-8.07a4.069,4.069,0,0,1,2.113-.539,3.849,3.849,0,0,1,2.793,1.047,4.2,4.2,0,0,1,1.207,2.844l.016.578A4.418,4.418,0,0,1,92.767-1.02,3.775,3.775,0,0,1,89.853.156a3.793,3.793,0,0,1-2.918-1.172A4.5,4.5,0,0,1,85.846-4.2Zm2.258.16A3.16,3.16,0,0,0,88.557-2.3a1.5,1.5,0,0,0,1.3.638,1.5,1.5,0,0,0,1.281-.63A3.457,3.457,0,0,0,91.6-4.309a3.128,3.128,0,0,0-.461-1.831,1.5,1.5,0,0,0-1.3-.649,1.474,1.474,0,0,0-1.281.646A3.516,3.516,0,0,0,88.1-4.144ZM90.283-12h2.461L90.58-9.578H88.744Zm9.711,5.664a6.134,6.134,0,0,0-.812-.062,1.654,1.654,0,0,0-1.68.867V0H95.244V-8.453h2.133l.063,1.008a2.092,2.092,0,0,1,1.883-1.164,2.366,2.366,0,0,1,.7.1ZM103.463,0H101.2V-8.453h2.266Zm-2.4-10.641a1.112,1.112,0,0,1,.34-.836,1.277,1.277,0,0,1,.926-.328,1.28,1.28,0,0,1,.922.328,1.105,1.105,0,0,1,.344.836,1.108,1.108,0,0,1-.348.844,1.283,1.283,0,0,1-.918.328,1.283,1.283,0,0,1-.918-.328A1.108,1.108,0,0,1,101.064-10.641Zm7.773,8.977a1.481,1.481,0,0,0,1.016-.344,1.2,1.2,0,0,0,.406-.914h2.117a2.9,2.9,0,0,1-.469,1.574,3.093,3.093,0,0,1-1.262,1.109,3.949,3.949,0,0,1-1.77.395A3.67,3.67,0,0,1,106.017-1a4.56,4.56,0,0,1-1.047-3.184v-.148a4.508,4.508,0,0,1,1.039-3.117,3.627,3.627,0,0,1,2.852-1.164,3.555,3.555,0,0,1,2.543.9,3.2,3.2,0,0,1,.973,2.4H110.26a1.551,1.551,0,0,0-.406-1.072,1.354,1.354,0,0,0-1.031-.412,1.36,1.36,0,0,0-1.191.575,3.333,3.333,0,0,0-.4,1.866v.235a3.375,3.375,0,0,0,.4,1.878A1.377,1.377,0,0,0,108.838-1.664ZM113.314-4.3a5.013,5.013,0,0,1,.484-2.242,3.546,3.546,0,0,1,1.395-1.523,4.069,4.069,0,0,1,2.113-.539A3.849,3.849,0,0,1,120.1-7.562a4.2,4.2,0,0,1,1.207,2.844l.016.578a4.418,4.418,0,0,1-1.086,3.121A3.775,3.775,0,0,1,117.322.156,3.793,3.793,0,0,1,114.4-1.016a4.5,4.5,0,0,1-1.09-3.187Zm2.258.16a3.16,3.16,0,0,0,.453,1.843,1.5,1.5,0,0,0,1.3.638,1.5,1.5,0,0,0,1.281-.63,3.457,3.457,0,0,0,.461-2.015A3.128,3.128,0,0,0,118.6-6.14a1.5,1.5,0,0,0-1.3-.649,1.474,1.474,0,0,0-1.281.646A3.516,3.516,0,0,0,115.572-4.144Z" transform="translate(911.69 1229.857)" fill="#fff"/>
    <path id="Path_611068" data-name="Path 611068" d="M7.438-2.344H3.328L2.547,0H.055L4.289-11.375H6.461L10.719,0H8.227Zm-3.477-1.9H6.8L5.375-8.5ZM16.383-6.336A6.134,6.134,0,0,0,15.57-6.4a1.654,1.654,0,0,0-1.68.867V0H11.633V-8.453h2.133l.063,1.008a2.092,2.092,0,0,1,1.883-1.164,2.366,2.366,0,0,1,.7.1Zm4.309,4.672a1.481,1.481,0,0,0,1.016-.344,1.2,1.2,0,0,0,.406-.914h2.117a2.9,2.9,0,0,1-.469,1.574A3.093,3.093,0,0,1,22.5-.238a3.949,3.949,0,0,1-1.77.395A3.67,3.67,0,0,1,17.872-1,4.56,4.56,0,0,1,16.825-4.18v-.148a4.508,4.508,0,0,1,1.039-3.117,3.627,3.627,0,0,1,2.852-1.164,3.555,3.555,0,0,1,2.543.9,3.2,3.2,0,0,1,.973,2.4H22.114a1.551,1.551,0,0,0-.406-1.072,1.354,1.354,0,0,0-1.031-.412,1.36,1.36,0,0,0-1.191.575,3.333,3.333,0,0,0-.4,1.866v.235a3.375,3.375,0,0,0,.4,1.878A1.377,1.377,0,0,0,20.692-1.664Zm7.031-5.867a2.818,2.818,0,0,1,2.258-1.078q2.75,0,2.789,3.2V0H30.512V-5.352A1.57,1.57,0,0,0,30.2-6.426a1.34,1.34,0,0,0-1.039-.348,1.537,1.537,0,0,0-1.437.766V0H25.465V-12h2.258ZM36.856,0H34.59V-8.453h2.266Zm-2.4-10.641a1.112,1.112,0,0,1,.34-.836,1.277,1.277,0,0,1,.926-.328,1.28,1.28,0,0,1,.922.328,1.105,1.105,0,0,1,.344.836,1.108,1.108,0,0,1-.348.844,1.283,1.283,0,0,1-.918.328,1.283,1.283,0,0,1-.918-.328A1.108,1.108,0,0,1,34.458-10.641Zm7.422,7.883,1.57-5.7h2.359L42.958,0H40.8L37.95-8.453h2.359ZM46.221-4.3A5.013,5.013,0,0,1,46.7-6.547,3.546,3.546,0,0,1,48.1-8.07a4.069,4.069,0,0,1,2.113-.539,3.849,3.849,0,0,1,2.793,1.047,4.2,4.2,0,0,1,1.207,2.844l.016.578A4.418,4.418,0,0,1,53.142-1.02,3.775,3.775,0,0,1,50.228.156,3.793,3.793,0,0,1,47.31-1.016,4.5,4.5,0,0,1,46.221-4.2Zm2.258.16A3.16,3.16,0,0,0,48.931-2.3a1.5,1.5,0,0,0,1.3.638,1.5,1.5,0,0,0,1.281-.63,3.457,3.457,0,0,0,.461-2.015A3.128,3.128,0,0,0,51.51-6.14a1.5,1.5,0,0,0-1.3-.649,1.474,1.474,0,0,0-1.281.646A3.516,3.516,0,0,0,48.478-4.144Zm10.773-.145a5.094,5.094,0,0,1,.887-3.148,2.877,2.877,0,0,1,2.426-1.172,2.589,2.589,0,0,1,2.039.922V-12h2.266V0H64.83l-.109-.9A2.657,2.657,0,0,1,62.549.156,2.869,2.869,0,0,1,60.154-1.02,5.258,5.258,0,0,1,59.252-4.289Zm2.258.168A3.337,3.337,0,0,0,61.924-2.3a1.349,1.349,0,0,0,1.2.634A1.511,1.511,0,0,0,64.6-2.548V-5.889a1.489,1.489,0,0,0-1.461-.884Q61.51-6.773,61.51-4.121Zm11,4.277A4.15,4.15,0,0,1,69.482-.984a4.054,4.054,0,0,1-1.168-3.039v-.219a5.106,5.106,0,0,1,.492-2.277A3.612,3.612,0,0,1,70.2-8.066a3.914,3.914,0,0,1,2.059-.543,3.508,3.508,0,0,1,2.73,1.094,4.444,4.444,0,0,1,1,3.1v.922H70.6a2.1,2.1,0,0,0,.66,1.328,2,2,0,0,0,1.395.5A2.437,2.437,0,0,0,74.7-2.609l1.109,1.242A3.389,3.389,0,0,1,74.432-.246,4.511,4.511,0,0,1,72.51.156Zm-.258-6.945a1.411,1.411,0,0,0-1.09.455,2.357,2.357,0,0,0-.535,1.3h3.141v-.181a1.681,1.681,0,0,0-.406-1.165A1.456,1.456,0,0,0,72.252-6.789Zm8.672,2.5a4.954,4.954,0,0,1,.926-3.133,3,3,0,0,1,2.5-1.187,2.631,2.631,0,0,1,2.164.953l.094-.8H88.65V-.281a3.613,3.613,0,0,1-.5,1.93A3.236,3.236,0,0,1,86.728,2.9a4.985,4.985,0,0,1-2.141.43,4.635,4.635,0,0,1-1.812-.371A3.217,3.217,0,0,1,81.439,2l1-1.375a2.645,2.645,0,0,0,2.047.945,1.936,1.936,0,0,0,1.4-.48,1.8,1.8,0,0,0,.5-1.363V-.727A2.612,2.612,0,0,1,84.33.156a2.992,2.992,0,0,1-2.465-1.191,4.953,4.953,0,0,1-.941-3.16Zm2.258.168a3.085,3.085,0,0,0,.461,1.8,1.466,1.466,0,0,0,1.266.653,1.568,1.568,0,0,0,1.477-.775V-6a1.564,1.564,0,0,0-1.461-.775,1.476,1.476,0,0,0-1.277.665A3.477,3.477,0,0,0,83.182-4.121ZM94.275.156A4.15,4.15,0,0,1,91.248-.984,4.054,4.054,0,0,1,90.08-4.023v-.219a5.106,5.106,0,0,1,.492-2.277,3.612,3.612,0,0,1,1.395-1.547,3.914,3.914,0,0,1,2.059-.543,3.508,3.508,0,0,1,2.73,1.094,4.444,4.444,0,0,1,1,3.1v.922H92.369a2.1,2.1,0,0,0,.66,1.328,2,2,0,0,0,1.395.5,2.437,2.437,0,0,0,2.039-.945l1.109,1.242A3.389,3.389,0,0,1,96.2-.246,4.511,4.511,0,0,1,94.275.156Zm-.258-6.945a1.411,1.411,0,0,0-1.09.455,2.357,2.357,0,0,0-.535,1.3h3.141v-.181a1.681,1.681,0,0,0-.406-1.165A1.456,1.456,0,0,0,94.017-6.789Zm9.594,4.453a.727.727,0,0,0-.41-.652,4.659,4.659,0,0,0-1.316-.426q-3.016-.633-3.016-2.562A2.323,2.323,0,0,1,99.8-7.855a3.766,3.766,0,0,1,2.441-.754,4.053,4.053,0,0,1,2.574.758,2.388,2.388,0,0,1,.965,1.969h-2.258a1.092,1.092,0,0,0-.312-.8A1.322,1.322,0,0,0,102.236-7a1.351,1.351,0,0,0-.883.258.814.814,0,0,0-.312.656.7.7,0,0,0,.355.605,3.657,3.657,0,0,0,1.2.4,9.8,9.8,0,0,1,1.422.379,2.336,2.336,0,0,1,1.789,2.273,2.2,2.2,0,0,1-.992,1.871,4.28,4.28,0,0,1-2.562.715,4.47,4.47,0,0,1-1.887-.379,3.166,3.166,0,0,1-1.293-1.039A2.414,2.414,0,0,1,98.6-2.687h2.141a1.179,1.179,0,0,0,.445.922,1.766,1.766,0,0,0,1.109.32,1.635,1.635,0,0,0,.98-.246A.766.766,0,0,0,103.611-2.336Zm6.352-8.2v2.078h1.445V-6.8h-1.445v4.219a1.007,1.007,0,0,0,.18.672.9.9,0,0,0,.688.2,3.6,3.6,0,0,0,.664-.055V-.047a4.648,4.648,0,0,1-1.367.2,2.156,2.156,0,0,1-2.422-2.4V-6.8h-1.234V-8.453H107.7v-2.078ZM115.049,0h-2.266V-8.453h2.266Zm-2.4-10.641a1.112,1.112,0,0,1,.34-.836,1.277,1.277,0,0,1,.926-.328,1.28,1.28,0,0,1,.922.328,1.105,1.105,0,0,1,.344.836,1.108,1.108,0,0,1-.348.844,1.283,1.283,0,0,1-.918.328A1.283,1.283,0,0,1,113-9.8,1.108,1.108,0,0,1,112.65-10.641ZM116.557-4.3a5.013,5.013,0,0,1,.484-2.242,3.546,3.546,0,0,1,1.395-1.523,4.069,4.069,0,0,1,2.113-.539,3.849,3.849,0,0,1,2.793,1.047,4.2,4.2,0,0,1,1.207,2.844l.016.578a4.418,4.418,0,0,1-1.086,3.121A3.775,3.775,0,0,1,120.564.156a3.793,3.793,0,0,1-2.918-1.172,4.5,4.5,0,0,1-1.09-3.187Zm2.258.16a3.16,3.16,0,0,0,.453,1.843,1.5,1.5,0,0,0,1.3.638,1.5,1.5,0,0,0,1.281-.63,3.457,3.457,0,0,0,.461-2.015,3.128,3.128,0,0,0-.461-1.831,1.5,1.5,0,0,0-1.3-.649,1.474,1.474,0,0,0-1.281.646A3.516,3.516,0,0,0,118.814-4.144ZM120.994-12h2.461l-2.164,2.422h-1.836Zm7.039,3.547.07.977a2.951,2.951,0,0,1,2.43-1.133,2.453,2.453,0,0,1,2,.789,3.682,3.682,0,0,1,.672,2.359V0h-2.258V-5.406a1.465,1.465,0,0,0-.312-1.043,1.4,1.4,0,0,0-1.039-.324,1.553,1.553,0,0,0-1.43.813V0h-2.258V-8.453Z" transform="translate(572.198 1229.857)" fill="#12263f"/>
    <path id="Path_611069" data-name="Path 611069" d="M5.219-2.82,7.8-11.375h2.609L6.445,0H4L.055-11.375h2.6ZM15.515,0a2.507,2.507,0,0,1-.227-.758,2.732,2.732,0,0,1-2.133.914A3,3,0,0,1,11.1-.562a2.312,2.312,0,0,1-.816-1.812,2.389,2.389,0,0,1,1-2.062,4.915,4.915,0,0,1,2.879-.727h1.039v-.484a1.393,1.393,0,0,0-.3-.937,1.183,1.183,0,0,0-.949-.352,1.345,1.345,0,0,0-.895.273.929.929,0,0,0-.324.75H10.468a2.268,2.268,0,0,1,.453-1.359,3,3,0,0,1,1.281-.98,4.669,4.669,0,0,1,1.859-.355,3.689,3.689,0,0,1,2.48.785,2.747,2.747,0,0,1,.918,2.207v3.664A4.041,4.041,0,0,0,17.8-.133V0ZM13.648-1.57a1.945,1.945,0,0,0,.922-.223,1.462,1.462,0,0,0,.625-.6V-3.844h-.844q-1.7,0-1.8,1.172l-.008.133a.9.9,0,0,0,.3.7A1.153,1.153,0,0,0,13.648-1.57ZM21.578,0H19.312V-12h2.266Zm1.508-4.3a5.013,5.013,0,0,1,.484-2.242A3.546,3.546,0,0,1,24.964-8.07a4.069,4.069,0,0,1,2.113-.539,3.849,3.849,0,0,1,2.793,1.047,4.2,4.2,0,0,1,1.207,2.844l.016.578A4.418,4.418,0,0,1,30.007-1.02,3.775,3.775,0,0,1,27.093.156a3.793,3.793,0,0,1-2.918-1.172A4.5,4.5,0,0,1,23.085-4.2Zm2.258.16A3.16,3.16,0,0,0,25.8-2.3a1.5,1.5,0,0,0,1.3.638,1.5,1.5,0,0,0,1.281-.63,3.457,3.457,0,0,0,.461-2.015,3.128,3.128,0,0,0-.461-1.831,1.5,1.5,0,0,0-1.3-.649,1.474,1.474,0,0,0-1.281.646A3.516,3.516,0,0,0,25.343-4.144ZM37.234-6.336a6.134,6.134,0,0,0-.812-.062,1.654,1.654,0,0,0-1.68.867V0H32.484V-8.453h2.133l.063,1.008a2.092,2.092,0,0,1,1.883-1.164,2.366,2.366,0,0,1,.7.1ZM42.062.156A4.15,4.15,0,0,1,39.035-.984a4.054,4.054,0,0,1-1.168-3.039v-.219a5.106,5.106,0,0,1,.492-2.277,3.612,3.612,0,0,1,1.395-1.547,3.914,3.914,0,0,1,2.059-.543,3.508,3.508,0,0,1,2.73,1.094,4.444,4.444,0,0,1,1,3.1v.922H40.156a2.1,2.1,0,0,0,.66,1.328,2,2,0,0,0,1.395.5,2.437,2.437,0,0,0,2.039-.945l1.109,1.242A3.389,3.389,0,0,1,43.984-.246,4.511,4.511,0,0,1,42.062.156ZM41.8-6.789a1.411,1.411,0,0,0-1.09.455,2.357,2.357,0,0,0-.535,1.3H43.32v-.181a1.681,1.681,0,0,0-.406-1.165A1.456,1.456,0,0,0,41.8-6.789ZM51.4-2.336a.727.727,0,0,0-.41-.652,4.659,4.659,0,0,0-1.316-.426q-3.016-.633-3.016-2.562a2.323,2.323,0,0,1,.934-1.879,3.766,3.766,0,0,1,2.441-.754,4.053,4.053,0,0,1,2.574.758,2.388,2.388,0,0,1,.965,1.969H51.312a1.092,1.092,0,0,0-.312-.8A1.322,1.322,0,0,0,50.023-7a1.351,1.351,0,0,0-.883.258.814.814,0,0,0-.312.656.7.7,0,0,0,.355.605,3.657,3.657,0,0,0,1.2.4A9.8,9.8,0,0,1,51.8-4.7,2.336,2.336,0,0,1,53.593-2.43,2.2,2.2,0,0,1,52.6-.559a4.28,4.28,0,0,1-2.562.715,4.47,4.47,0,0,1-1.887-.379,3.166,3.166,0,0,1-1.293-1.039,2.414,2.414,0,0,1-.469-1.426h2.141a1.179,1.179,0,0,0,.445.922,1.766,1.766,0,0,0,1.109.32,1.635,1.635,0,0,0,.98-.246A.766.766,0,0,0,51.4-2.336ZM66.64-4.148a5.07,5.07,0,0,1-.887,3.129A2.843,2.843,0,0,1,63.359.156a2.633,2.633,0,0,1-2.07-.891V3.25H59.031v-11.7h2.094l.078.828a2.654,2.654,0,0,1,2.141-.984,2.862,2.862,0,0,1,2.43,1.156,5.207,5.207,0,0,1,.867,3.188Zm-2.258-.164a3.327,3.327,0,0,0-.418-1.82,1.361,1.361,0,0,0-1.215-.641,1.479,1.479,0,0,0-1.461.813V-2.5a1.5,1.5,0,0,0,1.477.836Q64.382-1.664,64.382-4.312Zm8.406-2.023a6.134,6.134,0,0,0-.812-.062,1.654,1.654,0,0,0-1.68.867V0H68.039V-8.453h2.133l.063,1.008a2.092,2.092,0,0,1,1.883-1.164,2.366,2.366,0,0,1,.7.1ZM76.257,0H73.992V-8.453h2.266Zm-2.4-10.641a1.112,1.112,0,0,1,.34-.836,1.277,1.277,0,0,1,.926-.328,1.28,1.28,0,0,1,.922.328,1.105,1.105,0,0,1,.344.836,1.108,1.108,0,0,1-.348.844,1.283,1.283,0,0,1-.918.328,1.283,1.283,0,0,1-.918-.328A1.108,1.108,0,0,1,73.859-10.641Zm6.375,2.188.07.945a2.971,2.971,0,0,1,2.43-1.1A2.255,2.255,0,0,1,84.976-7.32a2.9,2.9,0,0,1,2.539-1.289,2.521,2.521,0,0,1,2.047.8,3.681,3.681,0,0,1,.672,2.41V0H87.968V-5.391a1.61,1.61,0,0,0-.281-1.051,1.246,1.246,0,0,0-.992-.332,1.409,1.409,0,0,0-1.406.969L85.3,0H83.039V-5.383a1.59,1.59,0,0,0-.289-1.062,1.259,1.259,0,0,0-.984-.328,1.463,1.463,0,0,0-1.391.8V0H78.117V-8.453ZM96.867,0a2.507,2.507,0,0,1-.227-.758,2.732,2.732,0,0,1-2.133.914,3,3,0,0,1-2.059-.719,2.312,2.312,0,0,1-.816-1.812,2.389,2.389,0,0,1,1-2.062,4.915,4.915,0,0,1,2.879-.727h1.039v-.484a1.393,1.393,0,0,0-.3-.937,1.183,1.183,0,0,0-.949-.352,1.345,1.345,0,0,0-.895.273.929.929,0,0,0-.324.75H91.82a2.268,2.268,0,0,1,.453-1.359,3,3,0,0,1,1.281-.98,4.669,4.669,0,0,1,1.859-.355,3.689,3.689,0,0,1,2.48.785,2.747,2.747,0,0,1,.918,2.207v3.664a4.041,4.041,0,0,0,.336,1.82V0ZM95-1.57a1.945,1.945,0,0,0,.922-.223,1.462,1.462,0,0,0,.625-.6V-3.844H95.7q-1.7,0-1.8,1.172l-.008.133a.9.9,0,0,0,.3.7A1.153,1.153,0,0,0,95-1.57Zm10.3-4.766a6.134,6.134,0,0,0-.812-.062,1.654,1.654,0,0,0-1.68.867V0h-2.258V-8.453h2.133l.063,1.008a2.092,2.092,0,0,1,1.883-1.164,2.366,2.366,0,0,1,.7.1ZM108.765,0H106.5V-8.453h2.266Zm-2.4-10.641a1.112,1.112,0,0,1,.34-.836,1.277,1.277,0,0,1,.926-.328,1.28,1.28,0,0,1,.922.328,1.105,1.105,0,0,1,.344.836,1.108,1.108,0,0,1-.348.844,1.283,1.283,0,0,1-.918.328,1.283,1.283,0,0,1-.918-.328A1.108,1.108,0,0,1,106.367-10.641ZM110.273-4.3a5.013,5.013,0,0,1,.484-2.242,3.546,3.546,0,0,1,1.395-1.523,4.069,4.069,0,0,1,2.113-.539,3.849,3.849,0,0,1,2.793,1.047,4.2,4.2,0,0,1,1.207,2.844l.016.578a4.418,4.418,0,0,1-1.086,3.121A3.775,3.775,0,0,1,114.281.156a3.793,3.793,0,0,1-2.918-1.172,4.5,4.5,0,0,1-1.09-3.187Zm2.258.16a3.16,3.16,0,0,0,.453,1.843,1.5,1.5,0,0,0,1.3.638,1.5,1.5,0,0,0,1.281-.63,3.457,3.457,0,0,0,.461-2.015,3.128,3.128,0,0,0-.461-1.831,1.5,1.5,0,0,0-1.3-.649,1.474,1.474,0,0,0-1.281.646A3.516,3.516,0,0,0,112.531-4.144ZM124.25-2.336a.727.727,0,0,0-.41-.652,4.659,4.659,0,0,0-1.316-.426q-3.016-.633-3.016-2.562a2.323,2.323,0,0,1,.934-1.879,3.766,3.766,0,0,1,2.441-.754,4.053,4.053,0,0,1,2.574.758,2.388,2.388,0,0,1,.965,1.969h-2.258a1.092,1.092,0,0,0-.312-.8A1.322,1.322,0,0,0,122.875-7a1.351,1.351,0,0,0-.883.258.814.814,0,0,0-.312.656.7.7,0,0,0,.355.605,3.657,3.657,0,0,0,1.2.4,9.8,9.8,0,0,1,1.422.379,2.336,2.336,0,0,1,1.789,2.273,2.2,2.2,0,0,1-.992,1.871,4.28,4.28,0,0,1-2.562.715A4.47,4.47,0,0,1,121-.223a3.166,3.166,0,0,1-1.293-1.039,2.414,2.414,0,0,1-.469-1.426h2.141a1.179,1.179,0,0,0,.445.922,1.766,1.766,0,0,0,1.109.32,1.635,1.635,0,0,0,.98-.246A.766.766,0,0,0,124.25-2.336Z" transform="translate(635.064 1346.006)" fill="#12263f"/>
    <path id="Path_611070" data-name="Path 611070" d="M3.359-1.883H8.336V0H1.016V-11.375H3.359ZM13.422.156A4.15,4.15,0,0,1,10.395-.984,4.054,4.054,0,0,1,9.227-4.023v-.219A5.106,5.106,0,0,1,9.719-6.52a3.612,3.612,0,0,1,1.395-1.547,3.914,3.914,0,0,1,2.059-.543A3.508,3.508,0,0,1,15.9-7.516a4.444,4.444,0,0,1,1,3.1v.922H11.516a2.1,2.1,0,0,0,.66,1.328,2,2,0,0,0,1.395.5,2.437,2.437,0,0,0,2.039-.945l1.109,1.242A3.389,3.389,0,0,1,15.344-.246,4.511,4.511,0,0,1,13.422.156Zm-.258-6.945a1.411,1.411,0,0,0-1.09.455,2.357,2.357,0,0,0-.535,1.3H14.68v-.181a1.681,1.681,0,0,0-.406-1.165A1.456,1.456,0,0,0,13.164-6.789Zm4.688,2.5a4.954,4.954,0,0,1,.926-3.133,3,3,0,0,1,2.5-1.187,2.631,2.631,0,0,1,2.164.953l.094-.8h2.047V-.281a3.613,3.613,0,0,1-.5,1.93A3.236,3.236,0,0,1,23.656,2.9a4.985,4.985,0,0,1-2.141.43A4.635,4.635,0,0,1,19.7,2.957,3.217,3.217,0,0,1,18.367,2l1-1.375a2.645,2.645,0,0,0,2.047.945,1.936,1.936,0,0,0,1.4-.48,1.8,1.8,0,0,0,.5-1.363V-.727a2.612,2.612,0,0,1-2.055.883,2.992,2.992,0,0,1-2.465-1.191,4.953,4.953,0,0,1-.941-3.16Zm2.258.168a3.085,3.085,0,0,0,.461,1.8,1.466,1.466,0,0,0,1.266.653,1.568,1.568,0,0,0,1.477-.775V-6a1.564,1.564,0,0,0-1.461-.775,1.476,1.476,0,0,0-1.277.665A3.477,3.477,0,0,0,20.109-4.121ZM32.211,0a2.507,2.507,0,0,1-.227-.758,2.732,2.732,0,0,1-2.133.914,3,3,0,0,1-2.059-.719,2.312,2.312,0,0,1-.816-1.812,2.389,2.389,0,0,1,1-2.062,4.915,4.915,0,0,1,2.879-.727h1.039v-.484a1.393,1.393,0,0,0-.3-.937,1.183,1.183,0,0,0-.949-.352,1.345,1.345,0,0,0-.895.273.929.929,0,0,0-.324.75H27.164a2.268,2.268,0,0,1,.453-1.359,3,3,0,0,1,1.281-.98,4.669,4.669,0,0,1,1.859-.355,3.689,3.689,0,0,1,2.48.785,2.747,2.747,0,0,1,.918,2.207v3.664a4.041,4.041,0,0,0,.336,1.82V0ZM30.344-1.57a1.945,1.945,0,0,0,.922-.223,1.462,1.462,0,0,0,.625-.6V-3.844h-.844q-1.7,0-1.8,1.172l-.008.133a.9.9,0,0,0,.3.7A1.153,1.153,0,0,0,30.344-1.57ZM38.273,0H36.008V-12h2.266Z" transform="translate(679.064 1417.861)" fill="#12263f"/>
    <path id="Path_611071" data-name="Path 611071" d="M9.945-3.789A4.025,4.025,0,0,1,8.59-.9,4.76,4.76,0,0,1,5.367.156,4.28,4.28,0,0,1,1.926-1.316,6.038,6.038,0,0,1,.672-5.359v-.7A6.819,6.819,0,0,1,1.25-8.945,4.332,4.332,0,0,1,2.9-10.863a4.629,4.629,0,0,1,2.5-.668A4.637,4.637,0,0,1,8.57-10.477,4.326,4.326,0,0,1,9.961-7.516H7.617A2.376,2.376,0,0,0,7-9.113a2.271,2.271,0,0,0-1.605-.5,1.991,1.991,0,0,0-1.754.84,4.707,4.707,0,0,0-.6,2.605V-5.3a5.038,5.038,0,0,0,.559,2.7,1.954,1.954,0,0,0,1.762.852,2.314,2.314,0,0,0,1.621-.5A2.241,2.241,0,0,0,7.6-3.789ZM10.984-4.3a5.013,5.013,0,0,1,.484-2.242A3.546,3.546,0,0,1,12.863-8.07a4.069,4.069,0,0,1,2.113-.539A3.849,3.849,0,0,1,17.77-7.562a4.2,4.2,0,0,1,1.207,2.844l.016.578A4.418,4.418,0,0,1,17.906-1.02,3.775,3.775,0,0,1,14.992.156a3.793,3.793,0,0,1-2.918-1.172A4.5,4.5,0,0,1,10.984-4.2Zm2.258.16A3.16,3.16,0,0,0,13.7-2.3a1.5,1.5,0,0,0,1.3.638,1.5,1.5,0,0,0,1.281-.63,3.457,3.457,0,0,0,.461-2.015,3.128,3.128,0,0,0-.461-1.831,1.5,1.5,0,0,0-1.3-.649,1.474,1.474,0,0,0-1.281.646A3.516,3.516,0,0,0,13.242-4.144Zm9.219-4.309.07.977a2.951,2.951,0,0,1,2.43-1.133,2.453,2.453,0,0,1,2,.789,3.682,3.682,0,0,1,.672,2.359V0H25.375V-5.406a1.465,1.465,0,0,0-.312-1.043,1.4,1.4,0,0,0-1.039-.324,1.553,1.553,0,0,0-1.43.813V0H20.336V-8.453Zm9.586-2.078v2.078h1.445V-6.8H32.047v4.219a1.007,1.007,0,0,0,.18.672.9.9,0,0,0,.688.2,3.6,3.6,0,0,0,.664-.055V-.047a4.648,4.648,0,0,1-1.367.2,2.156,2.156,0,0,1-2.422-2.4V-6.8H28.555V-8.453h1.234v-2.078ZM39.648,0a2.507,2.507,0,0,1-.227-.758,2.732,2.732,0,0,1-2.133.914A3,3,0,0,1,35.23-.562a2.312,2.312,0,0,1-.816-1.812,2.389,2.389,0,0,1,1-2.062,4.915,4.915,0,0,1,2.879-.727h1.039v-.484a1.393,1.393,0,0,0-.3-.937,1.183,1.183,0,0,0-.949-.352,1.345,1.345,0,0,0-.895.273.929.929,0,0,0-.324.75H34.6a2.268,2.268,0,0,1,.453-1.359,3,3,0,0,1,1.281-.98A4.669,4.669,0,0,1,38.2-8.609a3.689,3.689,0,0,1,2.48.785,2.747,2.747,0,0,1,.918,2.207v3.664a4.041,4.041,0,0,0,.336,1.82V0ZM37.781-1.57a1.945,1.945,0,0,0,.922-.223,1.462,1.462,0,0,0,.625-.6V-3.844h-.844q-1.7,0-1.8,1.172l-.008.133a.9.9,0,0,0,.3.7A1.153,1.153,0,0,0,37.781-1.57ZM50.945-4.148A5.119,5.119,0,0,1,50.078-.98,2.872,2.872,0,0,1,47.656.156,2.639,2.639,0,0,1,45.461-.9l-.1.9H43.328V-12h2.258v4.3a2.571,2.571,0,0,1,2.055-.914,2.9,2.9,0,0,1,2.426,1.137,5.126,5.126,0,0,1,.879,3.2Zm-2.258-.164a3.363,3.363,0,0,0-.406-1.871,1.374,1.374,0,0,0-1.211-.59,1.489,1.489,0,0,0-1.484.883v3.336a1.509,1.509,0,0,0,1.5.891,1.394,1.394,0,0,0,1.438-1.078A5.562,5.562,0,0,0,48.688-4.312ZM54.719,0H52.453V-12h2.266Zm5.75.156A4.15,4.15,0,0,1,57.441-.984a4.054,4.054,0,0,1-1.168-3.039v-.219a5.106,5.106,0,0,1,.492-2.277A3.612,3.612,0,0,1,58.16-8.066a3.914,3.914,0,0,1,2.059-.543,3.508,3.508,0,0,1,2.73,1.094,4.444,4.444,0,0,1,1,3.1v.922H58.563a2.1,2.1,0,0,0,.66,1.328,2,2,0,0,0,1.395.5,2.437,2.437,0,0,0,2.039-.945l1.109,1.242A3.389,3.389,0,0,1,62.391-.246,4.511,4.511,0,0,1,60.469.156Zm-.258-6.945a1.411,1.411,0,0,0-1.09.455,2.357,2.357,0,0,0-.535,1.3h3.141v-.181a1.681,1.681,0,0,0-.406-1.165A1.456,1.456,0,0,0,60.211-6.789Z" transform="translate(666.064 1460.51)" fill="#12263f"/>
    <path id="Path_611072" data-name="Path 611072" d="M7.438-2.344H3.328L2.547,0H.055L4.289-11.375H6.461L10.719,0H8.227Zm-3.477-1.9H6.8L5.375-8.5Zm7.32-.047a5.094,5.094,0,0,1,.887-3.148,2.877,2.877,0,0,1,2.426-1.172,2.589,2.589,0,0,1,2.039.922V-12H18.9V0H16.859L16.75-.9A2.657,2.657,0,0,1,14.578.156,2.869,2.869,0,0,1,12.184-1.02,5.258,5.258,0,0,1,11.281-4.289Zm2.258.168A3.337,3.337,0,0,0,13.953-2.3a1.349,1.349,0,0,0,1.2.634,1.511,1.511,0,0,0,1.477-.884V-5.889a1.489,1.489,0,0,0-1.461-.884Q13.539-6.773,13.539-4.121Zm9.227-4.332.07.945a2.971,2.971,0,0,1,2.43-1.1A2.255,2.255,0,0,1,27.508-7.32a2.9,2.9,0,0,1,2.539-1.289,2.521,2.521,0,0,1,2.047.8,3.681,3.681,0,0,1,.672,2.41V0H30.5V-5.391a1.61,1.61,0,0,0-.281-1.051,1.246,1.246,0,0,0-.992-.332A1.409,1.409,0,0,0,27.82-5.8L27.828,0H25.57V-5.383a1.59,1.59,0,0,0-.289-1.062,1.259,1.259,0,0,0-.984-.328,1.463,1.463,0,0,0-1.391.8V0H20.648V-8.453ZM36.883,0H34.617V-8.453h2.266Zm-2.4-10.641a1.112,1.112,0,0,1,.34-.836,1.277,1.277,0,0,1,.926-.328,1.28,1.28,0,0,1,.922.328,1.105,1.105,0,0,1,.344.836,1.108,1.108,0,0,1-.348.844,1.283,1.283,0,0,1-.918.328,1.283,1.283,0,0,1-.918-.328A1.108,1.108,0,0,1,34.484-10.641ZM40.82-8.453l.07.977a2.951,2.951,0,0,1,2.43-1.133,2.453,2.453,0,0,1,2,.789,3.682,3.682,0,0,1,.672,2.359V0H43.734V-5.406a1.465,1.465,0,0,0-.312-1.043,1.4,1.4,0,0,0-1.039-.324,1.553,1.553,0,0,0-1.43.813V0H38.7V-8.453ZM50.086,0H47.82V-8.453h2.266Zm-2.4-10.641a1.112,1.112,0,0,1,.34-.836,1.277,1.277,0,0,1,.926-.328,1.28,1.28,0,0,1,.922.328,1.105,1.105,0,0,1,.344.836,1.108,1.108,0,0,1-.348.844,1.283,1.283,0,0,1-.918.328,1.283,1.283,0,0,1-.918-.328A1.108,1.108,0,0,1,47.688-10.641Zm8.836,8.3a.727.727,0,0,0-.41-.652A4.659,4.659,0,0,0,54.8-3.414q-3.016-.633-3.016-2.562a2.323,2.323,0,0,1,.934-1.879,3.766,3.766,0,0,1,2.441-.754,4.053,4.053,0,0,1,2.574.758A2.388,2.388,0,0,1,58.7-5.883H56.438a1.092,1.092,0,0,0-.312-.8A1.322,1.322,0,0,0,55.148-7a1.351,1.351,0,0,0-.883.258.814.814,0,0,0-.312.656.7.7,0,0,0,.355.605,3.657,3.657,0,0,0,1.2.4A9.8,9.8,0,0,1,56.93-4.7,2.336,2.336,0,0,1,58.719-2.43a2.2,2.2,0,0,1-.992,1.871,4.28,4.28,0,0,1-2.562.715,4.47,4.47,0,0,1-1.887-.379,3.166,3.166,0,0,1-1.293-1.039,2.414,2.414,0,0,1-.469-1.426h2.141a1.179,1.179,0,0,0,.445.922,1.766,1.766,0,0,0,1.109.32,1.635,1.635,0,0,0,.98-.246A.766.766,0,0,0,56.523-2.336Zm6.352-8.2v2.078H64.32V-6.8H62.875v4.219a1.007,1.007,0,0,0,.18.672.9.9,0,0,0,.688.2,3.6,3.6,0,0,0,.664-.055V-.047a4.648,4.648,0,0,1-1.367.2,2.156,2.156,0,0,1-2.422-2.4V-6.8H59.383V-8.453h1.234v-2.078Zm7.453,4.2a6.134,6.134,0,0,0-.812-.062,1.654,1.654,0,0,0-1.68.867V0H65.578V-8.453h2.133l.063,1.008a2.092,2.092,0,0,1,1.883-1.164,2.366,2.366,0,0,1,.7.1ZM75.854,0a2.507,2.507,0,0,1-.227-.758,2.732,2.732,0,0,1-2.133.914,3,3,0,0,1-2.059-.719,2.312,2.312,0,0,1-.816-1.812,2.389,2.389,0,0,1,1-2.062,4.915,4.915,0,0,1,2.879-.727h1.039v-.484a1.393,1.393,0,0,0-.3-.937,1.183,1.183,0,0,0-.949-.352,1.345,1.345,0,0,0-.895.273.929.929,0,0,0-.324.75H70.807a2.268,2.268,0,0,1,.453-1.359,3,3,0,0,1,1.281-.98A4.669,4.669,0,0,1,74.4-8.609a3.689,3.689,0,0,1,2.48.785A2.747,2.747,0,0,1,77.8-5.617v3.664a4.041,4.041,0,0,0,.336,1.82V0ZM73.987-1.57a1.945,1.945,0,0,0,.922-.223,1.462,1.462,0,0,0,.625-.6V-3.844H74.69q-1.7,0-1.8,1.172l-.008.133a.9.9,0,0,0,.3.7A1.153,1.153,0,0,0,73.987-1.57Zm8.25-8.961v2.078h1.445V-6.8H82.237v4.219a1.007,1.007,0,0,0,.18.672.9.9,0,0,0,.688.2,3.6,3.6,0,0,0,.664-.055V-.047a4.648,4.648,0,0,1-1.367.2,2.156,2.156,0,0,1-2.422-2.4V-6.8H78.745V-8.453h1.234v-2.078ZM87.323,0H85.057V-8.453h2.266Zm-2.4-10.641a1.112,1.112,0,0,1,.34-.836,1.277,1.277,0,0,1,.926-.328,1.28,1.28,0,0,1,.922.328,1.105,1.105,0,0,1,.344.836,1.108,1.108,0,0,1-.348.844,1.283,1.283,0,0,1-.918.328,1.283,1.283,0,0,1-.918-.328A1.108,1.108,0,0,1,84.924-10.641Zm7.422,7.883,1.57-5.7h2.359L93.424,0H91.268L88.417-8.453h2.359ZM96.687-4.3a5.013,5.013,0,0,1,.484-2.242A3.546,3.546,0,0,1,98.566-8.07a4.069,4.069,0,0,1,2.113-.539,3.849,3.849,0,0,1,2.793,1.047,4.2,4.2,0,0,1,1.207,2.844l.016.578a4.418,4.418,0,0,1-1.086,3.121A3.775,3.775,0,0,1,100.7.156a3.793,3.793,0,0,1-2.918-1.172A4.5,4.5,0,0,1,96.687-4.2Zm2.258.16A3.16,3.16,0,0,0,99.4-2.3a1.5,1.5,0,0,0,1.3.638,1.5,1.5,0,0,0,1.281-.63,3.457,3.457,0,0,0,.461-2.015,3.128,3.128,0,0,0-.461-1.831,1.5,1.5,0,0,0-1.3-.649,1.474,1.474,0,0,0-1.281.646A3.516,3.516,0,0,0,98.945-4.144Z" transform="translate(646.064 1504.514)" fill="#12263f"/>
    <path id="Path_611073" data-name="Path 611073" d="M9.578-9.477H6.094V0H3.75V-9.477H.313v-1.9H9.578ZM13.961.156A4.15,4.15,0,0,1,10.934-.984,4.054,4.054,0,0,1,9.766-4.023v-.219a5.106,5.106,0,0,1,.492-2.277,3.612,3.612,0,0,1,1.395-1.547,3.914,3.914,0,0,1,2.059-.543,3.508,3.508,0,0,1,2.73,1.094,4.444,4.444,0,0,1,1,3.1v.922H12.055a2.1,2.1,0,0,0,.66,1.328,2,2,0,0,0,1.395.5,2.437,2.437,0,0,0,2.039-.945l1.109,1.242A3.389,3.389,0,0,1,15.883-.246,4.511,4.511,0,0,1,13.961.156ZM13.7-6.789a1.411,1.411,0,0,0-1.09.455,2.357,2.357,0,0,0-.535,1.3h3.141v-.181a1.681,1.681,0,0,0-.406-1.165A1.456,1.456,0,0,0,13.7-6.789Zm.2-5.211h2.461L14.2-9.578H12.367ZM22.234-1.664a1.481,1.481,0,0,0,1.016-.344,1.2,1.2,0,0,0,.406-.914h2.117A2.9,2.9,0,0,1,25.3-1.348,3.093,3.093,0,0,1,24.043-.238a3.949,3.949,0,0,1-1.77.395A3.67,3.67,0,0,1,19.414-1,4.56,4.56,0,0,1,18.367-4.18v-.148a4.508,4.508,0,0,1,1.039-3.117,3.627,3.627,0,0,1,2.852-1.164,3.555,3.555,0,0,1,2.543.9,3.2,3.2,0,0,1,.973,2.4H23.656a1.551,1.551,0,0,0-.406-1.072,1.354,1.354,0,0,0-1.031-.412,1.36,1.36,0,0,0-1.191.575,3.333,3.333,0,0,0-.4,1.866v.235a3.375,3.375,0,0,0,.4,1.878A1.377,1.377,0,0,0,22.234-1.664Zm6.906-6.789.07.977a2.951,2.951,0,0,1,2.43-1.133,2.453,2.453,0,0,1,2,.789,3.682,3.682,0,0,1,.672,2.359V0H32.055V-5.406a1.465,1.465,0,0,0-.312-1.043A1.4,1.4,0,0,0,30.7-6.773a1.553,1.553,0,0,0-1.43.813V0H27.016V-8.453ZM38.406,0H36.141V-8.453h2.266Zm-2.4-10.641a1.112,1.112,0,0,1,.34-.836,1.277,1.277,0,0,1,.926-.328,1.28,1.28,0,0,1,.922.328,1.105,1.105,0,0,1,.344.836,1.108,1.108,0,0,1-.348.844,1.283,1.283,0,0,1-.918.328,1.283,1.283,0,0,1-.918-.328A1.108,1.108,0,0,1,36.008-10.641Zm7.773,8.977A1.481,1.481,0,0,0,44.8-2.008a1.2,1.2,0,0,0,.406-.914H47.32a2.9,2.9,0,0,1-.469,1.574A3.093,3.093,0,0,1,45.59-.238a3.949,3.949,0,0,1-1.77.395A3.67,3.67,0,0,1,40.961-1,4.56,4.56,0,0,1,39.914-4.18v-.148a4.508,4.508,0,0,1,1.039-3.117A3.627,3.627,0,0,1,43.8-8.609a3.555,3.555,0,0,1,2.543.9,3.2,3.2,0,0,1,.973,2.4H45.2A1.551,1.551,0,0,0,44.8-6.377a1.354,1.354,0,0,0-1.031-.412,1.36,1.36,0,0,0-1.191.575,3.333,3.333,0,0,0-.4,1.866v.235a3.375,3.375,0,0,0,.4,1.878A1.377,1.377,0,0,0,43.781-1.664ZM48.258-4.3a5.013,5.013,0,0,1,.484-2.242A3.546,3.546,0,0,1,50.137-8.07a4.069,4.069,0,0,1,2.113-.539,3.849,3.849,0,0,1,2.793,1.047A4.2,4.2,0,0,1,56.25-4.719l.016.578A4.418,4.418,0,0,1,55.18-1.02,3.775,3.775,0,0,1,52.266.156a3.793,3.793,0,0,1-2.918-1.172A4.5,4.5,0,0,1,48.258-4.2Zm2.258.16A3.16,3.16,0,0,0,50.969-2.3a1.5,1.5,0,0,0,1.3.638,1.5,1.5,0,0,0,1.281-.63,3.457,3.457,0,0,0,.461-2.015,3.128,3.128,0,0,0-.461-1.831,1.5,1.5,0,0,0-1.3-.649,1.474,1.474,0,0,0-1.281.646A3.516,3.516,0,0,0,50.516-4.144Z" transform="translate(670.064 1548.518)" fill="#12263f"/>
    <path id="Path_611074" data-name="Path 611074" d="M7.859-4.648h-4.5V0H1.016V-11.375H8.422v1.9H3.359v2.938h4.5ZM12.016,0H9.75V-8.453h2.266Zm-2.4-10.641a1.112,1.112,0,0,1,.34-.836,1.277,1.277,0,0,1,.926-.328,1.28,1.28,0,0,1,.922.328,1.105,1.105,0,0,1,.344.836A1.108,1.108,0,0,1,11.8-9.8a1.283,1.283,0,0,1-.918.328A1.283,1.283,0,0,1,9.965-9.8,1.108,1.108,0,0,1,9.617-10.641Zm8.836,8.3a.727.727,0,0,0-.41-.652,4.659,4.659,0,0,0-1.316-.426q-3.016-.633-3.016-2.562a2.323,2.323,0,0,1,.934-1.879,3.766,3.766,0,0,1,2.441-.754,4.053,4.053,0,0,1,2.574.758,2.388,2.388,0,0,1,.965,1.969H18.367a1.092,1.092,0,0,0-.312-.8A1.322,1.322,0,0,0,17.078-7a1.351,1.351,0,0,0-.883.258.814.814,0,0,0-.312.656.7.7,0,0,0,.355.605,3.657,3.657,0,0,0,1.2.4,9.8,9.8,0,0,1,1.422.379A2.336,2.336,0,0,1,20.648-2.43a2.2,2.2,0,0,1-.992,1.871,4.28,4.28,0,0,1-2.562.715,4.47,4.47,0,0,1-1.887-.379,3.166,3.166,0,0,1-1.293-1.039,2.414,2.414,0,0,1-.469-1.426h2.141a1.179,1.179,0,0,0,.445.922,1.766,1.766,0,0,0,1.109.32,1.635,1.635,0,0,0,.98-.246A.766.766,0,0,0,18.453-2.336Zm7.164.672a1.481,1.481,0,0,0,1.016-.344,1.2,1.2,0,0,0,.406-.914h2.117a2.9,2.9,0,0,1-.469,1.574A3.093,3.093,0,0,1,27.426-.238a3.949,3.949,0,0,1-1.77.395A3.67,3.67,0,0,1,22.8-1,4.56,4.56,0,0,1,21.75-4.18v-.148a4.508,4.508,0,0,1,1.039-3.117,3.627,3.627,0,0,1,2.852-1.164,3.555,3.555,0,0,1,2.543.9,3.2,3.2,0,0,1,.973,2.4H27.039a1.551,1.551,0,0,0-.406-1.072A1.354,1.354,0,0,0,25.6-6.789a1.36,1.36,0,0,0-1.191.575,3.333,3.333,0,0,0-.4,1.866v.235a3.375,3.375,0,0,0,.4,1.878A1.377,1.377,0,0,0,25.617-1.664ZM35.344,0a2.507,2.507,0,0,1-.227-.758,2.732,2.732,0,0,1-2.133.914,3,3,0,0,1-2.059-.719,2.312,2.312,0,0,1-.816-1.812,2.389,2.389,0,0,1,1-2.062,4.915,4.915,0,0,1,2.879-.727h1.039v-.484a1.393,1.393,0,0,0-.3-.937,1.183,1.183,0,0,0-.949-.352,1.345,1.345,0,0,0-.895.273.929.929,0,0,0-.324.75H30.3a2.268,2.268,0,0,1,.453-1.359,3,3,0,0,1,1.281-.98,4.669,4.669,0,0,1,1.859-.355,3.689,3.689,0,0,1,2.48.785,2.747,2.747,0,0,1,.918,2.207v3.664a4.041,4.041,0,0,0,.336,1.82V0ZM33.477-1.57a1.945,1.945,0,0,0,.922-.223,1.462,1.462,0,0,0,.625-.6V-3.844H34.18q-1.7,0-1.8,1.172l-.008.133a.9.9,0,0,0,.3.7A1.153,1.153,0,0,0,33.477-1.57ZM41.406,0H39.141V-12h2.266Z" transform="translate(677.064 1592.521)" fill="#12263f"/>
    <path id="Path_611075" data-name="Path 611075" d="M5.219-2.82,7.8-11.375h2.609L6.445,0H4L.055-11.375h2.6ZM15.515,0a2.507,2.507,0,0,1-.227-.758,2.732,2.732,0,0,1-2.133.914A3,3,0,0,1,11.1-.562a2.312,2.312,0,0,1-.816-1.812,2.389,2.389,0,0,1,1-2.062,4.915,4.915,0,0,1,2.879-.727h1.039v-.484a1.393,1.393,0,0,0-.3-.937,1.183,1.183,0,0,0-.949-.352,1.345,1.345,0,0,0-.895.273.929.929,0,0,0-.324.75H10.468a2.268,2.268,0,0,1,.453-1.359,3,3,0,0,1,1.281-.98,4.669,4.669,0,0,1,1.859-.355,3.689,3.689,0,0,1,2.48.785,2.747,2.747,0,0,1,.918,2.207v3.664A4.041,4.041,0,0,0,17.8-.133V0ZM13.648-1.57a1.945,1.945,0,0,0,.922-.223,1.462,1.462,0,0,0,.625-.6V-3.844h-.844q-1.7,0-1.8,1.172l-.008.133a.9.9,0,0,0,.3.7A1.153,1.153,0,0,0,13.648-1.57ZM21.578,0H19.312V-12h2.266Zm1.508-4.3a5.013,5.013,0,0,1,.484-2.242A3.546,3.546,0,0,1,24.964-8.07a4.069,4.069,0,0,1,2.113-.539,3.849,3.849,0,0,1,2.793,1.047,4.2,4.2,0,0,1,1.207,2.844l.016.578A4.418,4.418,0,0,1,30.007-1.02,3.775,3.775,0,0,1,27.093.156a3.793,3.793,0,0,1-2.918-1.172A4.5,4.5,0,0,1,23.085-4.2Zm2.258.16A3.16,3.16,0,0,0,25.8-2.3a1.5,1.5,0,0,0,1.3.638,1.5,1.5,0,0,0,1.281-.63,3.457,3.457,0,0,0,.461-2.015,3.128,3.128,0,0,0-.461-1.831,1.5,1.5,0,0,0-1.3-.649,1.474,1.474,0,0,0-1.281.646A3.516,3.516,0,0,0,25.343-4.144ZM37.234-6.336a6.134,6.134,0,0,0-.812-.062,1.654,1.654,0,0,0-1.68.867V0H32.484V-8.453h2.133l.063,1.008a2.092,2.092,0,0,1,1.883-1.164,2.366,2.366,0,0,1,.7.1ZM42.062.156A4.15,4.15,0,0,1,39.035-.984a4.054,4.054,0,0,1-1.168-3.039v-.219a5.106,5.106,0,0,1,.492-2.277,3.612,3.612,0,0,1,1.395-1.547,3.914,3.914,0,0,1,2.059-.543,3.508,3.508,0,0,1,2.73,1.094,4.444,4.444,0,0,1,1,3.1v.922H40.156a2.1,2.1,0,0,0,.66,1.328,2,2,0,0,0,1.395.5,2.437,2.437,0,0,0,2.039-.945l1.109,1.242A3.389,3.389,0,0,1,43.984-.246,4.511,4.511,0,0,1,42.062.156ZM41.8-6.789a1.411,1.411,0,0,0-1.09.455,2.357,2.357,0,0,0-.535,1.3H43.32v-.181a1.681,1.681,0,0,0-.406-1.165A1.456,1.456,0,0,0,41.8-6.789ZM51.4-2.336a.727.727,0,0,0-.41-.652,4.659,4.659,0,0,0-1.316-.426q-3.016-.633-3.016-2.562a2.323,2.323,0,0,1,.934-1.879,3.766,3.766,0,0,1,2.441-.754,4.053,4.053,0,0,1,2.574.758,2.388,2.388,0,0,1,.965,1.969H51.312a1.092,1.092,0,0,0-.312-.8A1.322,1.322,0,0,0,50.023-7a1.351,1.351,0,0,0-.883.258.814.814,0,0,0-.312.656.7.7,0,0,0,.355.605,3.657,3.657,0,0,0,1.2.4A9.8,9.8,0,0,1,51.8-4.7,2.336,2.336,0,0,1,53.593-2.43,2.2,2.2,0,0,1,52.6-.559a4.28,4.28,0,0,1-2.562.715,4.47,4.47,0,0,1-1.887-.379,3.166,3.166,0,0,1-1.293-1.039,2.414,2.414,0,0,1-.469-1.426h2.141a1.179,1.179,0,0,0,.445.922,1.766,1.766,0,0,0,1.109.32,1.635,1.635,0,0,0,.98-.246A.766.766,0,0,0,51.4-2.336Zm12.211,0a.727.727,0,0,0-.41-.652,4.659,4.659,0,0,0-1.316-.426q-3.016-.633-3.016-2.562A2.323,2.323,0,0,1,59.8-7.855a3.766,3.766,0,0,1,2.441-.754,4.053,4.053,0,0,1,2.574.758,2.388,2.388,0,0,1,.965,1.969H63.523a1.092,1.092,0,0,0-.312-.8A1.322,1.322,0,0,0,62.234-7a1.351,1.351,0,0,0-.883.258.814.814,0,0,0-.312.656.7.7,0,0,0,.355.605,3.657,3.657,0,0,0,1.2.4,9.8,9.8,0,0,1,1.422.379A2.336,2.336,0,0,1,65.8-2.43a2.2,2.2,0,0,1-.992,1.871A4.28,4.28,0,0,1,62.25.156a4.47,4.47,0,0,1-1.887-.379A3.166,3.166,0,0,1,59.07-1.262,2.414,2.414,0,0,1,58.6-2.687h2.141a1.179,1.179,0,0,0,.445.922,1.766,1.766,0,0,0,1.109.32,1.635,1.635,0,0,0,.98-.246A.766.766,0,0,0,63.609-2.336ZM71.148.156A4.15,4.15,0,0,1,68.121-.984a4.054,4.054,0,0,1-1.168-3.039v-.219a5.106,5.106,0,0,1,.492-2.277,3.612,3.612,0,0,1,1.395-1.547A3.914,3.914,0,0,1,70.9-8.609a3.508,3.508,0,0,1,2.73,1.094,4.444,4.444,0,0,1,1,3.1v.922H69.242a2.1,2.1,0,0,0,.66,1.328,2,2,0,0,0,1.395.5,2.437,2.437,0,0,0,2.039-.945l1.109,1.242A3.389,3.389,0,0,1,73.07-.246,4.511,4.511,0,0,1,71.148.156ZM70.89-6.789a1.411,1.411,0,0,0-1.09.455,2.357,2.357,0,0,0-.535,1.3h3.141v-.181A1.681,1.681,0,0,0,72-6.377,1.456,1.456,0,0,0,70.89-6.789Zm8.531,5.125a1.481,1.481,0,0,0,1.016-.344,1.2,1.2,0,0,0,.406-.914H82.96a2.9,2.9,0,0,1-.469,1.574A3.093,3.093,0,0,1,81.23-.238a3.949,3.949,0,0,1-1.77.395A3.67,3.67,0,0,1,76.6-1,4.56,4.56,0,0,1,75.554-4.18v-.148a4.508,4.508,0,0,1,1.039-3.117,3.627,3.627,0,0,1,2.852-1.164,3.555,3.555,0,0,1,2.543.9,3.2,3.2,0,0,1,.973,2.4H80.843a1.551,1.551,0,0,0-.406-1.072,1.354,1.354,0,0,0-1.031-.412,1.36,1.36,0,0,0-1.191.575,3.333,3.333,0,0,0-.4,1.866v.235a3.375,3.375,0,0,0,.4,1.878A1.377,1.377,0,0,0,79.421-1.664Zm9.891.8A2.831,2.831,0,0,1,87,.156a2.67,2.67,0,0,1-2.074-.781,3.335,3.335,0,0,1-.73-2.289V-8.453h2.258v5.467q0,1.322,1.2,1.322a1.63,1.63,0,0,0,1.578-.8V-8.453H91.5V0H89.375Zm5.969-7.594.07.977a2.951,2.951,0,0,1,2.43-1.133,2.453,2.453,0,0,1,2,.789,3.682,3.682,0,0,1,.672,2.359V0H98.195V-5.406a1.465,1.465,0,0,0-.312-1.043,1.4,1.4,0,0,0-1.039-.324,1.553,1.553,0,0,0-1.43.813V0H93.156V-8.453Zm6.531,4.164a5.094,5.094,0,0,1,.887-3.148,2.877,2.877,0,0,1,2.426-1.172,2.589,2.589,0,0,1,2.039.922V-12h2.266V0H107.39l-.109-.9A2.657,2.657,0,0,1,105.109.156a2.869,2.869,0,0,1-2.395-1.176A5.258,5.258,0,0,1,101.812-4.289Zm2.258.168a3.337,3.337,0,0,0,.414,1.823,1.349,1.349,0,0,0,1.2.634,1.511,1.511,0,0,0,1.477-.884V-5.889a1.489,1.489,0,0,0-1.461-.884Q104.07-6.773,104.07-4.121ZM116.078,0a2.507,2.507,0,0,1-.227-.758,2.732,2.732,0,0,1-2.133.914,3,3,0,0,1-2.059-.719,2.312,2.312,0,0,1-.816-1.812,2.389,2.389,0,0,1,1-2.062,4.915,4.915,0,0,1,2.879-.727h1.039v-.484a1.393,1.393,0,0,0-.3-.937,1.183,1.183,0,0,0-.949-.352,1.345,1.345,0,0,0-.895.273.929.929,0,0,0-.324.75h-2.258a2.268,2.268,0,0,1,.453-1.359,3,3,0,0,1,1.281-.98,4.669,4.669,0,0,1,1.859-.355,3.689,3.689,0,0,1,2.48.785,2.747,2.747,0,0,1,.918,2.207v3.664a4.041,4.041,0,0,0,.336,1.82V0ZM114.21-1.57a1.945,1.945,0,0,0,.922-.223,1.462,1.462,0,0,0,.625-.6V-3.844h-.844q-1.7,0-1.8,1.172l-.008.133a.9.9,0,0,0,.3.7A1.153,1.153,0,0,0,114.21-1.57Zm10.3-4.766a6.134,6.134,0,0,0-.812-.062,1.654,1.654,0,0,0-1.68.867V0h-2.258V-8.453h2.133l.063,1.008a2.092,2.092,0,0,1,1.883-1.164,2.366,2.366,0,0,1,.7.1ZM127.976,0H125.71V-8.453h2.266Zm-2.4-10.641a1.112,1.112,0,0,1,.34-.836,1.277,1.277,0,0,1,.926-.328,1.28,1.28,0,0,1,.922.328,1.105,1.105,0,0,1,.344.836,1.108,1.108,0,0,1-.348.844,1.283,1.283,0,0,1-.918.328,1.283,1.283,0,0,1-.918-.328A1.108,1.108,0,0,1,125.578-10.641ZM129.484-4.3a5.013,5.013,0,0,1,.484-2.242,3.546,3.546,0,0,1,1.395-1.523,4.069,4.069,0,0,1,2.113-.539,3.849,3.849,0,0,1,2.793,1.047,4.2,4.2,0,0,1,1.207,2.844l.016.578a4.418,4.418,0,0,1-1.086,3.121A3.775,3.775,0,0,1,133.492.156a3.793,3.793,0,0,1-2.918-1.172,4.5,4.5,0,0,1-1.09-3.187Zm2.258.16a3.16,3.16,0,0,0,.453,1.843,1.5,1.5,0,0,0,1.3.638,1.5,1.5,0,0,0,1.281-.63,3.457,3.457,0,0,0,.461-2.015,3.128,3.128,0,0,0-.461-1.831,1.5,1.5,0,0,0-1.3-.649,1.474,1.474,0,0,0-1.281.646A3.516,3.516,0,0,0,131.742-4.144ZM143.46-2.336a.727.727,0,0,0-.41-.652,4.659,4.659,0,0,0-1.316-.426q-3.016-.633-3.016-2.562a2.323,2.323,0,0,1,.934-1.879,3.766,3.766,0,0,1,2.441-.754,4.053,4.053,0,0,1,2.574.758,2.388,2.388,0,0,1,.965,1.969h-2.258a1.092,1.092,0,0,0-.312-.8A1.322,1.322,0,0,0,142.085-7a1.351,1.351,0,0,0-.883.258.814.814,0,0,0-.312.656.7.7,0,0,0,.355.605,3.657,3.657,0,0,0,1.2.4,9.8,9.8,0,0,1,1.422.379,2.336,2.336,0,0,1,1.789,2.273,2.205,2.205,0,0,1-.992,1.871A4.28,4.28,0,0,1,142.1.156a4.47,4.47,0,0,1-1.887-.379,3.166,3.166,0,0,1-1.293-1.039,2.414,2.414,0,0,1-.469-1.426h2.141a1.179,1.179,0,0,0,.445.922,1.766,1.766,0,0,0,1.109.32,1.635,1.635,0,0,0,.98-.246A.766.766,0,0,0,143.46-2.336Z" transform="translate(879.064 1346.521)" fill="#12263f"/>
    <path id="Path_611076" data-name="Path 611076" d="M9.945-3.789A4.025,4.025,0,0,1,8.59-.9,4.76,4.76,0,0,1,5.367.156,4.28,4.28,0,0,1,1.926-1.316,6.038,6.038,0,0,1,.672-5.359v-.7A6.819,6.819,0,0,1,1.25-8.945,4.332,4.332,0,0,1,2.9-10.863a4.629,4.629,0,0,1,2.5-.668A4.637,4.637,0,0,1,8.57-10.477,4.326,4.326,0,0,1,9.961-7.516H7.617A2.376,2.376,0,0,0,7-9.113a2.271,2.271,0,0,0-1.605-.5,1.991,1.991,0,0,0-1.754.84,4.707,4.707,0,0,0-.6,2.605V-5.3a5.038,5.038,0,0,0,.559,2.7,1.954,1.954,0,0,0,1.762.852,2.314,2.314,0,0,0,1.621-.5A2.241,2.241,0,0,0,7.6-3.789ZM16.4-.859A2.831,2.831,0,0,1,14.086.156a2.67,2.67,0,0,1-2.074-.781,3.335,3.335,0,0,1-.73-2.289V-8.453h2.258v5.467q0,1.322,1.2,1.322a1.63,1.63,0,0,0,1.578-.8V-8.453h2.266V0H16.461ZM22.672,0H20.406V-12h2.266Zm4.563-10.531v2.078H28.68V-6.8H27.234v4.219a1.007,1.007,0,0,0,.18.672.9.9,0,0,0,.688.2,3.6,3.6,0,0,0,.664-.055V-.047a4.648,4.648,0,0,1-1.367.2,2.156,2.156,0,0,1-2.422-2.4V-6.8H23.742V-8.453h1.234v-2.078ZM35-.859A2.831,2.831,0,0,1,32.688.156a2.67,2.67,0,0,1-2.074-.781,3.335,3.335,0,0,1-.73-2.289V-8.453h2.258v5.467q0,1.322,1.2,1.322a1.63,1.63,0,0,0,1.578-.8V-8.453h2.266V0H35.063Zm8.641-5.477a6.134,6.134,0,0,0-.812-.062,1.654,1.654,0,0,0-1.68.867V0H38.891V-8.453h2.133l.063,1.008a2.092,2.092,0,0,1,1.883-1.164,2.366,2.366,0,0,1,.7.1ZM49.151,0a2.507,2.507,0,0,1-.227-.758,2.732,2.732,0,0,1-2.133.914,3,3,0,0,1-2.059-.719,2.312,2.312,0,0,1-.816-1.812,2.389,2.389,0,0,1,1-2.062,4.915,4.915,0,0,1,2.879-.727H48.83v-.484a1.393,1.393,0,0,0-.3-.937,1.183,1.183,0,0,0-.949-.352,1.345,1.345,0,0,0-.895.273.929.929,0,0,0-.324.75H44.1a2.268,2.268,0,0,1,.453-1.359,3,3,0,0,1,1.281-.98A4.669,4.669,0,0,1,47.7-8.609a3.689,3.689,0,0,1,2.48.785A2.747,2.747,0,0,1,51.1-5.617v3.664a4.041,4.041,0,0,0,.336,1.82V0ZM47.283-1.57a1.945,1.945,0,0,0,.922-.223,1.462,1.462,0,0,0,.625-.6V-3.844h-.844q-1.7,0-1.8,1.172l-.008.133a.9.9,0,0,0,.3.7A1.153,1.153,0,0,0,47.283-1.57ZM55.213,0H52.948V-12h2.266Z" transform="translate(924.064 1416.518)" fill="#12263f"/>
    <path id="Path_611077" data-name="Path 611077" d="M10.273,0H7.93V-4.875H3.359V0H1.016V-11.375H3.359v4.609H7.93v-4.609h2.344Zm4.281,0H12.289V-8.453h2.266Zm-2.4-10.641a1.112,1.112,0,0,1,.34-.836,1.277,1.277,0,0,1,.926-.328,1.28,1.28,0,0,1,.922.328,1.105,1.105,0,0,1,.344.836,1.108,1.108,0,0,1-.348.844,1.283,1.283,0,0,1-.918.328A1.283,1.283,0,0,1,12.5-9.8,1.108,1.108,0,0,1,12.156-10.641Zm8.836,8.3a.727.727,0,0,0-.41-.652,4.659,4.659,0,0,0-1.316-.426Q16.25-4.047,16.25-5.977a2.323,2.323,0,0,1,.934-1.879,3.766,3.766,0,0,1,2.441-.754,4.053,4.053,0,0,1,2.574.758,2.388,2.388,0,0,1,.965,1.969H20.906a1.092,1.092,0,0,0-.312-.8A1.322,1.322,0,0,0,19.617-7a1.351,1.351,0,0,0-.883.258.814.814,0,0,0-.312.656.7.7,0,0,0,.355.605,3.657,3.657,0,0,0,1.2.4A9.8,9.8,0,0,1,21.4-4.7,2.336,2.336,0,0,1,23.188-2.43,2.2,2.2,0,0,1,22.2-.559a4.28,4.28,0,0,1-2.562.715,4.47,4.47,0,0,1-1.887-.379,3.166,3.166,0,0,1-1.293-1.039,2.414,2.414,0,0,1-.469-1.426h2.141a1.179,1.179,0,0,0,.445.922,1.766,1.766,0,0,0,1.109.32,1.635,1.635,0,0,0,.98-.246A.766.766,0,0,0,20.992-2.336Zm6.352-8.2v2.078h1.445V-6.8H27.344v4.219a1.007,1.007,0,0,0,.18.672.9.9,0,0,0,.688.2,3.6,3.6,0,0,0,.664-.055V-.047a4.648,4.648,0,0,1-1.367.2,2.156,2.156,0,0,1-2.422-2.4V-6.8H23.852V-8.453h1.234v-2.078ZM29.461-4.3a5.013,5.013,0,0,1,.484-2.242A3.546,3.546,0,0,1,31.34-8.07a4.069,4.069,0,0,1,2.113-.539,3.849,3.849,0,0,1,2.793,1.047,4.2,4.2,0,0,1,1.207,2.844l.016.578A4.418,4.418,0,0,1,36.383-1.02,3.775,3.775,0,0,1,33.469.156a3.793,3.793,0,0,1-2.918-1.172A4.5,4.5,0,0,1,29.461-4.2Zm2.258.16A3.16,3.16,0,0,0,32.172-2.3a1.5,1.5,0,0,0,1.3.638,1.5,1.5,0,0,0,1.281-.63,3.457,3.457,0,0,0,.461-2.015A3.128,3.128,0,0,0,34.75-6.14a1.5,1.5,0,0,0-1.3-.649,1.474,1.474,0,0,0-1.281.646A3.516,3.516,0,0,0,31.719-4.144ZM33.9-12h2.461L34.2-9.578H32.359Zm9.711,5.664A6.134,6.134,0,0,0,42.8-6.4a1.654,1.654,0,0,0-1.68.867V0H38.859V-8.453h2.133l.063,1.008a2.092,2.092,0,0,1,1.883-1.164,2.366,2.366,0,0,1,.7.1ZM47.078,0H44.813V-8.453h2.266Zm-2.4-10.641a1.112,1.112,0,0,1,.34-.836,1.277,1.277,0,0,1,.926-.328,1.28,1.28,0,0,1,.922.328,1.105,1.105,0,0,1,.344.836,1.108,1.108,0,0,1-.348.844,1.283,1.283,0,0,1-.918.328,1.283,1.283,0,0,1-.918-.328A1.108,1.108,0,0,1,44.68-10.641Zm7.773,8.977a1.481,1.481,0,0,0,1.016-.344,1.2,1.2,0,0,0,.406-.914h2.117a2.9,2.9,0,0,1-.469,1.574A3.093,3.093,0,0,1,54.262-.238a3.949,3.949,0,0,1-1.77.395A3.67,3.67,0,0,1,49.633-1,4.56,4.56,0,0,1,48.586-4.18v-.148a4.508,4.508,0,0,1,1.039-3.117,3.627,3.627,0,0,1,2.852-1.164,3.555,3.555,0,0,1,2.543.9,3.2,3.2,0,0,1,.973,2.4H53.875a1.551,1.551,0,0,0-.406-1.072,1.354,1.354,0,0,0-1.031-.412,1.36,1.36,0,0,0-1.191.575,3.333,3.333,0,0,0-.4,1.866v.235a3.375,3.375,0,0,0,.4,1.878A1.377,1.377,0,0,0,52.453-1.664ZM56.93-4.3a5.013,5.013,0,0,1,.484-2.242A3.546,3.546,0,0,1,58.809-8.07a4.069,4.069,0,0,1,2.113-.539,3.849,3.849,0,0,1,2.793,1.047,4.2,4.2,0,0,1,1.207,2.844l.016.578A4.418,4.418,0,0,1,63.852-1.02,3.775,3.775,0,0,1,60.938.156,3.793,3.793,0,0,1,58.02-1.016,4.5,4.5,0,0,1,56.93-4.2Zm2.258.16A3.16,3.16,0,0,0,59.641-2.3a1.5,1.5,0,0,0,1.3.638,1.5,1.5,0,0,0,1.281-.63,3.457,3.457,0,0,0,.461-2.015,3.128,3.128,0,0,0-.461-1.831,1.5,1.5,0,0,0-1.3-.649,1.474,1.474,0,0,0-1.281.646A3.516,3.516,0,0,0,59.188-4.144Z" transform="translate(919.064 1460.521)" fill="#12263f"/>
    <path id="Path_611078" data-name="Path 611078" d="M9.945-3.789A4.025,4.025,0,0,1,8.59-.9,4.76,4.76,0,0,1,5.367.156,4.28,4.28,0,0,1,1.926-1.316,6.038,6.038,0,0,1,.672-5.359v-.7A6.819,6.819,0,0,1,1.25-8.945,4.332,4.332,0,0,1,2.9-10.863a4.629,4.629,0,0,1,2.5-.668A4.637,4.637,0,0,1,8.57-10.477,4.326,4.326,0,0,1,9.961-7.516H7.617A2.376,2.376,0,0,0,7-9.113a2.271,2.271,0,0,0-1.605-.5,1.991,1.991,0,0,0-1.754.84,4.707,4.707,0,0,0-.6,2.605V-5.3a5.038,5.038,0,0,0,.559,2.7,1.954,1.954,0,0,0,1.762.852,2.314,2.314,0,0,0,1.621-.5A2.241,2.241,0,0,0,7.6-3.789ZM13.719,0H11.453V-8.453h2.266Zm-2.4-10.641a1.112,1.112,0,0,1,.34-.836,1.277,1.277,0,0,1,.926-.328,1.28,1.28,0,0,1,.922.328,1.105,1.105,0,0,1,.344.836A1.108,1.108,0,0,1,13.5-9.8a1.283,1.283,0,0,1-.918.328,1.283,1.283,0,0,1-.918-.328A1.108,1.108,0,0,1,11.32-10.641ZM19.469.156A4.15,4.15,0,0,1,16.441-.984a4.054,4.054,0,0,1-1.168-3.039v-.219a5.106,5.106,0,0,1,.492-2.277A3.612,3.612,0,0,1,17.16-8.066a3.914,3.914,0,0,1,2.059-.543,3.508,3.508,0,0,1,2.73,1.094,4.444,4.444,0,0,1,1,3.1v.922H17.563a2.1,2.1,0,0,0,.66,1.328,2,2,0,0,0,1.395.5,2.437,2.437,0,0,0,2.039-.945l1.109,1.242A3.389,3.389,0,0,1,21.391-.246,4.511,4.511,0,0,1,19.469.156Zm-.258-6.945a1.411,1.411,0,0,0-1.09.455,2.357,2.357,0,0,0-.535,1.3h3.141v-.181a1.681,1.681,0,0,0-.406-1.165A1.456,1.456,0,0,0,19.211-6.789ZM26.3-8.453l.07.977A2.951,2.951,0,0,1,28.8-8.609a2.453,2.453,0,0,1,2,.789,3.682,3.682,0,0,1,.672,2.359V0H29.219V-5.406a1.465,1.465,0,0,0-.312-1.043,1.4,1.4,0,0,0-1.039-.324,1.553,1.553,0,0,0-1.43.813V0H24.18V-8.453Zm9.586-2.078v2.078h1.445V-6.8H35.891v4.219a1.007,1.007,0,0,0,.18.672.9.9,0,0,0,.688.2,3.6,3.6,0,0,0,.664-.055V-.047a4.648,4.648,0,0,1-1.367.2,2.156,2.156,0,0,1-2.422-2.4V-6.8H32.4V-8.453h1.234v-2.078ZM41.031,0H38.773V-8.453h2.258Zm-.664-11.883h2.461L40.664-9.461H38.828ZM43.523,0V-6.8H42.266V-8.453h1.258v-.391A3.17,3.17,0,0,1,44.5-11.3a3.945,3.945,0,0,1,2.723-.863,9.031,9.031,0,0,1,2.563.461l-.328,1.867a10,10,0,0,0-1.187-.293,5.835,5.835,0,0,0-.906-.066q-1.578,0-1.578,1.4v.344h1.664V-6.8H45.789V0Zm7.32,0H48.578V-8.453h2.266Zm5.383-1.664a1.481,1.481,0,0,0,1.016-.344,1.2,1.2,0,0,0,.406-.914h2.117A2.9,2.9,0,0,1,59.3-1.348,3.093,3.093,0,0,1,58.035-.238a3.949,3.949,0,0,1-1.77.395A3.67,3.67,0,0,1,53.406-1,4.56,4.56,0,0,1,52.359-4.18v-.148A4.508,4.508,0,0,1,53.4-7.445,3.627,3.627,0,0,1,56.25-8.609a3.555,3.555,0,0,1,2.543.9,3.2,3.2,0,0,1,.973,2.4H57.648a1.551,1.551,0,0,0-.406-1.072,1.354,1.354,0,0,0-1.031-.412,1.36,1.36,0,0,0-1.191.575,3.333,3.333,0,0,0-.4,1.866v.235a3.375,3.375,0,0,0,.4,1.878A1.377,1.377,0,0,0,56.227-1.664ZM60.7-4.3a5.013,5.013,0,0,1,.484-2.242A3.546,3.546,0,0,1,62.582-8.07,4.069,4.069,0,0,1,64.7-8.609a3.849,3.849,0,0,1,2.793,1.047A4.2,4.2,0,0,1,68.7-4.719l.016.578A4.418,4.418,0,0,1,67.625-1.02,3.775,3.775,0,0,1,64.711.156a3.793,3.793,0,0,1-2.918-1.172A4.5,4.5,0,0,1,60.7-4.2Zm2.258.16A3.16,3.16,0,0,0,63.414-2.3a1.5,1.5,0,0,0,1.3.638,1.5,1.5,0,0,0,1.281-.63,3.457,3.457,0,0,0,.461-2.015,3.128,3.128,0,0,0-.461-1.831,1.5,1.5,0,0,0-1.3-.649,1.474,1.474,0,0,0-1.281.646A3.516,3.516,0,0,0,62.961-4.144Z" transform="translate(917.064 1504.525)" fill="#12263f"/>
    <path id="Path_610966" data-name="Path 610966" d="M148.65,1215.485c0,7.965-33.275,14.422-74.326,14.422S0,1223.45,0,1215.485s33.276-14.422,74.324-14.422,74.326,6.457,74.326,14.422" transform="translate(390 377.643)" fill="#dfdfdf"/>
    <path id="Path_610967" data-name="Path 610967" d="M333.2,294.618l3.4.741s9.292,39.982,5.8,49.474-9.115.095-10.873-.763-17.286-44.857-17.286-44.857Z" transform="translate(162.812 1032.993)" fill="#e28262"/>
    <path id="Path_610968" data-name="Path 610968" d="M342.141,314.4l-6.108-46.437c-3.637-12.217-17.063-7.7-17.063-7.7-10.07,3.734-8.47,11.658-8.47,11.658l13.793,47.712s2.612,7.243,12.18,6.28c0,0,6.965-1.665,5.669-11.509" transform="translate(165.579 1058.427)" fill="#00172f"/>
    <path id="Path_610969" data-name="Path 610969" d="M337.051,1193.7s1.8,7.021,4.018,8.925,10.675,4.705,10.675,4.705l4.686.673s3.257,2.336-5.683,4.792-24.624-4.957-24.624-4.957l3.535-14.352Z" transform="translate(154.216 383.119)" fill="#251110"/>
    <path id="Path_610970" data-name="Path 610970" d="M151.186,1207.469c-1.578-2.459-4.885-15.856-4.885-15.856l-7.3-.222-4.57,14.752s-.734,2.469.757,3.393c0,0,9.109,3.162,16.888-.151a5.393,5.393,0,0,0-.889-1.916" transform="translate(292.939 384.635)" fill="#251110"/>
    <path id="Path_610971" data-name="Path 610971" d="M188.936,302.686l9.324-57s3.214-8.567-3.212-12.85l-24.493-11.513H153.28l-29.447,17.4,19.3,63.956Z" transform="translate(300.47 1085.981)" fill="#f39672"/>
    <path id="Path_610972" data-name="Path 610972" d="M176.37,515.032s-5.29,12.077-6.565,39.841c0,0,39.811,12.486,52.3,0l.07-39.841Z" transform="translate(267.233 873.636)" fill="#001f3d"/>
    <path id="Path_610973" data-name="Path 610973" d="M202.472,614.705a16.339,16.339,0,1,1-16.454-16.749,16.605,16.605,0,0,1,16.454,16.749" transform="translate(267.228 813.683)" fill="#001f3d"/>
    <path id="Path_610974" data-name="Path 610974" d="M165.633,647.119l-1.62,71.4s4.955,17.994,18.528,6.649l14.734-72.983s-7.152-24.528-31.641-5.071" transform="translate(271.42 783.563)" fill="#001f3d"/>
    <path id="Path_610975" data-name="Path 610975" d="M146.95,905.1s-7.46,14.189-6.247,37.386l-1.213,43.368,12.311.367L164.739,913.3s-6.856-24.48-17.789-8.2" transform="translate(289.15 595.659)" fill="#001f3d"/>
    <path id="Path_610976" data-name="Path 610976" d="M281.617,618.484c.945,9.268-2.365,17.2-11.34,18.113a16.878,16.878,0,0,1-3.424-33.564c8.974-.916,13.819,6.181,14.763,15.451" transform="translate(207.641 810.069)" fill="#001f3d"/>
    <path id="Path_610977" data-name="Path 610977" d="M266.381,664.656l10.233,66.1s15.265,8.594,18.44-2.5c0,0,.2-51.191-3.2-75.8,0,0-22.069-10.75-25.468,12.2" transform="translate(197.409 776.1)" fill="#001f3d"/>
    <path id="Path_610978" data-name="Path 610978" d="M299.713,924.162s-2.947,10.863-.237,28.367l6.688,48.985,13.174-.931-1.185-78.917s-7.251-10.967-18.439,2.5" transform="translate(174.31 582.688)" fill="#001f3d"/>
    <path id="Path_610979" data-name="Path 610979" d="M117.136,309.448l-3.358.9s-5.237,40.19-1.306,49.509,7.624.076,9.334-.862,14.486-45.828,14.486-45.828Z" transform="translate(309.741 1022.271)" fill="#f39672"/>
    <path id="Path_610980" data-name="Path 610980" d="M125.469,332.366l11-47.333c-2.269-12.8-14.455-11.9-14.455-11.9-10.7.972-11.221,9.038-11.221,9.038l-.707,48.14s-.707,8.228,5.494,7.791c0,0,8.877-1.387,9.888-5.737" transform="translate(310.426 1048.536)" fill="#00172f"/>
    <path id="Path_610981" data-name="Path 610981" d="M229.822,175.879v18.463h19.524s-4.8-7.319-2.4-18.463Z" transform="translate(223.841 1118.84)" fill="#f39672"/>
    <path id="Path_610982" data-name="Path 610982" d="M239.727,191.559c1.76,1.131,5.5,3.542,7.634,2.132a2.021,2.021,0,0,0,.927-1.432,27.02,27.02,0,0,1-1.34-16.38H229.822v1.675c2.137,5.4,4.877,10.763,9.9,14.005" transform="translate(223.841 1118.84)" fill="#db765e"/>
    <path id="Path_610983" data-name="Path 610983" d="M198.022,78.624s-3.323-1.443-7.085-9.667c0,0-8.168-9.726-2.378-20.767,0,0,3.422-9.337,20-6.724,0,0,1.489,25.025-10.536,37.158" transform="translate(255.174 1216.353)" fill="#f3906b"/>
    <path id="Path_610984" data-name="Path 610984" d="M228.3,83.616l1.106-2.894s3.051-10.772,3.051-10.774a11.173,11.173,0,0,0,.16-4.559,11.184,11.184,0,0,1-.044-4.694c1.924-7.747-2.046-12.144-2.046-12.144C226.151,41.244,215.381,41,215.381,41c-13.333.346-14.751,13.208-14.751,13.208-2.362,8.52,4.293,15.818,4.3,15.833.532.581.188,3.4.331,4.2.625,3.435,3.849,5.615,6.715,7.132,3.15,1.664,6.965,3.446,10.521,3.855,1.35.156,5.165.044,5.8-1.616" transform="translate(245.313 1216.354)" fill="#f39672"/>
    <path id="Path_610986" data-name="Path 610986" d="M266.161,112.162c.022.763-.385,1.392-.9,1.407s-.955-.591-.975-1.355.383-1.392.9-1.408.959.594.979,1.356" transform="translate(198.926 1165.888)" fill="#341e13"/>
    <path id="Path_610987" data-name="Path 610987" d="M304.021,110.72c.052.763-.329,1.407-.848,1.441s-.975-.554-1.026-1.318.329-1.409.847-1.442.979.557,1.027,1.319" transform="translate(171.554 1166.904)" fill="#341e13"/>
    <path id="Path_610988" data-name="Path 610988" d="M259.074,102.221c.33.1.447-.352.447-.352a1.564,1.564,0,0,0,.036-.81.783.783,0,0,0-.371-.436,11.407,11.407,0,0,0-4.022.227c-.808.177-2.136.671-2.271,1.394-.041.216-.089.591.153.675a32.545,32.545,0,0,1,6.028-.7" transform="translate(207.184 1173.318)" fill="#50220a"/>
    <path id="Path_610989" data-name="Path 610989" d="M304.418,100.9a28.126,28.126,0,0,0-4.685.144c-.318.136-.488-.291-.49-.291a1.6,1.6,0,0,1-.141-.8.781.781,0,0,1,.313-.48,8.491,8.491,0,0,1,3.486-.286,6.845,6.845,0,0,1,1.717.362,3.369,3.369,0,0,1-.2,1.351" transform="translate(173.757 1174.322)" fill="#50220a"/>
    <path id="Path_610990" data-name="Path 610990" d="M281.823,151.086a.375.375,0,0,1,.325.56s-1.427,3.446-3.718,3.555-4.047-3.182-4.047-3.182c-.171-.318,0-.594.369-.617,0,0,3.958-.23,7.071-.317" transform="translate(191.673 1136.766)" fill="#fff"/>
    <path id="Path_610991" data-name="Path 610991" d="M139.963,301.138c.04,1.9-2.843,21.765-1.633,22.018.008,0,32.959,7.6,50.535,0l.07-20.47,9.324-57s3.214-8.567-3.212-12.85l-24.493-11.513,1.652,4.966-3.54,10.071L153.28,221.327l-29.447,17.4q2.467,8.178,4.926,16.361c3.037,10.053,5.991,20.135,9.119,30.159,0,0,2.588,10.873,2.086,15.887" transform="translate(300.47 1085.981)" fill="#95d2e2"/>
    <path id="Path_610992" data-name="Path 610992" d="M268.648,234.264l-.2,9.177-3.382-3.305Z" transform="translate(198.362 1076.628)" fill="#3aa0bf"/>
    <path id="Path_610993" data-name="Path 610993" d="M286.708,284.267a1.31,1.31,0,1,1-1.31-1.308,1.31,1.31,0,0,1,1.31,1.308" transform="translate(184.607 1041.422)" fill="#d2eae6"/>
    <path id="Path_610994" data-name="Path 610994" d="M286.708,370.1a1.31,1.31,0,1,1-1.31-1.31,1.31,1.31,0,0,1,1.31,1.31" transform="translate(184.607 979.368)" fill="#d2eae6"/>
    <path id="Path_610995" data-name="Path 610995" d="M286.708,455.927a1.31,1.31,0,1,1-1.31-1.308,1.309,1.309,0,0,1,1.31,1.308" transform="translate(184.607 917.313)" fill="#d2eae6"/>
    <path id="Path_610996" data-name="Path 610996" d="M286.708,541.759a1.31,1.31,0,1,1-1.31-1.31,1.31,1.31,0,0,1,1.31,1.31" transform="translate(184.607 855.26)" fill="#d2eae6"/>
    <path id="Path_611079" data-name="Path 611079" d="M0,0V90.234" transform="translate(467.01 1321.114)" fill="none" stroke="#71c5df" stroke-width="2.558"/>
    <path id="Path_610997" data-name="Path 610997" d="M223.051,579.769s-16.832,7.886-51.276-.173c-.566-.135-.326-1.6-.326-1.6l.326-3.316c.151-1.063.744-1.013.744-1.013s32.957,7.6,50.532,0c0,0,.709-.124.74.94v4.134a1.091,1.091,0,0,1-.74,1.032" transform="translate(266.081 831.25)" fill="#3d1a0c"/>
    <path id="Path_610998" data-name="Path 610998" d="M273.8,589.665a.941.941,0,0,1-.929.952h-6.705a.94.94,0,0,1-.927-.952v-4.828a.94.94,0,0,1,.927-.952h6.705a.941.941,0,0,1,.929.952Z" transform="translate(198.235 823.855)" fill="none" stroke="#bababa" stroke-miterlimit="10" stroke-width="4.186"/>
    <path id="Path_611080" data-name="Path 611080" d="M0,0H3.547" transform="translate(463.474 1410.803)" fill="none" stroke="#bababa" stroke-width="4.186"/>
    <path id="Path_610999" data-name="Path 610999" d="M234.834,211.659s-10.8-4.2-13.347-8.375l-3.194,6.085,11.392,10.924,5.149-8.427" transform="translate(232.176 1099.026)" fill="#77c7df"/>
    <path id="Path_611000" data-name="Path 611000" d="M175.245,28.139c4.355,13.13,10.811,17.854,10.811,17.854s-1.775-9.993,3.507-8.625l.913-.05s-1.818-5.858,1.947-8.75c-1.786-2.3-.334-6.879.026-7.535,1.826-3.3,7.1-1.893,10.179-2.765,2.384-.676,8.313-1.683,9.679,1.2,10.35-.3,5.123-12.843,5.123-12.843a4.948,4.948,0,0,1-3.355,4.55C217.357,7.216,212.954,0,212.954,0c-4.478,3.588-16.229,4.321-16.229,4.321-8.452-.265-10.544,5.15-10.544,5.15s-15.722,3.093-10.936,18.663" transform="translate(263.955 1245.995)" fill="#50220a"/>
    <path id="Path_611001" data-name="Path 611001" d="M208.961,129.289a2.959,2.959,0,0,1-1.876.671,4.327,4.327,0,0,1-4.144-4.254,3.966,3.966,0,0,1,3.549-4.491,3.73,3.73,0,0,1,2.688,1.079c1.068,1.019,1.191,2.984,1.016,4.353a4.055,4.055,0,0,1-1.234,2.642" transform="translate(243.283 1158.362)" fill="#f39672"/>
    <path id="Path_611002" data-name="Path 611002" d="M212.492,127.086c-.185-1.263-2.692.069-2.273.764a3.865,3.865,0,0,0,1.076.953,1.879,1.879,0,0,1,.852,1.35c.012.073.036.292-.036.349-.32.246-1.465-.945-1.717-1.193a2.13,2.13,0,0,1-.4-2.015,1.274,1.274,0,0,1,1.366-1.016c.576.006,1.165.018,1.165.736,0,.017-.022.137-.03.073" transform="translate(238.245 1154.702)" fill="#e47a5d"/>
    <path id="Path_611003" data-name="Path 611003" d="M212.92,133.729c.253-.28.517-.07.8.115a1.207,1.207,0,0,1,.5.727,2.979,2.979,0,0,1-.224,2.13,1.594,1.594,0,0,1-1.342.8c-.774.011-1.036-.66-1.1-1.313-.016-.173-.05-.588.117-.7s.324.155.453.273a1.076,1.076,0,0,0,.665.217,1.4,1.4,0,0,0,1.128-.566.768.768,0,0,0,.106-.2c.019.428,0,.526-.056.291a1.154,1.154,0,0,0-.16-.294c-.191-.289-.506-.478-.715-.75-.1-.127-.3-.578-.175-.722" transform="translate(237.058 1149.412)" fill="#e47a5d"/>
    <path id="Path_611004" data-name="Path 611004" d="M148.388,231.766l13.1,46.01-1.942,83.6s-20.352-1.245-29.245-9.293l6.271-48.829-12.734-56.971Z" transform="translate(300.469 1078.435)" fill="#00172f"/>
    <path id="Path_611005" data-name="Path 611005" d="M198.936,231.766l13.1,46.01-.054,2.185-16.5-16.885s-1.734-2.93.615-4.664l3.9-3.728-2.78-1.993s-3.9-1.89-3.424-5.435l1.116-13.323Z" transform="translate(249.921 1078.435)" fill="#002141"/>
    <path id="Path_611006" data-name="Path 611006" d="M311.741,232.934l14.915,7.01s8.488,2.241,6.753,11.036L328.5,299.7l2.457,51.626s2.1,9.593-15.191,7.968l-6.118-81.919Z" transform="translate(166.125 1077.59)" fill="#00172f"/>
    <path id="Path_611007" data-name="Path 611007" d="M295.641,216.7s-.994-3.844-5.864-7.091l.637,13.249s2.7-6.778,5.227-6.158" transform="translate(180.494 1094.456)" fill="#77c7df"/>
    <path id="Path_611008" data-name="Path 611008" d="M301.2,241.251l-.441-6.158c-1.487-.365-2.818,1.718-3.9,3.425Z" transform="translate(175.372 1076.059)" fill="#3aa0bf"/>
    <path id="Path_611009" data-name="Path 611009" d="M266.04,244.3l-.4-.745-2.717,4.17,2.334.832Z" transform="translate(199.909 1069.914)" fill="#003370"/>
    <path id="Path_611010" data-name="Path 611010" d="M296.861,244.521l.764-1.167a3.135,3.135,0,0,1-.147,5.057,13.488,13.488,0,0,0-.617-3.889" transform="translate(175.372 1070.057)" fill="#003370"/>
    <path id="Path_611011" data-name="Path 611011" d="M272.043,246.239s2.3,2.047,6.285.368a4.7,4.7,0,0,1,.617,3.889l-2.063,4.256H274l-2.739-4.256s-.283-.939.782-4.257" transform="translate(193.905 1067.971)" fill="#00408d"/>
    <path id="Path_611012" data-name="Path 611012" d="M275.156,276.973l-2.33,60.9,4.863,9.46,3.968-9.412-3.62-60.949Z" transform="translate(192.749 1045.75)" fill="#003370"/>
    <path id="Path_611013" data-name="Path 611013" d="M311.836,232.934l3.843,1.809,2.779,12.827s1.391,3.321-.625,4.19l-3.623,2.114,5.109,3.233s2.688,1.684,1.034,4.165l-10.247,20.005-.322-3.42Z" transform="translate(166.03 1077.59)" fill="#002141"/>
    <path id="Path_611014" data-name="Path 611014" d="M170.478,401.62l-5.99-4.73s-9.014-1.323-13.516-.754c0,0-1.489,2.07,9.88,2.387,0,0-7.974,2.547-10.533,4.443,0,0-.411,2.359,6.882-1.068l3.319-.244L152.8,405.5s.3,1.468,7.328-.44l7.043.773Z" transform="translate(281.324 959.699)" fill="#f39672"/>
    <path id="Path_611015" data-name="Path 611015" d="M252.554,407.43l-38.588-4.615a14.238,14.238,0,0,0-2.96,11.113l49.29,15.633s13.023,2.31,9.587-13.373c0,0-5.5-8-17.329-8.758" transform="translate(237.59 954.768)" fill="#00152c"/>
    <path id="Path_611016" data-name="Path 611016" d="M326.107,399.917s-6.932,3.737-9.534,4.034l-4.034-6.962,5.512-3.575,3.78-.87s6.216-1.6,7.854,6.926Z" transform="translate(164.037 962.28)" fill="#f39672"/>
    <path id="Path_611017" data-name="Path 611017" d="M111.578,422.152c-2.332,14.1,7.922,10.538,7.922,10.538l52.286-18.818c-1.473-8.1-4.79-9.37-4.79-9.37l-44.718,8.533s-8.413,2.644-10.7,9.117" transform="translate(309.579 953.548)" fill="#002141"/>
    <path id="Path_611081" data-name="Path 611081" d="M0,0H148.65V361.549H0Z" transform="translate(390 1246)" fill="none"/>
    <path id="Path_610915" data-name="Path 610915" d="M113.458,26.333s-1.012,3.506.312,5.374-.079,2.648-1.947,2.337" transform="translate(357.519 1251.754)" fill="none" stroke="#000" stroke-linecap="round" stroke-linejoin="round" stroke-width="1"/>
  </g>
</svg>
