<svg xmlns="http://www.w3.org/2000/svg" xmlns:xlink="http://www.w3.org/1999/xlink" width="139" height="139" viewBox="0 0 139 139">
  <defs>
    <clipPath id="clip-path">
      <rect id="Rectangle_377985" data-name="Rectangle 377985" width="76.77" height="77.172" fill="none"/>
    </clipPath>
  </defs>
  <g id="Group_1072941" data-name="Group 1072941" transform="translate(-1005 -1034.301)">
    <g id="Group_1072612" data-name="Group 1072612" transform="translate(697 -8499.699)">
      <path id="Path_610095" data-name="Path 610095" d="M0,0H139V129H0Z" transform="translate(308 9544)" fill="#fff"/>
      <path id="Path_610091" data-name="Path 610091" d="M22.575,30.448C22.507,30.139,15.022,0,6.941,0c-.1,0-.2,0-.3.014A4.466,4.466,0,0,0,2.813,2.285c-1.073,2.033-.469,4.949.35,7.272h1.9c-.836-2.187-1.5-4.889-.681-6.447A2.78,2.78,0,0,1,6.8,1.775c.054-.005.109-.008.164-.008,4.91,0,11.93,20.263,13.879,29.063.687,3.106-.943,5.749-2.916,6.508-2.335.9-4.937-.678-6.954-4.222a107.507,107.507,0,0,1-9.236-22.89.885.885,0,1,0-1.713.441A109.479,109.479,0,0,0,9.439,33.991c2.514,4.417,5.28,5.352,7.169,5.351a5.516,5.516,0,0,0,1.959-.352c3.1-1.193,4.821-4.865,4.007-8.542" transform="translate(408.271 9534.397) rotate(-1)" fill="#515151"/>
      <path id="Path_610092" data-name="Path 610092" d="M1.363.436A.709.709,0,1,0,.054.982L1.13,3.557H2.666Z" transform="translate(417.473 9540.258) rotate(-1)" fill="#515151"/>
    </g>
    <g id="Group_1072654" data-name="Group 1072654" transform="translate(1036 1067.892)">
      <g id="Group_1072653" data-name="Group 1072653" transform="translate(0 0)" clip-path="url(#clip-path)">
        <path id="Path_610146" data-name="Path 610146" d="M51.115,43.823a21.135,21.135,0,0,1,.669,5.082,18.457,18.457,0,0,1-36.914,0,21.135,21.135,0,0,1,.669-5.082A18.256,18.256,0,0,1,33.192,30.448,18.578,18.578,0,0,1,51.115,43.823" transform="translate(4.79 9.809)" fill="#5165a2"/>
        <path id="Path_610147" data-name="Path 610147" d="M25.144,11.5A20.09,20.09,0,0,1,63.4,20.062v.4a15.935,15.935,0,0,1,9.5,5.751A16.713,16.713,0,0,1,60.052,53.633H56.04a18.339,18.339,0,0,0-35.309,0H16.718A16.128,16.128,0,0,1,4.95,48.684,16.585,16.585,0,0,1,0,36.914,16.406,16.406,0,0,1,4.013,26.08a14.176,14.176,0,0,1-.668-4.146A13.413,13.413,0,0,1,16.718,8.56,12.947,12.947,0,0,1,25.144,11.5" transform="translate(0 0.001)" fill="#40b3e2"/>
        <path id="Path_610148" data-name="Path 610148" d="M38.981,43.71,32.292,33.679a1.772,1.772,0,0,0-1.335-.8,1.471,1.471,0,0,0-1.338.8L22.93,43.71a1.633,1.633,0,1,0,2.676,1.872L29.217,40.1V59.626a1.739,1.739,0,0,0,3.477,0V40.1l3.612,5.483a1.47,1.47,0,0,0,1.337.8,2.482,2.482,0,0,0,.936-.267,1.712,1.712,0,0,0,.4-2.408" transform="translate(7.295 10.591)" fill="#fff"/>
      </g>
    </g>
  </g>
</svg>
