<svg xmlns="http://www.w3.org/2000/svg" xmlns:xlink="http://www.w3.org/1999/xlink" width="295" height="271" viewBox="0 0 295 271">
  <defs>
    <clipPath id="clip-path">
      <rect id="Rectangle_378141" data-name="Rectangle 378141" width="239.992" height="168.536" fill="none"/>
    </clipPath>
    <clipPath id="clip-path-3">
      <rect id="Rectangle_378132" data-name="Rectangle 378132" width="132.576" height="24.391" fill="none"/>
    </clipPath>
    <clipPath id="clip-path-4">
      <rect id="Rectangle_378133" data-name="Rectangle 378133" width="56.635" height="10.938" fill="none"/>
    </clipPath>
    <clipPath id="clip-path-5">
      <rect id="Rectangle_378134" data-name="Rectangle 378134" width="152.469" height="39.717" fill="none"/>
    </clipPath>
    <clipPath id="clip-path-6">
      <rect id="Rectangle_378135" data-name="Rectangle 378135" width="120.339" height="94.672" fill="none"/>
    </clipPath>
    <clipPath id="clip-path-7">
      <rect id="Rectangle_378136" data-name="Rectangle 378136" width="54.657" height="49.516" fill="none"/>
    </clipPath>
    <clipPath id="clip-path-8">
      <rect id="Rectangle_378137" data-name="Rectangle 378137" width="52.691" height="47.724" fill="none"/>
    </clipPath>
    <clipPath id="clip-path-9">
      <rect id="Rectangle_378138" data-name="Rectangle 378138" width="48.03" height="31.09" fill="none"/>
    </clipPath>
    <clipPath id="clip-path-10">
      <rect id="Rectangle_378139" data-name="Rectangle 378139" width="42.489" height="33.105" fill="none"/>
    </clipPath>
  </defs>
  <g id="Group_1073069" data-name="Group 1073069" transform="translate(-1020 -1051.668)">
    <rect id="Rectangle_378092" data-name="Rectangle 378092" width="295" height="271" transform="translate(1020 1051.668)" fill="#ebddcf"/>
    <g id="Group_1073068" data-name="Group 1073068" transform="translate(1047.504 1096.668)">
      <g id="Group_1073067" data-name="Group 1073067" clip-path="url(#clip-path)">
        <g id="Group_1073066" data-name="Group 1073066" transform="translate(0 0)">
          <g id="Group_1073065" data-name="Group 1073065" clip-path="url(#clip-path)">
            <path id="Path_610930" data-name="Path 610930" d="M133.231,76.848a23.19,23.19,0,0,1,10.3.787c1.477.4,4.794,1.65,5.67,4.8-3.3,2.238-7.832,4.4-11.111,6.667a1.048,1.048,0,0,1-1.545-.581,43.146,43.146,0,0,0-3.855-10.241.972.972,0,0,1,.538-1.427" transform="translate(86.193 49.777)" fill="#b1764a"/>
            <path id="Path_610931" data-name="Path 610931" d="M69.07,76.737a22.447,22.447,0,0,0-10.144.649c-1.479.4-3.216.886-4,2.153a25.955,25.955,0,0,0-.589,2.7q4.95,3.356,9.878,6.744a1.047,1.047,0,0,0,1.543-.581,43.146,43.146,0,0,1,3.855-10.241.971.971,0,0,0-.538-1.427" transform="translate(35.325 49.683)" fill="#b1764a"/>
            <path id="Path_610932" data-name="Path 610932" d="M190.445,88.226c.1-2.116-1.515-4.045-2.2-6.012-.883-2.518-.908-4.984-1.223-7.592a.741.741,0,0,0-.191-.4,1.235,1.235,0,0,0-.979-1.144c-18.977-5.028-38.761-1.066-58.007.068q-17.5,1.03-35.051,1.048c-10.21.01-20.7-1.191-30.855-.2L61.908,74a.575.575,0,0,0-.18.051.588.588,0,0,0-.386.482c-.008.033-.033.054-.036.087-.317,2.609-.34,5.074-1.224,7.592-.69,1.967-2.3,3.9-2.2,6.012a.535.535,0,0,0,.8.449c.056-.033.1-.081.158-.117.016.013.023.028.041.04,8.213,5.012,19.051,4.848,28.37,5.482,11.234.762,22.5.982,33.754.873,12.246-.117,24.49-.549,36.716-1.233,10.677-.6,21.4-.848,31.736-3.835a1.1,1.1,0,0,0,.835-1.318.528.528,0,0,0,.16-.34" transform="translate(37.628 45.893)" fill="#a76534"/>
            <g id="Group_1073043" data-name="Group 1073043" transform="translate(95.502 116.479)" style="mix-blend-mode: multiply;isolation: isolate">
              <g id="Group_1073042" data-name="Group 1073042">
                <g id="Group_1073041" data-name="Group 1073041" clip-path="url(#clip-path-3)">
                  <path id="Path_610933" data-name="Path 610933" d="M190.445,88.226c.1-2.116-1.515-4.045-2.2-6.012-.883-2.518-.908-4.984-1.223-7.592a.741.741,0,0,0-.191-.4,1.235,1.235,0,0,0-.979-1.144c-18.977-5.028-38.761-1.066-58.007.068q-17.5,1.03-35.051,1.048c-10.21.01-20.7-1.191-30.855-.2L61.908,74a.575.575,0,0,0-.18.051.588.588,0,0,0-.386.482c-.008.033-.033.054-.036.087-.317,2.609-.34,5.074-1.224,7.592-.69,1.967-2.3,3.9-2.2,6.012a.535.535,0,0,0,.8.449c.056-.033.1-.081.158-.117.016.013.023.028.041.04,8.213,5.012,19.051,4.848,28.37,5.482,11.234.762,22.5.982,33.754.873,12.246-.117,24.49-.549,36.716-1.233,10.677-.6,21.4-.848,31.736-3.835a1.1,1.1,0,0,0,.835-1.318.528.528,0,0,0,.16-.34" transform="translate(-57.874 -70.586)" fill="#cca689"/>
                </g>
              </g>
            </g>
            <path id="Path_610934" data-name="Path 610934" d="M199.089,86.331c-2.112-4.238-4.409-7.419-8.47-7.482a158.262,158.262,0,0,1-25.578,4.383c-17.2,1.454-34.65,1.38-51.9,1.084a269.386,269.386,0,0,1-27.756-1.729c-7.764-.939-16.149-1.447-24.122-4.508-3.117,1.855-2.317,5.746-3.384,8.678A44.434,44.434,0,0,0,55.6,98.023c-.1,1.109-.163,2.2-.2,3.282a13.785,13.785,0,0,0,3.281,2.822c12.391,7.62,27.363,8,41.328,9.186a389.147,389.147,0,0,0,47.03.825c14.518-.487,30.14-1.937,44.149-5.728,4.464-1.208,7.7-3.142,9.827-6.287-.653-3.677-.111-12.153-1.924-15.792" transform="translate(36.018 50.764)" fill="#b1764a"/>
            <path id="Path_610935" data-name="Path 610935" d="M187.2,76.014c-1.327-3.33-9.536-5.683-12.271-6.051A366.075,366.075,0,0,0,114,66.856c-14.688.267-31.314-.479-45.493,3.711-2.695.8-7.782,3.4-8.858,6.2-2.421,6.3,18.586,7.446,21.774,7.634,15.422.913,30.974.691,46.375.909,13.583.191,49.269-.677,57.449-5.241a4.444,4.444,0,0,0,2.137-3.221,2.43,2.43,0,0,0-.18-.835" transform="translate(38.654 43.37)" fill="#f9c84b"/>
            <path id="Path_610936" data-name="Path 610936" d="M201.534,81.36c-.536-.718-1.261-1.99-1.772-2.116a10.715,10.715,0,0,1-3.99,2,160.732,160.732,0,0,1-29.2,5.3c-17.2,1.454-34.649,1.38-51.9,1.084A269.407,269.407,0,0,1,86.92,85.9c-9.548-1.153-20.031-1.658-29.533-7.054-.776-.441-1.416-1.284-1.751-.366-3.3,9.061-4.99,23.078,4.576,28.96,12.393,7.62,27.365,8,41.33,9.186a389.141,389.141,0,0,0,47.03.825c14.52-.487,30.139-1.937,44.147-5.728,6.823-1.847,10.82-5.328,12.3-12.363,1.208-5.757.231-13.013-3.484-18" transform="translate(34.484 50.755)" fill="#a76534"/>
            <g id="Group_1073046" data-name="Group 1073046" transform="translate(136.561 112.369)" style="mix-blend-mode: multiply;isolation: isolate">
              <g id="Group_1073045" data-name="Group 1073045">
                <g id="Group_1073044" data-name="Group 1073044" clip-path="url(#clip-path-4)">
                  <path id="Path_610937" data-name="Path 610937" d="M91.3,69.474c-2.32.581-8.724,1.416-8.536,5.012.262,5,14.744,4.178,18.012,4.35a137.456,137.456,0,0,0,28.754-1.386c4.049-.718,10.069-.83,9.858-5-.233-4.627-14.726-4.351-17.828-4.351-9.855,0-19.535,1.1-30.259,1.375" transform="translate(-82.756 -68.095)" fill="#e4cfc0"/>
                </g>
              </g>
            </g>
            <g id="Group_1073049" data-name="Group 1073049" transform="translate(87.523 128.819)" style="mix-blend-mode: multiply;isolation: isolate">
              <g id="Group_1073048" data-name="Group 1073048">
                <g id="Group_1073047" data-name="Group 1073047" clip-path="url(#clip-path-5)">
                  <path id="Path_610938" data-name="Path 610938" d="M201.534,81.36c-.536-.718-1.261-1.99-1.772-2.116A10.606,10.606,0,0,1,196.8,80.9c.955,7.332,2.325,15.688-2.853,20.866-19.168,20.366-86.984,11.259-91.584,11-6.947-.388-17.3-1.277-24.069-3.1-6.384-1.713-12.657-5.64-15.19-12.031-2.073-5.228-.439-10.733-.071-16.185a39.457,39.457,0,0,1-5.65-2.619c-.776-.441-1.416-1.284-1.751-.366-3.3,9.061-4.99,23.078,4.576,28.96,12.393,7.62,27.365,8,41.33,9.186a389.141,389.141,0,0,0,47.03.825c14.52-.487,30.139-1.937,44.147-5.728,6.823-1.847,10.82-5.328,12.3-12.363,1.208-5.756.231-13.013-3.484-18" transform="translate(-53.039 -78.064)" fill="#e0c9b8"/>
                </g>
              </g>
            </g>
            <path id="Path_610939" data-name="Path 610939" d="M101.8,92.875c-5-2.168-10.9-1.441-16.277-2.013a96.154,96.154,0,0,1-19.274-3.634c-.919-.3-1.338.906-.663,1.441,4.7,3.723,11.3,4.54,17.092,5.479,6.144,1,13.391,2.662,19.243.081.644-.284.409-1.124-.12-1.353" transform="translate(42.424 56.683)" fill="#b47c53"/>
            <path id="Path_610940" data-name="Path 610940" d="M92.21,91.2a3.549,3.549,0,0,0-1.832-.033c-1.526.17-1.018,2.571.553,2.1a3.252,3.252,0,0,0,1.627-.782A.844.844,0,0,0,92.21,91.2" transform="translate(58.163 59.201)" fill="#b47c53"/>
            <path id="Path_610941" data-name="Path 610941" d="M138.914,88.61a20.219,20.219,0,0,0-4.361,1.149,22.257,22.257,0,0,1-5.335.8c-1.376.051-1.125,2.172.246,2.125,3.165-.1,7.766-.566,9.944-3.168a.561.561,0,0,0-.493-.9" transform="translate(83.418 57.611)" fill="#b47c53"/>
            <path id="Path_610942" data-name="Path 610942" d="M120.259,51.556c-1-3.079-3.551-8.422-7.19-8.508a.646.646,0,0,0-.886-.033c-.064.061-.134.116-.2.177a4.422,4.422,0,0,0-.584.177.967.967,0,0,0-.635.9C89.427,63.432,63.01,71.9,38.025,85.18c-10.66,5.667-21.446,12.413-29.391,21.647-5.421,6.3-11.492,16.977-7.158,25.416,9.3,18.112,47.81-15.576,54.794-22.155,10.457-9.851,17.876-20.076,29.394-31.163a176.938,176.938,0,0,1,16.548-13.637c5.63-4.234,12.917-7.464,17.771-12.455a1.142,1.142,0,0,0,.277-1.276" transform="translate(0 27.862)" fill="#a76534"/>
            <g id="Group_1073052" data-name="Group 1073052" transform="translate(0.003 70.721)" style="mix-blend-mode: multiply;isolation: isolate">
              <g id="Group_1073051" data-name="Group 1073051">
                <g id="Group_1073050" data-name="Group 1073050" clip-path="url(#clip-path-6)">
                  <path id="Path_610943" data-name="Path 610943" d="M120.258,51.553c-1-3.079-3.551-8.422-7.19-8.508a.75.75,0,0,0-.465-.188,16.663,16.663,0,0,1-5.455,9.2c-26.4,23.1-46.2,51.155-77.558,67.657-6.6,1.65-11.551,6.6-19.8,4.951a9.433,9.433,0,0,1-7.82-7.353c-2.1,4.916-2.889,10.264-.493,14.931,9.3,18.112,47.81-15.576,54.794-22.155,10.457-9.851,17.876-20.076,29.394-31.163A176.939,176.939,0,0,1,102.21,65.284c5.63-4.234,12.917-7.464,17.771-12.455a1.142,1.142,0,0,0,.277-1.276" transform="translate(-0.001 -42.857)" fill="#e0c9b8"/>
                </g>
              </g>
            </g>
            <path id="Path_610944" data-name="Path 610944" d="M74.543,69.595a.4.4,0,0,0,.228.625c6.4,1.238,17.809,4.323,20.6,11.358a.7.7,0,0,0,.9.353c3.516,3.5,14.162-4.31,17.409-6.226,5.642-3.328,15.843-10.261,15.315-17.782a.547.547,0,0,0-.794-.483,25.645,25.645,0,0,1-4.353-10.757c-.554-4.129.55-7.8,1-11.79a.9.9,0,0,0-.19-1.5.634.634,0,0,0-.546-.041c-10.12,1.979-19.084,8.165-26.914,14.609-6.88,5.66-20.219,11.85-22.794,20.8a.927.927,0,0,0,.145.837" transform="translate(48.344 21.656)" fill="#a76534"/>
            <g id="Group_1073055" data-name="Group 1073055" transform="translate(122.702 54.965)" style="mix-blend-mode: multiply;isolation: isolate">
              <g id="Group_1073054" data-name="Group 1073054">
                <g id="Group_1073053" data-name="Group 1073053" clip-path="url(#clip-path-7)">
                  <path id="Path_610945" data-name="Path 610945" d="M74.543,69.595a.4.4,0,0,0,.228.625c6.4,1.238,17.809,4.323,20.6,11.358a.7.7,0,0,0,.9.353c3.516,3.5,14.162-4.31,17.409-6.226,5.642-3.328,15.843-10.261,15.315-17.782a.547.547,0,0,0-.794-.483,25.645,25.645,0,0,1-4.353-10.757c-.554-4.129.55-7.8,1-11.79a.9.9,0,0,0-.19-1.5.634.634,0,0,0-.546-.041c-10.12,1.979-19.084,8.165-26.914,14.609-6.88,5.66-20.219,11.85-22.794,20.8a.927.927,0,0,0,.145.837" transform="translate(-74.358 -33.309)" fill="#dcc2ae"/>
                </g>
              </g>
            </g>
            <path id="Path_610946" data-name="Path 610946" d="M87.133,88.157c5.5,5.63,17.112.167,23.243-2.837,11.3-5.533,32.653-22.655,26.3-33.587-8.188-14.094-17.815-.434-30.741,10.292-5.883,4.881-30.762,13.9-18.805,26.132" transform="translate(54.565 29.72)" fill="#a76534"/>
            <path id="Path_610947" data-name="Path 610947" d="M114.656,22.2a.393.393,0,0,0-.21-.63c-6.366-1.417-14.776-2.337-17.368-9.446a.7.7,0,0,0-.888-.38c-3.417-3.6-14.937,2.729-18.236,4.554-5.734,3.168-16.127,9.81-15.81,17.345a.546.546,0,0,0,.779.5,25.618,25.618,0,0,1,4.05,10.876c.439,4.142-.769,7.785-1.325,11.757a.9.9,0,0,0,.147,1.5.628.628,0,0,0,.543.058c10.173-1.693,19.309-7.624,27.317-13.845,7.035-5.465,18.3-12.586,21.122-21.457a.921.921,0,0,0-.12-.84" transform="translate(40.4 6.925)" fill="#a76534"/>
            <g id="Group_1073058" data-name="Group 1073058" transform="translate(102.537 17.578)" style="mix-blend-mode: multiply;isolation: isolate">
              <g id="Group_1073057" data-name="Group 1073057">
                <g id="Group_1073056" data-name="Group 1073056" clip-path="url(#clip-path-8)">
                  <path id="Path_610948" data-name="Path 610948" d="M114.656,22.2a.393.393,0,0,0-.21-.63c-6.366-1.417-14.776-2.337-17.368-9.446a.7.7,0,0,0-.888-.38c-3.417-3.6-14.937,2.729-18.236,4.554-5.734,3.168-16.127,9.81-15.81,17.345a.546.546,0,0,0,.779.5,25.618,25.618,0,0,1,4.05,10.876c.439,4.142-.769,7.785-1.325,11.757a.9.9,0,0,0,.147,1.5.628.628,0,0,0,.543.058c10.173-1.693,19.309-7.624,27.317-13.845,7.035-5.465,18.3-12.586,21.122-21.457a.921.921,0,0,0-.12-.84" transform="translate(-62.137 -10.652)" fill="#dcc2ae"/>
                </g>
              </g>
            </g>
            <path id="Path_610949" data-name="Path 610949" d="M127.873,28.667c-2.695-3.893-6.246-8.208-10.591-10.55-.946-.51-3.977-2.6-4.6-1.949C99.211,30.386,82.229,45.685,63.317,52.058c-.5.17-.277.63-.228,1.031C64.276,63,70.955,79.01,81.4,80.794c.021.046.069.063.193.038C99.744,77.19,119.888,61.863,132.733,46.6c.211-.251,1.1-.743,1.2-1.206,1.2-5.45-3.092-12.447-6.058-16.731" transform="translate(40.957 10.431)" fill="#f9c84b"/>
            <path id="Path_610950" data-name="Path 610950" d="M55.351,55.426c1.611,4.406,4.219,9.375,8.2,12.139,4.353,3.026,12.092,1.67,10.657-4.856-.685-3.107-3.261-6.436-5.175-8.845-1.667-2.1-3.729-6.3-6.657-6.931-4.82-1.04-8.525,4.38-7.021,8.493" transform="translate(35.767 30.429)" fill="#f9c84b"/>
            <path id="Path_610951" data-name="Path 610951" d="M104.785,3C99.44-2.78,88.622,1.073,82.411,3.9,70.962,9.116,46.15,22.142,54.234,38.018c7.4,14.526,26.993-1.183,34-6.094C94.492,27.537,116.394,15.566,104.785,3" transform="translate(34.228 0)" fill="#a76534"/>
            <g id="Group_1073061" data-name="Group 1073061" transform="translate(88.652 3.226)" style="mix-blend-mode: multiply;isolation: isolate">
              <g id="Group_1073060" data-name="Group 1073060">
                <g id="Group_1073059" data-name="Group 1073059" clip-path="url(#clip-path-9)">
                  <path id="Path_610952" data-name="Path 610952" d="M100.966,2.115c-.3-.33-.939-.122-.843.366,1.437,7.391-13,16.231-18.312,19.685C74.55,26.889,63.068,34.389,54.172,30.93a.337.337,0,0,0-.322.583c10.576,8.592,54.267-21.4,47.116-29.4" transform="translate(-53.723 -1.955)" fill="#cca689"/>
                </g>
              </g>
            </g>
            <g id="Group_1073064" data-name="Group 1073064" transform="translate(147.173 85.878)" style="mix-blend-mode: multiply;isolation: isolate">
              <g id="Group_1073063" data-name="Group 1073063">
                <g id="Group_1073062" data-name="Group 1073062" clip-path="url(#clip-path-10)">
                  <path id="Path_610953" data-name="Path 610953" d="M131.026,52.144c-6.645,6.482-12.553,13.266-20.066,18.871-6.8,5.076-14.238,8.662-21.488,12.972a.634.634,0,0,0,.546,1.127c15.574-5.191,32.792-18.7,41.6-32.574.231-.365-.323-.662-.6-.4" transform="translate(-89.187 -52.042)" fill="#cca689"/>
                </g>
              </g>
            </g>
            <path id="Path_610954" data-name="Path 610954" d="M103.225,25.249c-6.149,2.231-10.8,8.624-16.2,12.368C80.84,41.9,74.106,45.069,67.618,48.823c-1.248.723-.282,2.487,1,2.185,7.815-1.837,15.1-5.871,21.728-10.31,5.135-3.437,12.5-7.774,14.715-13.748.383-1.033-.893-2.045-1.838-1.7" transform="translate(43.585 16.372)" fill="#fad576"/>
            <path id="Path_610955" data-name="Path 610955" d="M95.849,20.786a1.341,1.341,0,0,0-2.276-.348c-.538.706-.815,1.535-1.287,2.279a1.732,1.732,0,0,0,.248,2.358,1.692,1.692,0,0,0,2.358-.248,4.8,4.8,0,0,0,.957-4.041" transform="translate(59.776 12.976)" fill="#fad576"/>
            <path id="Path_610956" data-name="Path 610956" d="M62.085,48.77c-1.581-.833-3.4.056-4.584,1.16a5.394,5.394,0,0,0-1.234,1.79,4.408,4.408,0,0,0-.256,2.521,1.366,1.366,0,0,0,2.553.548,10.475,10.475,0,0,1,.873-1.144,9.573,9.573,0,0,1,.883-.977,19.112,19.112,0,0,0,2.127-1.851,1.332,1.332,0,0,0-.361-2.048" transform="translate(36.371 31.495)" fill="#fad576"/>
            <path id="Path_610957" data-name="Path 610957" d="M90.547,46.92c-2.913.805-5.4,2.639-7.942,4.218-2.784,1.728-5.578,3.455-8.4,5.122-.937.553-.036,2.013.927,1.619,5.434-2.224,12.63-5.023,16.167-9.965a.651.651,0,0,0-.754-.993" transform="translate(47.99 30.487)" fill="#fad576"/>
            <path id="Path_610958" data-name="Path 610958" d="M111.215,31.322c-3.736,2.038-6.5,6.617-9.779,9.422-3.754,3.211-7.779,6.069-11.5,9.32-.781.682.188,1.851,1.054,1.413a68.99,68.99,0,0,0,12.794-8.342c3.215-2.644,8.163-6.345,8.893-10.67a1.02,1.02,0,0,0-1.459-1.144" transform="translate(58.285 20.28)" fill="#fad576"/>
            <path id="Path_610959" data-name="Path 610959" d="M36.372,71.1c-6.106.719-12.446,5.876-17.259,9.457-5.356,3.984-9.931,8.606-12.558,14.82a1.135,1.135,0,0,0,1.96,1.142A62.249,62.249,0,0,1,24.126,81.949c4.356-2.893,10.05-4.9,13.239-9.127a1.152,1.152,0,0,0-.993-1.724" transform="translate(4.186 46.221)" fill="#b47c53"/>
            <path id="Path_610960" data-name="Path 610960" d="M31.757,69.074c-.624.274-1.243.508-1.889.724-1.8.6.327,3.578,1.51,1.756.361-.554.733-1.074,1.142-1.594.393-.5-.246-1.112-.762-.886" transform="translate(18.967 44.878)" fill="#b47c53"/>
            <path id="Path_610961" data-name="Path 610961" d="M86.3,3.943c-5.048-.259-11.411,3.84-15.678,6.365-5.246,3.1-8.408,7.4-12.878,11.3A1.363,1.363,0,0,0,59.13,23.83C63.982,21.75,67.408,16.944,72,14.2c4.749-2.835,11.554-4,15.307-8.04A1.332,1.332,0,0,0,86.3,3.943" transform="translate(37.295 2.556)" fill="#b47c53"/>
            <path id="Path_610962" data-name="Path 610962" d="M81.052,2.774a15.144,15.144,0,0,0-1.617.406c-1.746.525.023,3.55,1.441,1.851a12.96,12.96,0,0,0,.842-1.125.717.717,0,0,0-.665-1.132" transform="translate(51.174 1.795)" fill="#b47c53"/>
            <path id="Path_610963" data-name="Path 610963" d="M114.871,57.079c-4.033,1.807-7.241,5.83-10.921,8.36A69.814,69.814,0,0,1,89.193,73.13c-.805.307-.348,1.721.484,1.455a63.574,63.574,0,0,0,15.576-7.2c3.728-2.442,8.586-5.4,10.386-9.627.2-.465-.356-.861-.767-.678" transform="translate(57.717 37.081)" fill="#b47c53"/>
            <path id="Path_610964" data-name="Path 610964" d="M111.533,52.363a3.114,3.114,0,0,0-1.98.556c-1.587.734.375,3.394,1.625,1.619a2.691,2.691,0,0,0,.779-1.634.582.582,0,0,0-.424-.541" transform="translate(70.842 34.019)" fill="#b47c53"/>
          </g>
        </g>
      </g>
    </g>
  </g>
</svg>
