<svg xmlns="http://www.w3.org/2000/svg" xmlns:xlink="http://www.w3.org/1999/xlink" width="252.22" height="510.236" viewBox="0 0 252.22 510.236">
  <defs>
    <clipPath id="clip-path">
      <path id="Trazado_194907" data-name="Trazado 194907" d="M0,139.241c0,47.447,39.179,85.908,87.511,85.908s87.511-38.461,87.511-85.908S135.841,53.333,87.511,53.333,0,91.8,0,139.241" transform="translate(0 -53.333)" fill="#dec6b0"/>
    </clipPath>
    <clipPath id="clip-path-2">
      <path id="Trazado_194907-2" data-name="Trazado 194907" d="M0,95.647A42.315,42.315,0,1,0,42.315,53.333,42.315,42.315,0,0,0,0,95.647" transform="translate(0 -53.333)" fill="#7f4fc7"/>
    </clipPath>
    <clipPath id="clip-path-3">
      <rect id="Rectángulo_46351" data-name="Rectángulo 46351" width="115.414" height="119.42" fill="none"/>
    </clipPath>
  </defs>
  <g id="conectada_01.375dd2a5" transform="translate(2.152 -22.364)">
    <g id="Grupo_155444" data-name="Grupo 155444" transform="translate(1.513 22.364)">
      <g id="Grupo_155253" data-name="Grupo 155253" transform="translate(5.211 181.396)">
        <path id="Trazado_196478" data-name="Trazado 196478" d="M319.689,149.033q-.327.339-.648.683a52.147,52.147,0,0,0-14.068,37.632l21.849-.761a30.63,30.63,0,1,1,61.222-2.141l21.849-.761a52.492,52.492,0,0,0-90.2-34.646" transform="translate(-304.936 -133.025)" fill="#e6bd6b"/>
        <path id="Trazado_196479" data-name="Trazado 196479" d="M304.88,231.066A52.492,52.492,0,1,0,409.8,227.4l-21.85.761a30.629,30.629,0,0,1-61.221,2.141Z" transform="translate(-304.844 -176.744)" fill="#594f46"/>
      </g>
      <g id="Grupo_154313" data-name="Grupo 154313" transform="translate(73.533 321.892)">
        <g id="Grupo_152768" data-name="Grupo 152768" clip-path="url(#clip-path)">
          <path id="Trazado_194826" data-name="Trazado 194826" d="M4.605,55.593a2.284,2.284,0,0,0-2.3-2.26,2.262,2.262,0,1,0,0,4.522,2.284,2.284,0,0,0,2.3-2.263" transform="translate(0.001 -53.333)" fill="#dec6b0"/>
          <path id="Trazado_194827" data-name="Trazado 194827" d="M12.879,55.589a2.3,2.3,0,1,0-2.3,2.263,2.3,2.3,0,0,0,2.3-2.263" transform="translate(13.028 -53.329)" fill="#dec6b0"/>
          <path id="Trazado_194828" data-name="Trazado 194828" d="M21.152,55.589a2.3,2.3,0,1,0-2.3,2.263,2.3,2.3,0,0,0,2.3-2.263" transform="translate(26.059 -53.329)" fill="#dec6b0"/>
          <path id="Trazado_194829" data-name="Trazado 194829" d="M29.425,55.589a2.3,2.3,0,1,0-2.3,2.263,2.3,2.3,0,0,0,2.3-2.263" transform="translate(39.088 -53.329)" fill="#dec6b0"/>
          <path id="Trazado_194830" data-name="Trazado 194830" d="M37.7,55.589a2.3,2.3,0,1,0-2.3,2.263,2.3,2.3,0,0,0,2.3-2.263" transform="translate(52.116 -53.329)" fill="#dec6b0"/>
          <path id="Trazado_194831" data-name="Trazado 194831" d="M45.966,55.589a2.3,2.3,0,1,0-2.3,2.263,2.3,2.3,0,0,0,2.3-2.263" transform="translate(65.146 -53.329)" fill="#dec6b0"/>
          <path id="Trazado_194832" data-name="Trazado 194832" d="M54.242,55.589a2.3,2.3,0,1,0-2.3,2.263,2.3,2.3,0,0,0,2.3-2.263" transform="translate(78.175 -53.329)" fill="#dec6b0"/>
          <path id="Trazado_194833" data-name="Trazado 194833" d="M62.515,55.589a2.3,2.3,0,1,0-2.3,2.263,2.3,2.3,0,0,0,2.3-2.263" transform="translate(91.204 -53.329)" fill="#dec6b0"/>
          <path id="Trazado_194834" data-name="Trazado 194834" d="M70.788,55.589a2.3,2.3,0,1,0-2.3,2.262,2.3,2.3,0,0,0,2.3-2.262" transform="translate(104.234 -53.329)" fill="#dec6b0"/>
          <path id="Trazado_194835" data-name="Trazado 194835" d="M4.609,63.866a2.284,2.284,0,0,0-2.3-2.26,2.26,2.26,0,0,0,0,4.52,2.284,2.284,0,0,0,2.3-2.26" transform="translate(-0.002 -40.693)" fill="#dec6b0"/>
          <path id="Trazado_194836" data-name="Trazado 194836" d="M12.879,63.862a2.3,2.3,0,1,0-2.3,2.26,2.3,2.3,0,0,0,2.3-2.26" transform="translate(13.028 -40.689)" fill="#dec6b0"/>
          <path id="Trazado_194837" data-name="Trazado 194837" d="M21.152,63.862a2.3,2.3,0,1,0-2.3,2.26,2.3,2.3,0,0,0,2.3-2.26" transform="translate(26.059 -40.689)" fill="#dec6b0"/>
          <path id="Trazado_194838" data-name="Trazado 194838" d="M29.425,63.862a2.3,2.3,0,1,0-2.3,2.26,2.3,2.3,0,0,0,2.3-2.26" transform="translate(39.088 -40.689)" fill="#dec6b0"/>
          <path id="Trazado_194839" data-name="Trazado 194839" d="M37.7,63.862a2.3,2.3,0,1,0-2.3,2.26,2.3,2.3,0,0,0,2.3-2.26" transform="translate(52.116 -40.689)" fill="#dec6b0"/>
          <path id="Trazado_194840" data-name="Trazado 194840" d="M45.966,63.862a2.3,2.3,0,1,0-2.3,2.26,2.3,2.3,0,0,0,2.3-2.26" transform="translate(65.146 -40.689)" fill="#dec6b0"/>
          <path id="Trazado_194841" data-name="Trazado 194841" d="M54.242,63.862a2.3,2.3,0,1,0-2.3,2.26,2.3,2.3,0,0,0,2.3-2.26" transform="translate(78.175 -40.689)" fill="#dec6b0"/>
          <path id="Trazado_194842" data-name="Trazado 194842" d="M62.515,63.862a2.3,2.3,0,1,0-2.3,2.26,2.3,2.3,0,0,0,2.3-2.26" transform="translate(91.204 -40.689)" fill="#dec6b0"/>
          <path id="Trazado_194843" data-name="Trazado 194843" d="M70.788,63.862a2.3,2.3,0,1,0-2.3,2.26,2.3,2.3,0,0,0,2.3-2.26" transform="translate(104.234 -40.689)" fill="#dec6b0"/>
          <path id="Trazado_194844" data-name="Trazado 194844" d="M4.609,72.139a2.284,2.284,0,0,0-2.3-2.26,2.26,2.26,0,0,0,0,4.52,2.284,2.284,0,0,0,2.3-2.26" transform="translate(-0.002 -28.054)" fill="#dec6b0"/>
          <path id="Trazado_194845" data-name="Trazado 194845" d="M12.879,72.135a2.3,2.3,0,1,0-2.3,2.26,2.3,2.3,0,0,0,2.3-2.26" transform="translate(13.028 -28.049)" fill="#dec6b0"/>
          <path id="Trazado_194846" data-name="Trazado 194846" d="M21.152,72.135a2.3,2.3,0,1,0-2.3,2.26,2.3,2.3,0,0,0,2.3-2.26" transform="translate(26.059 -28.049)" fill="#dec6b0"/>
          <path id="Trazado_194847" data-name="Trazado 194847" d="M29.425,72.135a2.3,2.3,0,1,0-2.3,2.26,2.3,2.3,0,0,0,2.3-2.26" transform="translate(39.088 -28.049)" fill="#dec6b0"/>
          <path id="Trazado_194848" data-name="Trazado 194848" d="M37.7,72.135a2.3,2.3,0,1,0-2.3,2.26,2.3,2.3,0,0,0,2.3-2.26" transform="translate(52.116 -28.049)" fill="#dec6b0"/>
          <path id="Trazado_194849" data-name="Trazado 194849" d="M45.966,72.135a2.3,2.3,0,1,0-2.3,2.26,2.3,2.3,0,0,0,2.3-2.26" transform="translate(65.146 -28.049)" fill="#dec6b0"/>
          <path id="Trazado_194850" data-name="Trazado 194850" d="M54.242,72.135a2.3,2.3,0,1,0-2.3,2.26,2.3,2.3,0,0,0,2.3-2.26" transform="translate(78.175 -28.049)" fill="#dec6b0"/>
          <path id="Trazado_194851" data-name="Trazado 194851" d="M62.515,72.135a2.3,2.3,0,1,0-2.3,2.26,2.3,2.3,0,0,0,2.3-2.26" transform="translate(91.204 -28.049)" fill="#dec6b0"/>
          <path id="Trazado_194852" data-name="Trazado 194852" d="M70.788,72.135a2.3,2.3,0,1,0-2.3,2.26,2.3,2.3,0,0,0,2.3-2.26" transform="translate(104.234 -28.049)" fill="#dec6b0"/>
          <path id="Trazado_194853" data-name="Trazado 194853" d="M4.609,80.411a2.284,2.284,0,0,0-2.3-2.26,2.26,2.26,0,0,0,0,4.52,2.284,2.284,0,0,0,2.3-2.26" transform="translate(-0.002 -15.416)" fill="#dec6b0"/>
          <path id="Trazado_194854" data-name="Trazado 194854" d="M12.879,80.407a2.3,2.3,0,1,0-2.3,2.259,2.3,2.3,0,0,0,2.3-2.259" transform="translate(13.028 -15.411)" fill="#dec6b0"/>
          <path id="Trazado_194855" data-name="Trazado 194855" d="M21.152,80.407a2.3,2.3,0,1,0-2.3,2.259,2.3,2.3,0,0,0,2.3-2.259" transform="translate(26.059 -15.411)" fill="#dec6b0"/>
          <path id="Trazado_194856" data-name="Trazado 194856" d="M29.425,80.407a2.3,2.3,0,1,0-2.3,2.259,2.3,2.3,0,0,0,2.3-2.259" transform="translate(39.088 -15.411)" fill="#dec6b0"/>
          <path id="Trazado_194857" data-name="Trazado 194857" d="M37.7,80.407a2.3,2.3,0,1,0-2.3,2.259,2.3,2.3,0,0,0,2.3-2.259" transform="translate(52.116 -15.411)" fill="#dec6b0"/>
          <path id="Trazado_194858" data-name="Trazado 194858" d="M45.966,80.407a2.3,2.3,0,1,0-2.3,2.259,2.3,2.3,0,0,0,2.3-2.259" transform="translate(65.146 -15.411)" fill="#dec6b0"/>
          <path id="Trazado_194859" data-name="Trazado 194859" d="M54.242,80.407a2.3,2.3,0,1,0-2.3,2.259,2.3,2.3,0,0,0,2.3-2.259" transform="translate(78.175 -15.411)" fill="#dec6b0"/>
          <path id="Trazado_194860" data-name="Trazado 194860" d="M62.515,80.407a2.3,2.3,0,1,0-2.3,2.259,2.3,2.3,0,0,0,2.3-2.259" transform="translate(91.204 -15.411)" fill="#dec6b0"/>
          <path id="Trazado_194861" data-name="Trazado 194861" d="M70.788,80.407a2.3,2.3,0,1,0-2.3,2.259,2.3,2.3,0,0,0,2.3-2.259" transform="translate(104.234 -15.411)" fill="#dec6b0"/>
          <path id="Trazado_194862" data-name="Trazado 194862" d="M4.605,88.685a2.284,2.284,0,0,0-2.3-2.26,2.262,2.262,0,1,0,0,4.522,2.284,2.284,0,0,0,2.3-2.262" transform="translate(0.001 -2.776)" fill="#dec6b0"/>
          <path id="Trazado_194863" data-name="Trazado 194863" d="M12.879,88.681a2.3,2.3,0,1,0-2.3,2.262,2.3,2.3,0,0,0,2.3-2.262" transform="translate(13.028 -2.771)" fill="#dec6b0"/>
          <path id="Trazado_194864" data-name="Trazado 194864" d="M21.152,88.681a2.3,2.3,0,1,0-2.3,2.262,2.3,2.3,0,0,0,2.3-2.262" transform="translate(26.059 -2.771)" fill="#dec6b0"/>
          <path id="Trazado_194865" data-name="Trazado 194865" d="M29.425,88.681a2.3,2.3,0,1,0-2.3,2.262,2.3,2.3,0,0,0,2.3-2.262" transform="translate(39.088 -2.771)" fill="#dec6b0"/>
          <path id="Trazado_194866" data-name="Trazado 194866" d="M37.7,88.681a2.3,2.3,0,1,0-2.3,2.262,2.3,2.3,0,0,0,2.3-2.262" transform="translate(52.116 -2.771)" fill="#dec6b0"/>
          <path id="Trazado_194867" data-name="Trazado 194867" d="M45.966,88.681a2.3,2.3,0,1,0-2.3,2.262,2.3,2.3,0,0,0,2.3-2.262" transform="translate(65.146 -2.771)" fill="#dec6b0"/>
          <path id="Trazado_194868" data-name="Trazado 194868" d="M54.242,88.681a2.3,2.3,0,1,0-2.3,2.262,2.3,2.3,0,0,0,2.3-2.262" transform="translate(78.175 -2.771)" fill="#dec6b0"/>
          <path id="Trazado_194869" data-name="Trazado 194869" d="M62.515,88.681a2.3,2.3,0,1,0-2.3,2.262,2.3,2.3,0,0,0,2.3-2.262" transform="translate(91.204 -2.771)" fill="#dec6b0"/>
          <path id="Trazado_194870" data-name="Trazado 194870" d="M70.788,88.681a2.3,2.3,0,1,0-2.3,2.261,2.3,2.3,0,0,0,2.3-2.261" transform="translate(104.234 -2.771)" fill="#dec6b0"/>
          <path id="Trazado_194871" data-name="Trazado 194871" d="M4.609,96.957a2.284,2.284,0,0,0-2.3-2.257,2.26,2.26,0,0,0,0,4.52,2.284,2.284,0,0,0,2.3-2.26" transform="translate(-0.002 9.864)" fill="#dec6b0"/>
          <path id="Trazado_194872" data-name="Trazado 194872" d="M12.879,96.953a2.3,2.3,0,1,0-2.3,2.26,2.3,2.3,0,0,0,2.3-2.26" transform="translate(13.028 9.869)" fill="#dec6b0"/>
          <path id="Trazado_194873" data-name="Trazado 194873" d="M21.152,96.953a2.3,2.3,0,1,0-2.3,2.26,2.3,2.3,0,0,0,2.3-2.26" transform="translate(26.059 9.869)" fill="#dec6b0"/>
          <path id="Trazado_194874" data-name="Trazado 194874" d="M29.425,96.953a2.3,2.3,0,1,0-2.3,2.26,2.3,2.3,0,0,0,2.3-2.26" transform="translate(39.088 9.869)" fill="#dec6b0"/>
          <path id="Trazado_194875" data-name="Trazado 194875" d="M37.7,96.953a2.3,2.3,0,1,0-2.3,2.26,2.3,2.3,0,0,0,2.3-2.26" transform="translate(52.116 9.869)" fill="#dec6b0"/>
          <path id="Trazado_194876" data-name="Trazado 194876" d="M45.966,96.953a2.3,2.3,0,1,0-2.3,2.26,2.3,2.3,0,0,0,2.3-2.26" transform="translate(65.146 9.869)" fill="#dec6b0"/>
          <path id="Trazado_194877" data-name="Trazado 194877" d="M54.242,96.953a2.3,2.3,0,1,0-2.3,2.26,2.3,2.3,0,0,0,2.3-2.26" transform="translate(78.175 9.869)" fill="#dec6b0"/>
          <path id="Trazado_194878" data-name="Trazado 194878" d="M62.515,96.953a2.3,2.3,0,1,0-2.3,2.26,2.3,2.3,0,0,0,2.3-2.26" transform="translate(91.204 9.869)" fill="#dec6b0"/>
          <path id="Trazado_194879" data-name="Trazado 194879" d="M70.788,96.953a2.3,2.3,0,1,0-2.3,2.26,2.3,2.3,0,0,0,2.3-2.26" transform="translate(104.234 9.869)" fill="#dec6b0"/>
          <path id="Trazado_194880" data-name="Trazado 194880" d="M4.609,105.229a2.284,2.284,0,0,0-2.3-2.26,2.26,2.26,0,1,0,0,4.52,2.284,2.284,0,0,0,2.3-2.26" transform="translate(-0.002 22.503)" fill="#dec6b0"/>
          <path id="Trazado_194881" data-name="Trazado 194881" d="M12.879,105.225a2.3,2.3,0,1,0-2.3,2.26,2.3,2.3,0,0,0,2.3-2.26" transform="translate(13.028 22.507)" fill="#dec6b0"/>
          <path id="Trazado_194882" data-name="Trazado 194882" d="M21.152,105.225a2.3,2.3,0,1,0-2.3,2.26,2.3,2.3,0,0,0,2.3-2.26" transform="translate(26.059 22.507)" fill="#dec6b0"/>
          <path id="Trazado_194883" data-name="Trazado 194883" d="M29.425,105.225a2.3,2.3,0,1,0-2.3,2.26,2.3,2.3,0,0,0,2.3-2.26" transform="translate(39.088 22.507)" fill="#dec6b0"/>
          <path id="Trazado_194884" data-name="Trazado 194884" d="M37.7,105.225a2.3,2.3,0,1,0-2.3,2.26,2.3,2.3,0,0,0,2.3-2.26" transform="translate(52.116 22.507)" fill="#dec6b0"/>
          <path id="Trazado_194885" data-name="Trazado 194885" d="M45.966,105.225a2.3,2.3,0,1,0-2.3,2.26,2.3,2.3,0,0,0,2.3-2.26" transform="translate(65.146 22.507)" fill="#dec6b0"/>
          <path id="Trazado_194886" data-name="Trazado 194886" d="M54.242,105.225a2.3,2.3,0,1,0-2.3,2.26,2.3,2.3,0,0,0,2.3-2.26" transform="translate(78.175 22.507)" fill="#dec6b0"/>
          <path id="Trazado_194887" data-name="Trazado 194887" d="M62.515,105.225a2.3,2.3,0,1,0-2.3,2.26,2.3,2.3,0,0,0,2.3-2.26" transform="translate(91.204 22.507)" fill="#dec6b0"/>
          <path id="Trazado_194888" data-name="Trazado 194888" d="M70.788,105.225a2.3,2.3,0,1,0-2.3,2.26,2.3,2.3,0,0,0,2.3-2.26" transform="translate(104.234 22.507)" fill="#dec6b0"/>
          <path id="Trazado_194889" data-name="Trazado 194889" d="M4.609,113.5a2.284,2.284,0,0,0-2.3-2.26,2.26,2.26,0,0,0,0,4.52,2.284,2.284,0,0,0,2.3-2.26" transform="translate(-0.002 35.142)" fill="#dec6b0"/>
          <path id="Trazado_194890" data-name="Trazado 194890" d="M12.879,113.5a2.3,2.3,0,1,0-2.3,2.26,2.3,2.3,0,0,0,2.3-2.26" transform="translate(13.028 35.146)" fill="#dec6b0"/>
          <path id="Trazado_194891" data-name="Trazado 194891" d="M21.152,113.5a2.3,2.3,0,1,0-2.3,2.26,2.3,2.3,0,0,0,2.3-2.26" transform="translate(26.059 35.146)" fill="#dec6b0"/>
          <path id="Trazado_194892" data-name="Trazado 194892" d="M29.425,113.5a2.3,2.3,0,1,0-2.3,2.26,2.3,2.3,0,0,0,2.3-2.26" transform="translate(39.088 35.146)" fill="#dec6b0"/>
          <path id="Trazado_194893" data-name="Trazado 194893" d="M37.7,113.5a2.3,2.3,0,1,0-2.3,2.26,2.3,2.3,0,0,0,2.3-2.26" transform="translate(52.116 35.146)" fill="#dec6b0"/>
          <path id="Trazado_194894" data-name="Trazado 194894" d="M45.966,113.5a2.3,2.3,0,1,0-2.3,2.26,2.3,2.3,0,0,0,2.3-2.26" transform="translate(65.146 35.146)" fill="#dec6b0"/>
          <path id="Trazado_194895" data-name="Trazado 194895" d="M54.242,113.5a2.3,2.3,0,1,0-2.3,2.26,2.3,2.3,0,0,0,2.3-2.26" transform="translate(78.175 35.146)" fill="#dec6b0"/>
          <path id="Trazado_194896" data-name="Trazado 194896" d="M62.515,113.5a2.3,2.3,0,1,0-2.3,2.26,2.3,2.3,0,0,0,2.3-2.26" transform="translate(91.204 35.146)" fill="#dec6b0"/>
          <path id="Trazado_194897" data-name="Trazado 194897" d="M70.788,113.5a2.3,2.3,0,1,0-2.3,2.26,2.3,2.3,0,0,0,2.3-2.26" transform="translate(104.234 35.146)" fill="#dec6b0"/>
          <path id="Trazado_194898" data-name="Trazado 194898" d="M4.609,121.774a2.284,2.284,0,0,0-2.3-2.26,2.26,2.26,0,0,0,0,4.52,2.284,2.284,0,0,0,2.3-2.26" transform="translate(-0.002 47.78)" fill="#dec6b0"/>
          <path id="Trazado_194899" data-name="Trazado 194899" d="M12.879,121.77a2.3,2.3,0,1,0-2.3,2.26,2.3,2.3,0,0,0,2.3-2.26" transform="translate(13.028 47.784)" fill="#dec6b0"/>
          <path id="Trazado_194900" data-name="Trazado 194900" d="M21.152,121.77a2.3,2.3,0,1,0-2.3,2.26,2.3,2.3,0,0,0,2.3-2.26" transform="translate(26.059 47.784)" fill="#dec6b0"/>
          <path id="Trazado_194901" data-name="Trazado 194901" d="M29.425,121.77a2.3,2.3,0,1,0-2.3,2.26,2.3,2.3,0,0,0,2.3-2.26" transform="translate(39.088 47.784)" fill="#dec6b0"/>
          <path id="Trazado_194902" data-name="Trazado 194902" d="M37.7,121.77a2.3,2.3,0,1,0-2.3,2.26,2.3,2.3,0,0,0,2.3-2.26" transform="translate(52.116 47.784)" fill="#dec6b0"/>
          <path id="Trazado_194903" data-name="Trazado 194903" d="M45.966,121.77a2.3,2.3,0,1,0-2.3,2.26,2.3,2.3,0,0,0,2.3-2.26" transform="translate(65.146 47.784)" fill="#dec6b0"/>
          <path id="Trazado_194904" data-name="Trazado 194904" d="M54.242,121.77a2.3,2.3,0,1,0-2.3,2.26,2.3,2.3,0,0,0,2.3-2.26" transform="translate(78.175 47.784)" fill="#dec6b0"/>
          <path id="Trazado_194905" data-name="Trazado 194905" d="M62.515,121.77a2.3,2.3,0,1,0-2.3,2.26,2.3,2.3,0,0,0,2.3-2.26" transform="translate(91.204 47.784)" fill="#dec6b0"/>
          <path id="Trazado_194906" data-name="Trazado 194906" d="M70.788,121.77a2.3,2.3,0,1,0-2.3,2.26,2.3,2.3,0,0,0,2.3-2.26" transform="translate(104.234 47.784)" fill="#dec6b0"/>
        </g>
      </g>
      <g id="Grupo_154805" data-name="Grupo 154805" transform="translate(148.638 0)">
        <g id="Grupo_152768-2" data-name="Grupo 152768" transform="translate(0)" clip-path="url(#clip-path-2)">
          <path id="Trazado_194826-2" data-name="Trazado 194826" d="M2.228,54.443a1.113,1.113,0,1,0-1.113,1.114,1.113,1.113,0,0,0,1.113-1.114" transform="translate(0 -53.333)" fill="#7f4fc7"/>
          <path id="Trazado_194827-2" data-name="Trazado 194827" d="M10.5,54.443a1.113,1.113,0,1,0-1.113,1.114A1.113,1.113,0,0,0,10.5,54.443" transform="translate(2.028 -53.333)" fill="#7f4fc7"/>
          <path id="Trazado_194828-2" data-name="Trazado 194828" d="M18.773,54.443a1.113,1.113,0,1,0-1.113,1.114,1.113,1.113,0,0,0,1.113-1.114" transform="translate(4.056 -53.333)" fill="#7f4fc7"/>
          <path id="Trazado_194829-2" data-name="Trazado 194829" d="M27.046,54.443a1.113,1.113,0,1,0-1.113,1.114,1.113,1.113,0,0,0,1.113-1.114" transform="translate(6.083 -53.333)" fill="#7f4fc7"/>
          <path id="Trazado_194830-2" data-name="Trazado 194830" d="M35.318,54.443A1.113,1.113,0,1,0,34.2,55.558a1.113,1.113,0,0,0,1.113-1.114" transform="translate(8.111 -53.333)" fill="#7f4fc7"/>
          <path id="Trazado_194831-2" data-name="Trazado 194831" d="M43.587,54.443a1.113,1.113,0,1,0-1.113,1.114,1.113,1.113,0,0,0,1.113-1.114" transform="translate(10.139 -53.333)" fill="#7f4fc7"/>
          <path id="Trazado_194832-2" data-name="Trazado 194832" d="M51.863,54.443a1.113,1.113,0,1,0-1.113,1.114,1.113,1.113,0,0,0,1.113-1.114" transform="translate(12.167 -53.333)" fill="#7f4fc7"/>
          <path id="Trazado_194833-2" data-name="Trazado 194833" d="M60.136,54.443a1.113,1.113,0,1,0-1.113,1.114,1.113,1.113,0,0,0,1.113-1.114" transform="translate(14.194 -53.333)" fill="#7f4fc7"/>
          <path id="Trazado_194834-2" data-name="Trazado 194834" d="M68.409,54.443A1.113,1.113,0,1,0,67.3,55.558a1.113,1.113,0,0,0,1.113-1.114" transform="translate(16.222 -53.333)" fill="#7f4fc7"/>
          <path id="Trazado_194835-2" data-name="Trazado 194835" d="M2.228,62.719a1.112,1.112,0,1,0-.326.788,1.113,1.113,0,0,0,.326-.788" transform="translate(0 -51.305)" fill="#7f4fc7"/>
          <path id="Trazado_194836-2" data-name="Trazado 194836" d="M10.5,62.719a1.112,1.112,0,1,0-.326.788,1.113,1.113,0,0,0,.326-.788" transform="translate(2.028 -51.305)" fill="#7f4fc7"/>
          <path id="Trazado_194837-2" data-name="Trazado 194837" d="M18.773,62.719a1.112,1.112,0,1,0-.326.788,1.113,1.113,0,0,0,.326-.788" transform="translate(4.056 -51.305)" fill="#7f4fc7"/>
          <path id="Trazado_194838-2" data-name="Trazado 194838" d="M27.046,62.719a1.112,1.112,0,1,0-.326.788,1.113,1.113,0,0,0,.326-.788" transform="translate(6.083 -51.305)" fill="#7f4fc7"/>
          <path id="Trazado_194839-2" data-name="Trazado 194839" d="M35.318,62.719a1.112,1.112,0,1,0-.326.788,1.113,1.113,0,0,0,.326-.788" transform="translate(8.111 -51.305)" fill="#7f4fc7"/>
          <path id="Trazado_194840-2" data-name="Trazado 194840" d="M43.587,62.719a1.112,1.112,0,1,0-.326.788,1.113,1.113,0,0,0,.326-.788" transform="translate(10.139 -51.305)" fill="#7f4fc7"/>
          <path id="Trazado_194841-2" data-name="Trazado 194841" d="M51.863,62.719a1.112,1.112,0,1,0-.326.788,1.113,1.113,0,0,0,.326-.788" transform="translate(12.167 -51.305)" fill="#7f4fc7"/>
          <path id="Trazado_194842-2" data-name="Trazado 194842" d="M60.136,62.719a1.113,1.113,0,1,0-1.113,1.113,1.113,1.113,0,0,0,1.113-1.113" transform="translate(14.194 -51.305)" fill="#7f4fc7"/>
          <path id="Trazado_194843-2" data-name="Trazado 194843" d="M68.409,62.719a1.112,1.112,0,1,0-.326.788,1.113,1.113,0,0,0,.326-.788" transform="translate(16.222 -51.305)" fill="#7f4fc7"/>
          <path id="Trazado_194844-2" data-name="Trazado 194844" d="M2.228,70.992a1.112,1.112,0,1,0-.326.788,1.113,1.113,0,0,0,.326-.788" transform="translate(0 -49.277)" fill="#7f4fc7"/>
          <path id="Trazado_194845-2" data-name="Trazado 194845" d="M10.5,70.992a1.112,1.112,0,1,0-.326.788,1.113,1.113,0,0,0,.326-.788" transform="translate(2.028 -49.277)" fill="#7f4fc7"/>
          <path id="Trazado_194846-2" data-name="Trazado 194846" d="M18.773,70.992a1.112,1.112,0,1,0-.326.788,1.113,1.113,0,0,0,.326-.788" transform="translate(4.056 -49.277)" fill="#7f4fc7"/>
          <path id="Trazado_194847-2" data-name="Trazado 194847" d="M27.046,70.992a1.112,1.112,0,1,0-.326.788,1.113,1.113,0,0,0,.326-.788" transform="translate(6.083 -49.277)" fill="#7f4fc7"/>
          <path id="Trazado_194848-2" data-name="Trazado 194848" d="M35.318,70.992a1.112,1.112,0,1,0-.326.788,1.113,1.113,0,0,0,.326-.788" transform="translate(8.111 -49.277)" fill="#7f4fc7"/>
          <path id="Trazado_194849-2" data-name="Trazado 194849" d="M43.587,70.992a1.112,1.112,0,1,0-.326.788,1.113,1.113,0,0,0,.326-.788" transform="translate(10.139 -49.277)" fill="#7f4fc7"/>
          <path id="Trazado_194850-2" data-name="Trazado 194850" d="M51.863,70.992a1.112,1.112,0,1,0-.326.788,1.113,1.113,0,0,0,.326-.788" transform="translate(12.167 -49.277)" fill="#7f4fc7"/>
          <path id="Trazado_194851-2" data-name="Trazado 194851" d="M60.136,70.992a1.113,1.113,0,1,0-1.113,1.113,1.113,1.113,0,0,0,1.113-1.113" transform="translate(14.194 -49.277)" fill="#7f4fc7"/>
          <path id="Trazado_194852-2" data-name="Trazado 194852" d="M68.409,70.992a1.112,1.112,0,1,0-.326.788,1.113,1.113,0,0,0,.326-.788" transform="translate(16.222 -49.277)" fill="#7f4fc7"/>
          <path id="Trazado_194853-2" data-name="Trazado 194853" d="M2.228,79.264a1.112,1.112,0,1,0-.326.788,1.113,1.113,0,0,0,.326-.788" transform="translate(0 -47.25)" fill="#7f4fc7"/>
          <path id="Trazado_194854-2" data-name="Trazado 194854" d="M10.5,79.264a1.112,1.112,0,1,0-.326.788,1.113,1.113,0,0,0,.326-.788" transform="translate(2.028 -47.25)" fill="#7f4fc7"/>
          <path id="Trazado_194855-2" data-name="Trazado 194855" d="M18.773,79.264a1.112,1.112,0,1,0-.326.788,1.113,1.113,0,0,0,.326-.788" transform="translate(4.056 -47.25)" fill="#7f4fc7"/>
          <path id="Trazado_194856-2" data-name="Trazado 194856" d="M27.046,79.264a1.112,1.112,0,1,0-.326.788,1.113,1.113,0,0,0,.326-.788" transform="translate(6.083 -47.25)" fill="#7f4fc7"/>
          <path id="Trazado_194857-2" data-name="Trazado 194857" d="M35.318,79.264a1.112,1.112,0,1,0-.326.788,1.113,1.113,0,0,0,.326-.788" transform="translate(8.111 -47.25)" fill="#7f4fc7"/>
          <path id="Trazado_194858-2" data-name="Trazado 194858" d="M43.587,79.264a1.112,1.112,0,1,0-.326.788,1.113,1.113,0,0,0,.326-.788" transform="translate(10.139 -47.25)" fill="#7f4fc7"/>
          <path id="Trazado_194859-2" data-name="Trazado 194859" d="M51.863,79.264a1.112,1.112,0,1,0-.326.788,1.113,1.113,0,0,0,.326-.788" transform="translate(12.167 -47.25)" fill="#7f4fc7"/>
          <path id="Trazado_194860-2" data-name="Trazado 194860" d="M60.136,79.264a1.113,1.113,0,1,0-1.113,1.113,1.113,1.113,0,0,0,1.113-1.113" transform="translate(14.194 -47.25)" fill="#7f4fc7"/>
          <path id="Trazado_194861-2" data-name="Trazado 194861" d="M68.409,79.264a1.112,1.112,0,1,0-.326.788,1.113,1.113,0,0,0,.326-.788" transform="translate(16.222 -47.25)" fill="#7f4fc7"/>
          <path id="Trazado_194862-2" data-name="Trazado 194862" d="M2.228,87.537a1.112,1.112,0,1,0-.325.788,1.113,1.113,0,0,0,.325-.788" transform="translate(0 -45.222)" fill="#7f4fc7"/>
          <path id="Trazado_194863-2" data-name="Trazado 194863" d="M10.5,87.537a1.112,1.112,0,1,0-.325.788,1.113,1.113,0,0,0,.325-.788" transform="translate(2.028 -45.222)" fill="#7f4fc7"/>
          <path id="Trazado_194864-2" data-name="Trazado 194864" d="M18.773,87.537a1.112,1.112,0,1,0-.325.788,1.113,1.113,0,0,0,.325-.788" transform="translate(4.056 -45.222)" fill="#7f4fc7"/>
          <path id="Trazado_194865-2" data-name="Trazado 194865" d="M27.046,87.537a1.112,1.112,0,1,0-.325.788,1.113,1.113,0,0,0,.325-.788" transform="translate(6.083 -45.222)" fill="#7f4fc7"/>
          <path id="Trazado_194866-2" data-name="Trazado 194866" d="M35.318,87.537a1.112,1.112,0,1,0-.325.788,1.113,1.113,0,0,0,.325-.788" transform="translate(8.111 -45.222)" fill="#7f4fc7"/>
          <path id="Trazado_194867-2" data-name="Trazado 194867" d="M43.587,87.537a1.112,1.112,0,1,0-.325.788,1.113,1.113,0,0,0,.325-.788" transform="translate(10.139 -45.222)" fill="#7f4fc7"/>
          <path id="Trazado_194868-2" data-name="Trazado 194868" d="M51.863,87.537a1.112,1.112,0,1,0-.325.788,1.113,1.113,0,0,0,.325-.788" transform="translate(12.167 -45.222)" fill="#7f4fc7"/>
          <path id="Trazado_194869-2" data-name="Trazado 194869" d="M60.136,87.537a1.113,1.113,0,1,0-1.113,1.114,1.113,1.113,0,0,0,1.113-1.114" transform="translate(14.194 -45.222)" fill="#7f4fc7"/>
          <path id="Trazado_194870-2" data-name="Trazado 194870" d="M68.409,87.537a1.112,1.112,0,1,0-.325.788,1.113,1.113,0,0,0,.325-.788" transform="translate(16.222 -45.222)" fill="#7f4fc7"/>
          <path id="Trazado_194871-2" data-name="Trazado 194871" d="M2.228,95.81A1.112,1.112,0,1,0,1.9,96.6a1.113,1.113,0,0,0,.326-.788" transform="translate(0 -43.194)" fill="#7f4fc7"/>
          <path id="Trazado_194872-2" data-name="Trazado 194872" d="M10.5,95.81a1.112,1.112,0,1,0-.326.788,1.113,1.113,0,0,0,.326-.788" transform="translate(2.028 -43.194)" fill="#7f4fc7"/>
          <path id="Trazado_194873-2" data-name="Trazado 194873" d="M18.773,95.81a1.112,1.112,0,1,0-.326.788,1.113,1.113,0,0,0,.326-.788" transform="translate(4.056 -43.194)" fill="#7f4fc7"/>
          <path id="Trazado_194874-2" data-name="Trazado 194874" d="M27.046,95.81a1.112,1.112,0,1,0-.326.788,1.113,1.113,0,0,0,.326-.788" transform="translate(6.083 -43.194)" fill="#7f4fc7"/>
          <path id="Trazado_194875-2" data-name="Trazado 194875" d="M35.318,95.81a1.112,1.112,0,1,0-.326.788,1.113,1.113,0,0,0,.326-.788" transform="translate(8.111 -43.194)" fill="#7f4fc7"/>
          <path id="Trazado_194876-2" data-name="Trazado 194876" d="M43.587,95.81a1.112,1.112,0,1,0-.326.788,1.113,1.113,0,0,0,.326-.788" transform="translate(10.139 -43.194)" fill="#7f4fc7"/>
          <path id="Trazado_194877-2" data-name="Trazado 194877" d="M51.863,95.81a1.112,1.112,0,1,0-.326.788,1.113,1.113,0,0,0,.326-.788" transform="translate(12.167 -43.194)" fill="#7f4fc7"/>
          <path id="Trazado_194878-2" data-name="Trazado 194878" d="M60.136,95.81a1.113,1.113,0,1,0-1.113,1.113,1.113,1.113,0,0,0,1.113-1.113" transform="translate(14.194 -43.194)" fill="#7f4fc7"/>
          <path id="Trazado_194879-2" data-name="Trazado 194879" d="M68.409,95.81a1.112,1.112,0,1,0-.326.788,1.113,1.113,0,0,0,.326-.788" transform="translate(16.222 -43.194)" fill="#7f4fc7"/>
          <path id="Trazado_194880-2" data-name="Trazado 194880" d="M2.228,104.082a1.112,1.112,0,1,0-.326.788,1.113,1.113,0,0,0,.326-.788" transform="translate(0 -41.166)" fill="#7f4fc7"/>
          <path id="Trazado_194881-2" data-name="Trazado 194881" d="M10.5,104.082a1.112,1.112,0,1,0-.326.788,1.113,1.113,0,0,0,.326-.788" transform="translate(2.028 -41.166)" fill="#7f4fc7"/>
          <path id="Trazado_194882-2" data-name="Trazado 194882" d="M18.773,104.082a1.112,1.112,0,1,0-.326.788,1.113,1.113,0,0,0,.326-.788" transform="translate(4.056 -41.166)" fill="#7f4fc7"/>
          <path id="Trazado_194883-2" data-name="Trazado 194883" d="M27.046,104.082a1.112,1.112,0,1,0-.326.788,1.113,1.113,0,0,0,.326-.788" transform="translate(6.083 -41.166)" fill="#7f4fc7"/>
          <path id="Trazado_194884-2" data-name="Trazado 194884" d="M35.318,104.082a1.112,1.112,0,1,0-.326.788,1.113,1.113,0,0,0,.326-.788" transform="translate(8.111 -41.166)" fill="#7f4fc7"/>
          <path id="Trazado_194885-2" data-name="Trazado 194885" d="M43.587,104.082a1.112,1.112,0,1,0-.326.788,1.113,1.113,0,0,0,.326-.788" transform="translate(10.139 -41.166)" fill="#7f4fc7"/>
          <path id="Trazado_194886-2" data-name="Trazado 194886" d="M51.863,104.082a1.112,1.112,0,1,0-.326.788,1.113,1.113,0,0,0,.326-.788" transform="translate(12.167 -41.166)" fill="#7f4fc7"/>
          <path id="Trazado_194887-2" data-name="Trazado 194887" d="M60.136,104.082a1.113,1.113,0,1,0-1.113,1.113,1.113,1.113,0,0,0,1.113-1.113" transform="translate(14.194 -41.166)" fill="#7f4fc7"/>
          <path id="Trazado_194888-2" data-name="Trazado 194888" d="M68.409,104.082a1.112,1.112,0,1,0-.326.788,1.113,1.113,0,0,0,.326-.788" transform="translate(16.222 -41.166)" fill="#7f4fc7"/>
          <path id="Trazado_194889-2" data-name="Trazado 194889" d="M2.228,112.355a1.112,1.112,0,1,0-.326.788,1.113,1.113,0,0,0,.326-.788" transform="translate(0 -39.138)" fill="#7f4fc7"/>
          <path id="Trazado_194890-2" data-name="Trazado 194890" d="M10.5,112.355a1.112,1.112,0,1,0-.326.788,1.113,1.113,0,0,0,.326-.788" transform="translate(2.028 -39.138)" fill="#7f4fc7"/>
          <path id="Trazado_194891-2" data-name="Trazado 194891" d="M18.773,112.355a1.112,1.112,0,1,0-.326.788,1.113,1.113,0,0,0,.326-.788" transform="translate(4.056 -39.138)" fill="#7f4fc7"/>
          <path id="Trazado_194892-2" data-name="Trazado 194892" d="M27.046,112.355a1.112,1.112,0,1,0-.326.788,1.113,1.113,0,0,0,.326-.788" transform="translate(6.083 -39.138)" fill="#7f4fc7"/>
          <path id="Trazado_194893-2" data-name="Trazado 194893" d="M35.318,112.355a1.112,1.112,0,1,0-.326.788,1.113,1.113,0,0,0,.326-.788" transform="translate(8.111 -39.138)" fill="#7f4fc7"/>
          <path id="Trazado_194894-2" data-name="Trazado 194894" d="M43.587,112.355a1.112,1.112,0,1,0-.326.788,1.113,1.113,0,0,0,.326-.788" transform="translate(10.139 -39.138)" fill="#7f4fc7"/>
          <path id="Trazado_194895-2" data-name="Trazado 194895" d="M51.863,112.355a1.112,1.112,0,1,0-.326.788,1.113,1.113,0,0,0,.326-.788" transform="translate(12.167 -39.138)" fill="#7f4fc7"/>
          <path id="Trazado_194896-2" data-name="Trazado 194896" d="M60.136,112.355a1.113,1.113,0,1,0-1.113,1.113,1.113,1.113,0,0,0,1.113-1.113" transform="translate(14.194 -39.138)" fill="#7f4fc7"/>
          <path id="Trazado_194897-2" data-name="Trazado 194897" d="M68.409,112.355a1.112,1.112,0,1,0-.326.788,1.113,1.113,0,0,0,.326-.788" transform="translate(16.222 -39.138)" fill="#7f4fc7"/>
          <path id="Trazado_194898-2" data-name="Trazado 194898" d="M2.228,120.627a1.112,1.112,0,1,0-.326.788,1.113,1.113,0,0,0,.326-.788" transform="translate(0 -37.111)" fill="#7f4fc7"/>
          <path id="Trazado_194899-2" data-name="Trazado 194899" d="M10.5,120.627a1.112,1.112,0,1,0-.326.788,1.113,1.113,0,0,0,.326-.788" transform="translate(2.028 -37.111)" fill="#7f4fc7"/>
          <path id="Trazado_194900-2" data-name="Trazado 194900" d="M18.773,120.627a1.112,1.112,0,1,0-.326.788,1.113,1.113,0,0,0,.326-.788" transform="translate(4.056 -37.111)" fill="#7f4fc7"/>
          <path id="Trazado_194901-2" data-name="Trazado 194901" d="M27.046,120.627a1.112,1.112,0,1,0-.326.788,1.113,1.113,0,0,0,.326-.788" transform="translate(6.083 -37.111)" fill="#7f4fc7"/>
          <path id="Trazado_194902-2" data-name="Trazado 194902" d="M35.318,120.627a1.112,1.112,0,1,0-.326.788,1.113,1.113,0,0,0,.326-.788" transform="translate(8.111 -37.111)" fill="#7f4fc7"/>
          <path id="Trazado_194903-2" data-name="Trazado 194903" d="M43.587,120.627a1.112,1.112,0,1,0-.326.788,1.113,1.113,0,0,0,.326-.788" transform="translate(10.139 -37.111)" fill="#7f4fc7"/>
          <path id="Trazado_194904-2" data-name="Trazado 194904" d="M51.863,120.627a1.112,1.112,0,1,0-.326.788,1.113,1.113,0,0,0,.326-.788" transform="translate(12.167 -37.111)" fill="#7f4fc7"/>
          <path id="Trazado_194905-2" data-name="Trazado 194905" d="M60.136,120.627a1.113,1.113,0,1,0-1.113,1.113,1.113,1.113,0,0,0,1.113-1.113" transform="translate(14.194 -37.111)" fill="#7f4fc7"/>
          <path id="Trazado_194906-2" data-name="Trazado 194906" d="M68.409,120.627a1.112,1.112,0,1,0-.326.788,1.113,1.113,0,0,0,.326-.788" transform="translate(16.222 -37.111)" fill="#7f4fc7"/>
        </g>
      </g>
      <g id="Grupo_155254" data-name="Grupo 155254" transform="translate(29.69 403.11)">
        <g id="Grupo_154318" data-name="Grupo 154318">
          <g id="Grupo_154315" data-name="Grupo 154315" transform="translate(32.747 9.551)">
            <path id="Trazado_195058" data-name="Trazado 195058" d="M14.017,225.789H54.543a1.523,1.523,0,0,0,0-3.038H14.017a1.523,1.523,0,1,0,0,3.038" transform="translate(-12.394 -222.747)" fill="#12263f"/>
            <path id="Trazado_195059" data-name="Trazado 195059" d="M83.974,225.789H94.206a1.523,1.523,0,0,0,0-3.038H83.974a1.523,1.523,0,1,0,0,3.038" transform="translate(-35.06 -222.747)" fill="#12263f"/>
            <path id="Trazado_195064" data-name="Trazado 195064" d="M112.811,232.612H84.346a1.067,1.067,0,1,0,0,2.134h28.469a1.067,1.067,0,1,0,0-2.134" transform="translate(-35.33 -225.943)" fill="#12263f"/>
            <path id="Trazado_195065" data-name="Trazado 195065" d="M73.867,232.612H66.681a1.067,1.067,0,1,0,0,2.134h7.186a1.067,1.067,0,1,0,0-2.134" transform="translate(-29.607 -225.943)" fill="#12263f"/>
          </g>
          <g id="Grupo_154316" data-name="Grupo 154316">
            <path id="Trazado_195062" data-name="Trazado 195062" d="M161.607,1.333H113.762c-.991,0-1.793.476-1.793,1.067s.8,1.068,1.793,1.068h47.845c.991,0,1.794-.476,1.794-1.068s-.8-1.067-1.794-1.067" transform="translate(-80.777 -1.333)" fill="#12263f"/>
            <path id="Trazado_195063" data-name="Trazado 195063" d="M115.873,1.333H97.1c-1.541,0-2.787.476-2.787,1.067S95.556,3.467,97.1,3.467h18.777c1.541,0,2.787-.476,2.787-1.068s-1.247-1.067-2.787-1.067" transform="translate(-94.309 -1.333)" fill="#12263f"/>
          </g>
        </g>
      </g>
      <g id="Grupo_154801" data-name="Grupo 154801" transform="translate(0.93 386.815)">
        <g id="Grupo_154721" data-name="Grupo 154721" clip-path="url(#clip-path-3)">
          <line id="Línea_1878" data-name="Línea 1878" x1="21.605" y2="101.839" transform="translate(61.14 29.463)" fill="none" stroke="#1e0b4a" stroke-linecap="round" stroke-linejoin="round" stroke-width="1.052"/>
          <path id="Trazado_196481" data-name="Trazado 196481" d="M238.009,274.732a8.116,8.116,0,1,1-8.116-8.116,8.116,8.116,0,0,1,8.116,8.116" transform="translate(-147.148 -245.268)" fill="#c8b29e"/>
          <path id="Trazado_196482" data-name="Trazado 196482" d="M250.969,334.8c-8.993,25.883-37.317,39.553-37.317,39.553s-13.743-28.29-4.749-54.171,37.317-39.552,37.317-39.552,13.743,28.289,4.749,54.17" transform="translate(-144.709 -243.048)" fill="#12263f"/>
          <path id="Trazado_196483" data-name="Trazado 196483" d="M294.477,324.773c4.17,39.347-24.428,74.631-24.428,74.631s-35.357-28.508-39.526-67.855,24.429-74.631,24.429-74.631,35.356,28.508,39.525,67.855" transform="translate(-213.683 -246.805)" fill="#c8b29e"/>
          <path id="Trazado_196484" data-name="Trazado 196484" d="M301.225,323.107A14.827,14.827,0,1,1,286.4,308.28a14.827,14.827,0,0,1,14.827,14.827" transform="translate(-268.053 -238.666)" fill="#12263f"/>
          <line id="Línea_1879" data-name="Línea 1879" x2="14.585" y2="137.648" transform="translate(41.781 14.95)" fill="none" stroke="#1e0b4a" stroke-linecap="round" stroke-linejoin="round" stroke-width="1.052"/>
          <line id="Línea_1880" data-name="Línea 1880" y1="17.929" x2="27.876" transform="translate(50.522 79.509)" fill="none" stroke="#1e0b4a" stroke-linecap="round" stroke-linejoin="round" stroke-width="1.052"/>
          <line id="Línea_1881" data-name="Línea 1881" x1="23.957" y1="12.551" transform="translate(22.858 49.911)" fill="none" stroke="#1e0b4a" stroke-linecap="round" stroke-linejoin="round" stroke-width="1.052"/>
          <line id="Línea_1882" data-name="Línea 1882" x2="26.068" y2="53.467" transform="translate(18.345 84.441)" fill="none" stroke="#1e0b4a" stroke-linecap="round" stroke-linejoin="round" stroke-width="1.052"/>
        </g>
      </g>
      <g id="Grupo_155255" data-name="Grupo 155255" transform="translate(0.931 23.371)">
        <g id="Grupo_154317" data-name="Grupo 154317">
          <g id="Grupo_154315-2" data-name="Grupo 154315" transform="translate(47.652 8.224)">
            <path id="Trazado_195058-2" data-name="Trazado 195058" d="M14.7,227.158H73.5a2.2,2.2,0,1,0,0-4.407H14.7a2.2,2.2,0,1,0,0,4.407" transform="translate(-12.5 -222.751)" fill="#594f46"/>
            <path id="Trazado_195059-2" data-name="Trazado 195059" d="M84.665,227.158H99.51a2.2,2.2,0,1,0,0-4.407H84.665a2.2,2.2,0,1,0,0,4.407" transform="translate(-13.851 -222.751)" fill="#594f46"/>
            <path id="Trazado_195064-2" data-name="Trazado 195064" d="M126.12,232.612h-41.3a1.548,1.548,0,1,0,0,3.1h41.3a1.548,1.548,0,0,0,0-3.1" transform="translate(-13.866 -222.941)" fill="#594f46"/>
            <path id="Trazado_195065-2" data-name="Trazado 195065" d="M77.591,232.612H67.161a1.548,1.548,0,1,0,0,3.1H77.591a1.548,1.548,0,0,0,0-3.1" transform="translate(-13.525 -222.941)" fill="#594f46"/>
          </g>
          <g id="Grupo_154316-2" data-name="Grupo 154316">
            <path id="Trazado_195062-2" data-name="Trazado 195062" d="M183.977,1.333h-69.41c-1.437,0-2.6.694-2.6,1.547s1.164,1.548,2.6,1.548h69.408c1.437,0,2.6-.694,2.6-1.548s-1.166-1.547-2.6-1.547" transform="translate(-66.719 -1.333)" fill="#594f46"/>
            <path id="Trazado_195063-2" data-name="Trazado 195063" d="M125.591,1.333H98.352c-2.234,0-4.043.694-4.043,1.547s1.808,1.548,4.043,1.548h27.239c2.234,0,4.043-.694,4.043-1.548s-1.808-1.547-4.043-1.547" transform="translate(-94.309 -1.333)" fill="#594f46"/>
          </g>
        </g>
      </g>
      <g id="Grupo_155256" data-name="Grupo 155256" transform="translate(200.263 155.617)">
        <rect id="Rectángulo_45220" data-name="Rectángulo 45220" width="106.857" height="25.376" transform="translate(48.291) rotate(90)" fill="#594f46"/>
        <rect id="Rectángulo_45221" data-name="Rectángulo 45221" width="3.287" height="3.287" transform="translate(0 23.055) rotate(-90)" fill="#c8b29e"/>
        <rect id="Rectángulo_45222" data-name="Rectángulo 45222" width="3.287" height="3.287" transform="translate(0 30.038) rotate(-90)" fill="#c8b29e"/>
        <rect id="Rectángulo_45223" data-name="Rectángulo 45223" width="3.287" height="3.287" transform="translate(0 37.022) rotate(-90)" fill="#c8b29e"/>
        <rect id="Rectángulo_45224" data-name="Rectángulo 45224" width="3.286" height="3.287" transform="translate(0 44.005) rotate(-90)" fill="#c8b29e"/>
        <rect id="Rectángulo_45225" data-name="Rectángulo 45225" width="3.287" height="3.287" transform="translate(0 50.989) rotate(-90)" fill="#c8b29e"/>
        <rect id="Rectángulo_45226" data-name="Rectángulo 45226" width="3.286" height="3.287" transform="translate(0 57.972) rotate(-90)" fill="#c8b29e"/>
        <rect id="Rectángulo_45227" data-name="Rectángulo 45227" width="3.287" height="3.287" transform="translate(0 64.955) rotate(-90)" fill="#c8b29e"/>
        <rect id="Rectángulo_45228" data-name="Rectángulo 45228" width="3.286" height="3.287" transform="translate(0 71.939) rotate(-90)" fill="#c8b29e"/>
        <rect id="Rectángulo_45229" data-name="Rectángulo 45229" width="3.287" height="3.287" transform="translate(0 78.923) rotate(-90)" fill="#c8b29e"/>
        <rect id="Rectángulo_46135" data-name="Rectángulo 46135" width="3.287" height="3.287" transform="translate(0 99.873) rotate(-90)" fill="#c8b29e"/>
        <rect id="Rectángulo_46159" data-name="Rectángulo 46159" width="3.287" height="3.287" transform="translate(0 120.824) rotate(-90)" fill="#c8b29e"/>
        <rect id="Rectángulo_45230" data-name="Rectángulo 45230" width="3.287" height="3.287" transform="translate(0 85.906) rotate(-90)" fill="#c8b29e"/>
        <rect id="Rectángulo_46125" data-name="Rectángulo 46125" width="3.287" height="3.287" transform="translate(0 106.857) rotate(-90)" fill="#c8b29e"/>
        <rect id="Rectángulo_46160" data-name="Rectángulo 46160" width="3.287" height="3.287" transform="translate(0 127.807) rotate(-90)" fill="#c8b29e"/>
        <rect id="Rectángulo_46168" data-name="Rectángulo 46168" width="3.287" height="3.287" transform="translate(0 141.773) rotate(-90)" fill="#c8b29e"/>
        <rect id="Rectángulo_45231" data-name="Rectángulo 45231" width="3.287" height="3.287" transform="translate(0 92.889) rotate(-90)" fill="#c8b29e"/>
        <rect id="Rectángulo_46123" data-name="Rectángulo 46123" width="3.287" height="3.287" transform="translate(0 113.84) rotate(-90)" fill="#c8b29e"/>
        <rect id="Rectángulo_46161" data-name="Rectángulo 46161" width="3.287" height="3.287" transform="translate(0 134.79) rotate(-90)" fill="#c8b29e"/>
        <rect id="Rectángulo_46162" data-name="Rectángulo 46162" width="3.287" height="3.287" transform="translate(0 148.757) rotate(-90)" fill="#c8b29e"/>
        <rect id="Rectángulo_45232" data-name="Rectángulo 45232" width="3.287" height="3.287" transform="translate(6.984 23.055) rotate(-90)" fill="#c8b29e"/>
        <rect id="Rectángulo_45233" data-name="Rectángulo 45233" width="3.287" height="3.287" transform="translate(6.984 30.038) rotate(-90)" fill="#c8b29e"/>
        <rect id="Rectángulo_45234" data-name="Rectángulo 45234" width="3.287" height="3.287" transform="translate(6.984 37.022) rotate(-90)" fill="#c8b29e"/>
        <rect id="Rectángulo_45235" data-name="Rectángulo 45235" width="3.286" height="3.287" transform="translate(6.984 44.005) rotate(-90)" fill="#c8b29e"/>
        <rect id="Rectángulo_45236" data-name="Rectángulo 45236" width="3.287" height="3.287" transform="translate(6.984 50.989) rotate(-90)" fill="#c8b29e"/>
        <rect id="Rectángulo_45237" data-name="Rectángulo 45237" width="3.286" height="3.287" transform="translate(6.984 57.972) rotate(-90)" fill="#c8b29e"/>
        <rect id="Rectángulo_45238" data-name="Rectángulo 45238" width="3.287" height="3.287" transform="translate(6.984 64.955) rotate(-90)" fill="#c8b29e"/>
        <rect id="Rectángulo_45239" data-name="Rectángulo 45239" width="3.286" height="3.287" transform="translate(6.984 71.939) rotate(-90)" fill="#c8b29e"/>
        <rect id="Rectángulo_45240" data-name="Rectángulo 45240" width="3.287" height="3.287" transform="translate(6.984 78.923) rotate(-90)" fill="#c8b29e"/>
        <rect id="Rectángulo_46136" data-name="Rectángulo 46136" width="3.287" height="3.287" transform="translate(6.984 99.873) rotate(-90)" fill="#c8b29e"/>
        <rect id="Rectángulo_46156" data-name="Rectángulo 46156" width="3.287" height="3.287" transform="translate(6.984 120.824) rotate(-90)" fill="#c8b29e"/>
        <rect id="Rectángulo_45241" data-name="Rectángulo 45241" width="3.287" height="3.287" transform="translate(6.984 85.906) rotate(-90)" fill="#c8b29e"/>
        <rect id="Rectángulo_46126" data-name="Rectángulo 46126" width="3.287" height="3.287" transform="translate(6.984 106.857) rotate(-90)" fill="#c8b29e"/>
        <rect id="Rectángulo_46157" data-name="Rectángulo 46157" width="3.287" height="3.287" transform="translate(6.984 127.807) rotate(-90)" fill="#c8b29e"/>
        <rect id="Rectángulo_46169" data-name="Rectángulo 46169" width="3.287" height="3.287" transform="translate(6.984 141.773) rotate(-90)" fill="#c8b29e"/>
        <rect id="Rectángulo_45242" data-name="Rectángulo 45242" width="3.287" height="3.287" transform="translate(6.984 92.889) rotate(-90)" fill="#c8b29e"/>
        <rect id="Rectángulo_46124" data-name="Rectángulo 46124" width="3.287" height="3.287" transform="translate(6.984 113.84) rotate(-90)" fill="#c8b29e"/>
        <rect id="Rectángulo_46158" data-name="Rectángulo 46158" width="3.287" height="3.287" transform="translate(6.984 134.79) rotate(-90)" fill="#c8b29e"/>
        <rect id="Rectángulo_46163" data-name="Rectángulo 46163" width="3.287" height="3.287" transform="translate(6.984 148.757) rotate(-90)" fill="#c8b29e"/>
        <rect id="Rectángulo_45243" data-name="Rectángulo 45243" width="3.287" height="3.287" transform="translate(12.856 23.055) rotate(-90)" fill="#c8b29e"/>
        <rect id="Rectángulo_45244" data-name="Rectángulo 45244" width="3.287" height="3.287" transform="translate(12.856 30.038) rotate(-90)" fill="#c8b29e"/>
        <rect id="Rectángulo_45245" data-name="Rectángulo 45245" width="3.287" height="3.287" transform="translate(12.856 37.022) rotate(-90)" fill="#c8b29e"/>
        <rect id="Rectángulo_45246" data-name="Rectángulo 45246" width="3.286" height="3.287" transform="translate(12.856 44.005) rotate(-90)" fill="#c8b29e"/>
        <rect id="Rectángulo_45247" data-name="Rectángulo 45247" width="3.287" height="3.287" transform="translate(12.856 50.989) rotate(-90)" fill="#c8b29e"/>
        <rect id="Rectángulo_45248" data-name="Rectángulo 45248" width="3.286" height="3.287" transform="translate(12.856 57.972) rotate(-90)" fill="#c8b29e"/>
        <rect id="Rectángulo_45249" data-name="Rectángulo 45249" width="3.287" height="3.287" transform="translate(12.856 64.955) rotate(-90)" fill="#c8b29e"/>
        <rect id="Rectángulo_45250" data-name="Rectángulo 45250" width="3.286" height="3.287" transform="translate(12.856 71.939) rotate(-90)" fill="#c8b29e"/>
        <rect id="Rectángulo_45251" data-name="Rectángulo 45251" width="3.287" height="3.287" transform="translate(12.856 78.923) rotate(-90)" fill="#c8b29e"/>
        <rect id="Rectángulo_46137" data-name="Rectángulo 46137" width="3.287" height="3.287" transform="translate(12.856 99.873) rotate(-90)" fill="#c8b29e"/>
        <rect id="Rectángulo_46146" data-name="Rectángulo 46146" width="3.287" height="3.287" transform="translate(12.856 120.824) rotate(-90)" fill="#c8b29e"/>
        <rect id="Rectángulo_45252" data-name="Rectángulo 45252" width="3.287" height="3.287" transform="translate(12.856 85.906) rotate(-90)" fill="#c8b29e"/>
        <rect id="Rectángulo_46127" data-name="Rectángulo 46127" width="3.287" height="3.287" transform="translate(12.856 106.857) rotate(-90)" fill="#c8b29e"/>
        <rect id="Rectángulo_46147" data-name="Rectángulo 46147" width="3.287" height="3.287" transform="translate(12.856 127.807) rotate(-90)" fill="#c8b29e"/>
        <rect id="Rectángulo_46170" data-name="Rectángulo 46170" width="3.287" height="3.287" transform="translate(12.856 141.773) rotate(-90)" fill="#c8b29e"/>
        <rect id="Rectángulo_45253" data-name="Rectángulo 45253" width="3.287" height="3.287" transform="translate(12.856 92.889) rotate(-90)" fill="#c8b29e"/>
        <rect id="Rectángulo_46128" data-name="Rectángulo 46128" width="3.287" height="3.287" transform="translate(12.856 113.84) rotate(-90)" fill="#c8b29e"/>
        <rect id="Rectángulo_46148" data-name="Rectángulo 46148" width="3.287" height="3.287" transform="translate(12.856 134.79) rotate(-90)" fill="#c8b29e"/>
        <rect id="Rectángulo_46164" data-name="Rectángulo 46164" width="3.287" height="3.287" transform="translate(12.856 148.757) rotate(-90)" fill="#c8b29e"/>
        <rect id="Rectángulo_45221-2" data-name="Rectángulo 45221" width="3.287" height="3.287" transform="translate(18.747 23.055) rotate(-90)" fill="#c8b29e"/>
        <rect id="Rectángulo_45222-2" data-name="Rectángulo 45222" width="3.287" height="3.287" transform="translate(18.747 30.038) rotate(-90)" fill="#c8b29e"/>
        <rect id="Rectángulo_45223-2" data-name="Rectángulo 45223" width="3.287" height="3.287" transform="translate(18.747 37.022) rotate(-90)" fill="#c8b29e"/>
        <rect id="Rectángulo_45224-2" data-name="Rectángulo 45224" width="3.286" height="3.287" transform="translate(18.747 44.005) rotate(-90)" fill="#c8b29e"/>
        <rect id="Rectángulo_45225-2" data-name="Rectángulo 45225" width="3.287" height="3.287" transform="translate(18.747 50.989) rotate(-90)" fill="#c8b29e"/>
        <rect id="Rectángulo_45226-2" data-name="Rectángulo 45226" width="3.286" height="3.287" transform="translate(18.747 57.972) rotate(-90)" fill="#c8b29e"/>
        <rect id="Rectángulo_45227-2" data-name="Rectángulo 45227" width="3.287" height="3.287" transform="translate(18.747 64.955) rotate(-90)" fill="#c8b29e"/>
        <rect id="Rectángulo_45228-2" data-name="Rectángulo 45228" width="3.286" height="3.287" transform="translate(18.747 71.939) rotate(-90)" fill="#c8b29e"/>
        <rect id="Rectángulo_45229-2" data-name="Rectángulo 45229" width="3.287" height="3.287" transform="translate(18.747 78.923) rotate(-90)" fill="#c8b29e"/>
        <rect id="Rectángulo_46138" data-name="Rectángulo 46138" width="3.287" height="3.287" transform="translate(18.747 99.873) rotate(-90)" fill="#c8b29e"/>
        <rect id="Rectángulo_46149" data-name="Rectángulo 46149" width="3.287" height="3.287" transform="translate(18.747 120.824) rotate(-90)" fill="#c8b29e"/>
        <rect id="Rectángulo_45230-2" data-name="Rectángulo 45230" width="3.287" height="3.287" transform="translate(18.747 85.906) rotate(-90)" fill="#c8b29e"/>
        <rect id="Rectángulo_46129" data-name="Rectángulo 46129" width="3.287" height="3.287" transform="translate(18.747 106.857) rotate(-90)" fill="#c8b29e"/>
        <rect id="Rectángulo_46150" data-name="Rectángulo 46150" width="3.287" height="3.287" transform="translate(18.747 127.807) rotate(-90)" fill="#c8b29e"/>
        <rect id="Rectángulo_46171" data-name="Rectángulo 46171" width="3.287" height="3.287" transform="translate(18.747 141.773) rotate(-90)" fill="#c8b29e"/>
        <rect id="Rectángulo_45231-2" data-name="Rectángulo 45231" width="3.287" height="3.287" transform="translate(18.747 92.889) rotate(-90)" fill="#c8b29e"/>
        <rect id="Rectángulo_46130" data-name="Rectángulo 46130" width="3.287" height="3.287" transform="translate(18.747 113.84) rotate(-90)" fill="#c8b29e"/>
        <rect id="Rectángulo_46151" data-name="Rectángulo 46151" width="3.287" height="3.287" transform="translate(18.747 134.79) rotate(-90)" fill="#c8b29e"/>
        <rect id="Rectángulo_46165" data-name="Rectángulo 46165" width="3.287" height="3.287" transform="translate(18.747 148.757) rotate(-90)" fill="#c8b29e"/>
        <rect id="Rectángulo_45232-2" data-name="Rectángulo 45232" width="3.287" height="3.287" transform="translate(25.175 23.055) rotate(-90)" fill="#c8b29e"/>
        <rect id="Rectángulo_45233-2" data-name="Rectángulo 45233" width="3.287" height="3.287" transform="translate(25.175 30.038) rotate(-90)" fill="#c8b29e"/>
        <rect id="Rectángulo_45234-2" data-name="Rectángulo 45234" width="3.287" height="3.287" transform="translate(25.175 37.022) rotate(-90)" fill="#c8b29e"/>
        <rect id="Rectángulo_45235-2" data-name="Rectángulo 45235" width="3.286" height="3.287" transform="translate(25.175 44.005) rotate(-90)" fill="#c8b29e"/>
        <rect id="Rectángulo_45236-2" data-name="Rectángulo 45236" width="3.287" height="3.287" transform="translate(25.175 50.989) rotate(-90)" fill="#c8b29e"/>
        <rect id="Rectángulo_45237-2" data-name="Rectángulo 45237" width="3.286" height="3.287" transform="translate(25.175 57.972) rotate(-90)" fill="#c8b29e"/>
        <rect id="Rectángulo_45238-2" data-name="Rectángulo 45238" width="3.287" height="3.287" transform="translate(25.175 64.955) rotate(-90)" fill="#c8b29e"/>
        <rect id="Rectángulo_45239-2" data-name="Rectángulo 45239" width="3.286" height="3.287" transform="translate(25.175 71.939) rotate(-90)" fill="#c8b29e"/>
        <rect id="Rectángulo_45240-2" data-name="Rectángulo 45240" width="3.287" height="3.287" transform="translate(25.175 78.923) rotate(-90)" fill="#c8b29e"/>
        <rect id="Rectángulo_46139" data-name="Rectángulo 46139" width="3.287" height="3.287" transform="translate(25.175 99.873) rotate(-90)" fill="#c8b29e"/>
        <rect id="Rectángulo_46152" data-name="Rectángulo 46152" width="3.287" height="3.287" transform="translate(25.175 120.824) rotate(-90)" fill="#c8b29e"/>
        <rect id="Rectángulo_45241-2" data-name="Rectángulo 45241" width="3.287" height="3.287" transform="translate(25.175 85.906) rotate(-90)" fill="#c8b29e"/>
        <rect id="Rectángulo_46131" data-name="Rectángulo 46131" width="3.287" height="3.287" transform="translate(25.175 106.857) rotate(-90)" fill="#c8b29e"/>
        <rect id="Rectángulo_46153" data-name="Rectángulo 46153" width="3.287" height="3.287" transform="translate(25.175 127.807) rotate(-90)" fill="#c8b29e"/>
        <rect id="Rectángulo_46172" data-name="Rectángulo 46172" width="3.287" height="3.287" transform="translate(25.175 141.773) rotate(-90)" fill="#c8b29e"/>
        <rect id="Rectángulo_45242-2" data-name="Rectángulo 45242" width="3.287" height="3.287" transform="translate(25.175 92.889) rotate(-90)" fill="#c8b29e"/>
        <rect id="Rectángulo_46132" data-name="Rectángulo 46132" width="3.287" height="3.287" transform="translate(25.175 113.84) rotate(-90)" fill="#c8b29e"/>
        <rect id="Rectángulo_46154" data-name="Rectángulo 46154" width="3.287" height="3.287" transform="translate(25.175 134.79) rotate(-90)" fill="#c8b29e"/>
        <rect id="Rectángulo_46166" data-name="Rectángulo 46166" width="3.287" height="3.287" transform="translate(25.175 148.757) rotate(-90)" fill="#c8b29e"/>
        <rect id="Rectángulo_45243-2" data-name="Rectángulo 45243" width="3.287" height="3.287" transform="translate(31.603 23.055) rotate(-90)" fill="#c8b29e"/>
        <rect id="Rectángulo_45244-2" data-name="Rectángulo 45244" width="3.287" height="3.287" transform="translate(31.603 30.038) rotate(-90)" fill="#c8b29e"/>
        <rect id="Rectángulo_45245-2" data-name="Rectángulo 45245" width="3.287" height="3.287" transform="translate(31.603 37.022) rotate(-90)" fill="#c8b29e"/>
        <rect id="Rectángulo_45246-2" data-name="Rectángulo 45246" width="3.286" height="3.287" transform="translate(31.603 44.005) rotate(-90)" fill="#c8b29e"/>
        <rect id="Rectángulo_45247-2" data-name="Rectángulo 45247" width="3.287" height="3.287" transform="translate(31.603 50.989) rotate(-90)" fill="#c8b29e"/>
        <rect id="Rectángulo_45248-2" data-name="Rectángulo 45248" width="3.286" height="3.287" transform="translate(31.603 57.972) rotate(-90)" fill="#c8b29e"/>
        <rect id="Rectángulo_45249-2" data-name="Rectángulo 45249" width="3.287" height="3.287" transform="translate(31.603 64.955) rotate(-90)" fill="#c8b29e"/>
        <rect id="Rectángulo_45250-2" data-name="Rectángulo 45250" width="3.286" height="3.287" transform="translate(31.603 71.939) rotate(-90)" fill="#c8b29e"/>
        <rect id="Rectángulo_45251-2" data-name="Rectángulo 45251" width="3.287" height="3.287" transform="translate(31.603 78.923) rotate(-90)" fill="#c8b29e"/>
        <rect id="Rectángulo_46140" data-name="Rectángulo 46140" width="3.287" height="3.287" transform="translate(31.603 99.873) rotate(-90)" fill="#c8b29e"/>
        <rect id="Rectángulo_46144" data-name="Rectángulo 46144" width="3.287" height="3.287" transform="translate(31.603 120.824) rotate(-90)" fill="#c8b29e"/>
        <rect id="Rectángulo_45252-2" data-name="Rectángulo 45252" width="3.287" height="3.287" transform="translate(31.603 85.906) rotate(-90)" fill="#c8b29e"/>
        <rect id="Rectángulo_46133" data-name="Rectángulo 46133" width="3.287" height="3.287" transform="translate(31.603 106.857) rotate(-90)" fill="#c8b29e"/>
        <rect id="Rectángulo_46145" data-name="Rectángulo 46145" width="3.287" height="3.287" transform="translate(31.603 127.807) rotate(-90)" fill="#c8b29e"/>
        <rect id="Rectángulo_46173" data-name="Rectángulo 46173" width="3.287" height="3.287" transform="translate(31.603 141.773) rotate(-90)" fill="#c8b29e"/>
        <rect id="Rectángulo_45253-2" data-name="Rectángulo 45253" width="3.287" height="3.287" transform="translate(31.603 92.889) rotate(-90)" fill="#c8b29e"/>
        <rect id="Rectángulo_46134" data-name="Rectángulo 46134" width="3.287" height="3.287" transform="translate(31.603 113.84) rotate(-90)" fill="#c8b29e"/>
        <rect id="Rectángulo_46155" data-name="Rectángulo 46155" width="3.287" height="3.287" transform="translate(31.603 134.79) rotate(-90)" fill="#c8b29e"/>
        <rect id="Rectángulo_46167" data-name="Rectángulo 46167" width="3.287" height="3.287" transform="translate(31.603 148.757) rotate(-90)" fill="#c8b29e"/>
      </g>
    </g>
    <g id="Group_1072817" data-name="Group 1072817" transform="translate(-132.54 -97.877)">
      <g id="Folder" transform="translate(130.388 160.408)">
        <g id="Group_1072703" data-name="Group 1072703">
          <path id="Path_610333" data-name="Path 610333" d="M84.2,156.449l3.044,49.345a3.334,3.334,0,0,0,3.328,3.127h88.834a3.331,3.331,0,0,0,3.332-3.332V167.16a3.332,3.332,0,0,0-3.354-3.332l-54.632.351a3.33,3.33,0,0,1-2.361-.958l-9.495-9.353a3.331,3.331,0,0,0-2.339-.958H87.528A3.334,3.334,0,0,0,84.2,156.449Z" transform="translate(-78.574 -152.91)" fill="#ffd277"/>
          <path id="Path_610334" data-name="Path 610334" d="M84.2,156.449l3.044,49.345a3.334,3.334,0,0,0,3.328,3.127h88.834a3.331,3.331,0,0,0,3.332-3.332V167.16a3.332,3.332,0,0,0-3.354-3.332l-54.632.351a3.33,3.33,0,0,1-2.361-.958l-9.495-9.353a3.331,3.331,0,0,0-2.339-.958H87.528A3.334,3.334,0,0,0,84.2,156.449Z" transform="translate(-78.574 -152.91)" opacity="0.4"/>
          <g id="Group_1072702" data-name="Group 1072702" transform="translate(0 21.764)">
            <path id="Path_610335" data-name="Path 610335" d="M80.4,170.055l7.41,60.484a2.142,2.142,0,0,0,2.128,1.882h94.594a2.145,2.145,0,0,0,2.136-1.975l4.761-60.483a2.143,2.143,0,0,0-2.136-2.312H82.532A2.143,2.143,0,0,0,80.4,170.055Z" transform="translate(-80.388 -167.651)" fill="#ffd277"/>
          </g>
        </g>
      </g>
      <g id="Character" transform="translate(146.89 141.172)">
        <g id="Group_1072816" data-name="Group 1072816">
          <path id="Path_610336" data-name="Path 610336" d="M138.215,227.438l7.917,3.772,7.282-11.426-4.258-8.822c-.4-.818-.836-1.738-1.29-2.792a12.094,12.094,0,0,1-.939-3.88,18.371,18.371,0,0,1,.128-4.965c.393-1.472-1.165-2.678-2.225-1.819s-2.24,4.887-1.454,9.747-4.874-.3-6.969-2.138-8.835-7.227-9.895-7.017c-1.552.307-1.509,2.071.625,3.861,2.16,1.812,8.168,7.614,7.171,8.7l-.047,0a5.951,5.951,0,0,0-5.164,4.618c-.539,2.395-.974,5.7.372,6.789A78.319,78.319,0,0,0,138.215,227.438Z" transform="translate(-125.431 -108.564)" fill="#ffbe9d"/>
          <g id="Group_1072709" data-name="Group 1072709" transform="translate(121.449)">
            <g id="Group_1072706" data-name="Group 1072706">
              <g id="Group_1072704" data-name="Group 1072704" transform="translate(6.882 9.557)">
                <path id="Path_610337" data-name="Path 610337" d="M251.939,151.145l.188,60.943-26.147,1.246-.754-14.823s-9.287,1.844-11.683-6.78c-1.531-5.51-1.149-48.087-1.149-48.087Z" transform="translate(-212.351 -143.645)" fill="#ffbe9d"/>
              </g>
              <g id="Group_1072705" data-name="Group 1072705">
                <path id="Path_610338" data-name="Path 610338" d="M208.71,152.738c1.761,3.642,10.147,10.305,10.147,10.305l3.788,10.153c3.291-2.576,7.71-2.429,8.546,3.354.605,4.178-4.592,5.023-4.592,5.023,3.025,5.147,5.076,9.31,9.48,14.206,4.766,5.3,7.437,5.832,12.606,5.919h5.7s11.664-9.746,9.359-35.416S238.361,148.1,232.852,141.69C223.882,131.244,202.833,140.581,208.71,152.738Z" transform="translate(-207.69 -137.172)" fill="#263238"/>
              </g>
            </g>
            <g id="Group_1072708" data-name="Group 1072708" transform="translate(1.261 9.804)">
              <g id="Group_1072707" data-name="Group 1072707">
                <path id="Path_610339" data-name="Path 610339" d="M262.04,184.582s-.252-.012-.729-.006a11.7,11.7,0,0,1-2.067-.244,14.806,14.806,0,0,1-6.685-3.552c-2.446-2.138-4.6-5.39-6.778-9.083-2.209-3.633-4.637-7.912-8.805-10.794a21.255,21.255,0,0,0-6.675-2.844c-2.275-.591-4.507-.954-6.613-1.363-4.2-.774-7.979-1.943-10.55-3.936a11.425,11.425,0,0,1-4.276-6.158,9.457,9.457,0,0,1-.236-2.79s-.038.25-.081.728a8.373,8.373,0,0,0,.2,2.089,11.428,11.428,0,0,0,4.259,6.3c2.6,2.049,6.416,3.251,10.629,4.041,4.171.853,9.033,1.417,13.17,4.184,4.09,2.823,6.515,7.057,8.734,10.685,2.191,3.685,4.383,6.957,6.879,9.1a14.68,14.68,0,0,0,6.8,3.505A8.225,8.225,0,0,0,262.04,184.582Z" transform="translate(-208.544 -143.812)" fill="#5d737c"/>
              </g>
            </g>
          </g>
          <g id="Group_1072721" data-name="Group 1072721" transform="translate(108.17 206.143)">
            <g id="Group_1072710" data-name="Group 1072710" transform="translate(9.301 109.73)">
              <path id="Path_610340" data-name="Path 610340" d="M240.455,351.118,229.828,513.711l-24.674-2.725s-.605-158.509.554-158.421S240.455,351.118,240.455,351.118Z" transform="translate(-204.996 -351.118)" fill="#ffbe9d"/>
            </g>
            <g id="Group_1072711" data-name="Group 1072711" transform="translate(63.886 108.761)">
              <path id="Path_610341" data-name="Path 610341" d="M274.571,350.462l27.757,161.2-21.934,3.333L241.967,358.123Z" transform="translate(-241.967 -350.462)" fill="#ffbe9d"/>
            </g>
            <g id="Group_1072712" data-name="Group 1072712">
              <path id="Path_610342" data-name="Path 610342" d="M286.757,283.994,324.6,501.314l-43.874,9.505L247.42,329.685l-7.46,176.24H199.213l7.323-228.587Z" transform="translate(-198.45 -276.538)" fill="#263238"/>
              <path id="Path_610343" data-name="Path 610343" d="M248.126,336.527l-7.183,169.689-.03.706H198.7l7.348-229.347.025-.778,80.995,6.721.568.046,37.944,217.883.121.7-45.311,9.817Zm38.248-51.586-78.88-6.545-7.273,227.049H239.5l7.708-182.087,34.356,186.837L324,501Z" transform="translate(-198.696 -276.796)" fill="#263238"/>
            </g>
            <g id="Group_1072714" data-name="Group 1072714" transform="translate(37.392 52.832)">
              <g id="Group_1072713" data-name="Group 1072713">
                <path id="Path_610344" data-name="Path 610344" d="M224.022,312.667a5.608,5.608,0,0,0,1.488.213l4.073.3c3.439.236,8.191.478,13.412.989s9.932,1.215,13.35,1.655l4.051.5a5.642,5.642,0,0,0,1.5.083,5.729,5.729,0,0,0-1.456-.378c-.946-.195-2.318-.449-4.017-.744-3.4-.579-8.1-1.36-13.356-1.884s-10.016-.669-13.463-.766c-1.723-.043-3.118-.062-4.084-.056A5.645,5.645,0,0,0,224.022,312.667Z" transform="translate(-224.022 -312.58)" fill="#dfaa99"/>
              </g>
            </g>
            <g id="Group_1072716" data-name="Group 1072716" transform="translate(7.239 22.327)">
              <g id="Group_1072715" data-name="Group 1072715">
                <path id="Path_610345" data-name="Path 610345" d="M203.6,305.774a2.579,2.579,0,0,0,1.013.272,13.789,13.789,0,0,0,2.848.139,16.473,16.473,0,0,0,14.575-10.475,13.849,13.849,0,0,0,.775-2.743,2.554,2.554,0,0,0,.065-1.047c-.133-.027-.369,1.441-1.341,3.579a17.217,17.217,0,0,1-14.116,10.144C205.083,305.883,203.615,305.639,203.6,305.774Z" transform="translate(-203.599 -291.919)" fill="#dfaa99"/>
              </g>
            </g>
            <g id="Group_1072718" data-name="Group 1072718" transform="translate(0.185 218.114)">
              <g id="Group_1072717" data-name="Group 1072717">
                <path id="Path_610346" data-name="Path 610346" d="M198.821,426.686c.01.213,9.216-.083,20.558-.66s20.531-1.218,20.519-1.429-9.213.083-20.559.661S198.811,426.475,198.821,426.686Z" transform="translate(-198.821 -424.528)" fill="#dfaa99"/>
              </g>
            </g>
            <g id="Group_1072720" data-name="Group 1072720" transform="translate(79.55 210.247)">
              <g id="Group_1072719" data-name="Group 1072719">
                <path id="Path_610347" data-name="Path 610347" d="M252.577,430.319a8.026,8.026,0,0,0,1.741-.433l4.664-1.4c3.938-1.181,9.393-2.752,15.471-4.287s11.631-2.731,15.657-3.558l4.772-.977a7.982,7.982,0,0,0,1.736-.444,8.053,8.053,0,0,0-1.787.149c-1.144.142-2.792.393-4.822.74-4.06.69-9.645,1.812-15.744,3.347s-11.546,3.2-15.448,4.513c-1.952.657-3.521,1.218-4.6,1.634A7.992,7.992,0,0,0,252.577,430.319Z" transform="translate(-252.577 -419.2)" fill="#dfaa99"/>
              </g>
            </g>
          </g>
          <g id="Group_1072761" data-name="Group 1072761" transform="translate(19.157 74.638)">
            <g id="Group_1072723" data-name="Group 1072723">
              <g id="Group_1072722" data-name="Group 1072722">
                <path id="Path_610348" data-name="Path 610348" d="M319.621,341.267H233.766l3.325-69.4c.548-13.633.465-15.26.8-27.847,0,0-12.817,15.5-22.9,26.363a20.539,20.539,0,0,1-23.843,4.572l-52.748-36.8,9.877-25.267,47.936,29.342c2.2-1.364,20.86-27.985,33.757-40.985a45.629,45.629,0,0,1,31.1-13.449,227.466,227.466,0,0,1,29.121,1.168,30.469,30.469,0,0,1,27.114,27.771c.933,11.141.183,24.074.183,46.057Z" transform="translate(-138.406 -187.725)" fill="#dfaa99"/>
              </g>
            </g>
            <g id="Group_1072724" data-name="Group 1072724" transform="translate(167.401 7.608)">
              <path id="Path_610349" data-name="Path 610349" d="M251.79,192.878c8.1,3.592,41.908,46.9,44.3,75.04,1.782,20.971-39.016,18.688-39.016,18.688s-2.783-86.044-1.565-84.827" transform="translate(-251.79 -192.878)" fill="#dfaa99"/>
            </g>
            <g id="Group_1072726" data-name="Group 1072726" transform="translate(175.675 14.944)">
              <g id="Group_1072725" data-name="Group 1072725">
                <path id="Path_610350" data-name="Path 610350" d="M257.394,197.847s.007.312.052.9c.053.67.121,1.524.205,2.573.174,2.237.4,5.473.619,9.477.456,8.007.846,19.08,1.225,31.31s.725,23.313,1.131,31.325c.2,4.007.4,7.246.57,9.483.087,1.051.158,1.9.214,2.575.052.588.094.9.094.9s0-.312-.034-.9c-.04-.672-.092-1.527-.155-2.578-.117-2.34-.276-5.556-.471-9.484-.351-8.012-.663-19.089-1.042-31.325s-.8-23.307-1.315-31.315c-.242-4-.506-7.24-.716-9.473-.108-1.05-.195-1.9-.264-2.57C257.443,198.154,257.394,197.847,257.394,197.847Z" transform="translate(-257.394 -197.847)" fill="#263238"/>
              </g>
            </g>
            <g id="Group_1072728" data-name="Group 1072728" transform="translate(179.012 70.148)">
              <g id="Group_1072727" data-name="Group 1072727">
                <path id="Path_610351" data-name="Path 610351" d="M259.656,235.238a11.512,11.512,0,0,0,1.158,1.611c.754.966,1.835,2.268,3.09,3.654s2.443,2.593,3.328,3.439a11.447,11.447,0,0,0,1.488,1.313,14.039,14.039,0,0,0-1.333-1.466c-.845-.884-2-2.11-3.255-3.492s-2.353-2.658-3.149-3.585A13.806,13.806,0,0,0,259.656,235.238Z" transform="translate(-259.654 -235.237)" fill="#263238"/>
              </g>
            </g>
            <g id="Group_1072730" data-name="Group 1072730" transform="translate(57.828 54.691)">
              <g id="Group_1072729" data-name="Group 1072729">
                <path id="Path_610352" data-name="Path 610352" d="M179.535,233.116a5.033,5.033,0,0,0-.179-1.245c-.149-.76-.376-1.81-.645-2.965s-.532-2.2-.734-2.944a5.06,5.06,0,0,0-.391-1.194,5.183,5.183,0,0,0,.18,1.251c.149.762.376,1.807.645,2.959s.529,2.188.732,2.937A5.319,5.319,0,0,0,179.535,233.116Z" transform="translate(-177.574 -224.768)" fill="#263238"/>
              </g>
            </g>
            <g id="Group_1072732" data-name="Group 1072732" transform="translate(54.973 54.22)">
              <g id="Group_1072731" data-name="Group 1072731">
                <path id="Path_610353" data-name="Path 610353" d="M175.65,234.006a39.266,39.266,0,0,0,1.24-4.744,39.339,39.339,0,0,0,.939-4.813,39.1,39.1,0,0,0-1.239,4.745A39.2,39.2,0,0,0,175.65,234.006Z" transform="translate(-175.64 -224.449)" fill="#263238"/>
              </g>
            </g>
            <g id="Group_1072734" data-name="Group 1072734" transform="translate(97.26 2.748)">
              <g id="Group_1072733" data-name="Group 1072733">
                <path id="Path_610354" data-name="Path 610354" d="M204.282,245.372s.179-.148.5-.45l1.38-1.336c1.19-1.168,2.91-2.863,4.958-5.033a82.263,82.263,0,0,0,6.738-8.032,46.53,46.53,0,0,0,6.129-11.266A31.454,31.454,0,0,0,226,206.618a26.065,26.065,0,0,0-2.275-10.2,14.979,14.979,0,0,0-4.443-5.454,14.356,14.356,0,0,0-1.608-1.056c-.382-.22-.589-.32-.589-.32-.028.046.812.447,2.123,1.471a15.163,15.163,0,0,1,4.32,5.455,26.127,26.127,0,0,1,2.188,10.119,31.434,31.434,0,0,1-2.024,12.518c-3.161,8.566-8.761,14.89-12.736,19.254-2.024,2.187-3.721,3.9-4.884,5.1l-1.339,1.378C204.431,245.194,204.282,245.372,204.282,245.372Z" transform="translate(-204.282 -189.586)" fill="#263238"/>
              </g>
            </g>
            <g id="Group_1072736" data-name="Group 1072736" transform="translate(91.132 14.055)">
              <g id="Group_1072735" data-name="Group 1072735">
                <path id="Path_610355" data-name="Path 610355" d="M200.131,197.63c0,.213,18.551.384,41.43.384s41.434-.171,41.434-.384-18.547-.385-41.434-.385S200.131,197.418,200.131,197.63Z" transform="translate(-200.131 -197.245)" fill="#263238"/>
              </g>
            </g>
            <g id="Group_1072738" data-name="Group 1072738" transform="translate(80.938 26.078)">
              <g id="Group_1072737" data-name="Group 1072737">
                <path id="Path_610356" data-name="Path 610356" d="M193.227,205.772c0,.213,23.06.385,51.5.385s51.506-.173,51.506-.385-23.056-.384-51.506-.384S193.227,205.561,193.227,205.772Z" transform="translate(-193.227 -205.388)" fill="#263238"/>
              </g>
            </g>
            <g id="Group_1072740" data-name="Group 1072740" transform="translate(68.288 38.514)">
              <g id="Group_1072739" data-name="Group 1072739">
                <path id="Path_610357" data-name="Path 610357" d="M184.659,214.2c0,.211,27.749.384,61.971.384s61.977-.173,61.977-.384-27.743-.385-61.977-.385S184.659,213.984,184.659,214.2Z" transform="translate(-184.659 -213.811)" fill="#263238"/>
              </g>
            </g>
            <g id="Group_1072742" data-name="Group 1072742" transform="translate(59.584 51.779)">
              <g id="Group_1072741" data-name="Group 1072741">
                <path id="Path_610358" data-name="Path 610358" d="M178.763,223.18c0,.213,31.738.385,70.883.385s70.89-.173,70.89-.385-31.733-.384-70.89-.384S178.763,222.969,178.763,223.18Z" transform="translate(-178.763 -222.796)" fill="#263238"/>
              </g>
            </g>
            <g id="Group_1072744" data-name="Group 1072744" transform="translate(99.219 67.118)">
              <g id="Group_1072743" data-name="Group 1072743">
                <path id="Path_610359" data-name="Path 610359" d="M205.609,233.569a5.957,5.957,0,0,0,1.109.078l3.18.071,11.7.123,38.6.112,38.605-.112,11.7-.123,3.182-.071a5.976,5.976,0,0,0,1.109-.078,6.081,6.081,0,0,0-1.109-.077l-3.182-.072-11.7-.123-38.605-.112-38.6.112-11.7.123-3.18.072A6.061,6.061,0,0,0,205.609,233.569Z" transform="translate(-205.609 -233.185)" fill="#263238"/>
              </g>
            </g>
            <g id="Group_1072746" data-name="Group 1072746" transform="translate(24.348 67.946)">
              <g id="Group_1072745" data-name="Group 1072745">
                <path id="Path_610360" data-name="Path 610360" d="M154.9,234.131c0,.211,14.662.384,32.747.384s32.75-.173,32.75-.384-14.659-.385-32.75-.385S154.9,233.919,154.9,234.131Z" transform="translate(-154.897 -233.746)" fill="#263238"/>
              </g>
            </g>
            <g id="Group_1072748" data-name="Group 1072748" transform="translate(45.254 81.626)">
              <g id="Group_1072747" data-name="Group 1072747">
                <path id="Path_610361" data-name="Path 610361" d="M169.057,243.4c0,.213,7.106.385,15.868.385s15.871-.173,15.871-.385-7.1-.384-15.871-.384S169.057,243.183,169.057,243.4Z" transform="translate(-169.057 -243.012)" fill="#263238"/>
              </g>
            </g>
            <g id="Group_1072750" data-name="Group 1072750" transform="translate(4.448 53.022)">
              <g id="Group_1072749" data-name="Group 1072749">
                <path id="Path_610362" data-name="Path 610362" d="M141.419,224.023c0,.213,10.859.384,24.25.384s24.252-.171,24.252-.384-10.856-.385-24.252-.385S141.419,223.811,141.419,224.023Z" transform="translate(-141.419 -223.638)" fill="#263238"/>
              </g>
            </g>
            <g id="Group_1072752" data-name="Group 1072752" transform="translate(98.209 83.187)">
              <g id="Group_1072751" data-name="Group 1072751">
                <path id="Path_610363" data-name="Path 610363" d="M204.925,244.453c0,.213,25.551.385,57.062.385s57.069-.173,57.069-.385-25.546-.384-57.069-.384S204.925,244.242,204.925,244.453Z" transform="translate(-204.925 -244.069)" fill="#263238"/>
              </g>
            </g>
            <g id="Group_1072754" data-name="Group 1072754" transform="translate(97.26 101.025)">
              <g id="Group_1072753" data-name="Group 1072753">
                <path id="Path_610364" data-name="Path 610364" d="M204.282,256.536c0,.213,18.632.384,41.61.384s41.613-.171,41.613-.384-18.626-.385-41.613-.385S204.282,256.324,204.282,256.536Z" transform="translate(-204.282 -256.151)" fill="#263238"/>
              </g>
            </g>
            <g id="Group_1072756" data-name="Group 1072756" transform="translate(97.26 115.404)">
              <g id="Group_1072755" data-name="Group 1072755">
                <path id="Path_610365" data-name="Path 610365" d="M204.282,266.274c0,.213,18.632.385,41.61.385s41.613-.173,41.613-.385-18.626-.384-41.613-.384S204.282,266.063,204.282,266.274Z" transform="translate(-204.282 -265.89)" fill="#263238"/>
              </g>
            </g>
            <g id="Group_1072758" data-name="Group 1072758" transform="translate(97.26 131.922)">
              <g id="Group_1072757" data-name="Group 1072757">
                <path id="Path_610366" data-name="Path 610366" d="M204.282,277.462c0,.213,18.632.385,41.61.385s41.613-.173,41.613-.385-18.626-.384-41.613-.384S204.282,277.249,204.282,277.462Z" transform="translate(-204.282 -277.078)" fill="#263238"/>
              </g>
            </g>
            <g id="Group_1072760" data-name="Group 1072760" transform="translate(4.233 42.705)">
              <g id="Group_1072759" data-name="Group 1072759">
                <path id="Path_610367" data-name="Path 610367" d="M141.273,217.035c0,.213,7.611.384,16.995.384s17-.171,17-.384-7.609-.385-17-.385S141.273,216.823,141.273,217.035Z" transform="translate(-141.273 -216.65)" fill="#263238"/>
              </g>
            </g>
          </g>
          <g id="Group_1072764" data-name="Group 1072764" transform="translate(209.13 471.333)">
            <path id="Path_610368" data-name="Path 610368" d="M289.941,456.414l3.726,15.086L268,474.386l-.919-14.947Z" transform="translate(-267.078 -456.414)" fill="#39808e"/>
            <g id="Group_1072762" data-name="Group 1072762" transform="translate(11.216 0.739)">
              <path id="Path_610369" data-name="Path 610369" d="M274.734,456.915c-.211.031.167,3.133.844,6.926s1.4,6.845,1.608,6.814-.167-3.131-.845-6.927S274.944,456.884,274.734,456.915Z" transform="translate(-274.675 -456.915)" fill="#263238"/>
            </g>
            <g id="Group_1072763" data-name="Group 1072763" transform="translate(0.817 12.132)">
              <path id="Path_610370" data-name="Path 610370" d="M267.632,468.828a21.658,21.658,0,0,0,3.718-.425l8.906-1.312c3.478-.527,6.622-1.06,8.881-1.519a17.721,17.721,0,0,0,3.614-.914,21.643,21.643,0,0,0-3.716.425l-8.907,1.313c-3.477.527-6.62,1.06-8.879,1.519A17.757,17.757,0,0,0,267.632,468.828Z" transform="translate(-267.632 -464.632)" fill="#263238"/>
            </g>
          </g>
          <g id="Group_1072815" data-name="Group 1072815" transform="translate(95.578 475.036)">
            <g id="Group_1072814" data-name="Group 1072814">
              <g id="Group_1072769" data-name="Group 1072769" transform="translate(0.085)">
                <g id="Group_1072766" data-name="Group 1072766">
                  <g id="Group_1072765" data-name="Group 1072765">
                    <path id="Path_610371" data-name="Path 610371" d="M209.2,461.894l.086-2.972,27.978.692-.18,9.8-1.729.071c-7.7.254-39.146.747-44.248-.926C185.413,466.689,209.2,461.894,209.2,461.894Z" transform="translate(-190.225 -458.922)" fill="#39808e"/>
                  </g>
                </g>
                <g id="Group_1072768" data-name="Group 1072768" transform="translate(36.764 2.26)" opacity="0.4">
                  <g id="Group_1072767" data-name="Group 1072767">
                    <path id="Path_610372" data-name="Path 610372" d="M215.126,468.235a9.661,9.661,0,0,1,3.687-5.858,9.4,9.4,0,0,1,6.557-1.878l-.17,7.785Z" transform="translate(-215.126 -460.453)" fill="#fff"/>
                  </g>
                </g>
              </g>
              <g id="Group_1072771" data-name="Group 1072771" transform="translate(0 5.727)" opacity="0.4">
                <g id="Group_1072770" data-name="Group 1072770">
                  <path id="Path_610373" data-name="Path 610373" d="M197.595,462.8s-8.348,2.206-7.344,3.6,32.8,2.086,46.858,1.168l-.031-.624-37.1-.5S199.216,462.906,197.595,462.8Z" transform="translate(-190.167 -462.801)" fill="#fff"/>
                </g>
              </g>
              <g id="Group_1072774" data-name="Group 1072774" transform="translate(0.085 8.847)">
                <g id="Group_1072773" data-name="Group 1072773">
                  <g id="Group_1072772" data-name="Group 1072772">
                    <path id="Path_610374" data-name="Path 610374" d="M237.489,465.925a2.445,2.445,0,0,1-.48.041l-1.378.053-5.067.108c-4.279.059-10.192.064-16.72-.074s-12.439-.394-16.712-.635l-5.058-.322-1.373-.111a2.536,2.536,0,0,1-.477-.062,2.546,2.546,0,0,1,.481-.006l1.376.047,5.063.214c4.274.18,10.18.4,16.707.536s12.434.171,16.712.173h5.067l1.377.01A2.71,2.71,0,0,1,237.489,465.925Z" transform="translate(-190.225 -464.914)" fill="#263238"/>
                  </g>
                </g>
              </g>
              <g id="Group_1072777" data-name="Group 1072777" transform="translate(7.232 5.381)">
                <g id="Group_1072776" data-name="Group 1072776">
                  <g id="Group_1072775" data-name="Group 1072775">
                    <path id="Path_610375" data-name="Path 610375" d="M197.643,466.986a7.353,7.353,0,0,0-2.575-4.412,4.5,4.5,0,0,1,2.575,4.412Z" transform="translate(-195.065 -462.566)" fill="#263238"/>
                  </g>
                </g>
              </g>
              <g id="Group_1072780" data-name="Group 1072780" transform="translate(16.683 3.459)">
                <g id="Group_1072779" data-name="Group 1072779">
                  <g id="Group_1072778" data-name="Group 1072778">
                    <path id="Path_610376" data-name="Path 610376" d="M202.9,463.619c-.08.047-.464-.44-.855-1.088s-.647-1.215-.567-1.262.464.438.855,1.088S202.983,463.57,202.9,463.619Z" transform="translate(-201.467 -461.265)" fill="#263238"/>
                  </g>
                </g>
              </g>
              <g id="Group_1072783" data-name="Group 1072783" transform="translate(18.689 3.06)">
                <g id="Group_1072782" data-name="Group 1072782">
                  <g id="Group_1072781" data-name="Group 1072781">
                    <path id="Path_610377" data-name="Path 610377" d="M204.537,462.6c-.065.068-.5-.235-.967-.676s-.8-.855-.737-.923.5.235.967.676S204.6,462.535,204.537,462.6Z" transform="translate(-202.826 -460.995)" fill="#263238"/>
                  </g>
                </g>
              </g>
              <g id="Group_1072786" data-name="Group 1072786" transform="translate(18.973 1.886)">
                <g id="Group_1072785" data-name="Group 1072785">
                  <g id="Group_1072784" data-name="Group 1072784">
                    <path id="Path_610378" data-name="Path 610378" d="M205.93,460.385a6.353,6.353,0,0,1-2.911-.031,6.353,6.353,0,0,1,2.911.031Z" transform="translate(-203.018 -460.199)" fill="#263238"/>
                  </g>
                </g>
              </g>
              <g id="Group_1072789" data-name="Group 1072789" transform="translate(19.111 0.198)">
                <g id="Group_1072788" data-name="Group 1072788">
                  <g id="Group_1072787" data-name="Group 1072787">
                    <path id="Path_610379" data-name="Path 610379" d="M206.415,459.087a4.1,4.1,0,0,1-3.3.176,8.887,8.887,0,0,1,1.652-.077A8.746,8.746,0,0,1,206.415,459.087Z" transform="translate(-203.112 -459.056)" fill="#263238"/>
                  </g>
                </g>
              </g>
              <g id="Group_1072792" data-name="Group 1072792" transform="translate(12.013 0.779)">
                <g id="Group_1072791" data-name="Group 1072791">
                  <g id="Group_1072790" data-name="Group 1072790">
                    <path id="Path_610380" data-name="Path 610380" d="M203.519,462.032a5.16,5.16,0,0,1-1.789-.05,10.532,10.532,0,0,1-1.9-.462,5.278,5.278,0,0,1-1.081-.474.971.971,0,0,1-.431-.565.706.706,0,0,1,.288-.71,3.285,3.285,0,0,1,4.038,1.05,3.178,3.178,0,0,1,.557,1.208,1.015,1.015,0,0,1,.037.484,5.071,5.071,0,0,0-.783-1.544,3.224,3.224,0,0,0-1.507-1.028,2.774,2.774,0,0,0-2.136.1c-.288.2-.185.54.127.735a5.379,5.379,0,0,0,1,.452,12.434,12.434,0,0,0,1.832.521C202.838,461.96,203.52,461.978,203.519,462.032Z" transform="translate(-198.304 -459.45)" fill="#263238"/>
                  </g>
                </g>
              </g>
              <g id="Group_1072795" data-name="Group 1072795" transform="translate(16.559 0.013)">
                <g id="Group_1072794" data-name="Group 1072794">
                  <g id="Group_1072793" data-name="Group 1072793">
                    <path id="Path_610381" data-name="Path 610381" d="M201.585,462.358a1.776,1.776,0,0,1-.179-1.248,2.927,2.927,0,0,1,.518-1.3,1.8,1.8,0,0,1,1.509-.88.713.713,0,0,1,.534.839,1.974,1.974,0,0,1-.322.793,5.374,5.374,0,0,1-.87,1.065,2.585,2.585,0,0,1-1.039.7c-.031-.046.363-.314.87-.87a6.29,6.29,0,0,0,.772-1.057c.254-.374.437-1.05-.01-1.14-.446-.053-.914.382-1.194.734a2.934,2.934,0,0,0-.533,1.152A6.7,6.7,0,0,0,201.585,462.358Z" transform="translate(-201.383 -458.931)" fill="#263238"/>
                  </g>
                </g>
              </g>
              <g id="Group_1072798" data-name="Group 1072798" transform="translate(36.879 2.004)">
                <g id="Group_1072797" data-name="Group 1072797">
                  <g id="Group_1072796" data-name="Group 1072796">
                    <path id="Path_610382" data-name="Path 610382" d="M225.215,460.5c-.007.064-.8-.093-2.058.028a8.728,8.728,0,0,0-7.423,5.655c-.45,1.184-.509,1.986-.571,1.977a1.613,1.613,0,0,1,.01-.563,7.384,7.384,0,0,1,.337-1.5,8.468,8.468,0,0,1,7.63-5.813,7.294,7.294,0,0,1,1.531.074A1.6,1.6,0,0,1,225.215,460.5Z" transform="translate(-215.146 -460.279)" fill="#263238"/>
                  </g>
                </g>
              </g>
              <g id="Group_1072801" data-name="Group 1072801" transform="translate(25.262 7.117)">
                <g id="Group_1072800" data-name="Group 1072800">
                  <g id="Group_1072799" data-name="Group 1072799">
                    <path id="Path_610383" data-name="Path 610383" d="M215.419,463.876a22.856,22.856,0,0,1-8.141-.1c.012-.1,1.828.055,4.07.078S215.41,463.779,215.419,463.876Z" transform="translate(-207.278 -463.742)" fill="#263238"/>
                  </g>
                </g>
              </g>
              <g id="Group_1072804" data-name="Group 1072804" transform="translate(38.037 7.35)">
                <g id="Group_1072803" data-name="Group 1072803">
                  <g id="Group_1072802" data-name="Group 1072802">
                    <path id="Path_610384" data-name="Path 610384" d="M216.755,463.912c.066.071-.156.382-.351.8s-.3.781-.4.774-.134-.444.1-.92S216.7,463.844,216.755,463.912Z" transform="translate(-215.931 -463.9)" fill="#263238"/>
                  </g>
                </g>
              </g>
              <g id="Group_1072807" data-name="Group 1072807" transform="translate(39.896 4.833)">
                <g id="Group_1072806" data-name="Group 1072806">
                  <g id="Group_1072805" data-name="Group 1072805">
                    <path id="Path_610385" data-name="Path 610385" d="M218.269,462.21c.065.066-.121.353-.416.638s-.586.464-.651.4.123-.353.416-.639S218.2,462.143,218.269,462.21Z" transform="translate(-217.19 -462.196)" fill="#263238"/>
                  </g>
                </g>
              </g>
              <g id="Group_1072810" data-name="Group 1072810" transform="translate(42.345 3.572)">
                <g id="Group_1072809" data-name="Group 1072809">
                  <g id="Group_1072808" data-name="Group 1072808">
                    <path id="Path_610386" data-name="Path 610386" d="M220.448,461.511c-.021.095-.391.083-.8.219s-.713.345-.784.282.17-.444.682-.6S220.479,461.425,220.448,461.511Z" transform="translate(-218.848 -461.341)" fill="#263238"/>
                  </g>
                </g>
              </g>
              <g id="Group_1072813" data-name="Group 1072813" transform="translate(45.205 3.168)">
                <g id="Group_1072812" data-name="Group 1072812">
                  <g id="Group_1072811" data-name="Group 1072811">
                    <path id="Path_610387" data-name="Path 610387" d="M221.634,461.136c.031.087-.131.226-.365.312s-.447.081-.48-.006.131-.227.365-.312S221.6,461.047,221.634,461.136Z" transform="translate(-220.785 -461.068)" fill="#263238"/>
                  </g>
                </g>
              </g>
            </g>
          </g>
        </g>
      </g>
    </g>
  </g>
</svg>
