<svg xmlns="http://www.w3.org/2000/svg" width="139" height="139" viewBox="0 0 139 139">
  <g id="Group_1073073" data-name="Group 1073073" transform="translate(-1046.871 -2719.081)">
    <g id="Group_1072365" data-name="Group 1072365" transform="translate(-387.797 -3162.919)">
      <g id="Group_1072229" data-name="Group 1072229" transform="translate(1434.668 5882)">
        <path id="Path_608385" data-name="Path 608385" d="M69.5,0A69.5,69.5,0,1,1,0,69.5,69.5,69.5,0,0,1,69.5,0Z" transform="translate(0)" fill="#fff"/>
      </g>
    </g>
    <g id="Group_1072836" data-name="Group 1072836" transform="translate(1076.919 2675.737)">
      <path id="Path_610462" data-name="Path 610462" d="M35.186,89.139,28.69,83.2H2v58.307H74.664V89.139Z" transform="translate(0)" fill="#d45947"/>
      <path id="Path_610463" data-name="Path 610463" d="M35.186,89.139,28.69,83.2H2v.979H28.69l6.5,5.956H74.664v-1Z" transform="translate(0)" fill="#e2675a"/>
      <path id="Path_610464" data-name="Path 610464" d="M36.6,147.7H97.589v37.623H36.6Z" transform="translate(-28.763 -53.618)" fill="#eff3f5"/>
      <path id="Path_610465" data-name="Path 610465" d="M46.709,180.353,52.664,176H87.706L74.664,218.65H2l11.709-38.3Z" transform="translate(0 -77.144)" fill="#f1786b"/>
      <path id="Path_610466" data-name="Path 610466" d="M13.709,181.534h33l5.956-4.353H87.351L87.706,176H52.664l-5.956,4.353h-33L2,218.65h.354Z" transform="translate(0 -77.144)" fill="#fc8e86"/>
    </g>
  </g>
</svg>
