<svg xmlns="http://www.w3.org/2000/svg" xmlns:xlink="http://www.w3.org/1999/xlink" width="153.333" height="257.848" viewBox="0 0 153.333 257.848">
  <defs>
    <clipPath id="clip-path">
      <rect id="Rectangle_377904" data-name="Rectangle 377904" width="96.918" height="105.773" fill="none"/>
    </clipPath>
  </defs>
  <g id="Group_1072976" data-name="Group 1072976" transform="translate(11965.669 12192.401)">
    <path id="Path_609949" data-name="Path 609949" d="M85.717,124.628a148.961,148.961,0,0,1-51.205-21.949A268.773,268.773,0,0,1,30,70.67,148.961,148.961,0,0,0,78.993,97.2c4.539,14.135,4.945,17.529,6.724,27.429" transform="translate(-11995.673 -12059.182)" fill="#fff"/>
    <g id="Group_1072529" data-name="Group 1072529" transform="translate(-12855.511 -12359.207)">
      <g id="Group_1072446" data-name="Group 1072446" transform="translate(920.856 193.52) rotate(-16)">
        <g id="Group_1072445" data-name="Group 1072445" clip-path="url(#clip-path)">
          <path id="Path_609694" data-name="Path 609694" d="M5,0H91.918a5,5,0,0,1,5,5V92.449a5,5,0,0,1-5,5H5a5,5,0,0,1-5-5V5A5,5,0,0,1,5,0Z" transform="translate(0 8.324)" fill="#fff6e2"/>
          <path id="Path_609692" data-name="Path 609692" d="M101.046,27.419C100.984,27.141,94.244,0,86.967,0c-.09,0-.181,0-.272.013a4.021,4.021,0,0,0-3.445,2.045c-.966,1.831-.422,4.457.315,6.549h1.708c-.753-1.969-1.355-4.4-.613-5.805a2.5,2.5,0,0,1,2.185-1.2c.049,0,.1-.007.147-.007,4.422,0,10.744,18.247,12.5,26.173a5.036,5.036,0,0,1-2.626,5.86c-2.1.813-4.446-.61-6.263-3.8A96.813,96.813,0,0,1,82.284,9.209a.8.8,0,1,0-1.543.4,98.589,98.589,0,0,0,8.475,21c2.264,3.977,4.755,4.819,6.456,4.819a4.967,4.967,0,0,0,1.764-.317c2.79-1.075,4.341-4.381,3.609-7.693" transform="translate(-16.419)" fill="#515151"/>
          <path id="Path_609693" data-name="Path 609693" d="M90.893,7.176a.638.638,0,1,0-1.178.491l.969,2.319h1.384Z" transform="translate(-18.24 -1.38)" fill="#515151"/>
        </g>
      </g>
      <g id="Group_1072652" data-name="Group 1072652" transform="translate(928.949 169.533) rotate(-17)">
        <g id="Group_1072648" data-name="Group 1072648" transform="translate(23.862 92.653)">
          <g id="Group_1072647" data-name="Group 1072647">
            <path id="Path_610144" data-name="Path 610144" d="M200.741,332.734H186.105a2,2,0,0,0-2,2v4.489a2,2,0,0,0,2,2h14.636a2,2,0,0,0,2-2v-4.489A2,2,0,0,0,200.741,332.734Zm-.572,5.918H186.677v-3.346H200.17Z" transform="translate(-184.105 -332.734)" fill="#66542f"/>
          </g>
        </g>
        <g id="Group_1072650" data-name="Group 1072650" transform="translate(0 56.902)">
          <g id="Group_1072649" data-name="Group 1072649" transform="translate(0 0)">
            <path id="Path_610145" data-name="Path 610145" d="M65.71,81.535l.021-.01L56.087,62.459a4.531,4.531,0,0,0-4.063-2.5H50.191V58.188A1.286,1.286,0,0,0,48.9,56.9H17.456a1.286,1.286,0,0,0-1.286,1.286V59.96H14.337a4.531,4.531,0,0,0-4.063,2.5L.631,81.525l.021.01A4.477,4.477,0,0,0,0,83.866v20.143a4.509,4.509,0,0,0,4.5,4.5H61.857a4.509,4.509,0,0,0,4.5-4.5V83.866A4.477,4.477,0,0,0,65.71,81.535ZM50.191,62.818h1.833a1.687,1.687,0,0,1,1.513.93l7.9,15.613h-5.37v-4.8a1.286,1.286,0,0,0-1.286-1.286H53.187v-6.9A1.286,1.286,0,0,0,51.9,65.087h-1.71Zm3.3,13.025v3.518H46.705A2.971,2.971,0,0,0,44,81.109l-1.853,4.11a.109.109,0,0,1-.1.064H24.312a.109.109,0,0,1-.1-.064l-1.853-4.11a2.972,2.972,0,0,0-2.7-1.748H12.869V75.844H53.492Zm-34.75-16.37H47.619v5.613H18.742Zm31.873,8.185v5.613H15.746V67.659Zm-37.79-3.91a1.687,1.687,0,0,1,1.513-.93H16.17v2.269H14.46a1.286,1.286,0,0,0-1.286,1.286v6.9H11.583A1.286,1.286,0,0,0,10.3,74.558v4.8H4.927Zm49.032,41.906H4.5a1.648,1.648,0,0,1-1.646-1.646V83.866A1.648,1.648,0,0,1,4.5,82.22H19.656a.109.109,0,0,1,.1.064l1.853,4.11a2.971,2.971,0,0,0,2.7,1.747H42.049a2.971,2.971,0,0,0,2.7-1.747l1.853-4.11h0a.109.109,0,0,1,.1-.064H61.857A1.648,1.648,0,0,1,63.5,83.866v20.143h0A1.648,1.648,0,0,1,61.857,105.655Z" transform="translate(0 -56.902)" fill="#66542f"/>
          </g>
        </g>
      </g>
    </g>
  </g>
</svg>
