<svg xmlns="http://www.w3.org/2000/svg" width="51.079" height="43.842" viewBox="0 0 51.079 43.842">
  <g id="Group_1072896" data-name="Group 1072896" transform="translate(-201.921 -773.356)">
    <path id="Path_610429" data-name="Path 610429" d="M18.177,16l18.242.2a3.928,3.928,0,0,1,3.4,2.378l1.1,2.911,20.1.067a2.657,2.657,0,0,1,2.622,2.676l-1.145,27.13A2.532,2.532,0,0,1,60,53.9H19.2a2.533,2.533,0,0,1-2.5-2.548L15.551,18.67A2.659,2.659,0,0,1,18.177,16" transform="translate(187.866 757.36)" fill="#a1894c"/>
    <path id="Path_610430" data-name="Path 610430" d="M61.746,34.754,18.265,38.062l-1.358-13.6,43.482-3.309Z" transform="translate(188.135 758.383)" fill="#e3e8ef"/>
    <path id="Path_610431" data-name="Path 610431" d="M62.6,24.119,43.22,24.3a4.215,4.215,0,0,0-3.609,2.139l-1.162,2.616-21.359.061A2.629,2.629,0,0,0,14.3,31.519l1.216,24.415a2.5,2.5,0,0,0,2.656,2.293H61.512a2.5,2.5,0,0,0,2.655-2.293l1.215-29.41A2.624,2.624,0,0,0,62.6,24.119" transform="translate(187.618 758.972)" fill="#ffd277"/>
  </g>
</svg>
